<?xml version="1.0" encoding="UTF-8" standalone="no"?>
<!-- Created with Inkscape (http://www.inkscape.org/) -->

<svg
   xmlns:dc="http://purl.org/dc/elements/1.1/"
   xmlns:cc="http://creativecommons.org/ns#"
   xmlns:rdf="http://www.w3.org/1999/02/22-rdf-syntax-ns#"
   xmlns:svg="http://www.w3.org/2000/svg"
   xmlns="http://www.w3.org/2000/svg"
   xmlns:sodipodi="http://sodipodi.sourceforge.net/DTD/sodipodi-0.dtd"
   xmlns:inkscape="http://www.inkscape.org/namespaces/inkscape"
   width="744.09448819"
   height="1052.3622047"
   id="svg2"
   version="1.1"
   inkscape:version="0.48.1 r9760"
   sodipodi:docname="cardBack.svg">
  <defs
     id="defs4" />
  <sodipodi:namedview
     id="base"
     pagecolor="#ffffff"
     bordercolor="#666666"
     borderopacity="1.0"
     inkscape:pageopacity="0.0"
     inkscape:pageshadow="2"
     inkscape:zoom="9.1984422"
     inkscape:cx="315.79525"
     inkscape:cy="740.55838"
     inkscape:document-units="px"
     inkscape:current-layer="layer1"
     showgrid="false"
     inkscape:window-width="1074"
     inkscape:window-height="656"
     inkscape:window-x="7"
     inkscape:window-y="24"
     inkscape:window-maximized="0" />
  <metadata
     id="metadata7">
    <rdf:RDF>
      <cc:Work
         rdf:about="">
        <dc:format>image/svg+xml</dc:format>
        <dc:type
           rdf:resource="http://purl.org/dc/dcmitype/StillImage" />
        <dc:title></dc:title>
      </cc:Work>
    </rdf:RDF>
  </metadata>
  <g
     inkscape:label="Layer 1"
     inkscape:groupmode="layer"
     id="layer1">
    <path
       style="fill:#cccccc;fill-opacity:1;stroke:none"
       d="m 303.42433,287.44864 21.72763,0 c 7.27745,0 14.57022,6.00143 13.13619,13.13618 -1.45569,7.24254 -1.63653,14.48509 0,21.72763 1.60398,7.09849 -5.85874,13.13619 -13.13619,13.13619 l -21.72763,0 c -7.27744,0 -14.98193,-6.09669 -13.13618,-13.13619 1.77226,-6.7592 2.00678,-13.93778 0,-21.72763 -1.8155,-7.04735 5.85874,-13.13618 13.13618,-13.13618 z"
       id="rect2987"
       inkscape:connector-curvature="0"
       sodipodi:nodetypes="sssssssss"
       inkscape:export-filename="/opt/lampp/htdocs/dev/memory/images/cardBack.png"
       inkscape:export-xdpi="90"
       inkscape:export-ydpi="90" />
    <path
       style="fill:#ffffff;stroke:none"
       d="m 303.22489,289.97868 c -0.71816,-0.92026 -9.64934,2.78482 -9.02538,6.31777 2.81245,20.79356 -0.0777,19.81195 -0.64467,26.94721 0.61047,6.00924 10.08961,8.91848 12.48306,7.41959 -4.43674,-2.46065 -10.0381,-4.55481 -9.00184,-8.19319 1.76606,-8.04339 1.58592,-16.41115 -0.77361,-25.14214 -0.94448,-2.68189 5.50729,-7.45214 8.31037,-6.7251"
       id="path2990"
       inkscape:connector-curvature="0"
       sodipodi:nodetypes="ccccccc"
       inkscape:export-filename="/opt/lampp/htdocs/dev/memory/images/cardBack.png"
       inkscape:export-xdpi="90"
       inkscape:export-ydpi="90" />
  </g>
</svg>
