<?xml version="1.0" encoding="UTF-8" standalone="no"?>
<!-- Created with Inkscape (http://www.inkscape.org/) -->

<svg
   xmlns:dc="http://purl.org/dc/elements/1.1/"
   xmlns:cc="http://creativecommons.org/ns#"
   xmlns:rdf="http://www.w3.org/1999/02/22-rdf-syntax-ns#"
   xmlns:svg="http://www.w3.org/2000/svg"
   xmlns="http://www.w3.org/2000/svg"
   xmlns:xlink="http://www.w3.org/1999/xlink"
   xmlns:sodipodi="http://sodipodi.sourceforge.net/DTD/sodipodi-0.dtd"
   xmlns:inkscape="http://www.inkscape.org/namespaces/inkscape"
   width="1100.0066"
   height="575.00568"
   id="svg2"
   version="1.1"
   inkscape:version="0.48.3.1 r9886"
   sodipodi:docname="000.svg">
  <defs
     id="defs4">
    <linearGradient
       inkscape:collect="always"
       id="linearGradient3795">
      <stop
         style="stop-color:#000000;stop-opacity:1;"
         offset="0"
         id="stop3797" />
      <stop
         style="stop-color:#000000;stop-opacity:0;"
         offset="1"
         id="stop3799" />
    </linearGradient>
    <linearGradient
       inkscape:collect="always"
       id="linearGradient3786">
      <stop
         style="stop-color:#999999;stop-opacity:1;"
         offset="0"
         id="stop3788" />
      <stop
         style="stop-color:#999999;stop-opacity:0;"
         offset="1"
         id="stop3790" />
    </linearGradient>
    <linearGradient
       inkscape:collect="always"
       id="linearGradient3775">
      <stop
         style="stop-color:#333333;stop-opacity:1;"
         offset="0"
         id="stop3777" />
      <stop
         style="stop-color:#333333;stop-opacity:0;"
         offset="1"
         id="stop3779" />
    </linearGradient>
    <linearGradient
       inkscape:collect="always"
       xlink:href="#linearGradient3786"
       id="linearGradient3794"
       x1="602.91083"
       y1="-183.92433"
       x2="607.44751"
       y2="257.66846"
       gradientUnits="userSpaceOnUse"
       gradientTransform="translate(-142.8504,280.7851)" />
    <linearGradient
       inkscape:collect="always"
       xlink:href="#linearGradient3795"
       id="linearGradient3801"
       x1="381.1951"
       y1="511.59256"
       x2="372.55234"
       y2="588.26562"
       gradientUnits="userSpaceOnUse" />
    <linearGradient
       inkscape:collect="always"
       xlink:href="#linearGradient3775"
       id="linearGradient3014"
       gradientUnits="userSpaceOnUse"
       gradientTransform="matrix(1,0,0,0.93870179,-142.8504,208.82923)"
       x1="444.39035"
       y1="0.71996629"
       x2="447.03986"
       y2="261.44275" />
  </defs>
  <sodipodi:namedview
     id="base"
     pagecolor="#ffffff"
     bordercolor="#666666"
     borderopacity="1.0"
     inkscape:pageopacity="0.0"
     inkscape:pageshadow="2"
     inkscape:zoom="0.63720339"
     inkscape:cx="477.16916"
     inkscape:cy="242.35454"
     inkscape:document-units="px"
     inkscape:current-layer="layer1"
     showgrid="false"
     inkscape:window-width="1311"
     inkscape:window-height="679"
     inkscape:window-x="11"
     inkscape:window-y="28"
     inkscape:window-maximized="0"
     showguides="true"
     inkscape:guide-bbox="true"
     fit-margin-top="0"
     fit-margin-left="0"
     fit-margin-right="0"
     fit-margin-bottom="0">
    <sodipodi:guide
       orientation="1,0"
       position="-1.1484286,622.44829"
       id="guide3025" />
    <sodipodi:guide
       orientation="1,0"
       position="1099.9933,757.14287"
       id="guide3027" />
    <sodipodi:guide
       orientation="0,1"
       position="1531.4218,574.28571"
       id="guide3031" />
    <sodipodi:guide
       orientation="0,1"
       position="1397.1361,-2.3431994e-09"
       id="guide3033" />
    <sodipodi:guide
       orientation="0,1"
       position="-973.72668,922.02438"
       id="guide3034" />
  </sodipodi:namedview>
  <metadata
     id="metadata7">
    <rdf:RDF>
      <cc:Work
         rdf:about="">
        <dc:format>image/svg+xml</dc:format>
        <dc:type
           rdf:resource="http://purl.org/dc/dcmitype/StillImage" />
        <dc:title />
      </cc:Work>
    </rdf:RDF>
  </metadata>
  <g
     inkscape:label="Layer 1"
     inkscape:groupmode="layer"
     id="layer1"
     transform="translate(142.8504,-208.7851)">
    <g
       id="g3036">
      <rect
         y="209.29033"
         x="-142.84595"
         height="574.50043"
         width="1099.9888"
         id="rect3023"
         style="fill:#000000;fill-opacity:1;fill-rule:evenodd;stroke:none" />
      <rect
         y="209.50507"
         x="-145.71429"
         height="245.01904"
         width="1102.8572"
         id="rect3005"
         style="fill:url(#linearGradient3014);fill-opacity:1;fill-rule:evenodd;stroke:none" />
      <path
         sodipodi:nodetypes="cscsccccccccccccc"
         inkscape:connector-curvature="0"
         id="path3006"
         d="m 453.59356,209.50507 c 16.49581,22.77586 16.05668,31.03078 25.75359,40.96854 18.97097,19.44218 44.90809,47.45392 -24.26611,17.97054 7.33487,17.75788 23.55673,39.22334 27.84495,46.68788 7.90509,13.76045 15.76268,20.02642 -25.29207,3.82102 22.62903,40.94865 48.33912,55.71619 81.05711,71.13175 -64.61577,19.50011 -91.70288,-8.66654 -107.52474,8.27114 68.1981,13.87002 70.85603,48.43693 105.87051,72.78598 l -231.59175,1.65422 34.73877,-56.24371 c -39.64585,-13.69954 -74.70351,2.42411 -110.8332,11.57959 34.1951,-34.22099 34.09667,-35.78147 104.21629,-104.21629 -25.34794,24.76278 -37.64949,10.3864 -56.24371,14.88804 35.1782,-12.67996 81.60255,-52.81235 91.60374,-90.87183 -24.14547,10.67184 -66.40533,11.22954 -84.98683,11.46895 32.95825,-9.83781 57.877,-26.86886 76.09443,-49.89582 z"
         style="fill:#000000;stroke:#000000;stroke-width:1px;stroke-linecap:butt;stroke-linejoin:miter;stroke-opacity:1" />
      <text
         sodipodi:linespacing="125%"
         id="text3018"
         y="566.16217"
         x="71.748932"
         style="font-size:87.60697937px;font-style:normal;font-variant:normal;font-weight:bold;font-stretch:normal;line-height:125%;letter-spacing:0px;word-spacing:0px;fill:#b3b3b3;fill-opacity:1;stroke:none;font-family:Tahoma;-inkscape-font-specification:Sans Bold"
         xml:space="preserve"><tspan
           y="566.16217"
           x="71.748932"
           id="tspan3020"
           sodipodi:role="line">Moonlight Story</tspan></text>
      <path
         inkscape:connector-curvature="0"
         id="path3010"
         d="m 559.92538,470.11729 c 0,-1.83973 0,-3.67945 0,-5.51918 0,-0.30662 -0.13712,-0.64561 0,-0.91986 3.05081,-3.05081 -0.43362,0.86725 0.91987,-1.83973 0.19392,-0.38785 0.72594,-0.53202 0.91986,-0.91986 0.28908,-0.57816 -0.28908,-3.1013 0,-3.67946 0.19393,-0.38785 0.72594,-0.53201 0.91986,-0.91986 0.3177,-0.63538 -0.32289,-4.27643 0,-4.59932 1.90324,-1.90323 -0.0744,2.90839 1.83973,-0.91986 0.27425,-0.5485 -0.43363,-1.4061 0,-1.83973 0.21682,-0.21682 0.78274,0.27425 0.91987,0 0.27425,-0.5485 -0.19393,-1.25796 0,-1.83973 0.27425,-0.82275 1.35866,-1.11813 1.83972,-1.83973 0.38032,-0.57047 0.43506,-1.35491 0.91987,-1.83972 0.48481,-0.48481 1.22648,-0.61325 1.83972,-0.91987 0.61325,-0.61324 1.29796,-1.16251 1.83973,-1.83972 0.69063,-0.86328 1.27093,-1.8116 1.83973,-2.75959 0.35275,-0.58792 0.43505,-1.35492 0.91986,-1.83973 1.12038,-1.12038 2.05517,-0.43089 2.75959,-1.83973 0.13713,-0.27425 0,-0.61324 0,-0.91986 0.30662,-0.61324 0.50849,-1.29123 0.91987,-1.83973 0.78053,-1.04071 2.03799,-1.67719 2.75959,-2.75959 0.62305,-0.93458 1.21667,-2.74487 1.83972,-3.67945 0.24054,-0.3608 0.67933,-0.55907 0.91987,-0.91987 0.38031,-0.57047 0.53954,-1.26925 0.91986,-1.83973 0.24053,-0.3608 0.72594,-0.53201 0.91986,-0.91986 0.13713,-0.27425 0,-0.61324 0,-0.91986 0.30663,-0.61324 0.53955,-1.26925 0.91987,-1.83973 1.40328,-2.10493 0.72813,0.57518 1.83973,-2.75959 0.097,-0.29089 -0.13713,-0.64561 0,-0.91986 0.19392,-0.38785 0.72593,-0.53202 0.91986,-0.91987 0.27137,-0.54274 -0.2109,-2.12688 0,-2.75959 0.21681,-0.65044 0.75357,-1.17457 0.91986,-1.83973 0.14874,-0.59493 -0.19392,-1.25795 0,-1.83972 0.13713,-0.41138 0.67933,-0.55907 0.91987,-0.91987 2.67836,-4.01754 -0.40769,0.30321 0.91986,-3.67945 0.13712,-0.41138 0.78274,-0.50849 0.91986,-0.91986 0.38081,-1.14243 -0.30236,-3.38987 0,-4.59932 0.16629,-0.66516 0.75358,-1.17457 0.91987,-1.83973 0.14873,-0.59493 -0.12027,-1.23839 0,-1.83973 0.19016,-0.95079 0.7297,-1.8088 0.91986,-2.75959 0.12027,-0.60133 -0.14873,-1.24479 0,-1.83972 0.16629,-0.66516 0.75358,-1.17458 0.91986,-1.83973 0.14874,-0.59493 -0.14873,-1.2448 0,-1.83973 0.16629,-0.66515 0.75358,-1.17457 0.91987,-1.83973 0.29746,-1.18986 -0.38785,-2.5159 0,-3.67945 0.13712,-0.41138 0.78274,-0.50849 0.91986,-0.91986 0.1794,-0.5382 0,-4.72964 0,-5.51919 0,-0.61324 0,-1.22648 0,-1.83972 0,-0.30662 -0.13712,-0.64562 0,-0.91987 0.19393,-0.38784 0.72594,-0.53201 0.91986,-0.91986 0.27137,-0.54274 -0.2109,-2.12688 0,-2.75959 0.21682,-0.65044 0.70305,-1.18929 0.91987,-1.83973 0.19392,-0.58177 -0.43363,-1.4061 0,-1.83973 0.21681,-0.21681 0.70305,0.21682 0.91986,0 0.43363,-0.43362 -0.27425,-1.29122 0,-1.83972 0.19393,-0.38785 0.72594,-0.53202 0.91987,-0.91987 0.13712,-0.27425 -0.13713,-0.64561 0,-0.91986 0.19392,-0.38785 0.72593,-0.53201 0.91986,-0.91986 0.13712,-0.27425 -0.21681,-0.70305 0,-0.91987 0.21681,-0.21681 0.70305,0.21682 0.91986,0 0.96962,-0.96962 1.01698,-2.58245 1.83973,-3.67945 0.96116,-1.28154 2.51895,-2.51895 3.67945,-3.67946 2.21241,-3.07748 8.37411,-4.03491 11.95823,-3.67945 3.23981,0.73497 6.42112,1.11891 10.1185,4.59932 0.22326,0.21016 0.70305,-0.21682 0.91986,0 0.21682,0.21681 -0.13712,0.64561 0,0.91986 0.19393,0.38785 0.72594,0.53202 0.91987,0.91987 0.13712,0.27425 -0.21682,0.70305 0,0.91986 0.21681,0.21681 0.70305,-0.21681 0.91986,0 0.21682,0.21681 -0.21681,0.70305 0,0.91986 2.33577,-0.10838 1.41919,3.05126 1.83973,5.51918 1.13668,2.27336 0.91986,-0.31751 0.91986,1.83973 0,0.22309 -0.0296,2.73001 0,2.75959 0.21682,0.21682 0.70305,-0.21681 0.91987,0 0.45993,0.45993 -0.45994,2.29966 0,2.75959 0.21681,0.21682 0.70305,-0.21681 0.91986,0 0.18805,0.18806 -0.18236,2.39488 0,2.75959 0.19392,0.38785 0.72594,0.53202 0.91986,0.91987 0.36795,0.73589 -0.36794,2.0237 0,2.75959 0.19393,0.38785 0.72594,0.53201 0.91987,0.91986 0.13712,0.27425 -0.097,0.62898 0,0.91987 0.21681,0.65044 0.70305,1.18928 0.91986,1.83972 0.2109,0.63271 -0.27137,2.21686 0,2.75959 0.19392,0.38785 0.72594,0.53202 0.91986,0.91987 0.24951,0.49901 -0.25169,3.42776 0,3.67945 0.21682,0.21682 0.70305,-0.21681 0.91987,0 0.21681,0.21682 -0.13713,0.64561 0,0.91986 0.19392,0.38785 0.72594,0.53202 0.91986,0.91987 0.13713,0.27425 -0.13712,0.64561 0,0.91986 0.12212,0.24424 2.51536,2.63748 2.75959,2.75959 0.27425,0.13713 0.70305,-0.21681 0.91987,0 0.21681,0.21682 -0.13713,0.64562 0,0.91987 1.91412,3.82825 -0.0635,-0.98337 1.83972,0.91986 0.43363,0.43363 -0.43363,1.4061 0,1.83973 0.21682,0.21681 0.64562,-0.13713 0.91987,0 3.82825,1.91412 -0.98337,-0.0635 0.91986,1.83972 0.21681,0.21682 0.70305,-0.21681 0.91986,0 0.43363,0.43363 -0.27425,1.29123 0,1.83973 1.91413,3.82825 -0.0635,-0.98337 1.83973,0.91986 0.43363,0.43363 -0.27425,1.29123 0,1.83973 0.19392,0.38785 0.72594,0.53202 0.91986,0.91987 0.13713,0.27425 -0.13712,0.64561 0,0.91986 0.19393,0.38785 0.72594,0.53201 0.91987,0.91986 0.27425,0.5485 -0.27425,1.29123 0,1.83973 0.19392,0.38785 0.72594,0.53202 0.91986,0.91986 0.18236,0.36472 -0.18805,2.57154 0,2.75959 0.21682,0.21682 0.70305,-0.21681 0.91986,0 0.21682,0.21682 0,0.61325 0,0.91987 0,2.14635 0,4.29269 0,6.43904 0,2.961 -0.21681,-1.5703 0.91987,1.83973 0.32582,0.97746 -0.32582,2.702 0,3.67945 0.21681,0.65045 0.70305,1.18929 0.91986,1.83973 0.097,0.29089 0,0.61324 0,0.91987 0,0.61324 0,1.22648 0,1.83972 0,2.14635 0,4.2927 0,6.43905 0,0.41427 -0.13997,2.47964 0,2.75959 0.19393,0.38785 0.72594,0.53201 0.91987,0.91986 0.13712,0.27425 0,0.61324 0,0.91987 0,1.0998 -0.20012,4.91882 0,5.51918 0.21681,0.65044 0.75357,1.17457 0.91986,1.83972 0.17069,0.68278 -0.28235,3.39711 0,3.67946 0.21681,0.21681 0.70305,-0.21682 0.91986,0 0.037,0.037 0,3.34165 0,3.67945"
         style="fill:#000000;stroke:#000000;stroke-width:1px;stroke-linecap:butt;stroke-linejoin:miter;stroke-opacity:1"
         sodipodi:nodetypes="cscssscssscscscsssccssccsccsccssccccsssssscsscssscsccscscccccsccscccccccscccccccccsccscccccccscccssssccssssssssccsssccsscscc" />
      <path
         sodipodi:nodetypes="ccscccccccc"
         transform="translate(-142.8504,208.7851)"
         inkscape:connector-curvature="0"
         id="path3017"
         d="m 1099.9933,0.71996627 -97.9797,0 c 0.1026,3.02728303 -25.797,33.11947073 -33.62685,40.02369073 -5.81513,5.127686 37.71785,-9.78289 38.02365,-11.911925 -17.43885,29.13644 -49.7008,64.872525 -82.10109,73.300838 22.70023,2.892 41.83773,11.32603 76.92069,-5.043984 -24.81481,43.422884 -71.98675,71.675794 -84.48666,64.310744 16.7038,17.92761 40.91748,17.08048 63.04975,21.43691 -11.17987,38.43722 -56.39171,45.27332 -85.74766,66.83274 l 205.94787,-1.261 z"
         style="fill:#000000;stroke:#000000;stroke-width:1px;stroke-linecap:butt;stroke-linejoin:miter;stroke-opacity:1" />
      <path
         sodipodi:nodetypes="cccccccccccccccc"
         inkscape:connector-curvature="0"
         id="path3021"
         d="m -54.31954,209.50507 86.13214,0 c 2.60827,32.14915 30.52229,64.27631 66.60886,78.16456 -20.68849,18.97372 -41.53184,23.80497 -71.20257,21.82015 -3.77738,24.12647 5.71223,45.45988 59.71828,57.42142 -27.56229,13.19884 -55.12457,40.10765 -82.68686,25.26543 31.39038,32.70956 62.78077,39.1333 94.17115,51.67929 l -94.17115,53.97614 -110.24914,5.74214 0,-98.85269 c 10.36605,-6.82378 21.32423,-13.05543 24.78015,-26.78934 l -24.78015,-1.33947 0,-24.61107 c 20.47439,-1.72856 39.59381,-35.61984 35.59909,-61.81751 -13.20637,9.18521 -28.3585,16.77717 -35.59909,2.09923 16.11627,-23.423 24.63717,-18.36335 51.67929,-82.75828 z"
         style="fill:#000000;stroke:#000000;stroke-width:1px;stroke-linecap:butt;stroke-linejoin:miter;stroke-opacity:1" />
      <path
         sodipodi:nodetypes="cccccccccc"
         transform="translate(-142.8504,208.7851)"
         inkscape:connector-curvature="0"
         id="path3023"
         d="m 285.82871,172.21778 c -3.60277,12.45656 -0.59556,21.80254 -27.1438,45.05697 l 18.64395,-4.66099 c -5.02668,14.78252 -18.95786,20.66054 -29.13118,30.29643 l 57.09712,-1.16525 -12.81772,-19.8092 c 0.19491,5.12624 8.0024,1.11739 16.31346,-3.49575 -6.67715,-3.07028 -12.65726,-6.48909 -12.81772,-12.81772 l 12.81772,0 c -10.53592,-2.48889 -16.58395,-18.44148 -22.96183,-33.40449 z"
         style="fill:#000000;stroke:#000000;stroke-width:1px;stroke-linecap:butt;stroke-linejoin:miter;stroke-opacity:1" />
      <path
         style="fill:#000000;stroke:#000000;stroke-width:1px;stroke-linecap:butt;stroke-linejoin:miter;stroke-opacity:1"
         d="m 683.19056,391.5265 c -3.60277,12.45656 -0.59556,21.80254 -27.1438,45.05697 l 18.64395,-4.66099 c -5.02668,14.78252 -18.95786,20.66054 -29.13118,30.29643 l 57.09712,-1.16525 -12.81772,-19.8092 c 0.19491,5.12624 8.0024,1.11739 16.31346,-3.49575 -6.67715,-3.07028 -12.65726,-6.48909 -12.81772,-12.81772 l 12.81772,0 C 695.61647,422.4421 689.56844,406.48951 683.19056,391.5265 z"
         id="path3025"
         inkscape:connector-curvature="0"
         sodipodi:nodetypes="cccccccccc" />
      <path
         sodipodi:nodetypes="cccccccccc"
         inkscape:connector-curvature="0"
         id="path3027"
         d="m 539.36782,410.81979 c -3.60277,12.45656 -0.59556,21.80254 -27.1438,45.05697 l 18.64395,-4.66099 c -5.02668,14.78252 -18.95786,20.66054 -29.13118,30.29643 l 57.09712,-1.16525 -12.81772,-19.8092 c 0.19491,5.12624 8.0024,1.11739 16.31346,-3.49575 -6.67715,-3.07028 -12.65726,-6.48909 -12.81772,-12.81772 l 12.81772,0 C 551.79373,441.73539 545.7457,425.7828 539.36782,410.81979 z"
         style="fill:#000000;stroke:#000000;stroke-width:1px;stroke-linecap:butt;stroke-linejoin:miter;stroke-opacity:1" />
      <path
         style="fill:#000000;stroke:#000000;stroke-width:1px;stroke-linecap:butt;stroke-linejoin:miter;stroke-opacity:1"
         d="m -85.997197,209.79048 c 1.471088,2.26693 3.14763,4.43185 5.344347,6.68313 18.970976,19.44217 44.90809,47.45392 -24.26611,17.97054 7.33487,17.75788 23.55673,39.22334 27.84495,46.68788 7.90509,13.76045 15.76268,20.02642 -25.29207,3.82102 22.62903,40.94865 48.33912,55.71619 81.05711,71.13175 -64.61577,19.50011 -91.70288,-8.66654 -107.52474,8.27114 68.1981,13.87002 70.85603,48.43693 105.87051,72.78598 l -122.5076,0.86417 -0.31351,-228.50102 z"
         id="path3031"
         inkscape:connector-curvature="0"
         sodipodi:nodetypes="cscsccccccc" />
    </g>
  </g>
</svg>
