<?xml version="1.0" encoding="UTF-8" standalone="no"?>
<!-- Created with Inkscape (http://www.inkscape.org/) -->

<svg
   xmlns:dc="http://purl.org/dc/elements/1.1/"
   xmlns:cc="http://creativecommons.org/ns#"
   xmlns:rdf="http://www.w3.org/1999/02/22-rdf-syntax-ns#"
   xmlns:svg="http://www.w3.org/2000/svg"
   xmlns="http://www.w3.org/2000/svg"
   xmlns:xlink="http://www.w3.org/1999/xlink"
   xmlns:sodipodi="http://sodipodi.sourceforge.net/DTD/sodipodi-0.dtd"
   xmlns:inkscape="http://www.inkscape.org/namespaces/inkscape"
   width="1100.0066"
   height="575.00568"
   id="svg2"
   version="1.1"
   inkscape:version="0.48.3.1 r9886"
   sodipodi:docname="001.svg">
  <defs
     id="defs4">
    <linearGradient
       inkscape:collect="always"
       id="linearGradient3786">
      <stop
         style="stop-color:#999999;stop-opacity:1;"
         offset="0"
         id="stop3788" />
      <stop
         style="stop-color:#999999;stop-opacity:0;"
         offset="1"
         id="stop3790" />
    </linearGradient>
    <linearGradient
       inkscape:collect="always"
       id="linearGradient3775">
      <stop
         style="stop-color:#333333;stop-opacity:1;"
         offset="0"
         id="stop3777" />
      <stop
         style="stop-color:#333333;stop-opacity:0;"
         offset="1"
         id="stop3779" />
    </linearGradient>
    <linearGradient
       inkscape:collect="always"
       xlink:href="#linearGradient3775"
       id="linearGradient3781"
       x1="444.39035"
       y1="0.71996629"
       x2="447.03986"
       y2="261.44275"
       gradientUnits="userSpaceOnUse"
       gradientTransform="matrix(1,0,0,0.93870179,-142.8504,208.82923)" />
    <linearGradient
       inkscape:collect="always"
       xlink:href="#linearGradient3786"
       id="linearGradient3794"
       x1="602.91083"
       y1="-183.92433"
       x2="607.44751"
       y2="257.66846"
       gradientUnits="userSpaceOnUse"
       gradientTransform="translate(-142.8504,280.7851)" />
  </defs>
  <sodipodi:namedview
     id="base"
     pagecolor="#ffffff"
     bordercolor="#666666"
     borderopacity="1.0"
     inkscape:pageopacity="0.0"
     inkscape:pageshadow="2"
     inkscape:zoom="0.60451204"
     inkscape:cx="672.13381"
     inkscape:cy="432.05945"
     inkscape:document-units="px"
     inkscape:current-layer="layer1"
     showgrid="false"
     inkscape:window-width="1311"
     inkscape:window-height="679"
     inkscape:window-x="11"
     inkscape:window-y="42"
     inkscape:window-maximized="0"
     showguides="true"
     inkscape:guide-bbox="true"
     fit-margin-top="0"
     fit-margin-left="0"
     fit-margin-right="0"
     fit-margin-bottom="0">
    <sodipodi:guide
       orientation="1,0"
       position="-2.8638944,779.99997"
       id="guide3025" />
    <sodipodi:guide
       orientation="1,0"
       position="1099.9933,757.14287"
       id="guide3027" />
    <sodipodi:guide
       orientation="0,1"
       position="1531.4218,574.28571"
       id="guide3031" />
    <sodipodi:guide
       orientation="0,1"
       position="1397.1361,-2.3431994e-09"
       id="guide3033" />
  </sodipodi:namedview>
  <metadata
     id="metadata7">
    <rdf:RDF>
      <cc:Work
         rdf:about="">
        <dc:format>image/svg+xml</dc:format>
        <dc:type
           rdf:resource="http://purl.org/dc/dcmitype/StillImage" />
        <dc:title />
      </cc:Work>
    </rdf:RDF>
  </metadata>
  <g
     inkscape:label="Layer 1"
     inkscape:groupmode="layer"
     id="layer1"
     transform="translate(142.8504,-208.7851)">
    <rect
       style="fill:#000000;fill-opacity:1;fill-rule:evenodd;stroke:none"
       id="rect3023"
       width="1099.9888"
       height="574.50043"
       x="-142.84595"
       y="209.29033" />
    <rect
       style="fill:url(#linearGradient3781);fill-opacity:1;fill-rule:evenodd;stroke:none"
       id="rect3005"
       width="1102.8572"
       height="245.01904"
       x="-145.71429"
       y="209.50507" />
    <path
       style="fill:#000000;stroke:#000000;stroke-width:0.9972052px;stroke-linecap:butt;stroke-linejoin:miter;stroke-opacity:1"
       d="m -46.450616,209.7879 c 1.724509,1.16304 3.343498,2.50174 5.17353,3.48911 0.379729,0.20487 0.884378,-0.13682 1.293383,0 9.368508,3.13401 -2.039158,-0.37423 3.880147,2.59601 0.385612,0.19351 0.862255,0 1.293382,0 0.862256,0.43267 1.784644,0.76135 2.586766,1.29801 0.507306,0.33942 0.786076,0.9586 1.293383,1.29801 0.802122,0.53667 1.784644,0.76136 2.586765,1.29801 2.36655,1.58335 0.129037,1.6549 3.880148,2.59602 0.83651,0.20988 1.768758,-0.27364 2.586765,0 0.578418,0.19349 0.786076,0.9586 1.293383,1.29802 2.153789,1.441 5.762353,2.39021 7.760295,3.89403 0.97553,0.73427 1.611235,1.86176 2.586765,2.59602 7.9398208,5.97618 -2.47538,-2.54014 5.1735306,1.29801 5.88784591,5.90891 -0.5357365,0.68612 5.17353048,2.59603 0.5784183,0.19349 0.78607621,0.95859 1.29338252,1.298 0.8021219,0.53666 1.8155409,0.71752 2.5867653,1.29802 0.9755303,0.73426 1.5721524,1.91719 2.5867653,2.59602 0.3587196,0.23999 0.884379,-0.13682 1.2933825,0 0.9145596,0.30593 1.6916854,0.93869 2.5867653,1.29799 1.265834,0.50815 2.614314,0.78988 3.880148,1.29802 1.790159,0.71863 3.38337,1.8774 5.17353,2.59602 1.265834,0.50815 2.711089,0.59407 3.880148,1.29801 1.045638,0.62963 1.541128,1.9664 2.586765,2.59603 1.169058,0.70395 2.614314,0.78987 3.880148,1.29801 0.89508,0.3593 1.72451,0.86533 2.586766,1.29801 1.293381,0.43267 2.614312,0.78987 3.880147,1.29801 0.89508,0.3593 1.691685,0.9387 2.586765,1.29801 2.531668,1.01629 5.228628,1.57973 7.760295,2.59602 0.895081,0.35931 1.691686,0.9387 2.586766,1.29801 1.265833,0.50814 2.660735,0.68613 3.880148,1.29802 1.390344,0.69765 2.489803,1.89835 3.880148,2.59602 1.219412,0.61189 2.586766,0.86534 3.880147,1.298 2.342362,0.78358 5.417935,1.81244 7.760297,2.59603 1.293381,0.43266 2.535352,1.07307 3.880147,1.298 1.275784,0.2134 2.611882,-0.25456 3.880148,0 0.945309,0.18974 1.691686,0.9387 2.586765,1.29801 1.265834,0.50815 2.614313,0.78987 3.880148,1.29801 0.89508,0.35932 1.641455,1.10828 2.586765,1.29801 1.268265,0.25457 2.611882,-0.25455 3.880147,0 1.89062,0.37948 3.303037,2.12673 5.173532,2.59602 1.254765,0.31482 2.653136,-0.41046 3.880147,0 0.914559,0.30595 1.672205,0.99207 2.586765,1.29802 0.81801,0.27364 1.81554,-0.387 2.58677,0 0.54533,0.27364 0.74804,1.02436 1.29338,1.298 0.77123,0.387 1.97706,-0.61189 2.58676,0 0.0416,0.0417 0,3.57924 0,3.89404 0,0.47668 0.0521,5.13981 0,5.19204 -0.30485,0.30594 -0.90777,-0.19349 -1.29338,0 -5.38275,2.701 1.38267,-0.0896 -1.29338,2.59603 -0.20072,0.20142 -3.37687,-0.16837 -3.88015,0 -4.458566,1.4915 -0.95809,1.298 -3.880148,1.298 -7.760296,0 -15.520591,0 -23.280887,0 -1.293382,0 -2.586765,0 -3.880148,0 -1.72451,0 -3.466352,-0.24475 -5.17353,0 -1.349642,0.1935 -2.530504,1.10451 -3.880148,1.29802 -13.514329,0 1.978646,-0.5473 -9.053678,1.298 -2.126308,0.35566 -4.375636,-0.52469 -6.466913,0 -0.935246,0.23465 -1.651518,1.06336 -2.586766,1.29801 -0.836509,0.20988 -1.724509,0 -2.586764,0 -0.431128,0 -0.90777,-0.19349 -1.293383,0 -0.545338,0.27365 -0.714964,1.10451 -1.293382,1.29801 -0.818008,0.27365 -1.768759,-0.27365 -2.586766,0 -0.578418,0.19351 -0.748045,1.02437 -1.293383,1.29801 -0.385611,0.1935 -0.884378,-0.13682 -1.293381,0 -0.914561,0.30594 -1.672207,0.99207 -2.586766,1.29802 -3.850183,1.28799 2.65377,-3.07352 -3.880148,1.298 -2.959652,1.98017 0.80874,1.02747 -3.880147,2.59602 -0.409005,0.13682 -0.907771,-0.19349 -1.293383,0 -1.552059,0.77881 -2.32809,3.11524 -3.880148,3.89404 -0.385613,0.19349 -0.988529,-0.30595 -1.293383,0 -0.304854,0.30595 0,0.86534 0,1.29801 0,2.16335 0,4.3267 0,6.49006 0,0.43267 -0.136334,0.88754 0,1.298 0.3479,1.04743 3.250183,6.9451 3.880148,7.78806 1.097472,1.46854 2.865536,2.36667 3.880148,3.89403 0.534748,0.805 0.61171,1.91191 1.293383,2.59603 0.681672,0.6841 2.008347,0.52401 2.586764,1.298 0.818007,1.09458 0.475376,2.79946 1.293384,3.89404 0.578417,0.77399 2.008347,0.52403 2.586764,1.29801 0.818008,1.09457 0.683678,2.67025 1.293384,3.89403 0.545338,1.09458 1.910356,1.57778 2.586764,2.59603 0.534748,0.80498 0.758635,1.79102 1.293383,2.59602 0.338205,0.50911 0.955179,0.78889 1.293383,1.298 0.534748,0.805 0.758635,1.79104 1.293382,2.59602 0.676409,1.01825 1.72451,1.73068 2.586766,2.59603 3.459452,3.47183 -0.443804,1.70523 1.293381,5.19204 0.192808,0.38698 0.988531,-0.30594 1.293384,0 0.304853,0.30594 0,0.86534 0,1.29801 0,3.02869 0,6.05739 0,9.08608 0,0.43267 0,0.86533 0,1.298 0,0.43268 0.385611,1.10452 0,1.29802 -0.771225,0.38698 -1.72451,0 -2.586765,0 -1.293383,0 -2.586766,0 -3.880148,0 -0.862256,0 -1.750256,-0.20988 -2.586766,0 -0.935246,0.23464 -1.641455,1.10826 -2.586764,1.298 -1.268266,0.25456 -2.604364,-0.21339 -3.880148,0 -1.344797,0.22494 -2.543279,1.02969 -3.880148,1.29801 -0.845511,0.16971 -1.72451,0 -2.586765,0 -1.293383,0 -2.586766,0 -3.880149,0 -1.293382,0 -2.604363,-0.21339 -3.880147,0 -1.344795,0.22493 -2.543278,1.02968 -3.880148,1.29801 -0.8455108,0.16971 -1.7412546,-0.1697 -2.5867653,0 -1.3368697,0.26833 -2.5432781,1.02969 -3.8801478,1.29801 -0.8455107,0.16971 -1.7412546,-0.1697 -2.5867653,0 -4.28961,0.861 -3.0178927,1.21148 -6.466913,2.59602 -1.2658339,0.50815 -2.6143135,0.78987 -3.8801477,1.29801 -4.8397009,1.94281 -0.3937572,0.8466 -6.4669129,3.89404 -1.219413,0.61188 -2.614315,0.78987 -3.880149,1.29801 -1.790159,0.71862 -3.303036,2.12672 -5.173529,2.59602 -0.836511,0.20987 -1.768759,-0.27365 -2.586766,0 -0.578418,0.1935 -0.748045,1.02437 -1.293382,1.29801 -0.385613,0.19349 -1.293382,-0.43267 -1.293382,0 0,0.61189 0.955178,0.78889 1.293382,1.29802 1.591856,2.39631 2.288292,5.39173 3.880148,7.78806 0.338203,0.50912 0.955178,0.78888 1.293382,1.298 0.534748,0.80499 0.714965,1.82204 1.293383,2.59602 0.731647,0.97903 1.855117,1.61701 2.586764,2.59602 0.57842,0.77399 0.61171,1.91192 1.293384,2.59602 0.681672,0.68412 1.784643,0.76136 2.586765,1.29802 0.507306,0.33941 0.786075,0.9586 1.293383,1.298 0.802122,0.53667 1.81554,0.71753 2.586765,1.29802 0.97553,0.73426 1.6112338,1.86175 2.5867649,2.59602 2.8889225,2.17444 7.071269,2.57902 10.3470607,3.89403 0.8950799,0.35932 1.6916855,0.9387 2.5867653,1.29801 1.265834,0.50814 2.6143137,0.78986 3.8801478,1.29801 1.7901597,0.71862 3.5202323,1.60049 5.1735313,2.59602 1.332931,0.80262 2.547214,1.7934 3.880147,2.59601 0.826649,0.49777 1.651519,1.06337 2.586765,1.29802 0.83651,0.20988 1.869325,-0.48 2.586766,0 0.80212,0.53666 0.61171,1.91191 1.293382,2.59602 0.681673,0.68412 1.784644,0.76135 2.586765,1.29802 2.971374,1.98801 -0.554605,0.74141 2.586766,3.89402 3.132103,1.57166 1.905092,0.61391 3.880148,2.59603 0.431126,0.43267 0.862254,0.86533 1.293381,1.29801 0.431128,0.43267 1.020714,0.75072 1.293383,1.29801 0.192807,0.38699 -0.304853,0.99206 0,1.29801 0.304853,0.30594 0.98853,-0.30595 1.293383,0 2.676055,2.68563 -4.089366,-0.10499 1.293383,2.59603 0.385611,0.19349 0.988529,-0.30596 1.293382,0 0.05205,0.0522 0,4.71536 0,5.19204 0,0.43267 0,0.86534 0,1.29801 0,0.43265 0.304853,0.99206 0,1.298 -0.304853,0.30595 -0.870627,-0.0848 -1.293382,0 -1.743065,0.34987 -3.430466,0.94815 -5.17353,1.29801 -2.571521,0.51615 -5.205008,0.70622 -7.760296,1.29801 -3.058279,0.70828 -6.021,1.78441 -9.053679,2.59602 -3.435128,0.91932 -6.9119322,1.67671 -10.3470605,2.59603 -14.5023311,3.88112 -3.7090368,1.48666 -19.4007385,5.19204 -3.869138,0.91364 -7.827159,1.47045 -11.640444,2.59602 -3.533875,1.04309 -6.831181,2.79139 -10.347061,3.89403 -3.393337,1.06421 -6.86093,1.8963 -10.34706,2.59602 -4.102474,0.82343 -12.539054,1.52346 -16.813975,2.59603 -8.454638,2.12121 -6.512821,2.61137 -14.227208,5.19204 -3.372729,1.12826 -6.928681,1.61584 -10.347061,2.59602 -1.310888,0.37588 -2.614314,0.78986 -3.880147,1.298 -3.449021,1.38455 -2.177304,1.73503 -6.466917,2.59602 -0.845505,0.16971 -1.750246,-0.20987 -2.586766,0 -1.87049,0.46931 -3.34441,1.98414 -5.17353,2.59603 -0.40899,0.13682 -0.88437,-0.13682 -1.29339,0 -0.91455,0.30595 -1.67219,0.99206 -2.58675,1.29801 -0.409,0.13682 -0.98853,-0.30595 -1.29339,0 -0.30485,0.30594 0.30486,0.99206 0,1.29801 -0.30485,0.30594 -1.29337,0.43267 -1.29337,0 0,-0.43267 0.86225,0 1.29337,0 0.86225,0 1.72452,0 2.58677,0 4.89936,0 10.621221,0 15.52059,0 5.604657,0 11.209315,0 16.813974,0 3.017892,0 6.044674,-0.23229 9.053678,0 9.777087,0.75477 5.971968,1.49833 15.520591,3.89404 7.046309,1.76787 9.537813,0.77047 16.813973,2.59602 2.252374,0.5651 4.227029,1.98295 6.466914,2.59602 2.530042,0.69247 5.180149,0.82721 7.760296,1.298 2.162868,0.39466 4.311275,0.86534 6.466913,1.29801 2.562752,0.51439 8.9006098,1.67948 11.6404429,2.59602 0.9145596,0.30595 1.67220562,0.99207 2.58676518,1.29801 0.40900347,0.13682 0.88437907,-0.13682 1.29338252,0 0.9145597,0.30595 1.6722057,0.99207 2.5867653,1.29801 0.4090036,0.13683 0.9885295,-0.30594 1.2933826,0 0.6097064,0.61189 -0.6097065,1.98414 0,2.59603 0.3048532,0.30594 0.9885294,0.30594 1.2933827,0 0.3048531,-0.30595 0,-1.73069 0,-1.29802 0,2.20206 0.483787,4.70652 -1.2933827,6.49006 -1.5753185,1.58096 -2.8896898,0.60802 -3.8801479,2.59602 -0.192806,0.38699 0.1928062,0.91101 0,1.29802 -0.272669,0.54728 -0.86225504,0.86533 -1.29338252,1.298 -1.72451018,1.73069 -3.44902018,3.46136 -5.17353048,5.19205 -0.4311274,0.43265 -0.9551783,0.78888 -1.2933826,1.298 -4.688887,9.41133 1.363345,-2.05233 -2.5867651,3.89403 -0.5347485,0.805 -0.7149636,1.82204 -1.2933829,2.59602 -0.731648,0.97902 -1.72451,1.73069 -2.586765,2.59602 -0.862255,0.86535 -1.72451,1.73069 -2.586765,2.59602 -0.862255,0.86535 -1.611235,1.86177 -2.586765,2.59603 -0.771225,0.58048 -1.905094,0.6139 -2.586765,1.29801 -0.681673,0.68411 -0.522158,2.01553 -1.293383,2.59602 -1.090676,0.82094 -2.711089,0.59406 -3.880148,1.29801 -1.045638,0.62963 -1.72451,1.73068 -2.586765,2.59602 -0.431128,0.43268 -0.714965,1.10452 -1.293382,1.29802 -0.818007,0.27364 -1.768759,-0.27364 -2.586766,0 -0.578418,0.19349 -0.786076,0.9586 -1.293382,1.29799 -0.802123,0.53667 -1.784644,0.76136 -2.586766,1.29802 -0.507306,0.33942 -0.786076,0.9586 -1.293382,1.29801 -0.862256,0.43267 -1.724511,0.86534 -2.586765,1.29801 -0.431129,0 -0.907771,-0.19349 -1.293383,0 -5.919304,2.97024 5.488361,-0.53798 -3.880148,2.59602 -0.409003,0.13682 -0.884379,-0.13682 -1.293382,0 -0.914561,0.30595 -1.651519,1.06337 -2.586765,1.29801 -0.836511,0.20988 -1.750256,-0.20987 -2.586766,0 -1.515097,0.38013 -3.658433,2.2159 -5.17353,2.59603 -0.83651,0.20987 -1.724511,0 -2.586766,0 -1.293382,0.43267 -2.557509,0.96617 -3.880148,1.29801 -1.254765,0.31481 -2.625382,-0.31482 -3.880147,0 -0.935247,0.23464 -1.651519,1.06337 -2.586766,1.29801 -1.217301,0.30542 -2.662846,-0.30542 -3.880147,0 -1.322639,0.33184 -2.543278,1.02968 -3.880148,1.29801 -0.845511,0.1697 -1.750255,-0.20988 -2.586765,0 -0.935248,0.23464 -1.641456,1.10826 -2.586765,1.29801 -1.268266,0.25456 -2.586766,0 -3.880148,0 -2.586766,0 -5.17353,0 -7.760296,0 -0.862255,0 -1.724509,0 -2.586765,0 -0.431125,0 -0.884373,-0.13683 -1.293386,0 -0.914555,0.30594 -1.67221,0.99207 -2.586766,1.29801 -0.81179,0.27156 -4.13231,0 -5.17353,0 -3.44901,0 -6.89804,0 -10.34706,0 -8.68553,0 -17.37105,0 -26.05657,0 l 0,-357.84597 z"
       id="path3787"
       inkscape:connector-curvature="0" />
    <path
       style="fill:#000000;stroke:#000000;stroke-width:0.99888539px;stroke-linecap:butt;stroke-linejoin:miter;stroke-opacity:1"
       d="m 716.06663,252.26933 c 2.69672,5.4095 -0.0895,-1.38955 2.59191,1.29981 0.30546,0.30637 -0.1932,0.91228 0,1.29981 0.54642,1.0961 2.04546,1.50352 2.59189,2.59962 0.19318,0.38753 -0.30546,0.99344 0,1.29982 0.30545,0.30636 0.99048,-0.30638 1.29594,0 0.61092,0.61273 -0.38637,1.82456 0,2.59962 0.86652,1.7382 1.72538,0.86141 2.5919,2.59962 0.19319,0.38753 -0.30546,0.99344 0,1.29982 0.30545,0.30636 0.99049,-0.30638 1.29594,0 0.30546,0.30636 -0.19319,0.91228 0,1.2998 0.27321,0.54806 1.02274,0.75177 1.29595,1.29982 0.19319,0.38752 -0.30546,0.99344 0,1.29981 0.30545,0.30637 0.99049,-0.30637 1.29595,0 0.30545,0.30637 -0.30546,0.99345 0,1.29981 0.30545,0.30637 0.9905,-0.30636 1.29594,0 2.68136,2.68936 -4.09747,-0.10513 1.29595,2.59962 0.38638,0.19377 0.99049,-0.30636 1.29595,0 0.30546,0.30637 -0.30546,0.99344 0,1.29982 0.12959,0.12998 4.49261,-0.60659 2.59188,1.2998 -1.10133,1.10464 -2.59188,1.73309 -3.88783,2.59963 -9.47211,6.33357 2.43793,-1.39726 -9.07163,5.19925 -2.71232,1.55451 -5.06336,3.64472 -7.77568,5.19924 -1.67734,0.96134 -3.54555,1.57268 -5.18378,2.59962 -3.66321,2.29633 -6.70437,5.50255 -10.36757,7.79888 -19.7625,12.3884 12.54362,-9.68717 -11.66352,6.49906 -1.79715,1.20167 -3.35219,2.75127 -5.18379,3.89943 -15.31093,9.59787 4.55844,-3.58582 -10.36757,3.89943 -1.09283,0.54806 -1.63781,1.83408 -2.5919,2.59963 -4.77665,3.83272 -2.44195,1.46954 -6.47972,3.89943 -2.67116,1.60747 -5.07105,3.64914 -7.77569,5.19925 -4.0331,2.31151 -5.62722,2.32035 -9.07162,5.19925 -1.40796,1.17679 -2.36291,2.87978 -3.88784,3.89944 -1.13662,0.76 -2.71647,0.59488 -3.88784,1.2998 -1.04771,0.63051 -1.72793,1.73309 -2.5919,2.59962 -0.43198,0.43328 -0.74952,1.0258 -1.29594,1.29982 -1.78757,0.89645 -1.15918,-1.57415 -2.5919,1.29982 -0.19318,0.38752 -0.43197,1.2998 0,1.2998 0.61092,0 0.71638,-1.10604 1.29595,-1.2998 0.81964,-0.27404 1.72793,0 2.59189,0 1.29596,0 2.5919,0 3.88785,0 6.47973,0 12.95946,0 19.4392,0 9.07162,0 18.14325,0 27.21487,0 2.59189,0 5.18378,0 7.77568,0 1.72793,0 3.47323,-0.24511 5.18379,0 1.35231,0.19376 2.57434,0.9234 3.88784,1.2998 1.71257,0.49076 3.42059,1.04717 5.18378,1.29982 1.28293,0.18382 2.5919,0 3.88784,0 1.29594,0.43327 2.54038,1.07456 3.88783,1.2998 1.27832,0.21369 2.61707,-0.25491 3.88786,0 0.94718,0.19 1.65478,1.06484 2.59188,1.29982 0.83817,0.21017 1.75372,-0.21017 2.5919,0 3.42422,0.85861 1.75955,1.74101 5.18378,2.59962 0.83817,0.21017 1.75373,-0.21017 2.5919,0 0.9371,0.23498 1.65479,1.06484 2.59188,1.29982 1.67634,0.42032 3.54454,-0.54806 5.1838,0 0.57957,0.19376 0.71638,1.10604 1.29595,1.2998 0.81962,0.27402 1.72792,0 2.59188,0 0.43198,0 0.90958,-0.19376 1.29595,0 0.54642,0.27402 0.74953,1.0258 1.29595,1.29982 0.38637,0.19376 0.86396,0 1.29594,0 0.86397,0 1.75373,0.21017 2.5919,0 0.9371,-0.23498 1.62594,-1.29982 2.59188,-1.29982 0.61092,0 -0.95706,0.78999 -1.29594,1.29982 -0.53581,0.80611 -0.76013,1.79351 -1.29594,2.59962 -0.33888,0.50983 -1.02274,0.75176 -1.29595,1.29982 -0.19318,0.38752 0.19319,0.91228 0,1.2998 -0.49498,0.99291 -3.59532,3.01927 -3.88784,3.89944 -0.27321,0.82207 0.20954,1.75896 0,2.59962 -0.5781,2.3193 -2.31488,3.62159 -3.88783,5.19924 -0.432,0.43328 -1.02275,0.75177 -1.29595,1.29982 -0.1932,0.38752 0.19318,0.91228 0,1.29982 -0.27322,0.54804 -0.95708,0.78997 -1.29595,1.2998 -1.07162,1.61222 -1.43277,3.64914 -2.59189,5.19924 -1.09966,1.47057 -2.87122,2.36996 -3.88784,3.89944 -0.53581,0.80611 -0.76014,1.79352 -1.29595,2.59962 -4.29812,4.31094 0.61091,-1.22546 -1.29595,2.59964 -0.63763,1.27904 -4.54616,3.92019 -5.18378,5.19924 -0.1932,0.38752 0.19319,0.91228 0,1.29981 -0.54642,1.09609 -2.04548,1.50353 -2.5919,2.59963 -0.19319,0.38752 0.19319,0.91228 0,1.2998 -0.27321,0.54806 -1.02274,0.75176 -1.29594,1.29982 -0.19319,0.38752 -0.43199,1.2998 0,1.2998 0.61091,0 0.71638,-1.10604 1.29594,-1.2998 0.81964,-0.27402 1.75372,0.21017 2.5919,0 0.9371,-0.23498 1.65478,-1.06484 2.59189,-1.29982 1.6295,-0.40858 3.55429,0.40859 5.18379,0 7.34242,-3.68215 -1.93189,0.48441 5.18378,-1.2998 8.46071,-2.1215 -4.89632,-0.69797 6.47973,-2.59963 2.55664,-0.42738 5.23412,0.50982 7.77568,0 0.94718,-0.19001 1.69504,-0.94 2.59189,-1.29981 3.88405,-1.55825 4.77064,-1.3671 9.07163,-2.59962 2.62698,-0.7528 5.08076,-2.14914 7.77568,-2.59962 1.27831,-0.21369 2.60953,0.21367 3.88783,0 1.34747,-0.22526 2.54039,-1.07458 3.88785,-1.29982 1.27832,-0.21369 2.60952,0.21369 3.88784,0 1.34745,-0.22524 2.54038,-1.07456 3.88785,-1.29982 1.2783,-0.21368 2.61706,0.25492 3.88782,0 0.9472,-0.19 1.64471,-1.1098 2.5919,-1.2998 1.27078,-0.25492 2.5919,0 3.88784,0 2.59191,0 5.18379,0 7.77569,0 1.29593,0 2.61706,0.25491 3.88784,0 0.94718,-0.19 1.67551,-0.99344 2.59188,-1.29982 0.83966,-0.28072 5.41874,0 6.47975,0 3.88782,0 7.77566,0 11.6635,0 4.31983,0 8.63964,0 12.95947,0 0.67767,0 4.84304,-0.17088 5.18378,0 3.10327,1.55626 -0.81668,2.59962 2.5919,2.59962 0.86396,0 1.72793,0 2.59189,0 0.43198,0 1.29595,-0.43326 1.29595,0 0,0.43328 -0.86397,0 -1.29595,0 -0.43198,0 -0.86396,0 -1.29595,0 -2.24043,0 -3.03669,-0.13585 -5.18378,1.29982 -0.5083,0.33989 -0.78763,0.95993 -1.29594,1.29982 -0.80372,0.5374 -1.78818,0.7624 -2.5919,1.2998 -0.50832,0.33989 -0.78764,0.95993 -1.29594,1.29982 -0.80372,0.5374 -1.67553,0.99344 -2.5919,1.2998 -0.4098,0.13701 -0.93652,-0.24033 -1.29594,0 -1.01662,0.67978 -1.54419,1.96913 -2.59191,2.59963 -1.17137,0.70492 -2.66599,0.68707 -3.88783,1.29981 -10.91571,5.47414 3.68878,-0.68761 -7.77567,6.49906 -1.97271,1.23661 -4.31983,1.73308 -6.47974,2.59962 -1.72793,1.73309 -3.15054,3.83971 -5.18379,5.19925 -1.93559,1.29425 -4.44618,1.4665 -6.47972,2.59963 -1.88812,1.05207 -3.45587,2.59962 -5.18378,3.89942 -3.45587,2.59963 -6.8524,5.28055 -10.36759,7.79888 -1.26741,0.908 -2.62043,1.69162 -3.88784,2.59962 -1.75758,1.25917 -3.35219,2.75127 -5.18378,3.89944 -1.63823,1.02694 -3.50644,1.63828 -5.1838,2.59962 -6.39707,3.66638 -1.65431,1.84942 -9.07162,6.49906 -1.63823,1.02695 -3.50643,1.63828 -5.18378,2.59962 -10.28424,5.89423 2.94574,-1.18193 -7.77569,6.49906 -1.57203,1.12623 -3.50642,1.63828 -5.18378,2.59962 -14.83995,8.50527 8.30645,-4.25433 -7.77567,6.49906 -1.13663,0.76 -2.5919,0.86654 -3.88784,1.29982 -1.29596,0.86654 -2.64182,1.66231 -3.88784,2.59962 -1.46619,1.10292 -2.5919,2.59962 -3.88784,3.89943 -0.43198,0.43328 -0.74952,1.02579 -1.29595,1.29981 -0.38638,0.19376 -0.99049,-0.30636 -1.29595,0 -0.30545,0.30637 0.30546,0.99344 0,1.29982 -0.30545,0.30636 -0.99049,-0.30638 -1.29594,0 -0.30546,0.30636 0.30545,0.99344 0,1.2998 -0.30546,0.30638 -0.93652,-0.24033 -1.29595,0 -1.90694,1.2751 -3.27684,3.92416 -5.18378,5.19925 -0.80371,0.53741 -1.78819,0.76241 -2.59191,1.29981 -0.50829,0.33989 -0.74952,1.02579 -1.29594,1.29982 -0.38637,0.19376 -0.99048,-0.30637 -1.29595,0 -0.30545,0.30636 -0.4098,1.16279 0,1.29981 1.22945,0.41104 2.59189,0 3.88785,0 3.45585,0 6.91172,0 10.36757,0 10.36757,0 20.73514,0 31.10272,0 9.5036,0 19.00722,0 28.51083,0 3.45585,0 6.91843,-0.21622 10.36756,0 2.49494,0.1564 14.83908,1.83485 18.14325,2.59962 3.06435,0.70927 6.00728,1.89036 9.07163,2.59963 2.56035,0.59261 5.22648,0.66061 7.77568,1.2998 2.65051,0.66461 5.12515,1.93502 7.77568,2.59963 2.54918,0.6392 5.22649,0.66061 7.77567,1.29981 5.30105,1.32922 10.20847,4.05092 15.55137,5.19925 3.40545,0.73192 6.96212,0.56789 10.36756,1.29981 5.3429,1.14832 10.25031,3.87003 15.55136,5.19925 2.54919,0.63919 5.24063,0.60637 7.77568,1.29981 2.24432,0.61392 4.25156,1.92917 6.47974,2.59962 2.10979,0.63483 4.32949,0.82056 6.47972,1.29981 1.7387,0.38753 3.47121,0.80905 5.18379,1.29981 1.31349,0.37641 2.53552,1.10605 3.88784,1.29982 2.56585,0.36764 5.18379,0 7.77569,0 0.86396,0 1.77225,0.27402 2.59188,0 0.57958,-0.19377 0.74953,-1.02579 1.29596,-1.29982 0.33506,-0.16803 6.85711,0 7.77567,0 5.89473,0 11.78944,0 17.68415,0 l 0,-297.25138 -167.00539,-0.27596 c -0.86705,26.08482 -47.9252,29.07409 -73.58157,42.76426 z"
       id="path3789"
       inkscape:connector-curvature="0"
       sodipodi:nodetypes="csccccssccccccccscssssssssscsssssscssscssssscsscssssssccsssssssssscsssccssscscscccsssscsscssscssccsssscsssssssssccsccsssscscsssssssssscssscccccscsccsssssssssssssssssssssscccc" />
    <path
       style="fill:#000000;stroke:#000000;stroke-width:0.99888539px;stroke-linecap:butt;stroke-linejoin:miter;stroke-opacity:1"
       d="m 240.49869,209.29033 -8.62679,0.0445 c -18.17775,31.13684 -70.59178,50.99352 -18.14326,50.2426 1.06099,0 5.64007,-0.28072 6.47973,0 5.71509,1.91072 1.36795,0.14445 2.5919,2.59962 0.27321,0.54806 1.02274,0.75177 1.29594,1.29982 0.19319,0.38752 -0.30545,0.99344 0,1.29981 0.30546,0.30637 0.99049,-0.30637 1.29595,0 0.30546,0.30637 0,0.86654 0,1.29981 0,2.59962 0,5.19924 0,7.79888 0,1.36068 0.26347,6.74186 0,7.79886 -0.23428,0.9399 -0.86396,1.73309 -1.29595,2.59962 -0.86396,1.73309 -1.72792,3.46617 -2.59189,5.19926 -0.86397,1.73307 -1.52027,3.58702 -2.59189,5.19924 -0.33888,0.50983 -0.95707,0.78998 -1.29595,1.29981 -0.5358,0.80611 -0.61292,1.91456 -1.29594,2.59963 -0.68303,0.68505 -1.90887,0.61475 -2.5919,1.2998 -0.68302,0.68507 -0.61292,1.91457 -1.29594,2.59963 -0.68303,0.68506 -1.90888,0.61475 -2.59189,1.29981 -0.68303,0.68507 -0.71639,1.82456 -1.29596,2.59962 -6.99128,9.34952 1.439,-2.74309 -5.18378,3.89944 -0.68303,0.68506 -0.61292,1.91456 -1.29595,2.59962 -0.68302,0.68507 -1.81913,0.71852 -2.59189,1.29982 -7.93578,7.95944 2.18568,-1.64415 -5.18378,3.89943 -1.59687,1.20121 -3.53397,4.09608 -5.18379,5.19925 -0.80371,0.5374 -1.78818,0.7624 -2.5919,1.2998 -0.50831,0.33989 -0.74952,1.0258 -1.29594,1.29982 -0.38638,0.19376 -0.90957,-0.19376 -1.29595,0 -1.72489,0.86502 -0.867,1.73461 -2.59189,2.59962 -0.38638,0.19376 -0.90957,-0.19376 -1.29595,0 -0.54641,0.27402 -0.74952,1.02579 -1.29594,1.29982 -0.38638,0.19376 -0.9905,-0.30638 -1.29595,0 -0.30545,0.30636 0.30545,0.99344 0,1.2998 -0.30545,0.30638 -0.90957,-0.19376 -1.29595,0 -0.54642,0.27403 -0.74953,1.02579 -1.29594,1.29982 -0.38638,0.19376 -0.90957,-0.19377 -1.29595,0 -0.54642,0.27402 -0.74953,1.02578 -1.29594,1.29981 -0.38639,0.19377 -0.88614,-0.13702 -1.29595,0 -2.71084,0.9063 -5.12062,2.83424 -7.77568,3.89943 -1.26834,0.50885 -2.66602,0.68708 -3.88784,1.29982 -5.93104,2.97436 5.49924,-0.53874 -3.88784,2.59962 -3.85781,1.28977 2.65903,-3.07778 -3.88784,1.29981 -0.50831,0.33989 -0.74953,1.02579 -1.29594,1.29981 -0.77276,0.38753 -1.77227,-0.27402 -2.5919,0 -0.91638,0.30637 -1.67552,0.99344 -2.5919,1.29982 -0.40981,0.13701 -0.88613,-0.13702 -1.29594,0 -4.46741,1.49357 -0.95999,1.2998 -3.88784,1.2998 -0.43198,0 -0.86397,0 -1.29595,0 -0.43197,0 -1.29594,-0.43326 -1.29594,0 0,0.61274 0.86397,0.86655 1.29594,1.29982 0.43198,0.43327 0.78764,0.95993 1.29595,1.29981 0.80371,0.5374 1.72792,0.86654 2.59189,1.29981 0.86397,0.43327 1.78819,0.7624 2.59189,1.29981 0.50832,0.33989 0.71639,1.10605 1.29595,1.29981 0.81964,0.27403 1.77227,-0.27402 2.5919,0 1.15912,0.38754 1.43276,2.2121 2.59189,2.59963 1.28826,0.43069 5.37855,-0.55223 6.47973,0 0.38638,0.19376 -0.30545,0.99344 0,1.29981 0.30546,0.30637 0.90957,-0.19376 1.29595,0 0.54642,0.27402 0.74953,1.02579 1.29594,1.29981 0.38638,0.19377 0.9905,-0.30637 1.29595,0 0.30546,0.30637 -0.19318,0.91228 0,1.29981 0.77757,1.55977 3.11027,2.33966 3.88784,3.89944 0.23433,0.47005 0,5.59499 0,6.49906 0,0.43327 0,0.86654 0,1.29981 0,0.43326 0.30546,0.99344 0,1.29981 -0.68303,0.68506 -1.90887,0.61475 -2.59189,1.29981 -0.68303,0.68506 -0.61293,1.91456 -1.29595,2.59963 -0.68302,0.68505 -1.78818,0.7624 -2.59189,1.2998 -0.50831,0.33989 -0.74953,1.02579 -1.29595,1.29982 -0.38637,0.19376 -0.90957,-0.19377 -1.29594,0 -0.82549,0.41397 -5.46142,5.4777 -6.47973,6.49906 -0.86397,0.86654 -1.57528,1.91985 -2.5919,2.59962 -0.35943,0.24034 -0.99049,-0.30637 -1.29595,0 -1.41012,1.41433 2.29967,1.69804 -1.29595,2.59962 -1.25725,0.31526 -2.97146,-0.9191 -3.88783,0 -0.68303,0.68507 1.65479,1.06484 2.59189,1.29981 0.83817,0.21017 1.72793,0 2.59189,0 3.26795,0 3.57995,0 6.47974,0 7.77567,0 15.55135,0 23.32703,0 0.30796,0 4.89333,-0.14566 5.18379,0 0.54642,0.27403 1.02273,0.75177 1.29594,1.29982 0.1932,0.38753 0,0.86653 0,1.29981 0,0.43327 0,0.86654 0,1.29981 0,2.16635 0,4.3327 0,6.49906 0,7.1671 0.86603,11.26089 -2.59189,18.19736 -1.3931,2.79451 -3.51138,5.16297 -5.18378,7.79887 -1.35233,2.13141 -2.49063,4.39698 -3.88784,6.49906 -1.19811,1.80251 -2.74309,3.36218 -3.88785,5.19925 -1.02389,1.64311 -1.72792,3.46616 -2.59189,5.19924 -0.86396,1.73308 -1.72792,3.46617 -2.59189,5.19925 -0.86397,1.73308 -1.46901,3.62252 -2.59189,5.19925 -1.06526,1.49581 -2.87121,2.36995 -3.88784,3.89943 -0.75775,1.14001 -0.59313,2.72457 -1.29595,3.89943 -0.62862,1.05084 -1.8588,1.61925 -2.59189,2.59963 -0.57956,0.77506 -0.79897,1.76887 -1.29594,2.59962 -1.6027,2.67912 -3.45586,5.19925 -5.1838,7.79887 -0.86395,1.29982 -1.72792,2.59962 -2.59189,3.89944 -0.86397,1.29981 -1.49054,2.79481 -2.59189,3.89943 -1.10134,1.10463 -2.91486,1.37977 -3.88784,2.59963 -0.85337,1.06988 -0.59311,2.72456 -1.29594,3.89943 -1.86845,3.12337 -2.61097,2.17911 -5.18379,3.89943 -0.50831,0.33989 -0.86396,0.86655 -1.29595,1.29982 -0.43198,0.43327 -1.02274,0.75176 -1.29595,1.29981 -0.19318,0.38753 0.19319,0.91229 0,1.29981 -0.30005,0.60192 -4.42158,4.43477 -5.18378,5.19925 -0.97337,0.97627 -2.59189,2.8756 -2.59189,1.29981 0,-0.43327 0.86396,0 1.29594,0 0.43198,0 0.86397,0 1.29595,0 2.59189,0 5.18378,0 7.77568,0 20.85795,0 -11.67251,0.30637 15.55135,-1.29981 4.31238,-0.25443 8.63965,0 12.95947,0 4.31983,0 8.63964,0 12.95947,0 3.88784,0 7.78238,0.22898 11.66351,0 3.47675,-0.20512 6.89161,-1.08192 10.36758,-1.29981 3.44912,-0.21622 6.91171,0 10.36757,0 3.02388,0 6.04775,0 9.07163,0 15.98334,0 31.96668,0 47.95001,0 9.93559,0 19.87118,0 29.80678,0 5.6724,0 5.58384,0 10.36757,0 0.86396,0 1.7447,0.16994 2.59189,0 8.68812,-1.74281 -0.9198,-0.3144 6.47974,-6.49906 2.41997,-2.02266 11.08376,-1.16544 12.95946,-1.29982 3.4739,-0.24887 6.91171,-0.86654 10.36757,-1.2998 3.45586,-0.43327 6.91171,-0.86655 10.36757,-1.29982 3.45586,-0.43327 6.89254,-1.06745 10.36758,-1.29981 3.01717,-0.20175 6.04775,0 9.07162,0 3.45586,0 6.91172,0 10.36757,0 8.20766,0 16.41532,0 24.62299,0 3.88783,0 7.77567,0 11.66352,0 0.86261,0 1.72927,0 2.59189,0 0.43198,0 1.29595,-0.43326 1.29595,0 0,0.43327 -0.86397,0 -1.29595,0 -1.29595,0 -2.59189,0 -3.88785,0 -1.72792,0 -3.50744,0.42033 -5.18378,0 -5.31663,-1.33312 -5.24685,-3.21089 -9.07162,-6.49906 -18.56298,-15.95858 7.33246,6.81557 -10.36758,-6.49905 -1.95493,-1.47057 -3.45586,-3.46617 -5.18378,-5.19925 -1.29595,-1.29981 -2.69511,-2.50376 -3.88784,-3.89944 -1.40566,-1.64482 -2.74309,-3.36218 -3.88784,-5.19925 -1.02389,-1.64311 -1.63341,-3.51689 -2.5919,-5.19924 -0.77275,-1.35636 -1.72792,-2.59962 -2.59189,-3.89944 -0.86396,-1.29981 -1.61891,-2.67958 -2.59189,-3.89943 -0.76327,-0.95693 -1.82862,-1.64269 -2.59189,-2.59962 -0.97299,-1.21986 -1.61892,-2.67959 -2.5919,-3.89944 -1.52654,-1.91387 -3.71759,-3.23848 -5.18378,-5.19925 -0.57957,-0.77506 -0.86397,-1.73307 -1.29595,-2.59962 -0.43198,-0.86654 -1.06168,-1.65973 -1.29594,-2.59962 -0.20955,-0.84067 0,-1.73309 0,-2.59963 -0.43199,-0.86653 -0.99049,-1.68051 -1.29596,-2.59962 -0.29712,-0.89406 0.38233,-3.13252 0,-3.89943 -1.6014,-3.21236 -1.29594,0.44866 -1.29594,-2.59963 0,-0.43326 0,-0.86654 0,-1.29981 0,-0.43327 -0.40982,-1.1628 0,-1.29981 0.78051,-0.26094 9.25355,0 10.36757,0 1.72793,0 3.45586,0 5.18379,0 1.29594,0 2.60953,-0.21369 3.88783,0 1.34747,0.22524 2.54039,1.07457 3.88785,1.29981 1.27831,0.21369 2.68459,-0.48274 3.88784,0 1.13444,0.45513 1.57527,1.91985 2.59189,2.59962 0.35943,0.24034 0.90957,-0.19376 1.29595,0 0.54641,0.27403 0.74953,1.02579 1.29594,1.29982 0.38638,0.19376 0.9905,-0.30637 1.29595,0 0.30545,0.30636 0.30545,0.99344 0,1.29981 -0.30545,0.30637 -0.88613,0.13701 -1.29595,0 -0.91637,-0.30637 -1.81914,-0.71852 -2.59189,-1.29981 -0.97746,-0.73528 -1.72793,-1.73309 -2.59189,-2.59963 -1.29595,-1.29981 -2.6951,-2.50376 -3.88784,-3.89943 -2.41119,-2.82143 -4.42847,-6.01261 -6.47974,-9.09868 -0.86395,-1.29982 -1.81913,-2.54309 -2.59189,-3.89944 -0.95848,-1.68235 -1.52027,-3.58703 -2.59189,-5.19925 -0.67775,-1.01965 -1.96327,-1.54878 -2.59189,-2.59962 -0.70283,-1.17487 -0.68503,-2.67396 -1.29595,-3.89943 -1.12392,-2.25456 -4.05986,-5.54432 -5.18378,-7.79887 -0.61092,-1.22548 -0.68504,-2.67396 -1.29596,-3.89944 -0.69654,-1.39725 -1.81913,-2.54308 -2.59189,-3.89944 -0.95848,-1.68234 -1.46901,-3.62251 -2.59189,-5.19924 -1.06526,-1.49581 -2.97854,-2.30342 -3.88784,-3.89944 -1.67371,-6.71478 -0.30797,-3.71285 -3.88784,-9.09868 -1.72793,-2.59962 -3.58109,-5.11975 -5.18378,-7.79887 -0.49698,-0.83076 -0.71639,-1.82457 -1.29595,-2.59962 -4.91238,-6.56937 -0.75095,1.09324 -3.88784,-5.19925 -0.86396,-1.73308 -1.52027,-3.58703 -2.59189,-5.19924 -0.33887,-0.50983 -1.02274,-0.75176 -1.29595,-1.29982 -0.38637,-0.77505 0.61092,-1.98688 0,-2.59962 -0.30545,-0.30637 -0.99049,0.30637 -1.29595,0 -0.30545,-0.30637 -0.43197,-1.29981 0,-1.29981 1.28345,0 8.23656,4.78047 9.07163,5.19925 2.44366,1.22547 5.23899,1.58192 7.77568,2.59962 1.59459,0.63974 3.5892,1.95988 5.18378,2.59962 1.26834,0.50885 2.6195,0.79097 3.88784,1.29982 0.89685,0.35981 1.6548,1.06483 2.59189,1.2998 0.83818,0.21017 1.77227,-0.27402 2.5919,0 0.57956,0.19377 0.71638,1.10605 1.29595,1.29982 0.81963,0.27402 1.77227,-0.27403 2.59189,0 0.57957,0.19376 0.71638,1.10604 1.29595,1.29981 0.81962,0.27403 1.77226,-0.27403 2.59189,0 0.57957,0.19377 0.86397,0.86654 1.29595,1.29981 0.86396,0.43327 1.67552,0.99344 2.59189,1.29981 0.40981,0.13702 0.88613,-0.13701 1.29594,0 0.91638,0.30637 1.67552,0.99345 2.59189,1.29981 0.40983,0.13701 0.86397,0 1.29595,0 0.86397,0.43327 1.67553,0.99345 2.5919,1.29982 0.40982,0.13701 0.90956,-0.19377 1.29595,0 0.54641,0.27402 0.74952,1.02578 1.29594,1.29981 0.38638,0.19376 0.86396,0 1.29595,0 2.59189,0 5.18378,0 7.77567,0 0.43199,0 0.9905,0.30637 1.29595,0 0.95344,-0.95628 -1.0429,-2.34582 -1.29595,-2.59963 -0.86396,-0.86653 -1.72792,-1.73308 -2.59189,-2.59962 -0.86396,-0.86655 -1.61443,-1.86434 -2.59189,-2.59962 -0.77276,-0.5813 -1.81914,-0.71852 -2.59189,-1.29982 -0.97746,-0.73528 -1.6378,-1.83407 -2.59189,-2.59962 -1.21623,-0.97589 -2.67162,-1.62374 -3.88785,-2.59962 -1.90817,-1.53109 -3.45585,-3.46617 -5.18378,-5.19925 -3.45586,-3.46616 -6.91171,-6.93233 -10.36757,-10.39849 -0.86397,-0.86655 -1.82862,-1.64269 -2.59189,-2.59962 -0.97299,-1.21986 -1.49056,-2.79481 -2.5919,-3.89944 -1.10134,-1.10462 -2.67161,-1.62374 -3.88784,-2.59962 -0.95409,-0.76555 -1.82862,-1.64269 -2.59189,-2.59962 -0.97298,-1.21986 -1.37566,-2.92356 -2.59189,-3.89944 -1.06671,-0.85591 -2.71647,-0.59489 -3.88784,-1.29982 -1.57157,-0.94574 -2.59189,-2.59962 -3.88784,-3.89942 -0.25305,-0.25381 -2.24938,-1.64336 -1.29595,-2.59963 0.30546,-0.30637 0.86396,0 1.29595,0 2.59189,0 5.18378,0 7.77568,0 7.34369,0 14.68739,0 22.03109,0 1.72792,0 3.45585,0 5.18378,0 1.29594,0 2.60492,0.18382 3.88785,0 1.7632,-0.25264 3.4269,-1.00612 5.18378,-1.29981 1.62896,-0.2723 4.66818,0 6.47973,0 0.43198,0 1.29594,0.43327 1.29594,0 0,-0.61274 -0.74952,-1.02579 -1.29594,-1.29982 -0.38638,-0.19376 -0.90957,0.19377 -1.29595,0 -0.54641,-0.27402 -0.78764,-0.95992 -1.29594,-1.2998 -19.6185,-12.51638 -36.35721,-22.51922 -47.95002,-41.59398 -1.90695,-1.2751 -3.27684,-3.92416 -5.18379,-5.19924 -0.80371,-0.53741 -1.78818,-0.76241 -2.59189,-1.29982 -0.50831,-0.33989 -0.71638,-1.10604 -1.29595,-1.2998 -0.81963,-0.27404 -1.77227,0.27402 -2.59189,0 -0.57957,-0.19378 -0.74953,-1.0258 -1.29595,-1.29982 -0.38637,-0.19376 -0.90957,0.19376 -1.29594,0 -2.37552,-1.33009 -0.60385,-3.67925 -1.29595,-1.29982 -0.0588,0.0589 -5.8687,0 -6.47974,0 -0.43198,0 -0.90956,0.19378 -1.29594,0 93.46824,1.88721 39.98742,-6.86823 12.95378,-37.28904 l -79.44925,0"
       id="path3793"
       inkscape:connector-curvature="0"
       sodipodi:nodetypes="cccssscsssssssscccsssccsssssssscccssccssssssssssssssscsccssscssssscsssssssssssssscsssssssssssssssssssssssssssssssssssssssssssssssssssssssssssssssssscsssssssssssscccssssssssssssscssssssssssssssssssccssscsscssssssssssssssssssssssssssscsccsscssccsccc" />
    <path
       style="fill:#000000;stroke:#000000;stroke-width:1px;stroke-linecap:butt;stroke-linejoin:miter;stroke-opacity:1"
       d="m 509.47738,417.42008 c 0.37737,-0.18869 4.99029,0 5.74078,0 1.98638,0 7.3441,-0.31677 8.61116,0 0.65636,0.16409 0.9568,0.95679 1.4352,1.43519 0.8441,0.8441 5.07617,5.40847 5.74077,5.74078 0.4279,0.21394 1.00731,-0.21395 1.4352,0 0.60513,0.30256 0.83006,1.13263 1.43519,1.43519 0.42789,0.21395 1.09692,-0.33828 1.4352,0 0.33828,0.33828 -0.33828,1.09692 0,1.4352 0.67655,0.67655 2.0146,-0.4279 2.87038,0 1.93218,0.96608 0.93821,1.9043 2.87039,2.87038 0.4279,0.21395 1.00731,-0.21394 1.4352,0 0.60513,0.30257 0.83006,1.13263 1.43519,1.4352 0.42789,0.21394 1.0073,-0.21395 1.4352,0 3.54694,1.77347 -0.4954,1.43519 2.87038,1.43519 0.4784,0 0.9568,0 1.4352,0 0.4784,0 1.0073,-0.21394 1.43519,0 1.21026,0.60513 1.66013,2.26526 2.87039,2.87039 0.76085,0.38042 2.10954,-0.38042 2.87039,0 0.60513,0.30257 0.83006,1.13263 1.43519,1.43519 0.85579,0.4279 2.87039,-0.95679 2.87039,0 0,0.4784 -1.43519,0.4784 -1.43519,0 0,-0.47839 1.09691,0.33828 1.43519,0 0.0462,-0.0461 0,-3.9575 0,-4.30558 -3.16044,-6.83171 22.16413,7.72582 12.91675,-4.30558 0.85578,0.42789 1.96269,-0.30257 2.87039,0 0.64183,0.21395 0.83006,1.13263 1.43519,1.43519 0.42789,0.21395 1.0073,-0.21394 1.43519,0 0.60514,0.30257 0.83007,1.13263 1.4352,1.4352 0.42789,0.21394 1.09691,-0.33828 1.43519,0 0.33828,0.33828 -0.33828,1.09691 0,1.43519 0.67656,0.67656 2.19383,-0.67655 2.87039,0 2.96947,2.96947 -4.53774,-0.11608 1.43519,2.87039 0.85579,0.42789 2.19384,-0.67656 2.87039,0 0.33828,0.33828 -0.33828,1.09692 0,1.43519 0.33828,0.33828 1.0073,-0.21394 1.4352,0 0.60513,0.30257 0.83006,1.13263 1.43519,1.4352 0.42789,0.21394 1.09692,-0.33828 1.4352,0 0.33827,0.33828 -0.33828,1.09691 0,1.43519 0.13825,0.13826 4.29899,0.0197 4.30558,0 0.45385,-1.36154 0,-2.87039 0,-4.30558 0,-0.4784 -0.33828,-1.09692 0,-1.43519 0.67655,-0.67656 2.0146,0.42789 2.87039,0 0.60513,-0.30257 0.83006,-1.13263 1.43519,-1.4352 0.42789,-0.21394 1.0073,0.21395 1.43519,0 0.60514,-0.30256 0.83007,-1.13263 1.4352,-1.43519 0.42789,-0.21395 1.09691,0.33828 1.43519,0 0.33828,-0.33828 -0.33828,-1.09692 0,-1.4352 0.33828,-0.33827 1.0073,0.21395 1.4352,0 0.60513,-0.30256 0.83006,-1.13262 1.43519,-1.43519 0.42789,-0.21395 1.0073,0.21395 1.43519,0 0.38106,-0.19053 4.11506,-3.92452 4.30559,-4.30558 0.42789,-0.85579 -0.67656,-2.19383 0,-2.87039 0.33828,-0.33828 1.0073,0.21395 1.43519,0 5.97294,-2.98647 -1.53427,0.0991 1.4352,-2.87039 0.33827,-0.33828 1.09691,0.33828 1.43519,0 0.67656,-0.67656 -0.67656,-2.19383 0,-2.87039 0.33828,-0.33828 1.09692,0.33828 1.43519,0 0.33828,-0.33828 -0.33827,-1.09691 0,-1.43519 2.96947,-2.96947 -0.11608,4.53774 2.87039,-1.4352 0.21395,-0.42789 -0.21394,-1.0073 0,-1.43519 0.30257,-0.60513 1.13263,-0.83006 1.4352,-1.43519 0.21394,-0.4279 -0.33828,-1.09692 0,-1.4352 0.33827,-0.33828 1.0073,0.21395 1.43519,0 0.60513,-0.30256 0.9568,-0.95679 1.43519,-1.43519 0.4784,-0.4784 1.13263,-0.83006 1.4352,-1.4352 0.21394,-0.42789 -0.33828,-1.09691 0,-1.43519 0.33828,-0.33828 1.0073,0.21395 1.43519,0 0.91418,-0.45709 6.04824,-6.04824 7.17597,-7.17597 0.4784,-0.4784 1.13263,-0.83006 1.4352,-1.43519 0.21394,-0.4279 -0.21395,-1.00731 0,-1.4352 0.30256,-0.60513 0.95679,-0.95679 1.43519,-1.43519 0.28024,-0.28024 1.81451,-2.49107 2.87039,-1.4352 0.4444,0.44441 -0.4444,6.73157 0,7.17597 0.33828,0.33828 1.0073,-0.21394 1.43519,0 0.60513,0.30257 0.83007,1.13263 1.4352,1.4352 0.42789,0.21394 1.09691,-0.33828 1.43519,0 0.33828,0.33828 -0.33828,1.09691 0,1.43519 0.33828,0.33828 1.0073,-0.21394 1.4352,0 1.21026,0.60513 1.66012,2.26526 2.87038,2.87039 0.4279,0.21395 1.09692,-0.33828 1.4352,0 0.67656,0.67656 -0.67656,2.19383 0,2.87039 0.33828,0.33828 1.09691,-0.33828 1.43519,0 0.33828,0.33828 -0.33828,1.09691 0,1.43519 0.33828,0.33828 1.09692,-0.33828 1.4352,0 0.33828,0.33828 -0.21395,1.0073 0,1.4352 0.30256,0.60513 0.95679,0.95679 1.43519,1.43519 0.4784,0.4784 0.83006,1.13263 1.43519,1.43519 0.4279,0.21395 1.09692,-0.33827 1.4352,0 0.33828,0.33828 -0.21395,1.00731 0,1.4352 0.30256,0.60513 0.9568,0.95679 1.43519,1.43519 0.4784,0.4784 0.83007,1.13263 1.4352,1.4352 0.42789,0.21394 1.09691,-0.33828 1.43519,0 0.33828,0.33828 -0.21394,1.0073 0,1.43519 2.98647,5.97294 -0.0991,-1.53427 2.87039,1.4352 0.33828,0.33827 -0.21395,1.0073 0,1.43519 2.98647,5.97293 -0.0991,-1.53427 2.87039,1.43519 0.33828,0.33828 -0.33828,1.09692 0,1.4352 0.67655,0.67655 2.19383,-0.67656 2.87039,0 0.33827,0.33828 -0.21395,1.0073 0,1.43519 2.98646,5.97294 -0.0991,-1.53427 2.87038,1.4352 0.33828,0.33827 -0.33827,1.09691 0,1.43519 0.33828,0.33828 1.00731,-0.21395 1.4352,0 0.60513,0.30257 0.83006,1.13263 1.43519,1.43519 0.85579,0.4279 2.01461,-0.42789 2.87039,0 0.60513,0.30257 0.83006,1.13263 1.43519,1.4352 1.9136,0.95679 1.4352,-0.4784 1.4352,-1.4352 0,-0.34807 -0.0462,-4.25942 0,-4.30558 0.33828,-0.33828 1.09691,0.33828 1.43519,0 0.7176,-0.7176 -0.71759,-3.58798 0,-4.30558 0.33828,-0.33828 1.09692,0.33828 1.4352,0 0.33828,-0.33828 -0.21395,-1.0073 0,-1.43519 0.30256,-0.60514 1.13263,-0.83007 1.43519,-1.4352 0.21395,-0.42789 -0.33828,-1.09691 0,-1.43519 2.96947,-2.96947 -0.11608,4.53774 2.87039,-1.4352 0.21395,-0.42789 -0.21395,-1.0073 0,-1.43519 0.30256,-0.60513 1.13263,-0.83006 1.43519,-1.4352 0.21395,-0.42789 -0.33827,-1.09691 0,-1.43519 0.33828,-0.33828 0.9568,0 1.4352,0 0,-0.4784 -0.21395,-1.0073 0,-1.43519 0.30256,-0.60513 1.13263,-0.83007 1.43519,-1.4352 0.21395,-0.42789 0,-0.95679 0,-1.43519 0.4784,-0.4784 1.13263,-0.83006 1.4352,-1.4352 0.21394,-0.42789 -0.33828,-1.09691 0,-1.43519 0.33827,-0.33828 1.09691,0.33828 1.43519,0 0.33828,-0.33828 -0.33828,-1.09692 0,-1.43519 0.33828,-0.33828 1.09692,0.33827 1.43519,0 0.33828,-0.33828 -0.33827,-1.09692 0,-1.4352 0.0462,-0.0461 3.95751,0 4.30559,0 0.47839,0 0.95679,0 1.43519,0 0.4784,0 1.09692,-0.33828 1.43519,0 0.33828,0.33828 -0.21394,1.0073 0,1.4352 2.98647,5.97293 -0.0991,-1.53428 2.87039,1.43519 0.33828,0.33828 -0.33828,1.09692 0,1.43519 0.33828,0.33828 1.09692,-0.33827 1.4352,0 0.33828,0.33828 -0.33828,1.09692 0,1.4352 0.33828,0.33828 1.09691,-0.33828 1.43519,0 0.33828,0.33828 -0.33828,1.09691 0,1.43519 0.33828,0.33828 1.09692,-0.33828 1.4352,0 0.33827,0.33828 -0.33828,1.09692 0,1.4352 0.33827,0.33827 1.09691,-0.33828 1.43519,0 0.33828,0.33827 -0.33828,1.09691 0,1.43519 0.33828,0.33828 1.09692,-0.33828 1.43519,0 0.33828,0.33828 -0.21394,1.0073 0,1.43519 1.725,3.45 1.14539,-0.57961 2.87039,2.87039 0.21395,0.4279 -0.33828,1.09692 0,1.4352 2.96947,2.96946 -0.11608,-4.53774 2.87039,1.43519 0.21395,0.42789 0,0.9568 0,1.4352 0.4784,0.47839 1.13263,0.83006 1.43519,1.43519 0.21395,0.42789 -0.33827,1.09692 0,1.43519 0.33828,0.33828 1.09692,-0.33827 1.4352,0 0.33828,0.33828 -0.21395,1.00731 0,1.4352 2.98647,5.97293 -0.0991,-1.53428 2.87039,1.43519 0.33828,0.33828 -0.33828,1.09692 0,1.4352 0.33828,0.33827 1.09691,-0.33828 1.43519,0 0.0462,0.0461 0,3.95751 0,4.30558 0,0.52705 0.0577,5.68302 0,5.74077 -0.67656,0.67656 -2.19383,-0.67655 -2.87039,0 -0.33828,0.33828 0.33828,1.09692 0,1.4352 -0.30684,0.30684 -4.94951,-0.26375 -5.74077,0 -1.01484,0.33828 -1.85556,1.09691 -2.87039,1.43519 -1.52506,0.50835 -4.21572,-0.50835 -5.74078,0 -0.64184,0.21395 -0.83006,1.13263 -1.43519,1.4352 -1.14816,0.57407 -3.15743,-0.57408 -4.30559,0 -0.42789,0.21394 0.33828,1.09691 0,1.43519 -0.001,10e-4 -4.29907,-0.002 -4.30558,0 -0.64184,0.21395 -0.79335,1.22125 -1.43519,1.4352 -1.71619,0.57206 -4.02459,-0.57207 -5.74078,0 -0.64184,0.21394 -0.79335,1.22124 -1.43519,1.43519 -1.36155,0.45385 -2.94404,-0.45385 -4.30558,0 -1.01484,0.33828 -1.85556,1.09692 -2.87039,1.43519 -0.9077,0.30257 -1.96269,-0.30256 -2.87039,0 -1.01484,0.33828 -1.85555,1.09692 -2.87039,1.4352 -2.15279,0.71759 -1.43519,-1.4352 -4.30558,0 -0.42789,0.21394 0.33828,1.09691 0,1.43519 -0.33828,0.33828 -0.9568,0 -1.4352,0 -1.91359,0 -3.86434,-0.37528 -5.74077,0 -2.09792,0.41958 -3.6652,2.35149 -5.74078,2.87039 -0.92823,0.23206 -1.96269,-0.30257 -2.87039,0 -0.64184,0.21395 -0.79335,1.22125 -1.43519,1.43519 -0.9077,0.30257 -1.94216,-0.23205 -2.87039,0 -1.03779,0.25945 -1.8326,1.17575 -2.87039,1.4352 -2.49185,0.62296 -6.11931,-0.62296 -8.61116,0 -1.03779,0.25945 -1.82143,1.2254 -2.87039,1.43519 -1.40732,0.28147 -2.89826,-0.28146 -4.30558,0 -1.04896,0.20979 -1.82143,1.22541 -2.87039,1.4352 -1.40732,0.28146 -2.88992,-0.23595 -4.30558,0 -1.49225,0.2487 -2.82214,1.1385 -4.30559,1.43519 -2.29999,0.46 -4.87598,-0.46 -7.17597,0 -1.04895,0.20979 -1.82143,1.2254 -2.87038,1.43519 -1.51555,0.30311 -7.9708,0 -10.04636,0 -1.4352,0 -2.89826,-0.28146 -4.30559,0 -1.04895,0.2098 -1.83259,1.17575 -2.87038,1.4352 -0.92823,0.23206 -1.9136,0 -2.87039,0 -0.9568,0 -1.91359,0 -2.87039,0 -3.34879,0 -6.69757,0 -10.04636,0 -12.43835,0 -24.8767,0 -37.31505,0 -12.43835,0 -24.87669,0 -37.31504,0 -5.74078,0 -11.48156,0 -17.22233,0 -1.14523,0 -6.31494,0.28701 -7.17597,0 -1.01484,-0.33828 -1.85556,-1.09692 -2.87039,-1.4352 -0.9077,-0.30256 -2.01461,0.4279 -2.87039,0 -0.60513,-0.30256 -0.79336,-1.22124 -1.43519,-1.43519 -0.35779,-0.11926 -7.02813,0.14784 -7.17597,0 -0.33828,-0.33828 0.33827,-1.09692 0,-1.43519 -0.67656,-0.67656 -1.9627,0.30256 -2.87039,0 -1.01484,-0.33828 -1.85556,-1.09692 -2.87039,-1.4352 -0.9077,-0.30256 -2.0146,0.42789 -2.87039,0 -0.60513,-0.30256 -0.83006,-1.13263 -1.43519,-1.43519 -1.14816,-0.57408 -3.15743,0.57408 -4.30559,0 -0.60513,-0.30257 -0.83006,-1.13263 -1.43519,-1.4352 -0.42789,-0.21394 -1.0073,0.21395 -1.43519,0 -0.60513,-0.30256 -0.83007,-1.13262 -1.4352,-1.43519 -0.42789,-0.21395 -0.98134,0.15128 -1.43519,0 -1.01484,-0.33828 -1.85555,-1.09692 -2.87039,-1.43519 -0.45385,-0.15129 -1.0073,0.21394 -1.43519,0 -0.60514,-0.30257 -0.83007,-1.13263 -1.4352,-1.4352 -0.42789,-0.21394 -0.95679,0 -1.43519,0 -0.9568,0 -1.91359,0 -2.87039,0 -0.9568,0 -1.91359,0 -2.87039,0 -0.4784,0 -1.0073,0.21395 -1.43519,0 -0.60513,-0.30256 -1.13263,-0.83006 -1.4352,-1.43519 -0.1472,-0.2944 -0.2024,-4.10319 0,-4.30558 0.14352,-0.14352 4.16207,-0.14352 4.30558,0 0.33828,0.33827 0,0.95679 0,1.43519 0,2.62224 -0.34422,1.43519 -2.87038,1.43519 -6.21918,0 -12.43835,0 -18.65753,0 -0.47839,0 -0.95679,0 -1.43519,0 -0.4784,0 -1.09692,0.33828 -1.4352,0 -0.71759,-0.71759 0.7176,-3.58798 0,-4.30558 -2.96946,-2.96947 0.11608,4.53774 -2.87038,-1.43519 -0.57408,-1.14816 0.57407,-3.15743 0,-4.30559 -0.30257,-0.60513 -1.13263,-0.83006 -1.4352,-1.43519 -0.45856,-0.91712 0.38506,-4.58559 0,-5.74078 -0.33828,-1.01483 -1.17574,-1.83259 -1.43519,-2.87038 -0.37168,-1.48671 0,-4.0951 0,-5.74078 0,-3.34879 0,-6.69757 0,-10.04636 0,-2.87039 0,-5.74078 0,-8.61116 0,-0.4784 0,-0.9568 0,-1.4352 0,-0.4784 -0.4784,-1.43519 0,-1.43519 2.98647,0 0.57748,2.01267 1.43519,2.87039 0.33828,0.33827 1.09692,-0.33828 1.4352,0 0.67655,0.67655 -0.67656,2.19383 0,2.87038 0.33828,0.33828 1.09691,-0.33827 1.43519,0 0.47435,0.47435 -0.47435,2.39605 0,2.87039 0.33828,0.33828 1.09692,-0.33828 1.43519,0 0.67656,0.67656 -0.67655,2.19383 0,2.87039 0.33828,0.33828 1.09692,-0.33828 1.4352,0 0.67656,0.67656 -0.67656,2.19383 0,2.87039 0.33828,0.33828 1.0073,-0.21395 1.43519,0 0.60513,0.30256 0.9568,0.95679 1.4352,1.43519 0.4784,0.4784 1.13263,0.83007 1.43519,1.4352 0.21395,0.42789 -0.33828,1.09691 0,1.43519 0.33828,0.33828 1.09692,-0.33828 1.4352,0 0.33827,0.33828 -0.33828,1.09692 0,1.4352 0.33827,0.33827 1.09691,-0.33828 1.43519,0 0.33828,0.33827 -0.33828,1.09691 0,1.43519 0.33828,0.33828 1.09692,-0.33828 1.43519,0 0.33828,0.33828 -0.33827,1.09692 0,1.43519 0.14352,0.14352 4.16207,0.14352 4.30559,0 0.33827,-0.33827 -0.21395,-1.0073 0,-1.43519 4.75994,-4.75994 -0.67656,1.35311 1.43519,-2.87039 4.75994,-4.75994 -0.67656,1.35312 1.43519,-2.87039 0.30257,-0.60513 1.13263,-0.83006 1.4352,-1.43519 0.42789,-0.85579 -0.67656,-2.19383 0,-2.87039 0.33828,-0.33828 1.0073,0.21395 1.43519,0 0.60513,-0.30256 0.9568,-0.9568 1.4352,-1.43519 0.47839,-0.4784 1.13263,-0.83007 1.43519,-1.4352 0.42789,-0.85578 -0.42789,-2.0146 0,-2.87039 0.30257,-0.60513 0.83006,-1.13262 1.43519,-1.43519 0.4279,-0.21395 1.22125,0.42789 1.4352,0 0.42789,-0.85578 -0.42789,-2.0146 0,-2.87039 0.21395,-0.42789 1.09691,0.33828 1.43519,0 0.67656,-0.67656 -0.42789,-2.0146 0,-2.87039 0.30257,-0.60513 0.9568,-0.95679 1.4352,-1.43519 0.4784,-0.4784 1.13263,-0.83006 1.43519,-1.43519 0.42789,-0.85579 -0.67656,-2.19384 0,-2.87039 0.33828,-0.33828 1.09692,0.33828 1.4352,0 0.33827,-0.33828 -0.33828,-1.09692 0,-1.4352 0.33827,-0.33828 0.95679,0 1.43519,0 0.4784,0 1.09692,-0.33828 1.43519,0 0.67656,0.67656 -0.42789,2.01461 0,2.87039 0.30257,0.60513 1.13263,0.83006 1.4352,1.4352 0.38929,0.77857 -0.3927,5.34807 0,5.74077 0.33828,0.33828 1.09691,-0.33828 1.43519,0 0.33828,0.33828 -0.33828,1.09692 0,1.4352 0.33828,0.33827 1.09692,-0.33828 1.4352,0 0.33827,0.33827 -0.21395,1.0073 0,1.43519 0.30256,0.60513 1.13262,0.83006 1.43519,1.43519 0.21395,0.4279 -0.33828,1.09692 0,1.4352 2.96947,2.96947 -0.11608,-4.53774 2.87039,1.43519 0.98982,1.97965 -1.7381,1.28374 1.43519,2.87039 3.82719,0 -0.4784,-0.4784 1.4352,1.43519 0.33828,0.33828 1.09691,-0.33827 1.43519,0 0.33828,0.33828 -0.15128,0.98135 0,1.4352 0.33828,1.01483 0.67878,2.11397 1.43519,2.87039 0.33828,0.33828 1.09692,-0.33828 1.4352,0 0.33828,0.33828 -0.33828,1.09691 0,1.43519 0.33828,0.33828 1.09691,-0.33828 1.43519,0 0.33828,0.33828 -0.21394,1.0073 0,1.4352 0.30257,0.60513 1.13263,0.83006 1.4352,1.43519 0.21394,0.42789 -0.33828,1.09692 0,1.43519 0.33828,0.33828 1.09691,-0.33827 1.43519,0 0.33828,0.33828 -0.33828,1.09692 0,1.4352 3.82719,0 -0.4784,-0.4784 1.4352,1.43519 2.06079,2.06079 1.32479,-2.64959 1.43519,-2.87039 0.30257,-0.60513 1.13263,-0.83006 1.43519,-1.43519 0.21395,-0.42789 0,-0.9568 0,-1.43519 51.17032,-0.86697 8.60979,57.2068 34.44466,-2.87039 z"
       id="path3800"
       inkscape:connector-curvature="0"
       sodipodi:nodetypes="cssscccsscsccsssssccsscccscscsssssccccccscccccscsssssssssccsccccsssssccscsccsscsssssssssccscsssssscsscscssscsssccsscccccccscscscssccsccssscscscssssccscssccscssssscsscscssssssssssscssssssssssscsssssssssccsssssssccsscscssscsccssssssscsssssssscsscscssscscscscscssccscsccscsscscsssccscsssscscssscscssssscccccssccc" />
  </g>
</svg>
