<?xml version="1.0" encoding="UTF-8" standalone="no"?>
<!-- Created with Inkscape (http://www.inkscape.org/) -->

<svg
   xmlns:osb="http://www.openswatchbook.org/uri/2009/osb"
   xmlns:dc="http://purl.org/dc/elements/1.1/"
   xmlns:cc="http://creativecommons.org/ns#"
   xmlns:rdf="http://www.w3.org/1999/02/22-rdf-syntax-ns#"
   xmlns:svg="http://www.w3.org/2000/svg"
   xmlns="http://www.w3.org/2000/svg"
   xmlns:xlink="http://www.w3.org/1999/xlink"
   xmlns:sodipodi="http://sodipodi.sourceforge.net/DTD/sodipodi-0.dtd"
   xmlns:inkscape="http://www.inkscape.org/namespaces/inkscape"
   width="1100"
   height="575"
   id="svg2"
   version="1.1"
   inkscape:version="0.48.3.1 r9886"
   sodipodi:docname="003.svg">
  <defs
     id="defs4">
    <linearGradient
       inkscape:collect="always"
       id="linearGradient5319">
      <stop
         style="stop-color:#1a1a1a;stop-opacity:1;"
         offset="0"
         id="stop5321" />
      <stop
         style="stop-color:#1a1a1a;stop-opacity:0;"
         offset="1"
         id="stop5323" />
    </linearGradient>
    <linearGradient
       id="linearGradient3847"
       osb:paint="solid">
      <stop
         style="stop-color:#000000;stop-opacity:1;"
         offset="0"
         id="stop3849" />
    </linearGradient>
    <linearGradient
       inkscape:collect="always"
       id="linearGradient3800">
      <stop
         style="stop-color:#333333;stop-opacity:1;"
         offset="0"
         id="stop3802" />
      <stop
         style="stop-color:#333333;stop-opacity:0;"
         offset="1"
         id="stop3804" />
    </linearGradient>
    <linearGradient
       id="linearGradient3757">
      <stop
         id="stop5309"
         offset="0"
         style="stop-color:#333333;stop-opacity:0.49803922;" />
      <stop
         style="stop-color:#333333;stop-opacity:0;"
         offset="1"
         id="stop3761" />
    </linearGradient>
    <linearGradient
       inkscape:collect="always"
       xlink:href="#linearGradient3757"
       id="linearGradient3763"
       x1="0.76056302"
       y1="167.8526"
       x2="335.24002"
       y2="167.8526"
       gradientUnits="userSpaceOnUse"
       gradientTransform="translate(-193.15463,-544.5177)" />
    <linearGradient
       inkscape:collect="always"
       xlink:href="#linearGradient3757"
       id="linearGradient3767"
       gradientUnits="userSpaceOnUse"
       gradientTransform="matrix(1,0,0,0.58787354,620.93694,-406.47014)"
       x1="0.76056302"
       y1="167.8526"
       x2="335.24002"
       y2="167.8526" />
    <linearGradient
       inkscape:collect="always"
       xlink:href="#linearGradient3800"
       id="linearGradient3806"
       x1="492.22552"
       y1="212.41411"
       x2="493.36273"
       y2="372.43805"
       gradientUnits="userSpaceOnUse"
       gradientTransform="translate(-168.84599,192.22493)" />
    <linearGradient
       inkscape:collect="always"
       xlink:href="#linearGradient3757"
       id="linearGradient3808"
       gradientUnits="userSpaceOnUse"
       gradientTransform="matrix(1,0,0,0.58181286,-193.15463,-404.44004)"
       x1="0.76056302"
       y1="167.8526"
       x2="335.24002"
       y2="167.8526" />
    <radialGradient
       inkscape:collect="always"
       xlink:href="#linearGradient3757"
       id="radialGradient5307"
       cx="494.58173"
       cy="98.708038"
       fx="494.58173"
       fy="98.708038"
       r="549.13116"
       gradientTransform="matrix(-0.00810157,0.6226726,-1.1278018,-0.01467378,257.18723,414.00433)"
       gradientUnits="userSpaceOnUse" />
    <radialGradient
       inkscape:collect="always"
       xlink:href="#linearGradient5319"
       id="radialGradient5325"
       cx="406.11021"
       cy="373.33887"
       fx="406.11021"
       fy="373.33887"
       r="549.84448"
       gradientTransform="matrix(1,0,0,0.30415547,0,259.78581)"
       gradientUnits="userSpaceOnUse" />
    <radialGradient
       inkscape:collect="always"
       xlink:href="#linearGradient5319"
       id="radialGradient5346"
       gradientUnits="userSpaceOnUse"
       gradientTransform="matrix(1,0,0,0.30415547,0,259.78581)"
       cx="406.11021"
       cy="373.33887"
       fx="406.11021"
       fy="373.33887"
       r="549.84448" />
    <radialGradient
       inkscape:collect="always"
       xlink:href="#linearGradient5319"
       id="radialGradient5350"
       gradientUnits="userSpaceOnUse"
       gradientTransform="matrix(1,0,0,0.30415547,0,259.78581)"
       cx="406.11021"
       cy="373.33887"
       fx="406.11021"
       fy="373.33887"
       r="549.84448" />
  </defs>
  <sodipodi:namedview
     id="base"
     pagecolor="#ffffff"
     bordercolor="#666666"
     borderopacity="1.0"
     inkscape:pageopacity="0.0"
     inkscape:pageshadow="2"
     inkscape:zoom="0.55430119"
     inkscape:cx="550.53772"
     inkscape:cy="300.23764"
     inkscape:document-units="px"
     inkscape:current-layer="layer1"
     showgrid="false"
     inkscape:window-width="1311"
     inkscape:window-height="679"
     inkscape:window-x="11"
     inkscape:window-y="42"
     inkscape:window-maximized="0"
     showguides="true"
     inkscape:guide-bbox="true"
     fit-margin-top="0"
     fit-margin-left="0"
     fit-margin-right="0"
     fit-margin-bottom="0"
     inkscape:snap-global="true">
    <sodipodi:guide
       orientation="1,0"
       position="1099.0229,-1.6075554"
       id="guide3027" />
    <sodipodi:guide
       orientation="0,1"
       position="1101.7476,1.0353746"
       id="guide3033" />
    <sodipodi:guide
       orientation="0,1"
       position="-2.53521,574.25888"
       id="guide3005" />
    <sodipodi:guide
       orientation="1,0"
       position="0.76056301,577.08141"
       id="guide3007" />
  </sodipodi:namedview>
  <metadata
     id="metadata7">
    <rdf:RDF>
      <cc:Work
         rdf:about="">
        <dc:format>image/svg+xml</dc:format>
        <dc:type
           rdf:resource="http://purl.org/dc/dcmitype/StillImage" />
        <dc:title />
      </cc:Work>
    </rdf:RDF>
  </metadata>
  <g
     inkscape:label="Layer 1"
     inkscape:groupmode="layer"
     id="layer1"
     transform="translate(142.84595,-208.8125)"
     style="display:inline">
    <g
       id="g5353">
      <rect
         y="208.8125"
         x="-142.84595"
         height="575"
         width="1100"
         id="rect3023"
         style="fill:#000000;fill-opacity:1;fill-rule:evenodd;stroke:none" />
      <rect
         y="206.10066"
         x="-143.73427"
         height="334.47641"
         width="1099.689"
         id="rect3810"
         style="fill:url(#radialGradient5325);fill-opacity:1;fill-rule:evenodd;stroke:none" />
      <path
         transform="translate(-142.84595,208.8125)"
         inkscape:connector-curvature="0"
         id="path5327"
         d="m 68.554786,151.04277 c 2.405432,0 7.216294,-2.40543 7.216294,0 0,2.40543 -9.621725,0 -7.216294,0 8.419009,0 16.838018,0 25.257027,0 0.601358,0 1.202716,0 1.804073,0 0.601358,0 1.378849,-0.42523 1.804074,0 0.425224,0.42522 -0.425225,1.37885 0,1.80407 0.850448,0.85045 2.532405,-0.53787 3.60815,0 0.76066,0.38033 1.04341,1.42374 1.80407,1.80407 1.07574,0.53788 2.7577,-0.85044 3.60815,0 0.42522,0.42523 -0.42523,1.37885 0,1.80408 0.42522,0.42522 1.2662,-0.26894 1.80407,0 0.76066,0.38033 1.04341,1.42374 1.80407,1.80407 0.53787,0.26894 1.26621,-0.26893 1.80408,0 0.76066,0.38033 1.04341,1.42374 1.80407,1.80407 0.53787,0.26894 1.2662,-0.26893 1.80407,0 0.76067,0.38034 1.04341,1.42375 1.80408,1.80408 0.53787,0.26893 1.37885,-0.42523 1.80407,0 0.42522,0.42522 -0.42522,1.37885 0,1.80407 3.73269,3.73269 -0.14591,-5.70405 3.60815,1.80407 0.26893,0.53788 -0.42523,1.37885 0,1.80408 0.85044,0.85045 2.5324,-0.53787 3.60814,0 7.50812,3.75406 -1.92862,-0.12455 1.80408,3.60814 0.85044,0.85045 2.5324,-0.53787 3.60814,0 0.76067,0.38034 1.04341,1.42375 1.80408,1.80408 0.53787,0.26893 1.37885,-0.42523 1.80407,0 0.42522,0.42522 -0.42522,1.37885 0,1.80407 0.42522,0.42523 1.2662,-0.26893 1.80407,0 0.76067,0.38033 1.04341,1.42374 1.80408,1.80407 0.53787,0.26894 1.37885,-0.42522 1.80407,0 0.42522,0.42523 -0.42522,1.37885 0,1.80408 0.42522,0.42522 1.2662,-0.26894 1.80407,0 1.52133,0.76066 2.08682,2.84748 3.60815,3.60814 0.53787,0.26894 1.20271,0 1.80407,0 0.60136,0.60136 1.04341,1.42375 1.80408,1.80408 0.53787,0.26893 1.2662,-0.26894 1.80407,0 2.16489,1.08244 3.24733,4.32977 5.41222,5.41222 0.53787,0.26893 1.20271,0 1.80407,0 0.60136,0.60136 1.04341,1.42374 1.80408,1.80407 1.07574,0.53787 2.5324,-0.53787 3.60814,0 0.76067,0.38033 1.04341,1.42374 1.80408,1.80407 0.53787,0.26894 1.37885,-0.42522 1.80407,0 0.42522,0.42523 -0.42522,1.37885 0,1.80408 0.36882,0.36882 4.69692,-0.35765 5.41222,0 0.76066,0.38033 1.04341,1.42374 1.80407,1.80407 1.44326,0.72163 3.96896,-0.72163 5.41222,0 0.76067,0.38033 1.04341,1.42374 1.80408,1.80407 0.7153,0.35765 5.0434,-0.36881 5.41222,0 0.42522,0.42523 -0.53787,1.53514 0,1.80408 1.35164,0.67582 8.95248,-0.62399 10.82444,0 1.27567,0.42522 2.33247,1.37885 3.60814,1.80407 1.141,0.38033 2.53241,-0.53787 3.60815,0 0.76066,0.38033 1.04341,1.42374 1.80407,1.80407 1.44326,0.72163 3.96896,-0.72162 5.41222,0 0.76067,0.38034 1.04341,1.42375 1.80408,1.80408 0.53787,0.26893 1.2662,-0.26894 1.80407,0 0.76066,0.38033 1.04341,1.42374 1.80407,1.80407 1.07574,0.53787 2.53241,-0.53787 3.60815,0 0.76066,0.38033 1.04341,1.42374 1.80407,1.80407 0.53787,0.26894 1.37885,-0.42522 1.80408,0 0.42522,0.42523 -0.42523,1.37885 0,1.80408 0.36881,0.36882 4.69692,-0.35765 5.41222,0 0.76066,0.38033 1.04341,1.42374 1.80407,1.80407 0.97405,0.48703 2.6341,-0.48702 3.60815,0 0.76066,0.38033 1.0434,1.42374 1.80407,1.80407 0.53787,0.26894 1.2662,-0.26893 1.80407,0 0.76067,0.38034 0.99727,1.53514 1.80408,1.80408 1.14099,0.38033 2.44134,-0.2917 3.60814,0 1.30453,0.32613 2.33248,1.37885 3.60815,1.80407 0.5705,0.19017 1.23357,-0.19016 1.80407,0 1.27567,0.42523 2.30362,1.47794 3.60815,1.80407 1.1668,0.29171 2.46715,-0.38033 3.60815,0 0.8068,0.26894 1.09645,1.33233 1.80407,1.80408 3.3306,2.2204 7.49384,3.19182 10.82444,5.41222 0.70761,0.47174 0.99727,1.53514 1.80407,1.80407 11.63632,3.87878 -1.21801,-2.21008 5.41222,0 13.06766,4.35589 -2.84431,-0.52012 5.41222,3.60815 1.44326,0.72163 3.96896,-0.72163 5.41222,0 0.76067,0.38033 1.04341,1.42374 1.80408,1.80407 1.07574,0.53787 2.75769,-0.85045 3.60814,0 0.42523,0.42523 -0.42522,1.37885 0,1.80407 0.48799,0.48799 5.21998,-0.57671 5.41222,0 0.5705,1.7115 0,3.60815 0,5.41222 0,0.60136 -0.53787,-1.53513 0,-1.80407 0.42423,-0.21211 6.03116,0 7.2163,0 7.81765,0 15.6353,0 23.45295,0 2.40543,0 4.81086,0 7.21629,0 0.60136,0 1.20272,0 1.80408,0 0.60135,0 1.2662,-0.26893 1.80407,0 0.76066,0.38033 1.04341,1.42374 1.80407,1.80407 0.53787,0.26894 1.2662,-0.26893 1.80408,0 0.76066,0.38034 1.0434,1.42375 1.80407,1.80408 0.7153,0.35765 5.0434,-0.36882 5.41222,0 0.42522,0.42522 -0.42523,1.37885 0,1.80407 0.42522,0.42523 1.2662,-0.26893 1.80407,0 0.76067,0.38033 1.04341,1.42374 1.80408,1.80407 0.53787,0.26894 1.20271,0 1.80407,0 0.60136,0.60136 1.04341,1.42375 1.80407,1.80408 0.53787,0.26893 1.2662,-0.26894 1.80408,0 0.76066,0.38033 1.09645,1.33233 1.80407,1.80407 1.20271,0.60136 2.40543,1.20272 3.60815,1.80407 0.60135,0 1.2662,-0.26893 1.80407,0 8.25653,4.12827 -7.65544,-0.74773 5.41222,3.60815 1.14099,0.38033 2.5324,-0.53787 3.60815,0 0.76066,0.38033 1.0434,1.42374 1.80407,1.80407 0.53787,0.26894 1.20271,0 1.80407,0 0.60136,0.60136 1.04341,1.42375 1.80408,1.80408 1.07574,0.53787 2.5324,-0.53787 3.60814,0 5.98336,5.98336 -1.70089,-0.85045 3.60815,1.80407 1.52133,0.76067 2.08682,2.84748 3.60815,3.60815 0.53787,0.26893 1.2662,-0.26894 1.80407,0 2.16489,1.08244 3.24733,4.32977 5.41222,5.41222 0.53787,0.26893 1.2662,-0.26894 1.80407,0 0.72869,0.36434 7.16222,7.16222 7.2163,7.21629 0.94978,0.94978 4.93045,4.44869 5.41222,5.41222 0.26893,0.53787 -0.42523,1.37885 0,1.80407 0.42522,0.42523 1.37884,-0.42522 1.80407,0 0.42522,0.42523 -0.26894,1.26621 0,1.80408 1.08244,2.16489 4.32977,3.24733 5.41222,5.41222 0.26893,0.53787 -0.42523,1.37885 0,1.80407 0.42522,0.42523 1.37885,-0.42522 1.80407,0 0.85045,0.85045 -0.53787,2.53241 0,3.60815 0.38033,0.76066 1.42374,1.04341 1.80408,1.80407 0.26893,0.53787 0,1.20272 0,1.80407 0.60135,0.60136 1.42374,1.04341 1.80407,1.80408 0.26893,0.53787 -0.42523,1.37885 0,1.80407 0.42522,0.42523 1.37885,-0.42522 1.80407,0 0.85045,0.85045 -0.53787,2.53241 0,3.60815 0.38033,0.76066 1.42374,1.04341 1.80408,1.80407 0.23718,0.47437 0,6.27291 0,7.21629 0,0.60136 0,1.20272 0,1.80408 0,0.60136 -0.26894,1.2662 0,1.80407 0.38033,0.76067 1.53513,0.99727 1.80407,1.80407 0.38033,1.141 0,2.40544 0,3.60815 0,1.00696 -0.27528,8.19453 0,9.02037 0.26893,0.8068 1.53514,0.99726 1.80407,1.80407 0.27505,0.82516 -0.40138,6.41352 0,7.21629 0.38033,0.76067 1.42374,1.04341 1.80407,1.80408 0.27453,0.54904 0,4.59974 0,5.41222 0,4.2095 0,8.41901 0,12.62851 0,0.60136 -0.53787,-1.53514 0,-1.80407 0.52041,-0.26021 9.67142,0 10.82444,0 6.01358,0 12.02716,0 18.04074,0 1.20271,0 2.40543,0 3.60814,0 1.20272,0 2.46716,-0.38033 3.60815,0 0.80681,0.26893 1.09646,1.33233 1.80407,1.80407 1.11884,0.74589 2.33248,1.37885 3.60815,1.80407 1.62367,0.54123 3.78856,-0.54122 5.41222,0 0.80681,0.26894 0.99727,1.53514 1.80407,1.80408 1.141,0.38033 2.46716,-0.38033 3.60815,0 0.80681,0.26893 0.99727,1.53514 1.80407,1.80407 1.141,0.38033 2.46716,-0.38033 3.60815,0 1.61361,0.53787 1.99454,3.07028 3.60815,3.60815 1.14099,0.38033 2.5324,-0.53787 3.60814,0 0.53788,0.26893 -0.42522,1.37885 0,1.80407 0.42523,0.42522 1.20272,0 1.80408,0 0.60136,0 1.37885,0.42522 1.80407,0 0.42523,-0.42522 -0.26893,-1.2662 0,-1.80407 0.2395,-0.479 4.93322,-5.17272 5.41222,-5.41222 0.53787,-0.26894 1.23358,0.19016 1.80407,0 6.54029,-2.1801 1.28396,-0.85597 5.41222,-3.60815 1.11884,-0.74589 2.48931,-1.05818 3.60815,-1.80407 0.70762,-0.47175 1.04341,-1.42374 1.80407,-1.80408 0.53788,-0.26893 1.26621,0.26894 1.80408,0 0.76066,-0.38033 1.20271,-1.20271 1.80407,-1.80407 1.20272,-1.20271 2.19292,-2.66466 3.60815,-3.60815 0.50036,-0.33357 1.2662,0.26894 1.80407,0 0.76067,-0.38033 1.09646,-1.33233 1.80407,-1.80407 1.11884,-0.74589 2.65732,-0.85324 3.60815,-1.80407 0.42523,-0.42523 -0.42522,-1.37885 0,-1.80408 0.85045,-0.85044 2.53241,0.53787 3.60815,0 1.77526,-0.88763 5.44103,-6.32866 7.21629,-7.21629 1.07574,-0.53787 2.7577,0.85045 3.60815,0 0.85045,-0.85045 -0.85045,-2.7577 0,-3.60815 0.85045,-0.85044 2.7577,0.85045 3.60814,0 0.42523,-0.42522 0,-1.20271 0,-1.80407 0,-0.60136 0,-1.20271 0,-1.80407 0,-3.60815 0,-7.2163 0,-10.82444 0,-0.60136 0,-1.20272 0,-1.80408 0,-0.60135 -0.26893,-1.2662 0,-1.80407 0.38034,-0.76066 1.42375,-1.04341 1.80408,-1.80407 0.26893,-0.53787 -0.42523,-1.37885 0,-1.80408 0.42522,-0.42522 1.2662,0.26894 1.80407,0 0.76067,-0.38033 1.20272,-1.20271 1.80407,-1.80407 0.94978,-0.94978 4.93046,-4.44869 5.41222,-5.41222 0.26894,-0.53787 -0.42522,-1.37885 0,-1.80407 0.42523,-0.42523 1.26621,0.26893 1.80408,0 0.48328,-0.24164 3.12486,-3.36651 3.60814,-3.60815 0.53788,-0.26893 1.26621,0.26894 1.80408,0 7.50812,-3.75406 -1.92862,0.12455 1.80407,-3.60815 0.60365,-0.60364 3.0045,0.60365 3.60815,0 0.42522,-0.42522 -0.42523,-1.37884 0,-1.80407 0.42522,-0.42522 1.2662,0.26894 1.80407,0 0.76067,-0.38033 1.04341,-1.42374 1.80407,-1.80407 1.07575,-0.53787 2.53241,0.53787 3.60815,0 0.48281,-0.24141 3.12534,-3.36674 3.60815,-3.60815 0.53787,-0.26893 1.2662,0.26894 1.80407,0 0.76067,-0.38033 1.04341,-1.42374 1.80407,-1.80407 0.96489,-0.48245 2.64326,0.48244 3.60815,0 0.76067,-0.38033 1.04341,-1.42374 1.80407,-1.80408 0.53788,-0.26893 1.26621,0.26894 1.80408,0 0.76066,-0.38033 1.04341,-1.42374 1.80407,-1.80407 0.53787,-0.26893 1.20272,0 1.80407,0 0.60136,-0.60136 1.04341,-1.42374 1.80408,-1.80407 0.53787,-0.26894 1.2662,0.26893 1.80407,0 0.76067,-0.38033 1.04341,-1.42374 1.80407,-1.80408 1.07575,-0.53787 2.53241,0.53788 3.60815,0 0.76067,-0.38033 1.04341,-1.42374 1.80407,-1.80407 0.53788,-0.26893 1.20272,0 1.80408,0 0.60136,-0.60136 1.04341,-1.42374 1.80407,-1.80407 0.53787,-0.26894 1.2662,0.26893 1.80407,0 1.52133,-0.76067 1.99454,-3.07028 3.60815,-3.60815 8.21266,0 0.10318,0.85045 5.41222,-1.80407 1.07574,-0.53787 2.7577,0.85045 3.60815,0 0.42522,-0.42523 -0.42523,-1.37885 0,-1.80408 0.42522,-0.42522 1.2662,0.26894 1.80407,0 0.76066,-0.38033 1.04341,-1.42374 1.80407,-1.80407 1.07575,-0.53787 2.46715,0.38033 3.60815,0 1.27567,-0.42522 2.48931,-1.05818 3.60815,-1.80407 0.70761,-0.47175 0.99726,-1.53514 1.80407,-1.80408 8.21266,0 0.10318,0.85045 5.41222,-1.80407 0.53787,-0.26893 1.37885,0.42523 1.80407,0 0.42523,-0.42522 -0.42522,-1.37885 0,-1.80407 0.85045,-0.85045 2.46715,0.38033 3.60815,0 2.55135,-0.85045 4.66495,-2.7577 7.21629,-3.60815 1.141,-0.38033 2.53241,0.53787 3.60815,0 0.76066,-0.38033 1.04341,-1.42374 1.80407,-1.80407 0.53787,-0.26894 1.26621,0.26893 1.80408,0 0.76066,-0.38033 1.04341,-1.42374 1.80407,-1.80408 0.65241,-0.3262 7.76556,0 9.02037,0 0.60136,0 1.37885,0.42523 1.80407,0 0.42522,-0.42522 -0.42522,-1.37884 0,-1.80407 0.42522,-0.42522 1.2662,0.26894 1.80407,0 0.76067,-0.38033 1.09646,-1.33233 1.80408,-1.80407 9.11383,-6.07589 0.0418,-0.0139 5.41222,-1.80408 2.55134,-0.85044 4.81086,-2.40543 7.21629,-3.60814 1.20272,-0.60136 2.30362,-1.47794 3.60815,-1.80408 1.1668,-0.2917 2.44134,0.29171 3.60814,0 3.26527,1.08737 3.35526,-2.92249 5.41222,-3.60814 1.141,-0.38033 2.44135,0.2917 3.60815,0 1.30453,-0.32613 2.30362,-1.47794 3.60815,-1.80408 1.1668,-0.2917 2.46715,0.38034 3.60814,0 0.80681,-0.26893 1.04341,-1.42374 1.80408,-1.80407 0.53787,-0.26893 1.20271,0 1.80407,0 1.20272,0 2.44134,0.2917 3.60815,0 1.30453,-0.32613 2.33247,-1.37885 3.60814,-1.80407 0.5705,-0.19017 1.26621,0.26893 1.80408,0 0.76066,-0.38033 1.04341,-1.42374 1.80407,-1.80408 0.80277,-0.40138 6.39113,0.27506 7.21629,0 0.80681,-0.26893 1.09646,-1.33232 1.80408,-1.80407 1.11884,-0.74589 2.40543,-1.20271 3.60814,-1.80407 1.20272,-0.60136 2.40543,-1.20272 3.60815,-1.80408 0.60136,0 1.23358,0.19017 1.80407,0 1.27568,-0.42522 2.33248,-1.37884 3.60815,-1.80407 0.5705,-0.19016 1.2662,0.26894 1.80407,0 5.98336,-5.98336 -1.70089,0.85045 3.60815,-1.80407 0.76066,-0.38033 0.99727,-1.53514 1.80407,-1.80408 1.141,-0.38033 2.46715,0.38034 3.60815,0 0.80681,-0.26893 1.20272,-1.20271 1.80407,-1.80407 1.20272,-0.60136 2.30362,-1.47794 3.60815,-1.80407 11.96672,0 -2.55134,0.85045 5.41222,-1.80408 1.141,-0.38033 2.40543,0 3.60815,0 0.60135,0 1.2662,0.26894 1.80407,0 0.76066,-0.38033 1.20272,-1.20271 1.80407,-1.80407 1.20272,0 2.46715,0.38033 3.60815,0 0.80681,-0.26893 0.99727,-1.53514 1.80407,-1.80407 1.141,-0.38033 2.44134,0.2917 3.60815,0 1.30453,-0.32613 2.30362,-1.47794 3.60815,-1.80408 1.1668,-0.2917 2.44134,0.29171 3.60814,0 1.30453,-0.32613 2.40543,-1.20271 3.60815,-1.80407 1.80407,-0.60136 3.54749,-1.43113 5.41222,-1.80407 2.85608,-0.57122 8.12374,0.67517 10.82444,0 1.30453,-0.32613 2.30362,-1.47794 3.60815,-1.80408 1.1668,-0.2917 2.40543,0 3.60814,0 1.20272,0 2.40543,0 3.60815,0 3.60815,0 7.21629,0 10.82444,0 1.80407,0 3.60815,0 5.41222,0 0.60136,0 1.37885,0.42523 1.80407,0 0.42523,-0.42522 -0.42522,-1.37884 0,-1.80407 0.01,-0.01 5.35191,0.0151 5.41222,0 1.30453,-0.32613 2.35965,-1.30467 3.60815,-1.80407 1.76565,-0.70626 3.64657,-1.09782 5.41222,-1.80408 1.2485,-0.4994 2.35965,-1.30467 3.60815,-1.80407 2.34298,-3.98502 6.17334,-0.66526 9.02036,-1.80407 2.01315,-0.80526 3.35526,-2.9225 5.41222,-3.60815 1.7115,-0.5705 3.6327,0.29659 5.41222,0 1.87579,-0.31263 3.60815,-1.20271 5.41222,-1.80407 3.60815,-1.20272 7.2163,-2.40543 10.82444,-3.60815 1.80408,-0.60136 3.53644,-1.49144 5.41222,-1.80407 1.77953,-0.29659 3.6327,0.29659 5.41222,0 1.87579,-0.31263 3.53644,-1.49144 5.41222,-1.80408 1.77953,-0.29658 3.60815,0 5.41222,0 1.80408,-0.60135 3.54749,-1.43112 5.41222,-1.80407 2.35872,-0.47174 4.88269,0.5834 7.2163,0 1.30452,-0.32613 2.30361,-1.47794 3.60814,-1.80407 2.4574,-0.61435 8.6419,0.72751 10.82444,0 0.80681,-0.26894 0.99727,-1.53514 1.80408,-1.80408 1.02627,-0.34208 7.32122,0 9.02036,0 0.60136,0 1.23358,0.19017 1.80408,0 1.27567,-0.42522 2.33247,-1.37884 3.60814,-1.80407 1.01786,-0.33928 4.22675,0 5.41222,0 4.20951,0 8.41901,0 12.62852,0 15.03394,0 30.06784,0 45.10184,0 0.6625,0 7.1437,0.0726 7.2163,0 0.4252,-0.42522 -0.4252,-1.37885 0,-1.80407 0.4252,-0.42523 1.2662,0.26893 1.8041,0 0.7606,-0.38033 1.0434,-1.42374 1.804,-1.80408 0.5379,-0.26893 1.3789,0.42523 1.8041,0 0.4252,-0.42522 -0.4252,-1.37884 0,-1.80407 0.8505,-0.85045 2.7577,0.85045 3.6081,0 0.4253,-0.42522 -0.4252,-1.37885 0,-1.80407 0.4253,-0.42523 1.2336,0.19016 1.8041,0 1.2757,-0.42523 2.3325,-1.37885 3.6082,-1.80408 0.702,-0.234 5.1322,0.27997 5.4122,0 0.4252,-0.42522 -0.4252,-1.37884 0,-1.80407 0.902,-0.90204 4.5102,0.90204 5.4122,0 0.4252,-0.42522 0,-1.20271 0,-1.80407 0,-3.00679 0,-6.01358 0,-9.02037 0,-3.00679 0,-6.01358 0,-9.02037 0,-1.80407 0.2966,-3.63269 0,-5.41222 -0.5573,-3.34394 -2.1359,-6.07585 -3.6081,-9.02036 -0.6014,-1.20272 -1.3789,-2.33248 -1.8041,-3.60815 -0.3607,-1.08211 0.3607,-2.52604 0,-3.60814 -0.4252,-1.27568 -1.3789,-2.33248 -1.8041,-3.60815 -0.1902,-0.5705 0.269,-1.2662 0,-1.80407 -0.3803,-0.76067 -1.4237,-1.04341 -1.8041,-1.80408 -0.3576,-0.7153 0.3689,-5.0434 0,-5.41222 -0.4252,-0.42522 -1.3788,0.42523 -1.804,0 -0.8505,-0.85045 0.8504,-2.7577 0,-3.60814 -0.8505,-0.85045 -2.7577,0.85044 -3.6082,0 -0.4252,-0.42523 0.4252,-1.37885 0,-1.80408 -0.4252,-0.42522 -1.2027,0 -1.8041,0 -0.6013,0 -1.2027,0 -1.804,0 -4.8109,0 -9.6217,0 -14.4326,0 -6.0136,0 -12.0272,0 -18.0407,0 -1.477,0 -7.8515,-0.38963 -9.0204,0 -1.2757,0.42523 -2.3036,1.47794 -3.6082,1.80408 -1.1668,0.2917 -2.4671,-0.38034 -3.6081,0 -0.8068,0.26893 -0.9973,1.53513 -1.80408,1.80407 -0.82516,0.27505 -6.41352,-0.40139 -7.21629,0 -0.76066,0.38033 -1.04341,1.42374 -1.80407,1.80407 -1.07575,0.53787 -2.53241,-0.53787 -3.60815,0 -0.76066,0.38033 -1.04341,1.42374 -1.80407,1.80408 -0.53787,0.26893 -1.26621,-0.26894 -1.80408,0 -0.76066,0.38033 -1.04341,1.42374 -1.80407,1.80407 -0.53787,0.26893 -1.2662,-0.26894 -1.80407,0 -5.50164,2.75081 3.29955,1.4302 -5.41222,3.60815 -1.16681,0.2917 -2.40543,0 -3.60815,0 -1.20272,0.60135 -2.33247,1.37884 -3.60815,1.80407 -0.5705,0.19016 -1.37885,-0.42523 -1.80407,0 -0.42522,0.42522 0.42522,1.37885 0,1.80407 -0.42522,0.42523 -1.23358,-0.19016 -1.80407,0 -2.55135,0.85045 -4.57917,3.08072 -7.2163,3.60815 -12.79579,0 -1.0568,-1.27567 -7.21629,1.80407 -0.95395,0.47697 -6.33736,-0.21973 -7.21629,0 -2.60906,0.65227 -4.66495,2.7577 -7.2163,3.60815 -0.5705,0.19016 -1.20271,0 -1.80407,0 -1.477,0 -7.85148,-0.38963 -9.02037,0 -7.02583,2.34194 -0.16877,1.80407 -7.21629,1.80407 -1.56338,0 -6.17124,-0.34835 -7.21629,0 -1.27568,0.42523 -2.33248,1.37885 -3.60815,1.80408 -0.5705,0.19016 -1.20272,0 -1.80407,0 -1.8168,0 -9.82676,-0.33257 -10.82444,0 -0.80681,0.26893 -0.99727,1.53513 -1.80408,1.80407 -0.96988,0.32329 -5.68887,0 -7.21629,0 -6.01358,0 -12.02716,0 -18.04073,0 -1.6937,0 -7.98665,-0.34458 -9.02037,0 -0.80681,0.26893 -1.04341,1.42374 -1.80407,1.80407 -0.62895,0.31447 -9.50011,0 -10.82444,0 -0.60136,0 -1.26621,-0.26893 -1.80408,0 -0.76066,0.38033 -1.04341,1.42374 -1.80407,1.80407 -0.53787,0.26894 -1.37885,-0.42522 -1.80407,0 -0.42523,0.42523 0.57049,1.61391 0,1.80408 -1.7115,0.5705 -3.60815,0 -5.41222,0 -5.41222,0 -10.82444,0 -16.23666,0 -14.43259,0 -28.86518,0 -43.29776,0 -5.41222,0 -10.82444,0 -16.23666,0 -1.20272,0 -2.40543,0 -3.60815,0 -1.20272,0 -2.44134,-0.2917 -3.60815,0 -1.30452,0.32613 -2.30361,1.47794 -3.60814,1.80407 -1.16681,0.2917 -2.46715,-0.38033 -3.60815,0 -0.80681,0.26894 -1.20272,1.20272 -1.80407,1.80407 -1.20272,0.60136 -2.33248,1.37885 -3.60815,1.80408 -5.37042,1.79014 3.70161,-4.27181 -5.41222,1.80407 -0.70762,0.47175 -0.99727,1.53514 -1.80407,1.80407 -1.141,0.38034 -2.46715,-0.38033 -3.60815,0 -0.80681,0.26894 -1.09646,1.33233 -1.80407,1.80408 -3.3306,2.2204 -7.49385,3.19182 -10.82444,5.41222 -0.70762,0.47174 -1.09646,1.33233 -1.80408,1.80407 -1.11883,0.74589 -2.40543,1.20272 -3.60814,1.80407 -1.20272,0.60136 -2.30362,1.47795 -3.60815,1.80408 -1.1668,0.2917 -2.5324,-0.53787 -3.60815,0 -1.52132,0.76066 -2.08681,2.84748 -3.60814,3.60814 -1.07574,0.53788 -2.46715,-0.38033 -3.60815,0 -0.80681,0.26894 -1.09646,1.33233 -1.80407,1.80408 -7.87937,5.25291 0.59465,-0.79958 -7.2163,1.80407 -0.8068,0.26894 -0.99726,1.53514 -1.80407,1.80407 -0.008,0.003 -5.4105,-0.002 -5.41222,0 -0.42522,0.42523 0,1.20272 0,1.80408 0,4.02128 1.18471,3.49507 -3.60815,5.41222 -1.76564,0.70626 -3.64657,1.09781 -5.41222,1.80407 -2.497,0.9988 -4.60723,2.95588 -7.21629,3.60815 -1.1668,0.2917 -2.46715,-0.38033 -3.60815,0 -0.8068,0.26893 -0.99726,1.53514 -1.80407,1.80407 -1.141,0.38033 -2.44134,-0.2917 -3.60815,0 -1.30452,0.32613 -2.40543,1.20272 -3.60814,1.80407 -2.40543,1.20272 -4.66495,2.7577 -7.2163,3.60815 -0.57049,0.19017 -1.22067,-0.14585 -1.80407,0 -1.84488,0.46122 -3.54749,1.43113 -5.41222,1.80407 -1.17936,0.23588 -2.46715,-0.38033 -3.60815,0 -0.8068,0.26894 -0.99726,1.53514 -1.80407,1.80408 -1.141,0.38033 -2.44134,-0.2917 -3.60815,0 -1.30452,0.32613 -2.33247,1.37885 -3.60814,1.80407 -0.5705,0.19017 -1.2662,-0.26893 -1.80408,0 -0.76066,0.38033 -1.0434,1.42374 -1.80407,1.80407 -0.53787,0.26894 -1.20271,0 -1.80407,0 -1.20272,0 -2.46715,-0.38033 -3.60815,0 -0.80681,0.26894 -0.99727,1.53514 -1.80407,1.80408 -1.141,0.38033 -2.46715,-0.38033 -3.60815,0 -0.80681,0.26893 -1.04341,1.42374 -1.80407,1.80407 -0.53787,0.26894 -1.2662,-0.26893 -1.80408,0 -0.76066,0.38033 -0.99726,1.53514 -1.80407,1.80407 -1.141,0.38034 -2.46715,-0.38033 -3.60815,0 -0.8068,0.26894 -1.0434,1.42375 -1.80407,1.80408 -0.53787,0.26893 -1.37885,-0.42523 -1.80407,0 -0.42523,0.42522 0.42522,1.37885 0,1.80407 -0.42523,0.42523 -1.23358,-0.19016 -1.80408,0 -1.27567,0.42523 -2.40543,1.20272 -3.60814,1.80407 -1.20272,0.60136 -2.48931,1.05819 -3.60815,1.80408 -1.41523,0.94349 -2.19291,2.66466 -3.60815,3.60814 -4.14811,2.76541 -4.87225,0.84274 -9.02036,3.60815 -1.64228,1.09485 -3.8132,4.61271 -5.41222,5.41222 -0.53787,0.26894 -1.2662,-0.26893 -1.80408,0 -1.13931,0.56966 -2.46883,3.03849 -3.60814,3.60815 -0.53787,0.26893 -1.23358,-0.19017 -1.80408,0 -13.06765,4.35588 2.84432,-0.52012 -5.41222,3.60814 -0.53787,0.26894 -1.2662,-0.26893 -1.80407,0 -0.48585,0.24293 -3.1223,3.36523 -3.60815,3.60815 -0.53787,0.26894 -1.20271,0 -1.80407,0 -0.60136,0.60136 -1.04341,1.42374 -1.80407,1.80407 -0.53787,0.26894 -1.37885,-0.42522 -1.80408,0 -2.24323,2.24323 -1.80407,4.53605 -1.80407,7.2163 0,0.60136 0.42523,1.37885 0,1.80407 -0.42522,0.42523 -1.20271,0 -1.80407,0 -3.60815,0 -7.2163,0 -10.82444,0 -6.61494,0 -13.22987,0 -19.84481,0 -1.47699,0 -7.85148,0.38963 -9.02037,0 -1.27567,-0.42522 -2.33247,-1.37885 -3.60814,-1.80407 -1.4521,-0.48403 -6.06345,0.57642 -7.2163,0 -0.76066,-0.38033 -0.99726,-1.53514 -1.80407,-1.80408 -1.14099,-0.38033 -2.46715,0.38034 -3.60815,0 -0.8068,-0.26893 -0.99726,-1.53513 -1.80407,-1.80407 -1.62366,-0.54122 -3.78855,0.54122 -5.41222,0 -1.27567,-0.42522 -2.33247,-1.37885 -3.60815,-1.80407 -0.57049,-0.19017 -1.2662,0.26893 -1.80407,0 -0.76066,-0.38033 -1.04341,-1.42374 -1.80407,-1.80408 -0.96188,-0.48093 -2.64627,0.48094 -3.60815,0 -0.76066,-0.38033 -1.04341,-1.42374 -1.80407,-1.80407 -0.53787,-0.26893 -1.2662,0.26894 -1.80408,0 -0.76066,-0.38033 -1.0434,-1.42374 -1.80407,-1.80407 -0.53787,-0.26894 -1.2662,0.26893 -1.80407,0 -0.76067,-0.38033 -0.99727,-1.53514 -1.80408,-1.80408 -1.14099,-0.38033 -2.46715,0.38034 -3.60814,0 -0.80681,-0.26893 -1.04341,-1.42374 -1.80408,-1.80407 -0.53787,-0.26893 -1.2662,0.26894 -1.80407,0 -0.76066,-0.38033 -0.99727,-1.53514 -1.80407,-1.80407 -1.141,-0.38033 -2.46715,0.38033 -3.60815,0 -1.61361,-0.53787 -2.19291,-2.66466 -3.60815,-3.60815 -4.1481,-2.76541 -4.87225,-0.84274 -9.02036,-3.60815 -0.70762,-0.47174 -1.09646,-1.33232 -1.80407,-1.80407 -1.11884,-0.74589 -2.48931,-1.05818 -3.60815,-1.80407 -0.70762,-0.47175 -1.04341,-1.42374 -1.80407,-1.80408 -0.53788,-0.26893 -1.20272,0 -1.80408,0 -1.20271,-0.60135 -2.48931,-1.05818 -3.60814,-1.80407 -1.41524,-0.94349 -1.99454,-3.07027 -3.60815,-3.60815 -1.141,-0.38033 -2.46715,0.38034 -3.60815,0 -0.8068,-0.26893 -1.20271,-1.20271 -1.80407,-1.80407 -0.60136,-0.60136 -1.20272,-1.20271 -1.80407,-1.80407 -5.98336,-5.98336 1.70089,0.85045 -3.60815,-1.80408 -1.52133,-0.76066 -2.08682,-2.84748 -3.60815,-3.60814 -0.53787,-0.26894 -1.2662,0.26893 -1.80407,0 -0.76067,-0.38033 -1.04341,-1.42374 -1.80407,-1.80408 -0.53788,-0.26893 -1.20272,0 -1.80408,0 -0.60136,-0.60135 -1.04341,-1.42374 -1.80407,-1.80407 -0.53787,-0.26893 -1.23358,0.19017 -1.80407,0 -1.27568,-0.42522 -2.33248,-1.37885 -3.60815,-1.80407 -0.5705,-0.19017 -1.37885,0.42522 -1.80407,0 -0.42523,-0.42523 0.42522,-1.37885 0,-1.80408 -7.04082,-7.04081 -0.96888,0.4176 -5.41222,-1.80407 -2.16489,-1.08244 -3.24734,-4.32977 -5.41222,-5.41222 -0.53788,-0.26893 -1.26621,0.26894 -1.80408,0 -0.76066,-0.38033 -1.04341,-1.42374 -1.80407,-1.80407 -0.53787,-0.26894 -1.2662,0.26893 -1.80407,0 -0.76067,-0.38033 -1.04341,-1.42374 -1.80408,-1.80408 -0.53787,-0.26893 -1.37885,0.42523 -1.80407,0 -0.42523,-0.42522 0.42522,-1.37884 0,-1.80407 -0.95083,-0.95083 -2.33248,-1.37885 -3.60815,-1.80407 -0.5705,-0.19017 -1.37885,0.42522 -1.80407,0 -0.42523,-0.42523 0.42522,-1.37885 0,-1.80408 -0.95083,-0.95083 -2.48931,-1.05818 -3.60815,-1.80407 -1.41523,-0.94349 -2.08682,-2.84748 -3.60814,-3.60815 -0.53788,-0.26893 -1.26621,0.26894 -1.80408,0 -7.50812,-3.75406 1.92862,0.12455 -1.80407,-3.60814 -0.95083,-0.95083 -2.48931,-1.05818 -3.60815,-1.80408 -0.70761,-0.47174 -1.09646,-1.33232 -1.80407,-1.80407 -1.20272,-0.60136 -2.40543,-1.20271 -3.60815,-1.80407 -0.60136,0 -1.2662,0.26893 -1.80407,0 -0.76067,-0.38033 -1.04341,-1.42374 -1.80407,-1.80408 -0.53788,-0.26893 -1.26621,0.26894 -1.80408,0 -0.76066,-0.38033 -1.04341,-1.42374 -1.80407,-1.80407 -0.53787,-0.26893 -1.20272,0 -1.80407,0 -1.20272,-0.60136 -2.48931,-1.05818 -3.60815,-1.80407 -0.70762,-0.47175 -1.04341,-1.42374 -1.80407,-1.80408 -0.97869,-0.48934 -6.72266,0.49364 -7.2163,0 -0.42522,-0.42522 -0.53787,-1.53513 0,-1.80407 1.07574,-0.53787 2.40543,0 3.60815,0 1.80407,0 3.60815,0 5.41222,0 0.60136,0 1.37885,-0.42522 1.80407,0 0.42523,0.42523 0.53787,1.53514 0,1.80407 -1.07574,0.53788 -2.40543,0 -3.60814,0 -3.00679,0 -6.07197,0.58968 -9.02037,0 -1.31857,-0.26371 -2.35965,-1.30467 -3.60815,-1.80407 -1.80407,-0.60136 -3.60814,-1.20271 -5.41222,-1.80407 -0.60136,-0.60136 -1.04341,-1.42374 -1.80407,-1.80408 -3.63837,-1.81918 -5.86767,-1.24361 -9.02037,-3.60814 -1.36072,-1.02054 -2.19291,-2.66466 -3.60814,-3.60815 -0.50036,-0.33357 -1.23358,0.19017 -1.80408,0 -1.27567,-0.42522 -2.40543,-1.20271 -3.60814,-1.80407 -1.20272,-0.60136 -2.48931,-1.05818 -3.60815,-1.80408 -0.70762,-0.47174 -0.99727,-1.53513 -1.80407,-1.80407 -1.141,-0.38033 -2.46715,0.38033 -3.60815,0 -0.80681,-0.26893 -1.20272,-1.20271 -1.80407,-1.80407 -1.20272,0 -2.44135,0.2917 -3.60815,0 -3.26527,1.08736 -3.35526,-2.92249 -5.41222,-3.60815 -1.141,-0.38033 -2.40543,0 -3.60815,0 -0.60136,0 -1.2662,0.26894 -1.80407,0 -0.76067,-0.38033 -1.20272,-1.20271 -1.80407,-1.80407 -1.20272,0 -2.46715,0.38033 -3.60815,0 -0.80681,-0.26894 -0.99727,-1.53514 -1.80407,-1.80407 -1.141,-0.38034 -2.46715,0.38033 -3.60815,0 -0.80681,-0.26894 -0.99727,-1.53514 -1.80407,-1.80408 -1.141,-0.38033 -2.40544,0 -3.60815,0 -0.60136,0 -1.2662,0.26894 -1.80407,0 -0.76067,-0.38033 -1.04341,-1.42374 -1.80408,-1.80407 -0.53787,-0.26894 -1.23357,0.19016 -1.80407,0 -1.27567,-0.42523 -2.33248,-1.37885 -3.60815,-1.80407 -0.5705,-0.19017 -1.2662,0.26893 -1.80407,0 -0.76067,-0.38034 -0.99727,-1.53514 -1.80407,-1.80408 -1.141,-0.38033 -2.46715,0.38033 -3.60815,0 -0.80681,-0.26893 -0.99727,-1.53514 -1.80407,-1.80407 -1.141,-0.38033 -2.46715,0.38033 -3.60815,0 -0.80681,-0.26894 -0.99727,-1.53514 -1.80407,-1.80407 -1.141,-0.38034 -2.44135,0.2917 -3.60815,0 -1.30453,-0.32614 -2.30362,-1.47795 -3.60815,-1.80408 -1.1668,-0.2917 -2.46715,0.38033 -3.60814,0 -0.80681,-0.26893 -0.99727,-1.53514 -1.80408,-1.80407 -7.81095,-2.60365 0.66308,3.44884 -7.21629,-1.80407 -0.70762,-0.47175 -0.99727,-1.53514 -1.80407,-1.80408 -1.141,-0.38033 -2.44135,0.2917 -3.60815,0 -1.30453,-0.32613 -2.33247,-1.37885 -3.60815,-1.80407 -0.5705,-0.19017 -1.23357,0.19016 -1.80407,0 -1.27567,-0.42523 -2.30362,-1.47794 -3.60815,-1.80407 -2.33361,-0.58341 -4.9343,0.76066 -7.21629,0 -0.80681,-0.26894 -0.99727,-1.53514 -1.80407,-1.80408 -1.141,-0.38033 -2.46715,0.38033 -3.60815,0 -0.80681,-0.26893 -0.99727,-1.53514 -1.80407,-1.80407 -1.141,-0.38033 -2.40544,0 -3.60815,0 -1.51071,0 -7.64843,0.34298 -9.02037,0 -1.30453,-0.32613 -2.33247,-1.37885 -3.60814,-1.80407 -0.5705,-0.19017 -1.26621,0.26893 -1.80408,0 -0.76066,-0.38034 -0.99726,-1.53514 -1.80407,-1.80408 -1.141,-0.38033 -2.44134,0.2917 -3.60815,0 -1.30453,-0.32613 -2.33247,-1.37885 -3.60814,-1.80407 -1.91703,-0.63901 -5.29927,0.63901 -7.2163,0 -1.27567,-0.42523 -2.30362,-1.47794 -3.60814,-1.80407 -1.16681,-0.29171 -2.46715,0.38033 -3.60815,0 -0.80681,-0.26894 -0.99727,-1.535143 -1.80407,-1.804078 -2.282,-0.760664 -4.9343,0.760664 -7.2163,0 -0.8068,-0.268936 -0.99726,-1.535138 -1.80407,-1.804073 -1.62367,-0.541222 -3.78855,0.541222 -5.41222,0 -1.27567,-0.425225 -2.33247,-1.37885 -3.60815,-1.804074 -1.14099,-0.380332 -2.5324,0.537871 -3.60814,0 -0.76067,-0.380332 -1.04341,-1.423741 -1.80408,-1.804073 -0.97868,-0.489344 -6.72266,0.493634 -7.21629,0 -0.42522,-0.425224 0.42522,-1.378849 0,-1.804073 -0.49363,-0.493635 -6.237606,0.489343 -7.216294,0 -0.760664,-0.380333 -1.043409,-1.423742 -1.804073,-1.804074 -0.537871,-0.268935 -1.233575,0.190166 -1.804073,0 -1.275673,-0.425224 -2.332475,-1.378849 -3.608147,-1.804073 -1.140996,-0.380332 -2.467151,0.380332 -3.608147,0 -1.275672,-0.425224 -2.332474,-1.378849 -3.608146,-1.804073 -1.140996,-0.380333 -2.532405,0.53787 -3.608147,0 -0.760664,-0.380333 -1.202716,-1.202716 -1.804073,-1.804074 -1.202716,0 -2.467151,0.380332 -3.608147,0 -0.806806,-0.268935 -1.043409,-1.423741 -1.804073,-1.804073 -0.537871,-0.268935 -1.202716,0 -1.804074,0 -0.601357,0 -1.378849,-0.425224 -1.804073,0 -0.08176,0.08176 0,8.16975 0,9.020367 0,10.824441 0,21.648881 0,32.473321 0,4.2095 0,8.41901 0,12.62851 0,2.10842 -0.40115,5.21055 0,7.21629 0.486263,2.43132 1.202716,4.81087 1.804073,7.2163 z"
         style="fill:#000000;stroke:#000000;stroke-width:1px;stroke-linecap:butt;stroke-linejoin:miter;stroke-opacity:1" />
    </g>
  </g>
</svg>
