<?xml version="1.0" encoding="UTF-8" standalone="no"?>
<!-- Created with Inkscape (http://www.inkscape.org/) -->

<svg
   xmlns:dc="http://purl.org/dc/elements/1.1/"
   xmlns:cc="http://creativecommons.org/ns#"
   xmlns:rdf="http://www.w3.org/1999/02/22-rdf-syntax-ns#"
   xmlns:svg="http://www.w3.org/2000/svg"
   xmlns="http://www.w3.org/2000/svg"
   xmlns:xlink="http://www.w3.org/1999/xlink"
   xmlns:sodipodi="http://sodipodi.sourceforge.net/DTD/sodipodi-0.dtd"
   xmlns:inkscape="http://www.inkscape.org/namespaces/inkscape"
   width="1100"
   height="575"
   id="svg2"
   version="1.1"
   inkscape:version="0.48.3.1 r9886"
   sodipodi:docname="004.svg">
  <defs
     id="defs4">
    <linearGradient
       inkscape:collect="always"
       id="linearGradient3779">
      <stop
         style="stop-color:#1a1a1a;stop-opacity:1;"
         offset="0"
         id="stop3781" />
      <stop
         style="stop-color:#1a1a1a;stop-opacity:0;"
         offset="1"
         id="stop3783" />
    </linearGradient>
    <linearGradient
       inkscape:collect="always"
       id="linearGradient3765">
      <stop
         style="stop-color:#1a1a1a;stop-opacity:1;"
         offset="0"
         id="stop3767" />
      <stop
         style="stop-color:#1a1a1a;stop-opacity:0;"
         offset="1"
         id="stop3769" />
    </linearGradient>
    <linearGradient
       inkscape:collect="always"
       xlink:href="#linearGradient3765"
       id="linearGradient3771"
       x1="369.66269"
       y1="325.61627"
       x2="377.27939"
       y2="533.94342"
       gradientUnits="userSpaceOnUse"
       gradientTransform="translate(1.7506485,14.005188)" />
    <linearGradient
       inkscape:collect="always"
       xlink:href="#linearGradient3765"
       id="linearGradient3775"
       gradientUnits="userSpaceOnUse"
       gradientTransform="matrix(1,0,0,-1,-1.4612408e-8,643.23641)"
       x1="369.66269"
       y1="325.61627"
       x2="377.27939"
       y2="533.94342" />
    <linearGradient
       inkscape:collect="always"
       xlink:href="#linearGradient3779"
       id="linearGradient3785"
       x1="501.59262"
       y1="121.58705"
       x2="502.48898"
       y2="44.317516"
       gradientUnits="userSpaceOnUse" />
  </defs>
  <sodipodi:namedview
     id="base"
     pagecolor="#ffffff"
     bordercolor="#666666"
     borderopacity="1.0"
     inkscape:pageopacity="0.0"
     inkscape:pageshadow="2"
     inkscape:zoom="0.36626965"
     inkscape:cx="559.563"
     inkscape:cy="423.64392"
     inkscape:document-units="px"
     inkscape:current-layer="layer1"
     showgrid="false"
     inkscape:window-width="1311"
     inkscape:window-height="679"
     inkscape:window-x="11"
     inkscape:window-y="42"
     inkscape:window-maximized="0"
     showguides="true"
     inkscape:guide-bbox="true"
     fit-margin-top="0"
     fit-margin-left="0"
     fit-margin-right="0"
     fit-margin-bottom="0">
    <sodipodi:guide
       orientation="1,0"
       position="1099.0229,-1.6075554"
       id="guide3027" />
    <sodipodi:guide
       orientation="0,1"
       position="1101.7476,1.0353746"
       id="guide3033" />
    <sodipodi:guide
       orientation="0,1"
       position="-2.53521,574.25888"
       id="guide3005" />
    <sodipodi:guide
       orientation="1,0"
       position="0.76056301,577.08141"
       id="guide3007" />
  </sodipodi:namedview>
  <metadata
     id="metadata7">
    <rdf:RDF>
      <cc:Work
         rdf:about="">
        <dc:format>image/svg+xml</dc:format>
        <dc:type
           rdf:resource="http://purl.org/dc/dcmitype/StillImage" />
        <dc:title />
      </cc:Work>
    </rdf:RDF>
  </metadata>
  <g
     inkscape:label="Layer 1"
     inkscape:groupmode="layer"
     id="layer1"
     transform="translate(142.84595,-208.8125)"
     style="display:inline">
    <g
       id="g3801">
      <rect
         y="208.8125"
         x="-142.84595"
         height="575"
         width="1100"
         id="rect3023"
         style="fill:#000000;fill-opacity:1;fill-rule:evenodd;stroke:none" />
      <path
         sodipodi:nodetypes="cssssscssssssssssssssssssssssscssscccssssscccscscssssssssccsssssssssssssssssssssccsscsssssssssscsssssssssssssssssssssssssscssssssssssssssc"
         inkscape:connector-curvature="0"
         id="path2987"
         d="m 277.30969,358.40491 c 0,17.44784 1.65053,1.95089 -1.75064,8.75324 -0.26097,0.52195 0.41263,1.33802 0,1.75065 -0.41264,0.41263 -1.33802,-0.41263 -1.75065,0 -0.41263,0.41263 0,1.1671 0,1.75065 0,0.58355 0,1.1671 0,1.75065 0,0.82543 0.0793,8.6739 0,8.75324 -0.41263,0.41263 -1.33802,-0.41263 -1.75065,0 -0.87532,0.87533 0.87532,4.37662 0,5.25195 -0.41263,0.41263 -1.33802,-0.41263 -1.75065,0 -0.82526,0.82526 0.52194,2.45741 0,3.50129 -0.73814,1.47628 -2.97935,1.93547 -3.5013,3.5013 -0.36907,1.10721 0.28307,2.36905 0,3.5013 -0.31647,1.26589 -1.1671,2.3342 -1.75064,3.5013 -0.58355,1.16709 -1.02685,2.41559 -1.75065,3.50129 -0.45778,0.68666 -1.38158,1.01251 -1.75065,1.75065 -0.26097,0.52194 0.26097,1.22871 0,1.75065 -0.36907,0.73814 -1.38158,1.01251 -1.75065,1.75065 -0.52194,1.04388 0.52194,2.45741 0,3.50129 -0.36907,0.73814 -1.38158,1.01251 -1.75065,1.75065 -0.26097,0.52195 0.26097,1.22871 0,1.75065 -0.36907,0.73814 -1.38158,1.01251 -1.75065,1.75065 -0.52194,1.04389 0.82527,2.67603 0,3.5013 -0.41263,0.41263 -1.33801,-0.41263 -1.75065,0 -0.41263,0.41263 0.18454,1.19704 0,1.75065 -0.41263,1.23789 -0.96773,2.45741 -1.75064,3.50129 -0.99032,1.32042 -2.58575,2.12798 -3.5013,3.5013 -0.3237,0.48554 0.41263,1.33802 0,1.75065 -0.41263,0.41263 -1.33802,-0.41263 -1.75065,0 -0.82526,0.82526 0.52194,2.45741 0,3.5013 -0.36907,0.73813 -1.38158,1.01251 -1.75065,1.75064 -0.26097,0.52195 0.26097,1.22871 0,1.75065 -0.36907,0.73814 -1.38158,1.01251 -1.75065,1.75065 -0.26097,0.52194 0.41264,1.33802 0,1.75065 -0.41263,0.41263 -1.33801,-0.41263 -1.75065,0 -0.27167,0.27168 0.22708,4.57073 0,5.25194 -0.82526,2.4758 -2.67603,4.52681 -3.50129,7.0026 -0.18454,0.5536 0.41263,1.33802 0,1.75065 -0.41263,0.41263 -1.33802,-0.41263 -1.75065,0 -0.82526,0.82526 0.52194,2.45741 0,3.50129 -0.36907,0.73814 -1.38158,1.01251 -1.75065,1.75065 -0.55016,1.10032 0.55016,5.90228 0,7.0026 -0.36907,0.73814 -1.48968,0.96773 -1.75065,1.75065 -0.003,0.008 0.002,5.25027 0,5.25194 -0.41263,0.41263 -1.33801,-0.41263 -1.75065,0 -0.87532,0.87533 0.87533,4.37662 0,5.25195 -0.41263,0.41263 -1.33801,-0.41264 -1.75064,0 -0.41264,0.41263 0.26097,1.2287 0,1.75065 -0.73814,1.47627 -2.97936,1.93546 -3.5013,3.50129 0,7.96945 0.82526,0.10012 -1.75065,5.25195 -0.26097,0.52194 0.41263,1.33801 0,1.75065 -0.41263,0.41263 -1.33802,-0.41264 -1.75065,0 -0.41263,0.41263 0.26097,1.2287 0,1.75064 -0.36907,0.73814 -1.38158,1.01252 -1.75065,1.75065 -0.70026,1.40052 0.70026,3.85143 0,5.25195 -0.36907,0.73814 -1.38158,1.01251 -1.75065,1.75065 -0.26097,0.52194 0.41264,1.33801 0,1.75065 -0.41263,0.41263 -1.48967,-0.52195 -1.75064,0 -0.52195,1.04388 0.36906,2.39409 0,3.50129 -0.26098,0.78292 -1.38158,1.01251 -1.75065,1.75065 -0.26097,0.52194 0.41263,1.33802 0,1.75065 -0.41263,0.41263 -1.33802,-0.41263 -1.75065,0 -2.01739,2.01739 6.11868,5.25195 -3.5013,5.25195 -1.30485,0 0.66494,-2.7775 1.75065,-3.5013 0.97109,-0.64739 2.3342,0 3.5013,0 0.58355,0 1.33801,-0.41263 1.75065,0 0.41263,0.41263 0,1.1671 0,1.75065 0,0.58355 0,1.1671 0,1.75065 0,4.08484 0,8.16969 0,12.25454 0,0.78841 0.26639,4.71916 0,5.25194 -0.36907,0.73814 -1.38158,1.01251 -1.75065,1.75065 -0.26097,0.52194 0.26097,1.22871 0,1.75065 -0.36907,0.73814 -1.38158,1.01251 -1.75065,1.75065 -0.26097,0.52194 0.26097,1.2287 0,1.75064 -0.36907,0.73814 -1.38158,1.01251 -1.75065,1.75065 -0.26097,0.52195 0.41263,1.33802 0,1.75065 -0.41263,0.41263 -1.75065,0.58355 -1.75065,0 0,-0.58355 1.1671,0 1.75065,0 1.1671,0 2.3342,0 3.5013,0 5.25194,0 10.50389,0 15.75583,0 16.92294,0 33.84587,0 50.76881,0 234.54298,0.0768 239.17035,68.29004 201.32458,-70.02594 -0.58355,-0.58355 -1.01251,-1.38158 -1.75065,-1.75065 -2.41477,-1.20738 -1.56591,2.12013 -3.5013,-1.75065 -0.26097,-0.52194 0,-1.16709 0,-1.75064 -0.58355,-1.1671 -1.02684,-2.4156 -1.75064,-3.5013 -0.45778,-0.68666 -1.38158,-1.01251 -1.75065,-1.75065 -0.26097,-0.52194 0.41263,-1.33802 0,-1.75065 -0.41263,-0.41263 -1.33802,0.41263 -1.75065,0 -0.82526,-0.82526 0.36907,-2.39409 0,-3.5013 -0.51519,-1.54555 -4.32842,-9.11859 -5.25195,-10.50389 -0.91554,-1.37332 -2.76316,-2.02502 -3.50129,-3.50129 -0.26098,-0.52195 0.26097,-1.22871 0,-1.75065 -0.73814,-1.47628 -2.58575,-2.12798 -3.5013,-3.5013 -0.72381,-1.08571 -1.02685,-2.41559 -1.75065,-3.5013 -0.45777,-0.68666 -1.38158,-1.01251 -1.75065,-1.75064 -0.31654,-0.6331 0,-7.5356 0,-8.75325 0,-8.16969 0,-16.33938 0,-24.50908 0,-1.75064 0,-3.50129 0,-5.25194 0,-1.1671 0.36907,-2.39409 0,-3.5013 -0.26097,-0.78291 -1.38158,-1.01251 -1.75065,-1.75065 -0.52194,-1.04388 0.52195,-2.45741 0,-3.50129 -0.36907,-0.73814 -1.38158,-1.01251 -1.75065,-1.75065 -0.26097,-0.52195 0,-1.1671 0,-1.75065 0,-1.1671 0.36907,-2.39409 0,-3.5013 -0.52194,-1.56583 -2.76315,-2.02502 -3.50129,-3.5013 -0.26097,-0.52194 0.41263,-1.33801 0,-1.75064 -0.41263,-0.41264 -1.1671,0 -1.75065,0 -0.58355,0 -1.1671,0 -1.75065,0 -0.58355,0 -2.3342,0 -1.75065,0 3.5013,0 7.0026,0 10.50389,0 0.58355,0 1.33802,0.41263 1.75065,0 0.41263,-0.41264 0,-1.1671 0,-1.75065 0,-1.1671 0,-2.3342 0,-3.5013 0,-10.50389 0,-21.00778 0,-31.51167 0,-0.42458 0.0563,-5.19565 0,-5.25195 -0.41263,-0.41263 -1.1671,0 -1.75065,0 -0.58355,0 -1.93771,0.55276 -1.75065,0 11.14683,-32.9393 -6.36744,-0.76751 -14.11409,-4.36708 -4.06858,-1.89051 -7.93837,4.15024 -12.14563,4.36708 -10.65466,0.54914 -26.84328,-3.11323 -40.26492,0 -3.41075,0.79114 -7.00259,0 -10.50389,0 -0.78842,0 -4.71916,0.26639 -5.25195,0 -0.73813,-0.36907 -1.01251,-1.38158 -1.75064,-1.75064 -1.04389,-0.52195 -2.45742,0.52194 -3.5013,0 -0.73814,-0.36907 -0.96774,-1.48968 -1.75065,-1.75065 -1.10721,-0.36907 -2.3342,0 -3.5013,0 -1.1671,0 -2.33419,0 -3.50129,0 -4.08485,0 -8.1697,0 -12.25454,0 -13.42164,0 -26.84328,0 -40.26492,0 -7.00259,0 -14.00519,0 -21.00778,0 -0.58355,0 -1.1671,0 -1.75065,0 -0.58355,0 -1.33802,-0.41263 -1.75065,0 -0.41263,0.41263 0,1.1671 0,1.75065 0,0.58354 0,1.16709 0,1.75064 0,3.5013 0,7.0026 0,10.50389 0,1.15037 0.32924,4.26423 0,5.25195 -0.99375,2.98125 -2.3342,5.83549 -3.5013,8.75324 z"
         style="fill:url(#linearGradient3771);fill-opacity:1;stroke:none" />
      <path
         sodipodi:nodetypes="cssssscssssssssssssscsssssssccssssssscccc"
         transform="translate(-142.84595,208.8125)"
         inkscape:connector-curvature="0"
         id="path3777"
         d="m 423.65694,123.33268 c 1.1671,-2.33419 1.1671,-8.16969 3.5013,-7.00259 2.3342,1.1671 -3.5013,9.61231 -3.5013,7.00259 0,-17.03163 2.27918,-4.55836 5.25195,-10.50389 0.23016,-0.46032 0,-6.08714 0,-7.00259 0,-4.6684 0,-9.336794 0,-14.00519 0,-0.642902 -0.0704,-6.932146 0,-7.002594 0.41263,-0.412632 1.33801,0.412632 1.75064,0 0.41264,-0.412632 0,-1.167099 0,-1.750649 0,-0.583549 0,-1.167099 0,-1.750648 0,-7.002594 0,-14.005188 0,-21.007782 0,-4.084847 0,-8.169693 0,-12.25454 0,-0.583549 0,-1.167099 0,-1.750648 0,-0.58355 -0.41263,-1.338017 0,-1.750649 0.41264,-0.412632 1.1671,0 1.75065,0 0.58355,0 1.1671,0 1.75065,0 8.75324,0 17.50649,0 26.25973,0 40.26492,0 80.52983,0 120.79475,0 5.83549,0 11.67099,0 17.50648,0 0.58355,0 1.1671,0 1.75065,0 0.58355,0 1.33802,-0.412632 1.75065,0 0.0705,0.07045 0,6.359692 0,7.002594 0,15.755837 0,31.511673 0,47.26751 0,4.084846 0,8.169696 0,12.254536 0,0.58355 0.41263,1.33802 0,1.75065 -0.41263,0.41263 -1.33802,-0.41263 -1.75065,0 -0.58251,0.58251 0.58251,2.91879 0,3.5013 -0.41263,0.41263 -1.33802,-0.41263 -1.75065,0 -0.87532,0.87532 0.87533,4.37662 0,5.25194 -0.41263,0.41264 -1.33801,-0.41263 -1.75065,0 -0.41263,0.41264 0.41264,1.33802 0,1.75065 -0.61451,0.61451 -7.54401,-0.60461 -8.75324,0 -0.73814,0.36907 -0.96773,1.48968 -1.75065,1.75065 -1.1072,0.36907 -2.36904,-0.28306 -3.50129,0 -1.2659,0.31648 -2.23541,1.43418 -3.5013,1.75065 -1.13225,0.28306 -2.3342,0 -3.5013,0 -1.1671,0 -2.3342,0 -3.5013,0 -1.20457,0 -9.48452,-0.33979 -10.50389,0 -28.80721,-8.1046 -137.47308,23.20189 -127.79734,0 -0.41263,-0.41263 -1.19704,0.18453 -1.75065,0 -2.98124,-0.99375 -5.83549,-2.3342 -8.75324,-3.5013 z"
         style="fill:url(#linearGradient3785);fill-opacity:1;stroke:none" />
      <path
         transform="translate(-142.84595,208.8125)"
         inkscape:connector-curvature="0"
         id="path3787"
         d="m 621.64142,224.60274 c -16.79833,-10.079 1.92894,1.68802 -6.75697,-4.82641 -0.57559,-0.43168 -1.33192,-0.56618 -1.93057,-0.96528 -0.37861,-0.25241 -0.58666,-0.71287 -0.96528,-0.96528 -0.1798,-0.11987 -3.79927,-1.86871 -3.86113,-1.93056 -0.50874,-0.50875 -0.45653,-1.42182 -0.96528,-1.93057 -3.76724,-3.76724 -0.5184,0.22344 -2.89584,-0.96528 -0.407,-0.2035 -0.55829,-0.76178 -0.96528,-0.96528 -0.2878,-0.1439 -0.67749,0.14389 -0.96529,0 -4.01727,-2.00864 1.03193,0.0666 -0.96528,-1.93056 -0.22752,-0.22752 -0.67749,0.14389 -0.96528,0 -3.20144,-3.20144 0.91008,0.45503 -1.93056,-0.96529 -4.01727,-2.00863 1.03192,0.0666 -0.96528,-1.93056 -0.22752,-0.22752 -0.73777,0.22752 -0.96529,0 -0.22751,-0.22752 0,-0.64352 0,-0.96528 0,-0.32176 -0.28779,-0.82139 0,-0.96528 0.57559,-0.28779 1.28705,0 1.93057,0 0.64352,0 1.28704,0 1.93056,0 3.53937,0 7.07873,0 10.6181,0 2.57408,0 5.14817,0 7.72225,0 0.32176,0 0.64352,0 0.96529,0 0.32176,0 0.96528,-0.32176 0.96528,0 0,0.32176 -0.64352,0 -0.96528,0 -5.42335,0 -5.72787,-0.41084 -9.65282,-4.82641 -1.36877,-1.53987 -2.4043,-3.36958 -3.86113,-4.82641 -1.45683,-1.45683 -3.36957,-2.40429 -4.82641,-3.86113 -1.13759,-1.13759 -1.84885,-2.63963 -2.89584,-3.86112 -1.77681,-2.07295 -3.86113,-3.86113 -5.79169,-5.79169 -0.64352,-0.64353 -1.38452,-1.20251 -1.93057,-1.93057 -0.43168,-0.57558 -0.56618,-1.33192 -0.96528,-1.93056 -0.25241,-0.37862 -0.76178,-0.55828 -0.96528,-0.96528 -0.1439,-0.28779 0.1439,-0.67749 0,-0.96528 -0.2035,-0.407 -0.76178,-0.55829 -0.96528,-0.96529 -0.099,-0.198 -0.13613,-2.75971 0,-2.89584 0.22752,-0.22752 0.64352,0 0.96528,0 4.18289,0 8.36578,0 12.54866,0 0.23411,0 2.8648,0.031 2.89585,0 0.22752,-0.22752 0,-0.64352 0,-0.96528 0,-0.96528 0.33893,-1.99203 0,-2.89585 -0.65877,-1.75671 -1.9847,-3.18634 -2.89585,-4.82641 -0.69882,-1.25787 -1.28704,-2.57408 -1.93056,-3.86112 -0.64352,-1.28705 -1.36373,-2.53852 -1.93056,-3.86113 -0.40082,-0.93523 -0.44179,-2.02335 -0.96529,-2.89585 -0.46823,-0.78038 -1.46233,-1.15017 -1.93056,-1.93056 -0.5235,-0.87249 -0.51024,-1.98577 -0.96528,-2.89584 -0.80463,-1.60927 -1.93056,-0.43616 -1.93056,-2.89585 0,-0.32176 -0.2878,-0.82139 0,-0.96528 0.57558,-0.28779 1.28704,0 1.93056,0 0.64352,0 1.28704,0 1.93056,0 1.93057,0 3.86113,0 5.79169,0 2.57409,0 5.14817,0 7.72226,0 1.6088,0 3.24884,-0.31551 4.8264,0 0.70551,0.1411 1.23257,0.79078 1.93057,0.96528 0.62431,0.15608 1.28704,0 1.93056,0 0.64352,0.32176 1.23257,0.79078 1.93057,0.96528 1.24861,0.31216 2.64013,-0.407 3.86112,0 0.43169,0.1439 0.5336,0.82139 0.96528,0.96528 0.91575,0.30525 1.93057,0 2.89585,0 1.6088,0 3.2176,0 4.82641,0 0.96528,0 2.06812,-0.49663 2.89584,0 0.9948,0.59688 0.89292,2.37703 1.93057,2.89585 0.57558,0.28779 0.1262,-1.29954 0,-1.93056 -0.7495,-3.7475 -0.69622,-2.18685 -2.89585,-4.82641 -10.14158,-12.1699 3.53219,3.97979 -4.82641,-7.72226 -0.79345,-1.11084 -2.00744,-1.85937 -2.89584,-2.89584 -1.047,-1.2215 -1.86592,-2.62521 -2.89585,-3.86113 -0.58261,-0.69914 -1.42574,-1.17333 -1.93056,-1.93056 -0.79819,-1.19729 -1.21664,-2.61176 -1.93056,-3.86113 -0.57559,-1.00727 -1.33369,-1.90105 -1.93057,-2.89584 -0.37017,-0.61695 -0.64352,-1.28705 -0.96528,-1.93057 -0.64352,-0.96528 -1.33368,-1.90104 -1.93056,-2.89584 -0.37017,-0.61695 -0.5336,-1.35498 -0.96529,-1.93057 -0.54604,-0.72806 -1.46233,-1.15017 -1.93056,-1.93056 -0.5235,-0.87249 -0.58739,-1.95112 -0.96528,-2.89584 -0.79105,-1.97762 -2.22279,-3.77254 -2.89585,-5.79169 -0.10174,-0.30525 0.1439,-0.67749 0,-0.96529 -0.20349,-0.40699 -0.76178,-0.55828 -0.96528,-0.96528 -0.14389,-0.28779 0.22752,-0.73776 0,-0.96528 -0.22752,-0.227518 -0.82138,0.28779 -0.96528,0 -0.28779,-0.575582 0.28779,-1.35498 0,-1.930563 -0.14389,-0.287791 -0.73776,0.227519 -0.96528,0 -0.45504,-0.455038 0.45504,-1.475525 0,-1.930563 -0.45504,-0.455038 -1.64277,0.575583 -1.93056,0 -0.2878,-0.575583 0.28779,-1.354981 0,-1.930564 -0.1439,-0.287791 -0.73777,0.22752 -0.96529,0 -0.22751,-0.227519 -0.28779,-0.821386 0,-0.965281 0.57559,-0.287792 1.28705,0 1.93057,0 0.64352,0 1.28704,0 1.93056,0 1.1454,0 6.78543,-0.187365 7.72225,0 0.70551,0.141101 1.22506,0.82418 1.93057,0.965281 0.94653,0.189308 1.94931,-0.189307 2.89584,0 0.70551,0.141102 1.28705,0.643522 1.93057,0.965282 0.64352,0.321761 1.33192,0.566187 1.93056,0.965282 0.75723,0.504819 1.11657,1.523565 1.93056,1.930563 0.2878,0.143896 0.73777,-0.227519 0.96529,0 0.22751,0.227519 0,0.643521 0,0.965282 0,0.321761 0.28779,0.821386 0,0.965281 -0.57559,0.28779 -1.28705,0 -1.93057,0 -6.06079,0 -6.24006,-0.655134 -11.58338,-3.861126 -7.30923,-4.385541 -2.57493,-1.251952 -9.65282,-6.756972 -1.26991,-0.98771 -2.65037,-1.836441 -3.86112,-2.895845 -2.69075,-2.354405 -5.1805,-5.180495 -7.72226,-7.722254 -0.32176,-0.32176 -0.64352,-0.643521 -0.96528,-0.965282 -0.32176,-0.32176 -0.76178,-0.558283 -0.96528,-0.965281 -0.1439,-0.287792 0.22752,-0.737763 0,-0.965282 -0.22752,-0.227519 -0.73776,0.227519 -0.96528,0 -0.22752,-0.227519 0,-0.643521 0,-0.965282 0,-1.324483 -0.50675,-3.12511 0.96528,-3.861127 0.5575,-0.27875 4.84465,0.23676 5.79169,0 5.46898,-2.734491 -1.43896,0.35974 3.86113,-0.965281 0.69799,-0.174499 1.22505,-0.824181 1.93056,-0.965282 0.94654,-0.189307 1.94931,0.189307 2.89585,0 0.7055,-0.141101 1.26254,-0.698074 1.93056,-0.965282 0.94472,-0.377888 1.95112,-0.587393 2.89584,-0.965281 0.66802,-0.267208 1.26255,-0.698074 1.93057,-0.965282 0.94472,-0.377889 1.95112,-0.587393 2.89584,-0.965282 0.66802,-0.267207 1.23257,-0.790782 1.93057,-0.965281 0.6243,-0.156077 1.30625,0.156076 1.93056,0 1.7471,0.581802 1.79525,-1.5637 2.89585,-1.930564 0.61049,-0.203499 1.32006,0.203499 1.93056,0 0.43169,-0.143896 0.55828,-0.761782 0.96528,-0.965282 0.28779,-0.143895 0.67749,0.143896 0.96528,0 0.407,-0.203499 0.5336,-0.821386 0.96528,-0.965281 0.6105,-0.2035 1.30626,0.156077 1.93057,0 1.7471,0.581802 1.79525,-1.5637 2.89584,-1.930564 0.6105,-0.203499 1.30626,0.156077 1.93057,0 1.05587,-0.263967 2.80525,-1.666596 3.86112,-1.930563 0.62431,-0.156077 1.32007,0.203499 1.93057,0 0.43168,-0.143896 0.58666,-0.712872 0.96528,-0.965282 0.59864,-0.399095 1.28704,-0.643521 1.93056,-0.965282 0.64352,-0.32176 1.24801,-0.737762 1.93056,-0.965281 0.30525,-0.10175 0.69757,0.17848 0.96529,0 0.75723,-0.50482 1.2025,-1.384518 1.93056,-1.930564 1.15117,-0.863374 2.66384,-1.132373 3.86113,-1.930563 0.37861,-0.25241 0.58666,-0.712872 0.96528,-0.965282 0.59864,-0.399095 1.33192,-0.566187 1.93056,-0.965281 0.37862,-0.25241 0.55828,-0.761783 0.96528,-0.965282 2.84064,-1.42032 -1.27087,2.236155 1.93057,-0.965282 3.20143,-3.201436 -0.91008,0.455038 1.93056,-0.965282 0.814,-0.406998 1.11657,-1.523564 1.93056,-1.930563 0.28779,-0.143896 0.73777,-0.227519 0.96529,0 1.68051,1.680514 0.58296,1.949553 0.96528,3.861127 2.64554,7.936616 -0.33917,-2.034993 0.96528,5.79169 0.33455,2.007304 1.64277,3.77715 1.93056,5.79169 0.18202,1.274107 -0.15964,2.584024 0,3.861127 0.16455,1.316408 0.81878,2.542588 0.96528,3.861127 0.17767,1.598963 -0.14565,3.224213 0,4.826408 2.85382,17.12291 -0.58449,-5.464162 0.96529,11.583381 0.14853,1.633926 0.82903,3.191412 0.96528,4.826408 0.18704,2.244544 -0.17275,4.511283 0,6.756972 0.30022,3.902857 1.60549,7.68252 1.93056,11.58338 0.16033,1.9239 -0.16032,3.8678 0,5.79169 0.16254,1.95043 0.80275,3.84126 0.96528,5.79169 0.26721,3.20649 -0.32016,6.45118 0,9.65282 0.19475,1.94748 0.78809,3.84253 0.96528,5.79169 0.14566,1.60219 0,3.2176 0,4.82641 0,5.46993 0,10.93986 0,16.40979 0,12.54866 0,25.09732 0,37.64598 0,6.43521 0,12.87043 0,19.30564 0,1.93056 0,3.86112 0,5.79169 0,0.64352 0.15608,1.30625 0,1.93056 -0.1745,0.698 -0.79078,1.23257 -0.96528,1.93056 -0.15607,0.62431 0,1.28705 0,1.93057 -0.32176,0.64352 -0.79078,1.23256 -0.96528,1.93056 -0.30107,1.20429 0.30107,2.65684 0,3.86113 -0.1745,0.69799 -0.73776,1.248 -0.96528,1.93056 -0.30525,0.91575 0.23411,1.95939 0,2.89585 -0.1745,0.69799 -0.79078,1.23256 -0.96528,1.93056 -0.20015,0.80059 0.31577,4.19487 0,4.82641 -0.1439,0.28779 -0.64352,0 -0.96528,0 -0.32177,0 -0.64353,0 -0.96529,0 -2.25232,0 -4.50464,0 -6.75697,0 -2.89584,0 -5.79169,0 -8.68753,0 -0.96529,0 -1.9437,0.15869 -2.89585,0 -2.71802,-0.45301 -6.17762,-2.60617 -8.68753,-3.86113 -0.64353,-0.32176 -1.28705,-0.64352 -1.93057,-0.96528 -0.64352,-0.32176 -1.23256,-0.79078 -1.93056,-0.96528 -0.62431,-0.15608 -1.32007,0.2035 -1.93056,0 -0.43169,-0.1439 -0.58667,-0.71287 -0.96529,-0.96528 -0.59864,-0.3991 -1.33192,-0.56619 -1.93056,-0.96529 -0.37861,-0.25241 -0.55828,-0.76178 -0.96528,-0.96528 -0.28779,-0.14389 -0.67749,0.1439 -0.96528,0 -0.407,-0.2035 -0.55829,-0.76178 -0.96528,-0.96528 -0.57559,-0.28779 -1.35499,0.28779 -1.93057,0 -0.407,-0.2035 -0.55828,-0.76178 -0.96528,-0.96528 -0.28779,-0.1439 -0.90218,0.31551 -0.96528,0 -0.31551,-1.57756 0,-3.21761 0,-4.82641 z"
         style="fill:#000000;stroke:#000000;stroke-width:1px;stroke-linecap:butt;stroke-linejoin:miter;stroke-opacity:1" />
      <path
         inkscape:connector-curvature="0"
         id="path3793"
         d="m 225.89166,512.56834 c 1.77112,-1.25573 3.94084,-1.78534 5.79169,-2.89585 0.99479,-0.59688 1.85819,-1.41174 2.89584,-1.93056 0.91008,-0.45504 1.96062,-0.56447 2.89585,-0.96528 2.64522,-1.13367 5.09238,-2.6923 7.72225,-3.86113 1.58339,-0.70373 3.24302,-1.22683 4.82641,-1.93056 1.31493,-0.58442 2.51379,-1.42532 3.86112,-1.93057 2.48437,-0.93164 5.28349,-0.88537 7.72226,-1.93056 1.45327,-0.62283 3.12411,-2.47027 4.82641,-2.89585 0.6243,-0.15607 1.28704,0 1.93056,0 0.32176,0 0.67749,0.1439 0.96528,0 0.407,-0.2035 0.55829,-0.76178 0.96528,-0.96528 0.51042,-0.25521 3.39085,0.11757 3.86113,0 0.698,-0.1745 1.23257,-0.79078 1.93056,-0.96528 0.62431,-0.15608 1.30626,0.15608 1.93057,0 1.7471,0.5818 1.79525,-1.5637 2.89584,-1.93056 0.6105,-0.2035 1.30626,0.15607 1.93057,0 0.69799,-0.1745 1.23256,-0.79079 1.93056,-0.96528 0.62431,-0.15608 1.28704,0 1.93056,0 0.32176,0 0.67749,0.14389 0.96528,0 3.20144,-3.20144 -0.91007,0.45503 1.93057,-0.96529 0.81399,-0.40699 1.06719,-1.64277 1.93056,-1.93056 0.6105,-0.2035 1.35498,0.28779 1.93056,0 0.2878,-0.1439 -0.14389,-0.67749 0,-0.96528 0.2035,-0.407 0.58667,-0.71287 0.96529,-0.96528 0.50683,-0.33789 2.57967,-0.98204 2.89584,-1.93057 0.2035,-0.61049 -0.35696,-1.39512 0,-1.93056 0.3991,-0.59864 1.42182,-0.45653 1.93056,-0.96528 0.22752,-0.22752 -0.10174,-0.66003 0,-0.96528 0.22752,-0.68256 0.73777,-1.24801 0.96529,-1.93057 0.10175,-0.30525 -0.10175,-0.66003 0,-0.96528 0.45503,-1.36511 1.64836,-2.45011 1.93056,-3.86113 0.18931,-0.94653 -0.13651,-1.94026 0,-2.89584 1.91592,-13.41143 -0.0489,2.1263 1.93056,-5.79169 0.15608,-0.62431 -0.2035,-1.32007 0,-1.93056 0.1439,-0.43169 0.76179,-0.55829 0.96529,-0.96529 0.14389,-0.28779 0,-0.64352 0,-0.96528 0,-0.32176 0,-0.64352 0,-0.96528 0,-1.39598 -0.20387,-5.73764 0,-6.75697 0.1411,-0.70551 0.79078,-1.23257 0.96528,-1.93056 0.15607,-0.62431 0,-1.28705 0,-1.93057 0,-1.93056 0,-3.86112 0,-5.79169 0,-1.10685 -0.24998,-2.8612 0,-3.86113 0.1745,-0.69799 0.79078,-1.23256 0.96528,-1.93056 0.21545,-0.86179 0,-3.70907 0,-4.82641 0,-0.32176 -0.10175,-0.66003 0,-0.96528 2.73449,-5.46898 -0.35974,1.43896 0.96528,-3.86113 0.1745,-0.69799 0.73776,-1.248 0.96528,-1.93056 0.10175,-0.30525 -0.10175,-0.66003 0,-0.96528 0.22752,-0.68256 0.73776,-1.24801 0.96528,-1.93056 0.2035,-0.6105 -0.45503,-1.47553 0,-1.93057 0.22752,-0.22752 0.73777,0.22752 0.96529,0 0.22751,-0.22752 -0.10175,-0.66003 0,-0.96528 0.22751,-0.68256 0.53359,-1.35498 0.96528,-1.93056 2.69349,-3.59132 1.49892,-0.102 3.86112,-4.82641 0.45504,-0.91008 0.44179,-2.02335 0.96529,-2.89585 0.93646,-1.56076 2.76903,-2.405 3.86112,-3.86112 0.43169,-0.57559 0.56619,-1.33192 0.96528,-1.93057 0.25241,-0.37861 0.76179,-0.55828 0.96529,-0.96528 0.14389,-0.28779 -0.22752,-0.73776 0,-0.96528 0.22751,-0.22752 0.64352,0 0.96528,0 0.32176,0 0.96528,-0.32176 0.96528,0 0,0.69872 -1.2812,0.009 -1.93056,-0.96528 -0.3991,-0.59864 -0.64353,-1.28704 -0.96529,-1.93057 -0.64352,-1.28704 -1.42531,-2.51378 -1.93056,-3.86112 -0.79647,-2.12391 -1.1341,-5.59835 -1.93056,-7.72226 -0.50525,-1.34733 -1.58157,-2.46513 -1.93057,-3.86112 -0.31215,-1.24862 0.18202,-2.58702 0,-3.86113 -0.14389,-1.00727 -0.76573,-1.89811 -0.96528,-2.89584 -0.25241,-1.26205 0,-2.57409 0,-3.86113 0,-1.93056 0,-3.86113 0,-5.79169 0,-0.64352 0.2035,-1.32007 0,-1.93056 -0.14389,-0.43169 -0.82138,-0.5336 -0.96528,-0.96529 -0.30525,-0.91574 0,-1.93056 0,-2.89584 0,-1.6088 0,-3.21761 0,-4.82641 0,-1.93056 0,-3.86113 0,-5.79169 0,-0.96528 -0.23411,-1.95938 0,-2.89585 0.85803,-3.43211 0.75078,-0.75077 2.89585,-2.89584 0.50874,-0.50875 0.56618,-1.33192 0.96528,-1.93056 0.25241,-0.37862 0.76178,-0.55829 0.96528,-0.96529 0.14389,-0.28779 -0.1439,-0.67749 0,-0.96528 0.2035,-0.407 0.71287,-0.58666 0.96528,-0.96528 3.49943,-6.99885 -1.0175,1.52625 1.93056,-2.89584 0.79819,-1.19729 1.13238,-2.66385 1.93057,-3.86113 0.25241,-0.37862 0.64352,-0.64352 0.96528,-0.96528 0.32176,-0.64352 0.56619,-1.33192 0.96528,-1.93057 0.25241,-0.37861 0.71287,-0.58666 0.96528,-0.96528 0.3991,-0.59864 0.5336,-1.35498 0.96528,-1.93056 0.54605,-0.72806 1.38452,-1.2025 1.93057,-1.93056 0.86337,-1.15117 1.13237,-2.66385 1.93056,-3.86113 0.4983,-0.74744 1.43227,-1.18312 1.93056,-1.93056 0.3991,-0.59865 0.56619,-1.33193 0.96529,-1.93057 0.25241,-0.37861 0.76178,-0.55828 0.96528,-0.96528 0.66573,-1.33147 -1.16901,-0.86342 0.96528,-1.93056 0.28779,-0.1439 0.73776,0.22752 0.96528,0 0.22752,-0.22752 -0.14389,-0.67749 0,-0.96529 0.2035,-0.40699 0.76178,-0.55828 0.96528,-0.96528 0.25521,-0.51041 -0.11757,-3.39085 0,-3.86112 0.1745,-0.698 0.79079,-1.23257 0.96528,-1.93057 0.15608,-0.6243 0,-1.28704 0,-1.93056 0,-0.64352 0,-1.28704 0,-1.93056 0,-2.25233 0,-4.50465 0,-6.75698 0,-1.05399 -0.20808,-4.20215 0,-4.8264 0.22752,-0.68256 0.64353,-1.28705 0.96529,-1.93057 0,-0.96528 -0.23412,-1.95938 0,-2.89584 0.11036,-0.44145 0.82138,-0.5336 0.96528,-0.96528 0.001,-0.004 -9.2e-4,-2.89493 0,-2.89585 0.22752,-0.22752 0.73776,0.22752 0.96528,0 0.22752,-0.22752 -0.22752,-0.73776 0,-0.96528 0.22752,-0.22752 0.65313,0.078 0.96528,0 0.98712,-0.24678 2.04924,-0.40088 2.89585,-0.96528 0.26772,-0.17848 0,-0.64352 0,-0.96528 0,-0.64352 0,-1.28705 0,-1.93057 0,-10.08606 0.407,1.47671 -0.96529,-6.75697 -0.15869,-0.95215 0.1587,-1.9437 0,-2.89584 -0.16727,-1.00366 -0.798,-1.8922 -0.96528,-2.89585 -0.21792,-1.30755 0,-5.15858 0,-6.75697 0,-8.36578 0,-16.73155 0,-25.09733 0,-0.35448 0.0388,-3.82228 0,-3.86112 -0.22752,-0.22752 -0.64352,0 -0.96528,0 -0.96528,0 -1.93056,0 -2.89584,0 -0.96529,0 -1.93057,0 -2.89585,0 -1.6088,0 -3.24355,-0.28779 -4.82641,0 -4.10633,0.7466 -7.93101,3.00022 -11.58338,4.82641 -1.93056,0.96528 -3.86112,1.93056 -5.79169,2.89584 -1.93056,0.96528 -3.94084,1.78534 -5.79169,2.89585 -3.32328,1.99396 -4.97945,4.01416 -7.72225,6.75697 -1.6088,1.6088 -3.21761,3.2176 -4.82641,4.82641 -1.93056,1.93056 -4.02812,3.70747 -5.79169,5.79169 -1.7879,2.11297 -3.21761,4.50465 -4.82641,6.75697 -1.6088,2.25232 -3.2176,4.50465 -4.82641,6.75697 -1.6088,2.25233 -3.46942,4.34455 -4.82641,6.75697 -1.55362,2.762 -2.38518,5.88326 -3.86112,8.68754 -1.74764,3.32051 -3.98337,6.36495 -5.79169,9.65281 -1.73365,3.1521 -3.21761,6.43522 -4.82641,9.65282 -1.28704,2.57409 -2.6441,5.11434 -3.86113,7.72225 -5.61319,12.02827 -0.50714,1.42 -4.82641,13.51395 -0.82417,2.3077 -1.93056,4.50465 -2.89584,6.75697 -0.96528,2.57409 -1.98088,5.12986 -2.89585,7.72225 -3.04572,8.62956 -5.52401,17.4759 -8.68753,26.06261 -1.19803,3.2518 -2.6631,6.40102 -3.86113,9.65282 -1.05526,2.86428 -1.87991,5.80907 -2.89584,8.68753 -0.91497,2.5924 -2.0265,5.11421 -2.89585,7.72226 -0.74075,2.22224 -1.24168,4.5181 -1.93056,6.75697 -1.19693,3.89 -2.47024,7.75843 -3.86113,11.58338 -0.59215,1.62841 -1.38262,3.18259 -1.93056,4.82641 -0.74075,2.22224 -1.24168,4.5181 -1.93057,6.75697 -0.59846,1.945 -1.28704,3.86113 -1.93056,5.79169 -1.28704,3.86113 -2.79024,7.65681 -3.86113,11.58338 -0.43168,1.58285 -0.60937,3.22481 -0.96528,4.82641 -0.28779,1.29506 -0.80073,2.54472 -0.96528,3.86113 -0.15964,1.2771 0.18201,2.58702 0,3.86112 -0.1439,1.00727 -0.82139,1.88858 -0.96528,2.89585 -0.18202,1.2741 0,2.57408 0,3.86112 0,3.86113 0,7.72226 0,11.58338 0,10.29634 0,20.59268 0,30.88902 0,0.45513 -0.0437,4.78266 0,4.82641 0.22752,0.22752 0.67749,-0.1439 0.96528,0 0.407,0.2035 0.55828,0.76178 0.96528,0.96528 0.28779,0.1439 0.73776,-0.22752 0.96528,0 0.22752,0.22752 -0.22752,0.73776 0,0.96528 0.22752,0.22752 0.67749,-0.14389 0.96528,0 2.38561,1.1928 -0.33319,0.96528 1.93057,0.96528 2.26376,0 -0.45504,-0.22752 1.93056,0.96528 0.28779,0.1439 0.67749,-0.14389 0.96528,0 0.407,0.2035 0.55829,0.76179 0.96528,0.96529 0.2878,0.14389 1.27744,-0.078 0.96529,0 -1.59168,0.39792 -3.21761,0.64352 -4.82641,0.96528"
         style="fill:#050505;fill-opacity:1;stroke:none" />
      <path
         inkscape:connector-curvature="0"
         id="path3789"
         d="m 127.43293,506.77665 c 2.25232,-0.64352 4.50465,-1.28704 6.75697,-1.93056 1.93056,-0.96528 3.7287,-2.26108 5.79169,-2.89584 0.0993,-0.0306 13.32902,-1.88789 13.51394,-1.93057 1.98288,-0.45759 3.86113,-1.28704 5.79169,-1.93056 2.25233,-0.64352 4.46652,-1.43975 6.75698,-1.93057 2.22468,-0.47671 4.56932,-0.34023 6.75697,-0.96528 2.35617,-0.67319 4.41806,-2.16493 6.75697,-2.89584 19.38917,-6.05912 -1.51553,1.74053 16.40979,-3.86113 2.62398,-0.81999 5.07342,-2.16006 7.72225,-2.89584 3.16162,-0.87823 6.46947,-1.13473 9.65282,-1.93057 3.25898,-0.81474 6.40414,-2.04093 9.65282,-2.89584 2.86881,-0.75495 5.7999,-1.25112 8.68753,-1.93057 2.58278,-0.60771 5.10932,-1.46945 7.72226,-1.93056 2.86933,-0.50635 5.79169,-0.64352 8.68753,-0.96528 2.89585,-0.32176 5.79169,-0.64352 8.68754,-0.96528 2.89584,-0.32176 5.77835,-0.80366 8.68753,-0.96528 5.14025,-0.28557 10.29634,0 15.44451,0 8.04401,0 16.08803,0 24.13204,0 1.03559,0 6.11892,-0.21269 6.75697,0 0.68256,0.22751 1.24801,0.73776 1.93057,0.96528 0.6105,0.2035 1.47552,-0.45504 1.93056,0 0.22752,0.22752 0.32176,0.96528 0,0.96528 -3.96589,0 -8.28636,-6.42087 -9.65282,-7.72225 -4.45144,-4.23947 -8.86855,-8.52266 -13.51394,-12.54867 -20.96709,-18.17147 -10.2324,-6.83058 -30.88901,-26.0626 -41.1142,-38.27874 13.24666,10.08013 -24.13205,-22.20148 -3.27617,-2.82942 -6.41739,-5.81161 -9.65281,-8.68754 -2.55641,-2.27236 -5.20896,-4.43701 -7.72226,-6.75697 -1.67182,-1.54322 -3.11415,-3.32818 -4.82641,-4.82641 -0.87308,-0.76395 -1.96774,-1.23449 -2.89584,-1.93056 -0.36403,-0.27302 -1.37228,-0.76178 -0.96528,-0.96528 0.86337,-0.43169 1.93056,0 2.89584,0 1.93057,0 3.86906,-0.17479 5.79169,0 5.16693,0.46972 10.37612,0.82185 15.44451,1.93056 11.99057,2.62294 17.87574,6.03215 28.95845,10.6181 4.80323,1.98754 9.70133,3.74402 14.47923,5.79169 4.23442,1.81475 8.27125,4.08073 12.54866,5.79169 3.77888,1.51155 7.79323,2.37803 11.58338,3.86113 19.59388,8.90631 2.75671,1.88418 17.37507,6.75697 2.71123,-0.12694 4.43227,2.12094 6.75697,2.89584 0.30525,0.10175 1.06703,0.30525 0.96528,0 -0.36686,-1.10059 -1.20584,-1.98994 -1.93056,-2.89584 -1.85315,-2.31644 -4.05484,-4.35211 -5.79169,-6.75697 -2.45628,-3.401 -4.3007,-7.2171 -6.75697,-10.6181 -1.73685,-2.40487 -4.06746,-4.34305 -5.79169,-6.75697 -1.5078,-2.11092 -2.35333,-4.64606 -3.86113,-6.75698 -0.10116,-0.14162 -2.57696,0.15945 -2.89584,0 -0.407,-0.2035 -0.64353,-0.64352 -0.96529,-0.96528 -2.46149,-2.46149 -2.89584,-2.30335 -2.89584,-5.79169 0,-0.32176 0,-0.64352 0,-0.96528 0,-0.32176 -0.30525,-0.86353 0,-0.96528 0.91575,-0.30525 1.93056,0 2.89584,0 2.25233,0 4.50465,0 6.75698,0 7.72225,0 15.4445,0 23.16676,0 2.89584,0 5.79169,0 8.68753,0 1.60881,0 3.21761,0 4.82641,0 0.64352,0 2.57409,0 1.93056,0 -1.28704,0 -2.62836,0.36983 -3.86112,0 -4.51534,-1.3546 -12.73826,-7.65874 -15.44451,-9.65282 -14.21289,-10.47266 -3.58525,-2.64505 -14.47923,-12.54866 -1.52447,-1.38589 -3.36957,-2.40429 -4.8264,-3.86113 -1.23833,-1.23832 -5.11515,-6.65791 -5.79169,-8.68753 -0.64353,-1.93057 1.6088,-0.96528 2.89584,-0.96528 4.82641,0 9.65282,0 14.47923,0 0.64352,0 1.28704,0 1.93056,0 0.32176,0 1.10918,0.28779 0.96528,0 -0.407,-0.814 -1.33829,-1.23959 -1.93056,-1.93057 -1.34081,-1.56427 -2.46369,-3.31251 -3.86113,-4.82641 -2.46915,-2.67491 -5.4267,-4.89696 -7.72225,-7.72225 -1.91416,-2.35588 -3.14263,-5.19658 -4.82641,-7.72225 -10.22101,-15.33152 0.18963,1.70405 -8.68754,-13.51395 -5.2732,-9.03979 -1.24239,-0.83135 -3.86112,-8.68754 -0.22752,-0.68255 -0.73777,-1.248 -0.96528,-1.93056 -0.18154,-0.54461 0,-2.26155 0,-2.89585 0,-0.32176 -0.30525,-0.86353 0,-0.96528 0.91574,-0.30525 1.94026,0.13651 2.89584,0 10.46522,-1.49503 -4.9927,-0.8155 10.6181,-1.93056 16.39894,0 -2.14252,0.37028 12.54866,-0.96528 1.6022,-0.14566 3.22745,0.17766 4.82641,0 1.31854,-0.14651 2.54781,-0.77767 3.86113,-0.96528 1.59263,-0.22752 3.2176,0 4.82641,0 0.32176,0 0.73776,0.22752 0.96528,0 0.22752,-0.22752 0.14389,-0.67749 0,-0.96529 -0.44501,-0.89002 -3.64181,-2.71308 -3.86113,-2.89584 -1.04871,-0.87393 -1.85937,-2.00744 -2.89585,-2.89585 -1.22149,-1.04699 -2.65037,-1.83644 -3.86112,-2.89584 -2.39716,-2.09751 -4.33854,-4.68403 -6.75697,-6.75697 -2.75754,-2.36361 -4.96472,-3.42809 -7.72226,-5.79169 -1.03647,-0.88841 -1.85937,-2.00744 -2.89584,-2.89585 -1.2215,-1.04699 -2.63964,-1.84885 -3.86113,-2.89584 -1.72745,-1.48068 -3.21761,-3.21761 -4.82641,-4.82641 -1.28704,-1.28704 -2.57408,-2.57409 -3.86112,-3.86113 -0.32177,-0.32176 -0.71288,-0.58667 -0.96529,-0.96528 -1.10917,-1.66377 -0.96528,-1.4591 -0.96528,-2.89585 0,-0.32176 0.1439,-0.67749 0,-0.96528 -0.2035,-0.407 -0.76178,-0.55828 -0.96528,-0.96528 -0.66573,-1.33147 1.16901,-0.86342 -0.96528,-1.93056 -0.28779,-0.1439 -0.66003,0.10175 -0.96528,0 -0.68256,-0.22752 -1.24801,-0.73776 -1.93057,-0.96528 -0.30525,-0.10175 -0.64352,0 -0.96528,0 -0.64352,0 -1.28704,0 -1.93056,0 -2.57409,0 -5.14817,0 -7.72226,0 -1.6088,0 -3.2176,0 -4.8264,0 -0.96529,0 -1.9801,-0.30525 -2.89585,0 -0.43169,0.14389 -0.64352,0.64352 -0.96528,0.96528 -0.96528,0.96528 -1.93056,1.93056 -2.89585,2.89584 -4.50464,4.50465 -9.12624,8.89531 -13.51394,13.51395 -13.0119,13.69674 -6.66932,7.28849 -18.34035,22.20148 -2.81843,3.60132 -5.77503,7.09243 -8.68754,10.61809 -3.201,3.87491 -6.63718,7.56254 -9.65281,11.58339 -2.7843,3.71239 -5.03997,7.79662 -7.72226,11.58338 -9.30001,13.12943 -19.92847,25.2813 -28.95845,38.61127 -3.40489,5.02626 -6.36158,10.34309 -9.65282,15.4445 -3.14467,4.87425 -6.43521,9.65282 -9.65281,14.47923 -2.57409,3.86113 -5.07223,7.77397 -7.72226,11.58338 -2.49921,3.59262 -5.29465,6.9767 -7.72225,10.6181 -6.4077,9.61155 -1.45988,4.04194 -7.72225,14.47923 -11.09099,18.48497 1.00498,-4.65954 -8.68754,13.51394 -1.35431,2.53933 -2.6441,5.11434 -3.86113,7.72225 -1.03626,2.22056 -1.74269,4.59481 -2.89584,6.75697 -1.42846,2.67837 -3.4689,5.00724 -4.82641,7.72226 -1.22945,2.45889 -1.81291,5.19541 -2.89585,7.72225 -0.85024,1.98392 -2.15821,3.76321 -2.89584,5.79169 -0.56069,1.54189 -0.38921,3.29021 -0.96528,4.82641 -0.40735,1.08626 -1.41174,1.8582 -1.93057,2.89585 -0.45503,0.91007 -0.64352,1.93056 -0.96528,2.89584 -1.384801,4.15442 -0.7185,1.90873 -1.930561,6.75697 -0.63254,2.53015 -1.29803,5.19211 -1.93056,7.72226 -0.32176,1.28704 -0.54576,2.60255 -0.96529,3.86112 -0.22752,0.68256 -0.73776,1.24801 -0.96528,1.93057 -0.119,0.35701 -0.12484,5.542 0,5.79169 0.2035,0.407 0.55829,0.76178 0.96528,0.96528 0.2878,0.14389 0.66004,-0.10175 0.96529,0 0.68255,0.22752 1.248,0.73776 1.93056,0.96528 0.610501,0.2035 1.287041,0 1.930561,0 1.60881,0 3.21761,0 4.82641,0 3.86113,0 7.72225,0 11.58338,0 0.45513,0 4.78266,-0.0438 4.82641,0 0.22752,0.22752 0,0.64352 0,0.96528"
         style="fill:#000000;stroke:#000000;stroke-width:1px;stroke-linecap:butt;stroke-linejoin:miter;stroke-opacity:1" />
      <path
         style="fill:#050505;fill-opacity:1;stroke:none"
         d="m 436.32307,236.36986 c 1.77112,1.25573 3.94084,1.78534 5.79169,2.89585 0.99479,0.59688 1.85819,1.41174 2.89584,1.93056 0.91008,0.45504 1.96062,0.56447 2.89585,0.96528 2.64522,1.13367 5.09238,2.6923 7.72225,3.86113 1.58339,0.70373 3.24302,1.22683 4.82641,1.93056 1.31493,0.58442 2.51379,1.42532 3.86112,1.93057 2.48437,0.93164 5.28349,0.88537 7.72226,1.93056 1.45327,0.62283 3.12411,2.47027 4.82641,2.89585 0.6243,0.15607 1.28704,0 1.93056,0 0.32176,0 0.67749,-0.1439 0.96528,0 0.407,0.2035 0.55829,0.76178 0.96528,0.96528 0.51042,0.25521 3.39085,-0.11757 3.86113,0 0.698,0.1745 1.23257,0.79078 1.93056,0.96528 0.62431,0.15608 1.30626,-0.15608 1.93057,0 1.7471,-0.5818 1.79525,1.5637 2.89584,1.93056 0.6105,0.2035 1.30626,-0.15607 1.93057,0 0.69799,0.1745 1.23256,0.79079 1.93056,0.96528 0.62431,0.15608 1.28704,0 1.93056,0 0.32176,0 0.67749,-0.14389 0.96528,0 3.20144,3.20144 -0.91007,-0.45503 1.93057,0.96529 0.81399,0.40699 1.06719,1.64277 1.93056,1.93056 0.6105,0.2035 1.35498,-0.28779 1.93056,0 0.2878,0.1439 -0.14389,0.67749 0,0.96528 0.2035,0.407 0.58667,0.71287 0.96529,0.96528 0.50683,0.33789 2.57967,0.98204 2.89584,1.93057 0.2035,0.61049 -0.35696,1.39512 0,1.93056 0.3991,0.59864 1.42182,0.45653 1.93056,0.96528 0.22752,0.22752 -0.10174,0.66003 0,0.96528 0.22752,0.68256 0.73777,1.24801 0.96529,1.93057 0.10175,0.30525 -0.10175,0.66003 0,0.96528 0.45503,1.36511 1.64836,2.45011 1.93056,3.86113 0.18931,0.94653 -0.13651,1.94026 0,2.89584 1.91592,13.41143 -0.0489,-2.1263 1.93056,5.79169 0.15608,0.62431 -0.2035,1.32007 0,1.93056 0.1439,0.43169 0.76179,0.55829 0.96529,0.96529 0.14389,0.28779 0,0.64352 0,0.96528 0,0.32176 0,0.64352 0,0.96528 0,1.39598 -0.20387,5.73764 0,6.75697 0.1411,0.70551 0.79078,1.23257 0.96528,1.93056 0.15607,0.62431 0,1.28705 0,1.93057 0,1.93056 0,3.86112 0,5.79169 0,1.10685 -0.24998,2.8612 0,3.86113 0.1745,0.69799 0.79078,1.23256 0.96528,1.93056 0.21545,0.86179 0,3.70907 0,4.82641 0,0.32176 -0.10175,0.66003 0,0.96528 2.73449,5.46898 -0.35974,-1.43896 0.96528,3.86113 0.1745,0.69799 0.73776,1.248 0.96528,1.93056 0.10175,0.30525 -0.10175,0.66003 0,0.96528 0.22752,0.68256 0.73776,1.24801 0.96528,1.93056 0.2035,0.6105 -0.45503,1.47553 0,1.93057 0.22752,0.22752 0.73777,-0.22752 0.96529,0 0.22751,0.22752 -0.10175,0.66003 0,0.96528 0.22751,0.68256 0.53359,1.35498 0.96528,1.93056 2.69349,3.59132 1.49892,0.102 3.86112,4.82641 0.45504,0.91008 0.44179,2.02335 0.96529,2.89585 0.93646,1.56076 2.76903,2.405 3.86112,3.86112 0.43169,0.57559 0.56619,1.33192 0.96528,1.93057 0.25241,0.37861 0.76179,0.55828 0.96529,0.96528 0.14389,0.28779 -0.22752,0.73776 0,0.96528 0.22751,0.22752 0.64352,0 0.96528,0 0.32176,0 0.96528,0.32176 0.96528,0 0,-0.69872 -1.2812,-0.009 -1.93056,0.96528 -0.3991,0.59864 -0.64353,1.28704 -0.96529,1.93057 -0.64352,1.28704 -1.42531,2.51378 -1.93056,3.86112 -0.79647,2.12391 -1.1341,5.59835 -1.93056,7.72226 -0.50525,1.34733 -1.58157,2.46513 -1.93057,3.86112 -0.31215,1.24862 0.18202,2.58702 0,3.86113 -0.14389,1.00727 -0.76573,1.89811 -0.96528,2.89584 -0.25241,1.26205 0,2.57409 0,3.86113 0,1.93056 0,3.86113 0,5.79169 0,0.64352 0.2035,1.32007 0,1.93056 -0.14389,0.43169 -0.82138,0.5336 -0.96528,0.96529 -0.30525,0.91574 0,1.93056 0,2.89584 0,1.6088 0,3.21761 0,4.82641 0,1.93056 0,3.86113 0,5.79169 0,0.96528 -0.23411,1.95938 0,2.89585 0.85803,3.43211 0.75078,0.75077 2.89585,2.89584 0.50874,0.50875 0.56618,1.33192 0.96528,1.93056 0.25241,0.37862 0.76178,0.55829 0.96528,0.96529 0.14389,0.28779 -0.1439,0.67749 0,0.96528 0.2035,0.407 0.71287,0.58666 0.96528,0.96528 3.49943,6.99885 -1.0175,-1.52625 1.93056,2.89584 0.79819,1.19729 1.13238,2.66385 1.93057,3.86113 0.25241,0.37862 0.64352,0.64352 0.96528,0.96528 0.32176,0.64352 0.56619,1.33192 0.96528,1.93057 0.25241,0.37861 0.71287,0.58666 0.96528,0.96528 0.3991,0.59864 0.5336,1.35498 0.96528,1.93056 0.54605,0.72806 1.38452,1.2025 1.93057,1.93056 0.86337,1.15117 1.13237,2.66385 1.93056,3.86113 0.4983,0.74744 1.43227,1.18312 1.93056,1.93056 0.3991,0.59865 0.56619,1.33193 0.96529,1.93057 0.25241,0.37861 0.76178,0.55828 0.96528,0.96528 0.66573,1.33147 -1.16901,0.86342 0.96528,1.93056 0.28779,0.1439 0.73776,-0.22752 0.96528,0 0.22752,0.22752 -0.14389,0.67749 0,0.96529 0.2035,0.40699 0.76178,0.55828 0.96528,0.96528 0.25521,0.51041 -0.11757,3.39085 0,3.86112 0.1745,0.698 0.79079,1.23257 0.96528,1.93057 0.15608,0.6243 0,1.28704 0,1.93056 0,0.64352 0,1.28704 0,1.93056 0,2.25233 0,4.50465 0,6.75698 0,1.05399 -0.20808,4.20215 0,4.8264 0.22752,0.68256 0.64353,1.28705 0.96529,1.93057 0,0.96528 -0.23412,1.95938 0,2.89584 0.11036,0.44145 0.82138,0.5336 0.96528,0.96528 10e-4,0.004 -9.2e-4,2.89493 0,2.89585 0.22752,0.22752 0.73776,-0.22752 0.96528,0 0.22752,0.22752 -0.22752,0.73776 0,0.96528 0.22752,0.22752 0.65313,-0.078 0.96528,0 0.98712,0.24678 2.04924,0.40088 2.89585,0.96528 0.26772,0.17848 0,0.64352 0,0.96528 0,0.64352 0,1.28705 0,1.93057 0,10.08606 0.407,-1.47671 -0.96529,6.75697 -0.15869,0.95215 0.1587,1.9437 0,2.89584 -0.16727,1.00366 -0.798,1.8922 -0.96528,2.89585 -0.21792,1.30755 0,5.15858 0,6.75697 0,8.36578 0,16.73155 0,25.09733 0,0.35448 0.0388,3.82228 0,3.86112 -0.22752,0.22752 -0.64352,0 -0.96528,0 -0.96528,0 -1.93056,0 -2.89584,0 -0.96529,0 -1.93057,0 -2.89585,0 -1.6088,0 -3.24355,0.28779 -4.82641,0 -4.10633,-0.7466 -7.93101,-3.00022 -11.58338,-4.82641 -1.93056,-0.96528 -3.86112,-1.93056 -5.79169,-2.89584 -1.93056,-0.96528 -3.94084,-1.78534 -5.79169,-2.89585 -3.32328,-1.99396 -4.97945,-4.01416 -7.72225,-6.75697 -1.6088,-1.6088 -3.21761,-3.2176 -4.82641,-4.82641 -1.93056,-1.93056 -4.02812,-3.70747 -5.79169,-5.79169 -1.7879,-2.11297 -3.21761,-4.50465 -4.82641,-6.75697 -1.6088,-2.25232 -3.2176,-4.50465 -4.82641,-6.75697 -1.6088,-2.25233 -3.46942,-4.34455 -4.82641,-6.75697 -1.55362,-2.762 -2.38518,-5.88326 -3.86112,-8.68754 -1.74764,-3.32051 -3.98337,-6.36495 -5.79169,-9.65281 -1.73365,-3.1521 -3.21761,-6.43522 -4.82641,-9.65282 -1.28704,-2.57409 -2.6441,-5.11434 -3.86113,-7.72225 -5.61319,-12.02827 -0.50714,-1.42 -4.82641,-13.51395 -0.82417,-2.3077 -1.93056,-4.50465 -2.89584,-6.75697 -0.96528,-2.57409 -1.98088,-5.12986 -2.89585,-7.72225 -3.04572,-8.62956 -5.52401,-17.4759 -8.68753,-26.06261 -1.19803,-3.2518 -2.6631,-6.40102 -3.86113,-9.65282 -1.05526,-2.86428 -1.87991,-5.80907 -2.89584,-8.68753 -0.91497,-2.5924 -2.0265,-5.11421 -2.89585,-7.72226 -0.74075,-2.22224 -1.24168,-4.5181 -1.93056,-6.75697 -1.19693,-3.89 -2.47024,-7.75843 -3.86113,-11.58338 -0.59215,-1.62841 -1.38262,-3.18259 -1.93056,-4.82641 -0.74075,-2.22224 -1.24168,-4.5181 -1.93057,-6.75697 -0.59846,-1.945 -1.28704,-3.86113 -1.93056,-5.79169 -1.28704,-3.86113 -2.79024,-7.65681 -3.86113,-11.58338 -0.43168,-1.58285 -0.60937,-3.22481 -0.96528,-4.82641 -0.28779,-1.29506 -0.80073,-2.54472 -0.96528,-3.86113 -0.15964,-1.2771 0.18201,-2.58702 0,-3.86112 -0.1439,-1.00727 -0.82139,-1.88858 -0.96528,-2.89585 -0.18202,-1.2741 0,-2.57408 0,-3.86112 0,-3.86113 0,-7.72226 0,-11.58338 0,-10.29634 0,-20.59268 0,-30.88902 0,-0.45513 -0.0437,-4.78266 0,-4.82641 0.22752,-0.22752 0.67749,0.1439 0.96528,0 0.407,-0.2035 0.55828,-0.76178 0.96528,-0.96528 0.28779,-0.1439 0.73776,0.22752 0.96528,0 0.22752,-0.22752 -0.22752,-0.73776 0,-0.96528 0.22752,-0.22752 0.67749,0.14389 0.96528,0 2.38561,-1.1928 -0.33319,-0.96528 1.93057,-0.96528 2.26376,0 -0.45504,0.22752 1.93056,-0.96528 0.28779,-0.1439 0.67749,0.14389 0.96528,0 0.407,-0.2035 0.55829,-0.76179 0.96528,-0.96529 0.2878,-0.14389 1.27744,0.078 0.96529,0 -1.59168,-0.39792 -3.21761,-0.64352 -4.82641,-0.96528"
         id="path3795"
         inkscape:connector-curvature="0" />
      <path
         transform="translate(-142.84595,208.8125)"
         inkscape:connector-curvature="0"
         id="path3799"
         d="m 705.62093,335.61014 c -0.96528,-1.28705 -1.93057,-2.57409 -2.89585,-3.86113 -0.64352,-0.64352 -1.36204,-1.21991 -1.93056,-1.93056 -0.72473,-0.90591 -1.33369,-1.90105 -1.93056,-2.89585 -0.37017,-0.61695 -0.51583,-1.36874 -0.96529,-1.93056 -7.43235,-9.29044 1.01953,2.97721 -4.82641,-5.79169 -0.64352,-0.96528 -1.28704,-1.93057 -1.93056,-2.89585 -0.64352,-0.96528 -1.11023,-2.07551 -1.93056,-2.89584 -0.82033,-0.82033 -1.98994,-1.20584 -2.89585,-1.93057 -1.4213,-1.13704 -2.30036,-2.92466 -3.86112,-3.86112 -0.8725,-0.5235 -1.95113,-0.5874 -2.89585,-0.96528 -0.66802,-0.26721 -1.28704,-0.64353 -1.93056,-0.96529 -0.64352,-0.32176 -1.35498,-0.53359 -1.93057,-0.96528 -0.72806,-0.54604 -1.15018,-1.46233 -1.93056,-1.93056 -0.8725,-0.5235 -1.98577,-0.51024 -2.89584,-0.96528 -1.6924,-0.8462 -4.0993,-3.01493 -5.79169,-3.86113 -0.91008,-0.45504 -1.98577,-0.51024 -2.89585,-0.96528 -1.03765,-0.51882 -1.8582,-1.41174 -2.89584,-1.93056 -1.54981,-0.77491 -3.204,-1.32216 -4.82641,-1.93057 -0.95271,-0.35726 -1.98577,-0.51024 -2.89585,-0.96528 -1.03765,-0.51882 -1.82952,-1.47357 -2.89584,-1.93056 -1.21939,-0.5226 -2.58552,-0.60083 -3.86113,-0.96528 -8.13487,-2.32425 2.66931,0.73029 -5.79169,-2.89585 -1.21939,-0.52259 -2.64174,-0.44269 -3.86113,-0.96528 -1.06632,-0.457 -1.88857,-1.35498 -2.89584,-1.93057 -1.24937,-0.71392 -2.61176,-1.21664 -3.86113,-1.93056 -1.00727,-0.57558 -1.8582,-1.41174 -2.89584,-1.93056 -0.91008,-0.45504 -1.96062,-0.56447 -2.89585,-0.96528 -1.32261,-0.56684 -2.53852,-1.36373 -3.86113,-1.93057 -0.93522,-0.40081 -2.02335,-0.44178 -2.89584,-0.96528 -0.78039,-0.46823 -1.2025,-1.38452 -1.93057,-1.93056 -0.57558,-0.43169 -1.28704,-0.64352 -1.93056,-0.96528 -1.28704,-0.64353 -2.57408,-1.28705 -3.86113,-1.93057 -0.64352,-0.32176 -1.33192,-0.56618 -1.93056,-0.96528 -0.37861,-0.25241 -0.55828,-0.76178 -0.96528,-0.96528 -0.28779,-0.1439 -0.73776,0.22752 -0.96528,0 -0.22752,-0.22752 0.22752,-0.73776 0,-0.96528 -0.22752,-0.22752 -0.73776,0.22752 -0.96528,0 -0.0866,-0.0866 -0.0495,-2.8711 0,-2.89585 0.57558,-0.28779 1.30625,0.15608 1.93056,0 0.698,-0.1745 1.28704,-0.64352 1.93056,-0.96528 0.96528,0 1.93802,0.11973 2.89585,0 4.49563,-0.56195 4.55411,-1.10388 8.68753,-1.93056 1.91919,-0.38384 3.90346,-0.45031 5.79169,-0.96528 1.67168,-0.45592 3.198,-1.33842 4.82641,-1.93057 5.45921,-1.98517 11.08789,-3.4264 16.40979,-5.79169 2.62987,-1.16883 5.14817,-2.57408 7.72225,-3.86112 1.28705,-0.64353 2.51379,-1.42532 3.86113,-1.93057 1.24219,-0.46582 2.57409,-0.64352 3.86113,-0.96528 1.28704,-0.64352 2.53852,-1.36373 3.86113,-1.93056 1.87045,-0.80163 3.86112,-1.28705 5.79169,-1.93057 0.96528,-0.32176 1.89219,-0.798 2.89584,-0.96528 0.95215,-0.15869 1.9437,0.15869 2.89585,0 7.01268,-1.16878 -0.33926,-0.96528 4.8264,-0.96528 1.28705,0 2.57409,0 3.86113,0 0.32176,0 0.96528,-0.32176 0.96528,0 0,0.32176 -0.64352,0 -0.96528,0 -0.96528,0 -1.94026,0.13651 -2.89584,0 -3.09113,-0.44159 -5.83059,-1.70545 -8.68754,-2.89585 -4.52392,-1.88496 -9.07282,-3.71916 -13.51394,-5.79169 -2.60792,-1.21702 -5.09239,-2.69229 -7.72226,-3.86112 -9.70782,-4.31459 -9.12632,-3.11524 -18.34035,-7.72226 -2.96299,-1.48149 -5.79169,-3.2176 -8.68753,-4.8264 -2.89585,-1.60881 -5.83219,-3.14679 -8.68754,-4.82641 -5.23277,-3.07811 -10.1532,-6.67646 -15.44451,-9.65282 -13.37624,-7.52414 -2.21853,-0.17721 -14.47922,-7.72225 -6.15866,-3.78995 -5.17621,-3.48967 -10.6181,-7.72226 -1.56437,-1.21673 -4.43463,-3.01699 -5.79169,-4.82641 -0.43169,-0.57558 -0.73776,-1.248 -0.96528,-1.93056 -0.10175,-0.30525 0.22752,-0.73776 0,-0.96528 -0.22752,-0.22752 -0.73777,0.22752 -0.96529,0 -0.22751,-0.22752 -0.22751,-0.73776 0,-0.96528 0.22752,-0.22752 0.64353,0 0.96529,0 0.96528,0 1.93056,0 2.89584,0 7.72226,0 15.44451,0 23.16676,0 37.96775,0 75.9355,0 113.90324,0 0.64353,0 -1.29954,0.1262 -1.93056,0 -0.99774,-0.19955 -2.02335,-0.44179 -2.89584,-0.96528 -0.78039,-0.46823 -1.21992,-1.36205 -1.93057,-1.93057 -1.81181,-1.44945 -4.00922,-2.37574 -5.79169,-3.86112 -1.04871,-0.87393 -1.785,-2.10239 -2.89584,-2.89585 -1.17093,-0.83638 -2.6902,-1.09419 -3.86113,-1.93056 -11.05633,-7.89738 6.4728,2.47691 -6.75697,-5.79169 -1.22024,-0.76265 -2.6409,-1.16792 -3.86113,-1.93057 -1.36426,-0.85266 -2.55199,-1.96074 -3.86113,-2.89584 -1.88806,-1.34862 -3.86112,-2.57409 -5.79169,-3.86113 -0.96528,-0.64352 -1.98994,-1.20584 -2.89584,-1.93056 -0.71065,-0.56852 -1.17334,-1.42575 -1.93056,-1.93057 -1.62874,-2.29926 -4.71807,-1.53657 -6.75698,-2.89584 -1.13584,-0.75723 -1.785,-2.10239 -2.89584,-2.89585 -1.17093,-0.83637 -2.61176,-1.21664 -3.86113,-1.93056 -1.00727,-0.57558 -1.93056,-1.28704 -2.89584,-1.93056 -0.96529,-0.64352 -2.00462,-1.18787 -2.89585,-1.93057 -1.04871,-0.87392 -1.785,-2.10238 -2.89584,-2.89584 -1.17093,-0.83638 -2.6902,-1.09419 -3.86113,-1.93056 -1.11084,-0.79346 -1.84714,-2.02192 -2.89585,-2.89585 -1.78246,-1.48539 -3.90362,-2.51251 -5.79169,-3.86113 -1.30913,-0.93509 -2.55199,-1.96074 -3.86112,-2.89584 -0.94403,-0.67431 -2.00462,-1.18787 -2.89585,-1.93057 -1.04871,-0.87392 -1.84713,-2.02192 -2.89584,-2.89584 -0.89124,-0.74269 -1.93057,-1.28704 -2.89585,-1.93056 -0.96528,-0.64352 -1.8582,-1.41174 -2.89584,-1.93057 -0.91008,-0.45504 -1.98577,-0.51024 -2.89585,-0.96528 -1.03765,-0.51882 -1.93056,-1.28704 -2.89584,-1.93056 -1.93057,-1.28704 -3.77715,-2.70996 -5.79169,-3.86113 -1.24937,-0.71392 -2.61177,-1.21664 -3.86113,-1.93056 -1.00727,-0.57559 -1.88858,-1.35498 -2.89585,-1.93057 -1.24936,-0.71392 -2.61176,-1.21664 -3.86112,-1.93056 -1.00727,-0.575582 -1.82953,-1.473567 -2.89585,-1.930563 -1.21938,-0.522594 -2.64174,-0.442687 -3.86112,-0.965281 -1.06633,-0.456996 -1.8582,-1.411741 -2.89585,-1.930564 -0.91008,-0.455038 -1.95112,-0.587393 -2.89584,-0.965282 -1.33604,-0.534415 -2.46514,-1.581565 -3.86113,-1.930563 -0.62431,-0.156077 -1.28704,0 -1.93056,0 -0.64353,-0.321761 -1.24801,-0.737763 -1.93057,-0.965282 -0.30525,-0.101749 -0.64352,0 -0.96528,0 -0.53933,0 -4.25677,0.18988 -4.82641,0 -0.68256,-0.227519 -1.248,-0.737762 -1.93056,-0.965281 -0.62542,-0.208474 -4.03613,0 -4.82641,0 -0.75979,0 -4.7489,-0.07751 -4.82641,0 -0.22752,0.227519 0,0.643521 0,0.965281 0,0.643521 0,1.287043 0,1.930564 0,5.959005 -0.77222,2.220148 2.89585,7.722251 7.84288,13.07148 -2.32165,-2.984966 6.75697,8.68754 1.15186,1.48096 1.85513,3.26534 2.89584,4.82641 0.89241,1.3386 1.93057,2.57408 2.89585,3.86112 0.96528,1.28705 1.75825,2.72353 2.89584,3.86113 1.1376,1.1376 2.72353,1.75825 3.86113,2.89585 0.82033,0.82033 1.11023,2.07551 1.93056,2.89584 1.1376,1.1376 2.62521,1.86591 3.86113,2.89585 0.69914,0.58261 1.2025,1.38451 1.93056,1.93056 1.15117,0.86337 2.66385,1.13237 3.86113,1.93056 1.42039,0.94693 2.44074,2.9142 3.86113,3.86113 0.88177,0.58785 2.34253,0.82395 2.89584,1.93056 0.1439,0.28779 -0.22752,0.73776 0,0.96528 0.22752,0.22752 0.73777,-0.22752 0.96528,0 0.22752,0.22752 0,0.64353 0,0.96529 0,0.45512 0.0438,4.78266 0,4.8264 -0.22751,0.22752 -0.65312,-0.078 -0.96528,0 -0.98711,0.24678 -1.89219,0.79801 -2.89584,0.96529 -0.95215,0.15869 -1.94931,-0.18931 -2.89585,0 -0.7055,0.1411 -1.26254,0.69807 -1.93056,0.96528 -0.94472,0.37789 -1.89811,0.76573 -2.89585,0.96528 -1.26204,0.25241 -2.61251,-0.31215 -3.86112,0 -0.698,0.1745 -1.24801,0.73776 -1.93057,0.96528 -0.63,0.21 -4.63758,0 -5.79169,0 -0.32176,0 -0.64352,0 -0.96528,0 -0.32176,0 -0.73776,0.22752 -0.96528,0 -0.32044,-0.32044 0.32044,-1.61012 0,-1.93056 -0.22752,-0.22752 -0.73776,0.22752 -0.96528,0 -0.22752,-0.22752 0,-0.64352 0,-0.96528 0,-0.32176 0,-0.64353 0,-0.96529 0,-2.57408 0,-5.14816 0,-7.72225 0,-0.32176 -0.22752,-0.73776 0,-0.96528 0.22752,-0.22752 0.69756,0.17848 0.96528,0 0.75723,-0.50482 1.21991,-1.36204 1.93056,-1.93056 0.90591,-0.72473 2.00462,-1.18787 2.89585,-1.93057 1.04871,-0.87392 1.85937,-2.00744 2.89584,-2.89584 1.2215,-1.047 2.59122,-1.90814 3.86113,-2.89585 1.62628,-1.26488 3.13857,-2.67964 4.82641,-3.86112 1.53702,-1.07592 3.28939,-1.81994 4.82641,-2.89585 1.68784,-1.18149 3.11216,-2.71829 4.82641,-3.86113 6.0259,-4.01727 1.6088,-0.32176 6.75697,-2.89584 4.53254,-2.26627 1.21442,-1.45105 4.82641,-2.89585 0.94472,-0.37789 2.02335,-0.44178 2.89584,-0.96528 0.78039,-0.46823 1.2025,-1.38452 1.93056,-1.93056 0.57559,-0.43169 1.28705,-0.64352 1.93057,-0.96528 0.64352,-0.32176 1.28704,-0.64353 1.93056,-0.96529 0.64352,-0.32176 1.33192,-0.56618 1.93057,-0.96528 0.37861,-0.25241 0.53359,-0.82138 0.96528,-0.96528 3.5784,-1.1928 0.63208,1.29848 2.89584,-0.96528 0.32176,-0.32176 0.96528,-0.51024 0.96528,-0.96528 0,-1.05249 -2.574,-1.37894 -3.86112,-1.93057 -4.44112,-1.90333 -5.74906,-3.357166 -10.6181,-5.791686 -2.83442,-1.417208 -5.85312,-2.443919 -8.68754,-3.861127 -2.96299,-1.481497 -5.72454,-3.344912 -8.68753,-4.826409 -2.83442,-1.417208 -5.79169,-2.574084 -8.68754,-3.861126 -2.89584,-1.287043 -5.79169,-2.574085 -8.68753,-3.861127 -1.7394,-0.773067 -12.87907,-5.770266 -15.44451,-6.756972 -3.76687,-1.448796 -7.74504,-2.58168 -11.58338,-3.861127 -0.96528,-0.32176 -1.98577,-0.510243 -2.89585,-0.965282 -0.40699,-0.203499 -0.55828,-0.761782 -0.96528,-0.965281 -0.28779,-0.143896 -0.73776,0.227519 -0.96528,0 -0.22752,-0.227519 0,-0.643521 0,-0.965282 0,-0.321761 0,-0.643521 0,-0.965282 0,-0.32176 -0.26772,-0.786801 0,-0.965281 2.47345,-1.648968 3.95709,-0.615297 6.75697,-0.965282 2.45503,0.161579 4.43806,-1.599291 6.75697,-1.930564 1.27411,-0.182015 2.58403,0.159638 3.86113,0 1.31641,-0.164551 2.54781,-0.777664 3.86113,-0.965281 0.95558,-0.136512 1.94026,0.136511 2.89584,0 2.62664,-0.375234 5.09562,-1.55533 7.72226,-1.930564 0.95558,-0.136511 1.94369,0.158692 2.89584,0 1.00365,-0.167275 1.93057,-0.643521 2.89585,-0.965281 0.96528,-0.321761 1.93056,-0.643522 2.89584,-0.965282 0.96528,-0.321761 1.89811,-0.765734 2.89585,-0.965282 0.63102,-0.126205 1.28704,0 1.93056,0 0.32176,0 0.67749,0.143896 0.96528,0 0.407,-0.203499 0.55829,-0.761782 0.96528,-0.965282 0.56954,-0.284767 2.2319,0.221318 2.89585,0 5.46898,-2.734491 -1.43896,0.35974 3.86113,-0.965281 0.69799,-0.174499 1.22505,-0.824181 1.93056,-0.965282 0.94654,-0.189307 1.94931,0.189307 2.89584,0 0.70551,-0.141101 1.22506,-0.82418 1.93057,-0.965282 0.94653,-0.189307 1.9437,0.158692 2.89584,0 1.00366,-0.167275 1.8922,-0.798006 2.89585,-0.965281 0.95215,-0.158692 1.93056,0 2.89584,0 0.96528,-0.321761 1.90873,-0.718503 2.89585,-0.965282 0.31215,-0.07804 0.64352,0 0.96528,0 0.62117,0 6.10372,0.163312 6.75697,0 0.698,-0.174499 1.24801,-0.737763 1.93057,-0.965282 0.30524,-0.101749 0.64352,0 0.96528,0 0.64352,0 1.28704,0 1.93056,0 1.93056,0 3.86113,0 5.79169,0 1.93056,0 3.86113,0 5.79169,0 0.32176,0 0.73776,-0.227519 0.96528,0 0.005,0.0051 -0.008,2.863576 0,2.895845 0.1745,0.697997 0.79079,1.232567 0.96528,1.930564 0.15608,0.624307 -0.15607,1.306256 0,1.930563 2.24069,4.481371 0.0819,-0.55561 0.96529,3.861127 1.00431,5.021589 0.64352,0.965282 1.93056,4.826409 0.83905,2.517146 0.99893,5.237886 1.93056,7.722253 0.50525,1.347338 1.42531,2.51379 1.93057,3.861127 0.46582,1.242184 0.54575,2.602553 0.96528,3.861127 0.54794,1.643815 1.38262,3.182593 1.93056,4.826408 2.61446,7.843364 -1.13251,-0.376273 2.89585,8.687536 0.58441,1.314935 1.34614,2.546191 1.93056,3.861127 0.70373,1.583392 1.08907,3.311724 1.93056,4.826404 0.78131,1.40635 2.04318,2.49687 2.89585,3.86113 0.76264,1.22023 1.09419,2.6902 1.93056,3.86113 0.79346,1.11084 2.10239,1.785 2.89585,2.89584 0.83637,1.17093 1.28704,2.57409 1.93056,3.86113 0.64352,1.28704 1.42531,2.51379 1.93056,3.86113 0.46582,1.24218 0.49947,2.61894 0.96529,3.86112 0.50525,1.34734 1.47552,2.49602 1.93056,3.86113 0.51882,1.55647 0.44646,3.26994 0.96528,4.82641 0.45504,1.36511 1.42531,2.51379 1.93056,3.86113 0.93164,2.48436 1.20165,5.17103 1.93057,7.72225 0.27953,0.97835 0.68575,1.9175 0.96528,2.89584 0.72892,2.55122 1.41021,5.12048 1.93056,7.72226 0.38384,1.91918 0.64352,3.86112 0.96528,5.79169 0.32176,1.93056 0.81518,3.84026 0.96529,5.79169 0.64253,8.35292 -0.59639,4.7956 0,12.54866 0.1745,2.26849 0.82336,4.48621 0.96528,6.75697 0.18064,2.89021 0,5.79169 0,8.68754 0,2.57408 0,5.14817 0,7.72225 0,14.47923 0,28.95845 0,43.43768 0,6.11345 0,12.2269 0,18.34035 0,2.89585 0,5.79169 0,8.68754 0,2.25232 -0.17275,4.51128 0,6.75697 0.23241,3.02134 0.81432,5.89694 1.93056,8.68753 1.32214,3.30535 3.19887,4.05175 3.86113,8.68754 0.0587,0.41118 -3.51088,-0.35025 -3.86113,0 -0.22752,0.22752 0,0.64352 0,0.96528 0,0.32176 0,0.64352 0,0.96528 0,4.50465 0,9.0093 0,13.51395 0,0.32176 0,0.64352 0,0.96528 0,0.32176 -0.22752,0.73776 0,0.96528 0.22752,0.22752 0.73776,-0.22752 0.96528,0 0.22752,0.22752 0,0.64352 0,0.96528 0,0.32176 0,0.64352 0,0.96528"
         style="fill:#000000;stroke:#000000;stroke-width:1px;stroke-linecap:butt;stroke-linejoin:miter;stroke-opacity:1" />
    </g>
  </g>
</svg>
