<?xml version="1.0" encoding="UTF-8" standalone="no"?>
<!-- Created with Inkscape (http://www.inkscape.org/) -->

<svg
   xmlns:dc="http://purl.org/dc/elements/1.1/"
   xmlns:cc="http://creativecommons.org/ns#"
   xmlns:rdf="http://www.w3.org/1999/02/22-rdf-syntax-ns#"
   xmlns:svg="http://www.w3.org/2000/svg"
   xmlns="http://www.w3.org/2000/svg"
   xmlns:xlink="http://www.w3.org/1999/xlink"
   xmlns:sodipodi="http://sodipodi.sourceforge.net/DTD/sodipodi-0.dtd"
   xmlns:inkscape="http://www.inkscape.org/namespaces/inkscape"
   width="1100"
   height="575"
   id="svg2"
   version="1.1"
   inkscape:version="0.48.3.1 r9886"
   sodipodi:docname="007.svg">
  <defs
     id="defs4">
    <linearGradient
       id="linearGradient3797">
      <stop
         id="stop3805"
         offset="0"
         style="stop-color:#1a1a1a;stop-opacity:0.49803922;" />
      <stop
         style="stop-color:#1a1a1a;stop-opacity:0;"
         offset="1"
         id="stop3801" />
    </linearGradient>
    <linearGradient
       inkscape:collect="always"
       id="linearGradient3757">
      <stop
         style="stop-color:#1a1a1a;stop-opacity:1;"
         offset="0"
         id="stop3759" />
      <stop
         style="stop-color:#1a1a1a;stop-opacity:0;"
         offset="1"
         id="stop3761" />
    </linearGradient>
    <radialGradient
       inkscape:collect="always"
       xlink:href="#linearGradient3757"
       id="radialGradient3765"
       cx="534.82312"
       cy="157.47034"
       fx="534.82312"
       fy="157.47034"
       r="424.53226"
       gradientTransform="matrix(1.2391753,0,0,0.38350516,-232.63253,311.97324)"
       gradientUnits="userSpaceOnUse" />
    <linearGradient
       inkscape:collect="always"
       xlink:href="#linearGradient3797"
       id="linearGradient3803"
       x1="201.21497"
       y1="417.4314"
       x2="197.39908"
       y2="515.46777"
       gradientUnits="userSpaceOnUse" />
    <linearGradient
       inkscape:collect="always"
       xlink:href="#linearGradient3797"
       id="linearGradient3864"
       x1="100.83333"
       y1="384.74585"
       x2="60.088417"
       y2="294.48221"
       gradientUnits="userSpaceOnUse" />
    <radialGradient
       inkscape:collect="always"
       xlink:href="#linearGradient3757"
       id="radialGradient3896"
       gradientUnits="userSpaceOnUse"
       gradientTransform="matrix(1.2391753,0,0,0.38350516,-232.63253,311.97324)"
       cx="534.82312"
       cy="157.47034"
       fx="534.82312"
       fy="157.47034"
       r="424.53226" />
    <linearGradient
       inkscape:collect="always"
       xlink:href="#linearGradient3797"
       id="linearGradient3898"
       gradientUnits="userSpaceOnUse"
       x1="100.83333"
       y1="384.74585"
       x2="60.088417"
       y2="294.48221" />
    <linearGradient
       inkscape:collect="always"
       xlink:href="#linearGradient3797"
       id="linearGradient3900"
       gradientUnits="userSpaceOnUse"
       x1="201.21497"
       y1="417.4314"
       x2="197.39908"
       y2="515.46777" />
    <linearGradient
       inkscape:collect="always"
       xlink:href="#linearGradient3797"
       id="linearGradient3905"
       gradientUnits="userSpaceOnUse"
       x1="201.21497"
       y1="417.4314"
       x2="197.39908"
       y2="515.46777" />
    <linearGradient
       inkscape:collect="always"
       xlink:href="#linearGradient3797"
       id="linearGradient3908"
       gradientUnits="userSpaceOnUse"
       x1="100.83333"
       y1="384.74585"
       x2="60.088417"
       y2="294.48221" />
    <radialGradient
       inkscape:collect="always"
       xlink:href="#linearGradient3757"
       id="radialGradient3911"
       gradientUnits="userSpaceOnUse"
       gradientTransform="matrix(1.2391753,0,0,0.38350516,-232.63253,311.97324)"
       cx="534.82312"
       cy="157.47034"
       fx="534.82312"
       fy="157.47034"
       r="424.53226" />
  </defs>
  <sodipodi:namedview
     id="base"
     pagecolor="#ffffff"
     bordercolor="#666666"
     borderopacity="1.0"
     inkscape:pageopacity="0.0"
     inkscape:pageshadow="2"
     inkscape:zoom="0.66863032"
     inkscape:cx="535.70137"
     inkscape:cy="279.71354"
     inkscape:document-units="px"
     inkscape:current-layer="layer1"
     showgrid="false"
     inkscape:window-width="1311"
     inkscape:window-height="679"
     inkscape:window-x="11"
     inkscape:window-y="42"
     inkscape:window-maximized="0"
     showguides="true"
     inkscape:guide-bbox="true"
     fit-margin-top="0"
     fit-margin-left="0"
     fit-margin-right="0"
     fit-margin-bottom="0"
     inkscape:snap-global="false">
    <sodipodi:guide
       orientation="1,0"
       position="1099.0229,-1.6075554"
       id="guide3027" />
    <sodipodi:guide
       orientation="0,1"
       position="1101.7476,1.0353746"
       id="guide3033" />
    <sodipodi:guide
       orientation="0,1"
       position="-2.53521,574.25888"
       id="guide3005" />
    <sodipodi:guide
       orientation="1,0"
       position="0.76056301,577.08141"
       id="guide3007" />
  </sodipodi:namedview>
  <metadata
     id="metadata7">
    <rdf:RDF>
      <cc:Work
         rdf:about="">
        <dc:format>image/svg+xml</dc:format>
        <dc:type
           rdf:resource="http://purl.org/dc/dcmitype/StillImage" />
        <dc:title />
      </cc:Work>
    </rdf:RDF>
  </metadata>
  <g
     inkscape:label="Layer 1"
     inkscape:groupmode="layer"
     id="layer1"
     transform="translate(142.84595,-208.8125)"
     style="display:inline">
    <g
       id="g3914">
      <rect
         y="208.8125"
         x="-142.84595"
         height="575"
         width="1100"
         id="rect3023"
         style="fill:#000000;fill-opacity:1;fill-rule:evenodd;stroke:none" />
      <rect
         y="209.55362"
         x="-95.962822"
         height="325.62064"
         width="1052.1398"
         id="rect2987"
         style="fill:url(#radialGradient3911);fill-opacity:1;fill-rule:evenodd;stroke:none" />
      <path
         sodipodi:nodetypes="cssssccsssccccccccccccccscccccscccscscsccssccscsccccccsssssssssccssssssscsscsccccscscscccssssssssscssccssscssssssscsssscsscscsssssssssscscccscccssccsccccc"
         inkscape:connector-curvature="0"
         id="path3769"
         d="m -85.98091,268.15998 c 2.630624,-0.68689 5.163777,-1.4835 7.891904,-2.06067 2.250601,-0.47613 6.312659,-0.22835 8.918376,-0.3226 6.688813,-0.24197 13.377614,-0.48394 20.066427,-0.72591 20.809576,-0.75277 41.6191672,-1.50555 62.42875,-2.25834 7.43201,-0.26885 14.863995,-0.53769 22.296003,-0.80655 0.743196,-0.0269 1.486397,-0.0537 2.229603,-0.0807 0.743191,-0.0269 1.462127,-0.4713 2.229602,-0.0807 0.402193,0.20469 3.462274,5.86224 4.105966,6.95214 3.763821,6.37281 7.527643,12.74562 11.291442,19.1184 0.71397,1.20887 4.358107,8.07625 5.132474,8.69018 0.565511,0.44841 5.94665,2.8664 6.512172,3.31478 0.638416,0.50615 0.259031,1.34738 1.026484,1.73802 0.767475,0.39069 1.462144,-0.4713 2.229597,-0.0807 0.767475,0.39068 0.388112,1.23189 1.026505,1.73805 0.902854,0.71581 2.35326,0.94156 3.256103,1.65737 0.638394,0.50616 0.25902,1.34739 1.026484,1.73804 1.114523,0.56723 3.344725,-0.72859 4.459204,-0.16131 0.767449,0.39067 0.25902,1.34738 1.026489,1.73803 0.76747,0.39069 1.46213,-0.47129 2.2296,-0.0807 0.76748,0.39068 0.25901,1.3474 1.0265,1.73804 0.76746,0.39068 1.41183,-0.31571 2.22959,-0.0807 11.41508,3.28097 -2.45436,-0.0337 4.2826,3.39542 0.76744,0.39066 1.46213,-0.4713 2.2296,-0.0807 6.73697,3.42919 -7.13249,0.11445 4.28258,3.39542 0.81776,0.23505 1.41186,-0.31569 2.22961,-0.0806 2.312985,0.66481 4.199215,2.64996 6.512195,3.31477 0.81776,0.23503 1.48639,-0.0537 2.22958,-0.0806 1.08539,0.55243 2.09962,1.32496 3.25608,1.65737 0.81778,0.23504 1.46215,-0.4713 2.22962,-0.0806 0.76744,0.39066 0.38808,1.23187 1.02648,1.73802 0.90287,0.71583 2.35324,0.94158 3.25611,1.65739 0.6384,0.50615 0.25903,1.34738 1.02648,1.73802 0.76748,0.39068 1.46216,-0.47129 2.2296,-0.0807 0.76747,0.39067 0.25903,1.34739 1.02651,1.73805 0.76744,0.39065 1.46212,-0.47131 2.2296,-0.0807 1.53491,0.78133 0.77613,2.46374 2.05298,3.47607 0.90284,0.71582 2.35325,0.94157 3.25608,1.65738 0.63843,0.50615 0.25903,1.34739 1.0265,1.73805 0.76746,0.39066 1.46213,-0.47131 2.22959,-0.0807 0.76747,0.39068 0.38809,1.23189 1.0265,1.73803 0.90284,0.71582 2.35323,0.94158 3.25609,1.65739 0.63841,0.50616 0.25903,1.34739 1.02649,1.73805 0.76747,0.39066 1.46214,-0.47131 2.22961,-0.0807 0.76745,0.39066 0.38809,1.23187 1.02648,1.73804 0.90287,0.71581 2.35325,0.94155 3.25611,1.65737 0.63841,0.50616 0.25903,1.3474 1.0265,1.73805 1.5349,0.78133 2.82367,-0.63141 4.4592,-0.16131 1.15646,0.33241 2.09961,1.32496 3.25609,1.65738 1.63551,0.47007 2.92425,-0.94262 4.45919,-0.16133 0.76746,0.39067 0.25902,1.34739 1.02651,1.73806 1.5349,0.78133 2.92424,-0.94261 4.45918,-0.16132 0.76745,0.39066 0.25902,1.34739 1.0265,1.73804 0.76745,0.39066 1.46214,-0.4713 2.22959,-0.0807 0.0143,0.75355 3.68002,0.58455 4.74381,1.33531 1.0961,0.77356 0.45209,2.64411 1.50881,3.73384 0.81201,0.83737 3.13815,0.88922 4.91969,1.60712 2.12622,0.85679 1.425,2.23927 3.13191,3.9199 1.05234,1.03614 4.42329,2.32592 5.75131,3.25721 2.05424,1.44054 4.62683,1.10063 7.04808,2.25014 1.7206,0.81687 3.36477,3.11425 4.69219,4.06665 1.99677,1.43264 3.95694,3.13787 4.64577,4.6136 0.56331,1.20682 -0.0985,2.22267 0.84094,3.12313 3.00914,2.88418 6.28857,3.52606 6.44406,3.64934 l -87.13146,55.23435 c -0.35576,-0.18108 -4.1239,-3.63268 -9.49671,-4.87037 -2.68082,-0.61755 -5.62426,0.47729 -8.27809,-0.42137 -3.5012,-1.1856 -7.169297,-0.75711 -7.364105,-0.91156 -0.902858,-0.71581 -2.17074,-1.10494 -3.25609,-1.65739 -1.08537,-0.55246 -2.09963,-1.32498 -3.25608,-1.65738 -3.78338,-1.08744 -0.75119,2.177 -5.48571,-1.57673 -0.63841,-0.50616 -0.25903,-1.34739 -1.0265,-1.73804 -0.76747,-0.39065 -1.46212,0.47132 -2.22961,0.0807 -0.76746,-0.39065 -0.38806,-1.23187 -1.02648,-1.73803 -0.90285,-0.71581 -2.353258,-0.94158 -3.25609,-1.65738 -0.638416,-0.50616 -0.684327,-1.15869 -1.026495,-1.73803 -1.085364,-0.55247 -2.353238,-0.94156 -3.256092,-1.65738 -0.638415,-0.50616 -0.259019,-1.3474 -1.026505,-1.73805 -0.767464,-0.39065 -1.462111,0.47131 -2.229586,0.0806 -1.53495,-0.78129 -0.776169,-2.46375 -2.05299,-3.47608 -0.902843,-0.7158 -2.353237,-0.94156 -3.256091,-1.65737 -0.638416,-0.50617 -0.259031,-1.34739 -1.026484,-1.73803 -0.767497,-0.39066 -1.462144,0.4713 -2.229608,0.0807 -0.767475,-0.39068 -0.259031,-1.3474 -1.026495,-1.73805 -0.767464,-0.39064 -1.462133,0.4713 -2.229607,0.0806 -1.534917,-0.78131 -0.518051,-2.69478 -2.05299,-3.47608 -0.767453,-0.39064 -1.591192,0.58681 -2.229597,0.0807 -1.276809,-1.01231 -0.776169,-2.46374 -2.052989,-3.47608 -0.638405,-0.50614 -1.462122,0.47132 -2.229608,0.0807 -0.767464,-0.39064 -0.388068,-1.23186 -1.026484,-1.73803 -0.902843,-0.71581 -2.353248,-0.94156 -3.256102,-1.65738 -1.13998,-0.90384 -0.912988,-2.57225 -2.052979,-3.47607 -1.805696,-1.43164 -4.929313,-1.78427 -6.512172,-3.31477 -1.119254,-1.08222 -0.933748,-2.39385 -2.052993,-3.47606 -0.791433,-0.76526 -2.270469,-0.99677 -3.256094,-1.65739 -1.558456,-1.04455 -2.724166,-2.35088 -4.282592,-3.39542 -0.985629,-0.66062 -2.353248,-0.94156 -3.256093,-1.65738 -0.638418,-0.50617 -0.388092,-1.23188 -1.026508,-1.73805 -0.902839,-0.7158 -2.353237,-0.94156 -3.256094,-1.65737 -0.638398,-0.50616 -0.388073,-1.23187 -1.026485,-1.73803 -8.911546,-7.06546 1.251289,1.85246 -5.485689,-1.57673 -1.083422,-0.55146 -0.969556,-2.92459 -2.05299,-3.47608 -0.767466,-0.39063 -1.486389,0.0537 -2.229593,0.0807 -0.6843318,-1.1587 -0.9337468,-2.39386 -2.0529898,-3.47608 -1.582867,-1.53049 -4.706494,-1.88313 -6.512188,-3.31476 -0.638408,-0.50616 -0.25903,-1.34739 -1.02649402,-1.73803 -0.767461,-0.39064 -1.591192,0.58681 -2.22959398,0.0807 -1.276832,-1.01232 -0.933753,-2.39386 -2.052997,-3.47608 -1.58286,-1.5305 -4.706494,-1.88313 -6.5121962,-3.31476 -0.638399,-0.50616 -0.388068,-1.23188 -1.026491,-1.73804 -1.805687,-1.43163 -4.54089,-1.9935 -6.512172,-3.31476 -1.558438,-1.04454 -2.724169,-2.35088 -4.282596,-3.39541 -1.650891,-1.10652 -8.810457,-4.046 -9.768278,-4.97215 -1.119262,-1.08223 -0.933738,-2.39384 -2.053,-3.47608 -1.198334,-1.15869 -8.132562,-3.67528 -9.768265,-4.97215 -0.638418,-0.50615 -0.388083,-1.23187 -1.026485,-1.73801 -0.902855,-0.71582 -2.353254,-0.94157 -3.25611,-1.6574 -0.638399,-0.50615 -0.388074,-1.23187 -1.026492,-1.73803 -0.565506,-0.44836 -5.946651,-2.86639 -6.5122,-3.31477 -0.638405,-0.50614 -0.684326,-1.15869 -1.026495,-1.73804 -1.085353,-0.55244 -2.353237,-0.94155 -3.256091,-1.65737 -0.638405,-0.50616 -0.388079,-1.23188 -1.026484,-1.73803 -0.565522,-0.44837 -5.946673,-2.8664 -6.512183,-3.31477 -0.638416,-0.50616 -0.388079,-1.23187 -1.026506,-1.73804 -0.902832,-0.7158 -2.353226,-0.94155 -3.256092,-1.65737 -0.638404,-0.50616 -0.38809,-1.23189 -1.026483,-1.73804 -2.569557,-2.03726 -7.19873,-2.93488 -9.768297,-4.97215 -0.638405,-0.50616 -0.466854,-1.19692 -1.026484,-1.73804 -1.251365,-1.20996 -3.031222,-2.18544 -4.282597,-3.39542 -0.55962,-0.54111 -0.388068,-1.23187 -1.026484,-1.73803 -0.902843,-0.71582 -2.353248,-0.94157 -3.256092,-1.65738 -0.638415,-0.50616 -0.684326,-1.15869 -1.026483,-1.73803 -0.342169,-0.57935 -0.684338,-1.1587 -1.026506,-1.73805 -2.05299,-3.47607 -4.105968,-6.95213 -6.158955,-10.4282 -0.34217,-0.57936 -1.31009,-1.30938 -1.0265,-1.73804 0.42234,-0.63839 9.962449,0.25268 11.147998,-0.40328 0.723675,-0.40043 0.479416,-1.41828 1.203102,-1.81869 0.620687,-0.34343 9.597218,-0.34717 11.147984,-0.40328 1.486413,-0.0537 2.972804,-0.10758 4.459205,-0.1613 0.743207,-0.0269 1.88744,-0.66001 2.229608,-0.0806 0.342169,0.57935 -1.887428,0.66 -2.229608,0.0806 -0.483878,-0.81932 1.165875,-1.06886 1.203113,-1.81869 0.02638,-0.53021 -1.310091,-1.30938 -1.026494,-1.73804 0.283552,-0.42869 1.946011,0.348 2.229596,-0.0807 0.283553,-0.42869 -1.310068,-1.30938 -1.026516,-1.73805 0.283552,-0.42868 1.946044,0.34801 2.229608,-0.0807 0.283541,-0.42867 -1.310058,-1.30935 -1.026484,-1.73802 0.283552,-0.42869 1.946023,0.34801 2.229608,-0.0806 0.283541,-0.42868 -0.684348,-1.1587 -1.026506,-1.73804 -0.342158,-0.57934 -0.25902,-1.34738 -1.026495,-1.73803 -0.767464,-0.39069 -1.887439,0.65998 -2.229597,0.0806 -0.342179,-0.57935 2.972804,-0.10758 2.229597,-0.0806 -3.611241,0.13064 -14.378038,0.52013 -15.607189,0.56458 z"
         style="fill:url(#linearGradient3908);fill-opacity:1;stroke:none" />
      <path
         sodipodi:nodetypes="ccscscsccsccsscssccssccscssssscscsccccccccssccscccccccscccssscccsscccsssssccccccscccsscscsccccsscssccssccscccccscssssscscsssscsscscsssscsccscccssscsscsccsssssssccsscsccsssccssssscsscssccc"
         style="fill:url(#linearGradient3905);fill-opacity:1;stroke:none"
         d="m 210.34156,381.2894 c 0.69824,0.34752 1.33028,-0.41925 2.02852,-0.0718 0.69824,0.34753 0.3531,1.09584 0.93392,1.54609 1.64286,1.27354 4.28204,1.67517 5.92488,2.94871 0.58085,0.45026 0.35309,1.09583 0.93392,1.54609 8.10786,6.2852 -1.13843,-1.64788 4.99097,1.40261 0.69824,0.34752 0.35308,1.09583 0.93391,1.54609 2.33782,1.81226 6.54952,2.61079 8.88734,4.42304 0.58083,0.45027 0.35307,1.09585 0.93392,1.54611 2.33781,1.81227 6.5495,2.61078 8.88731,4.42304 0.58085,0.45027 0.23568,1.1986 0.93392,1.5461 0.69824,0.34753 1.28451,-0.28083 2.02852,-0.0717 0.66259,0.18619 8.37006,4.02205 8.88734,4.42304 1.16166,0.90053 0.47132,2.39718 1.86783,3.09219 6.1294,3.0505 -3.11689,-4.88258 4.99096,1.4026 0.58083,0.45028 0.35309,1.09584 0.93392,1.5461 0.82142,0.63677 2.14102,0.83759 2.96245,1.47436 0.58082,0.45025 0.23567,1.19859 0.93392,1.54609 0.69824,0.34752 1.33027,-0.41925 2.02853,-0.0717 0.69823,0.34752 0.35306,1.09583 0.93391,1.5461 0.82142,0.63677 2.14101,0.83759 2.96244,1.47436 0.58083,0.45026 0.23566,1.19858 0.93392,1.54608 0.69824,0.34752 1.33027,-0.41925 2.02853,-0.0718 1.39649,0.69505 0.70617,2.19169 1.86782,3.0922 8.10788,6.28519 -1.13842,-1.64786 4.99096,1.4026 1.39655,0.69498 0.70617,2.19167 1.86785,3.0922 0.82143,0.63677 2.14101,0.83757 2.96244,1.47435 0.58083,0.45026 0.35309,1.09584 0.93391,1.54609 0.82144,0.63678 2.14102,0.8376 2.96244,1.47435 0.58084,0.45026 0.35309,1.09584 0.93392,1.5461 8.10787,6.2852 -1.13842,-1.64788 4.99098,1.40261 1.39647,0.69504 0.70616,2.19167 1.86784,3.09219 0.82142,0.63676 1.97496,0.9829 2.96244,1.47435 0.98749,0.49142 2.14102,0.83759 2.96244,1.47435 0.58084,0.45027 0.23565,1.19859 0.93392,1.54609 0.69825,0.34752 1.28451,-0.28083 2.02852,-0.0718 1.05218,0.2957 1.91026,1.17865 2.96243,1.47436 0.74402,0.20908 1.33029,-0.41926 2.02854,-0.0717 0.69823,0.34752 0.23566,1.19858 0.93391,1.54608 0.69824,0.34753 1.33027,-0.41926 2.02853,-0.0717 0.69824,0.34752 0.23567,1.19859 0.93392,1.5461 0.69823,0.34752 1.33027,-0.41926 2.02852,-0.0718 0.69825,0.34753 0.35308,1.09583 0.93392,1.54609 1.64285,1.27354 4.28203,1.67518 5.92488,2.9487 0.58084,0.45026 0.35308,1.09583 0.93391,1.5461 8.10788,6.28519 -1.13841,-1.64788 4.99096,1.4026 1.3965,0.69505 0.70617,2.19167 1.86785,3.0922 1.64284,1.27351 4.28203,1.67517 5.92489,2.94869 0.58082,0.45027 0.23567,1.19859 0.93391,1.5461 0.69824,0.34752 1.33027,-0.41925 2.02852,-0.0718 0.69824,0.34753 0.3531,1.09585 0.93392,1.54611 0.82145,0.63676 2.14101,0.83758 2.96245,1.47435 0.58081,0.45026 0.23566,1.19859 0.93391,1.54609 0.69825,0.34753 1.33027,-0.41925 2.02853,-0.0717 0.69824,0.34753 0.35309,1.09584 0.93393,1.54611 2.3378,1.81227 6.54948,2.61077 8.8873,4.42304 0.58085,0.45026 0.23568,1.1986 0.93393,1.5461 0.69824,0.34753 1.33028,-0.41924 2.02852,-0.0717 0.69825,0.34752 0.35309,1.09583 0.93392,1.54609 1.64285,1.27353 4.28203,1.67517 5.92489,2.9487 0.58084,0.45027 0.35307,1.09584 0.93391,1.54609 0.82144,0.63677 2.14103,0.8376 2.96244,1.47436 0.58085,0.45026 0.23567,1.19858 0.93391,1.54609 0.69826,0.34753 1.33028,-0.41925 2.02853,-0.0717 0.69824,0.34752 0.35309,1.09583 0.93392,1.54609 0.82143,0.63677 2.14101,0.83759 2.96244,1.47435 0.58083,0.45026 0.23568,1.1986 0.93392,1.54609 0.69824,0.34752 1.33028,-0.41924 2.02853,-0.0718 0.69824,0.34753 0.35309,1.09584 0.93392,1.54611 9.82517,4.8898 -1.83675,-1.42385 3.89636,3.02044 0.82143,0.63678 2.14102,0.83758 2.96245,1.47435 0.58083,0.45026 0.35308,1.09584 0.93392,1.54611 0.82142,0.63676 1.97496,0.98289 2.96244,1.47435 2.3139,1.15158 6.9145,3.13019 8.88731,4.42304 1.57392,1.03143 6.21882,5.00946 7.79273,6.04089 0.89679,0.58762 1.97496,0.9829 2.96244,1.47435 0.62262,1.03074 0.59965,2.26111 1.86785,3.0922 1.41789,0.92916 3.57307,0.47342 4.99095,1.40259 1.26819,0.83111 0.84952,2.12949 1.86784,3.09219 0.72005,0.68075 1.97495,0.98292 2.96245,1.47436 1.29878,1.00681 2.75784,1.9441 3.89635,3.02045 0.50916,0.48135 0.23567,1.19859 0.93391,1.54608 0.69825,0.34753 2.05248,-0.54339 2.02853,-0.0717 -0.0677,1.33405 -1.86096,1.98532 -2.1892,3.2357 -0.0899,0.3425 3.13359,5.18763 3.73568,6.18438 0.61369,1.01596 1.89334,3.77948 2.80176,4.6383 11.66258,11.0258 -2.05727,-2.41691 6.8588,4.49479 0.58083,0.45027 0.35309,1.09583 0.93392,1.54609 4.61689,3.57901 1.30799,-0.6303 5.92488,2.94871 0.58084,0.45025 0.35309,1.09584 0.93392,1.54609 1.64286,1.27354 4.28204,1.67517 5.92488,2.94872 0.58083,0.45024 0.23566,1.19857 0.93391,1.54608 0.69827,0.34754 1.33027,-0.41926 2.02853,-0.0717 0.69825,0.34753 0.3531,1.09584 0.93391,1.5461 4.81475,3.73236 1.70617,-0.60543 3.89637,3.02045 1.02306,1.69366 3.89334,6.09908 3.73568,6.18438 -0.25684,0.13896 -7.40073,0.13945 -8.11408,0.287 -1.90366,0.39379 -3.17411,1.456 -5.15165,1.76135 -2.50142,0.38623 -5.4094,0.19132 -8.11409,0.28699 -6.76173,0.23915 -13.52347,0.47832 -20.28521,0.71748 -2.02853,0.0717 -4.20951,-0.0744 -6.08557,0.21524 -2.5784,0.39812 -4.60177,1.43496 -7.18018,1.83308 -3.12676,0.48279 -6.76173,0.23916 -10.1426,0.35875 -4.05705,0.14349 -8.11409,0.28698 -12.17114,0.43048 -1.35235,0.0478 -2.97098,-0.22784 -4.05704,0.1435 -0.76796,0.26255 -0.32664,1.35528 -1.0946,1.61784 -1.08606,0.37132 -2.70472,0.0957 -4.05703,0.1435 -3.38089,0.11958 -6.76176,0.23916 -10.14263,0.35874 -2.70468,0.0957 -5.40939,0.19132 -8.11409,0.28699 -0.67618,0.0239 -1.71719,0.58712 -2.02851,0.0717 -0.3113,-0.51536 2.70469,-0.0957 2.02851,-0.0717 -1.35233,0.0478 -2.56902,0.56167 -4.05704,0.14349 -0.744,-0.20908 -0.35309,-1.09583 -0.93392,-1.5461 -4.30754,-3.33918 -1.54882,-0.43525 -4.99095,-1.40259 -1.05219,-0.29569 -1.97497,-0.98291 -2.96246,-1.47436 -0.98747,-0.49144 -2.06568,-0.88667 -2.96243,-1.47434 -1.41789,-0.92919 -2.47848,-2.09125 -3.89636,-3.02044 -4.71134,-3.0875 -3.92871,0.24298 -7.95343,-2.87696 -0.58081,-0.45025 -0.35306,-1.09583 -0.93391,-1.5461 -0.8214,-0.63676 -2.24236,-0.7936 -2.96242,-1.47435 -1.01831,-0.9627 -0.84954,-2.12947 -1.86783,-3.09219 -0.72008,-0.68074 -2.06571,-0.88668 -2.96245,-1.47435 -2.83576,-1.85836 -5.04312,-4.11958 -7.79274,-6.0409 -2.2168,-1.54899 -4.91119,-2.80155 -6.85879,-4.49478 -1.08034,-0.93926 -0.93582,-2.10384 -1.86784,-3.0922 -4.17938,-4.43202 -2.67554,-1.75337 -6.85881,-4.4948 -4.93949,-0.62053 -2.9935,-3.14268 -4.83028,-4.56654 -1.64283,-1.27353 -4.28202,-1.67516 -5.92488,-2.9487 -0.58084,-0.45027 -0.35309,-1.09584 -0.93392,-1.54609 -0.82142,-0.63677 -2.06569,-0.88669 -2.96244,-1.47436 -1.41788,-0.92918 -2.47847,-2.09126 -3.89636,-3.02044 -0.89674,-0.58768 -2.0657,-0.88669 -2.96244,-1.47435 -1.41788,-0.92918 -2.33501,-2.2434 -3.89635,-3.02044 -3.60821,-1.79574 -4.96963,-0.56394 -7.95342,-2.87696 -0.58082,-0.45026 -0.23567,-1.1986 -0.93391,-1.5461 -0.69826,-0.34751 -1.33028,0.41925 -2.02854,0.0718 -0.69824,-0.3475 -0.6226,-1.03072 -0.93392,-1.5461 -0.3113,-0.51536 -1.19191,-1.16477 -0.9339,-1.54609 0.25797,-0.38134 1.33027,-0.41926 2.02851,-0.0717 0.69826,0.3475 0.23567,1.19859 0.93393,1.5461 0.69825,0.3475 1.33027,-0.41925 2.02852,-0.0718 0.69826,0.3475 1.19192,1.16477 0.93392,1.5461 -0.25797,0.38134 -1.35236,0.0478 -2.02852,0.0717 -4.25031,0.15033 -5.93223,0.67348 -11.07652,-1.18735 -1.03988,-0.37615 -1.91027,-1.17866 -2.96245,-1.47435 -3.44216,-0.96734 -0.68345,1.93657 -4.99098,-1.40261 -0.58082,-0.45026 -0.23565,-1.19858 -0.93391,-1.54608 -1.3965,-0.69503 -2.66053,0.8385 -4.05703,0.14349 -0.69827,-0.34751 -0.23567,-1.19859 -0.93392,-1.5461 -0.69826,-0.34751 -1.33027,0.41926 -2.02852,0.0718 -0.69826,-0.3475 -0.29983,-1.13056 -0.93392,-1.5461 -2.55629,-1.67521 -8.62535,-4.29267 -11.84977,-5.89739 -0.98748,-0.49146 -1.91027,-1.17867 -2.96245,-1.47435 -3.44214,-0.96735 -0.68342,1.93658 -4.99097,-1.40262 -1.16166,-0.90052 -0.70616,-2.19166 -1.86783,-3.09218 -0.82143,-0.63677 -2.14102,-0.83759 -2.96244,-1.47435 -1.55855,-1.20819 -1.24321,-3.43011 -2.80176,-4.63829 -0.82142,-0.63677 -2.14102,-0.83758 -2.96245,-1.47435 -0.58082,-0.45026 -0.35308,-1.09584 -0.93391,-1.5461 -0.82143,-0.63677 -1.97496,-0.9829 -2.96244,-1.47435 -0.98749,-0.49145 -1.91025,-1.17865 -2.96246,-1.47436 -0.744,-0.20908 -1.33025,0.41926 -2.0285,0.0718 -0.69826,-0.3475 -0.35307,-1.09582 -0.93392,-1.54609 -0.51727,-0.40099 -8.22476,-4.23685 -8.88733,-4.42305 -0.74401,-0.20908 -1.28452,0.28083 -2.02853,0.0717 -2.99458,-0.84155 -5.89275,-3.58148 -8.88731,-4.42304 -0.74402,-0.20909 -1.33027,0.41926 -2.02853,0.0717 -0.69825,-0.3475 -0.23565,-1.19857 -0.93391,-1.54609 -1.56136,-0.77705 -3.34681,-0.80787 -4.99096,-1.40259 -3.05901,-1.10653 -5.82833,-3.31654 -8.88734,-4.42306 -1.64415,-0.59473 -3.34679,-0.80785 -4.99096,-1.4026 -2.41337,-0.87298 -6.67548,-3.80145 -8.88732,-4.42304 -0.74401,-0.2091 -1.33026,0.41926 -2.02853,0.0718 -0.69825,-0.34751 -0.35308,-1.09585 -0.93391,-1.5461 -0.82143,-0.63677 -1.97497,-0.98291 -2.96244,-1.47435 -0.98748,-0.49145 -1.91027,-1.17866 -2.96243,-1.47435 -3.44217,-0.96735 -0.68344,1.93658 -4.99098,-1.40261 -0.58083,-0.45026 -0.23567,-1.19859 -0.93392,-1.5461 -0.69826,-0.34751 -1.33026,0.41927 -2.02853,0.0718 -0.69825,-0.34751 -0.35307,-1.09583 -0.93391,-1.54609 -0.82143,-0.63676 -2.14103,-0.8376 -2.96244,-1.47435 -0.58084,-0.45026 -0.62261,-1.03073 -0.93392,-1.54609 -0.98748,-0.49146 -2.14102,-0.83758 -2.96245,-1.47435 -0.58083,-0.45026 -0.23565,-1.1986 -0.93392,-1.54611 -0.69826,-0.34751 -1.33026,0.41926 -2.02851,0.0717 -1.39652,-0.69501 -0.70617,-2.19167 -1.86784,-3.0922 z"
         id="path3787"
         inkscape:connector-curvature="0" />
      <path
         sodipodi:nodetypes="cccc"
         inkscape:connector-curvature="0"
         id="path3884"
         d="m 297.10889,310.20661 c -43.89133,-13.30137 -16.12283,90.98072 -47.06901,227.34096 L 353.22959,522.3915 C 340.55717,389.5955 336.77918,307.38817 297.10889,310.20661 z"
         style="fill:#000000;stroke:none;stroke-width:1.71487616999999992px;stroke-linecap:butt;stroke-linejoin:miter;stroke-opacity:1;fill-opacity:0.44897958999999998" />
      <path
         style="fill:#000000;stroke:none;stroke-width:1.49858153000000005px;stroke-linecap:butt;stroke-linejoin:miter;stroke-opacity:1;fill-opacity:0.53061223"
         d="M 715.57356,287.61685 C 693.68793,267.2459 707.5342,426.95314 692.10343,635.78783 l 51.45372,-23.21141 C 737.23827,409.20034 735.35444,283.30043 715.57356,287.61685 z"
         id="path3886"
         inkscape:connector-curvature="0"
         sodipodi:nodetypes="cccc" />
    </g>
  </g>
</svg>
