<?xml version="1.0" encoding="UTF-8" standalone="no"?>
<!-- Created with Inkscape (http://www.inkscape.org/) -->

<svg
   xmlns:osb="http://www.openswatchbook.org/uri/2009/osb"
   xmlns:dc="http://purl.org/dc/elements/1.1/"
   xmlns:cc="http://creativecommons.org/ns#"
   xmlns:rdf="http://www.w3.org/1999/02/22-rdf-syntax-ns#"
   xmlns:svg="http://www.w3.org/2000/svg"
   xmlns="http://www.w3.org/2000/svg"
   xmlns:xlink="http://www.w3.org/1999/xlink"
   xmlns:sodipodi="http://sodipodi.sourceforge.net/DTD/sodipodi-0.dtd"
   xmlns:inkscape="http://www.inkscape.org/namespaces/inkscape"
   width="1100"
   height="575"
   id="svg2"
   version="1.1"
   inkscape:version="0.48.3.1 r9886"
   sodipodi:docname="012.svg">
  <defs
     id="defs4">
    <linearGradient
       inkscape:collect="always"
       id="linearGradient5319">
      <stop
         style="stop-color:#1a1a1a;stop-opacity:1;"
         offset="0"
         id="stop5321" />
      <stop
         style="stop-color:#1a1a1a;stop-opacity:0;"
         offset="1"
         id="stop5323" />
    </linearGradient>
    <linearGradient
       id="linearGradient3847"
       osb:paint="solid">
      <stop
         style="stop-color:#000000;stop-opacity:1;"
         offset="0"
         id="stop3849" />
    </linearGradient>
    <linearGradient
       inkscape:collect="always"
       id="linearGradient3800">
      <stop
         style="stop-color:#333333;stop-opacity:1;"
         offset="0"
         id="stop3802" />
      <stop
         style="stop-color:#333333;stop-opacity:0;"
         offset="1"
         id="stop3804" />
    </linearGradient>
    <linearGradient
       id="linearGradient3757">
      <stop
         id="stop5309"
         offset="0"
         style="stop-color:#333333;stop-opacity:0.49803922;" />
      <stop
         style="stop-color:#333333;stop-opacity:0;"
         offset="1"
         id="stop3761" />
    </linearGradient>
    <linearGradient
       inkscape:collect="always"
       xlink:href="#linearGradient3757"
       id="linearGradient3763"
       x1="0.76056302"
       y1="167.8526"
       x2="335.24002"
       y2="167.8526"
       gradientUnits="userSpaceOnUse"
       gradientTransform="translate(-193.15463,-544.5177)" />
    <linearGradient
       inkscape:collect="always"
       xlink:href="#linearGradient3757"
       id="linearGradient3767"
       gradientUnits="userSpaceOnUse"
       gradientTransform="matrix(1,0,0,0.58787354,620.93694,-406.47014)"
       x1="0.76056302"
       y1="167.8526"
       x2="335.24002"
       y2="167.8526" />
    <linearGradient
       inkscape:collect="always"
       xlink:href="#linearGradient3800"
       id="linearGradient3806"
       x1="492.22552"
       y1="212.41411"
       x2="493.36273"
       y2="372.43805"
       gradientUnits="userSpaceOnUse"
       gradientTransform="translate(-168.84599,192.22493)" />
    <linearGradient
       inkscape:collect="always"
       xlink:href="#linearGradient3757"
       id="linearGradient3808"
       gradientUnits="userSpaceOnUse"
       gradientTransform="matrix(1,0,0,0.58181286,-193.15463,-404.44004)"
       x1="0.76056302"
       y1="167.8526"
       x2="335.24002"
       y2="167.8526" />
    <radialGradient
       inkscape:collect="always"
       xlink:href="#linearGradient3757"
       id="radialGradient5307"
       cx="494.58173"
       cy="98.708038"
       fx="494.58173"
       fy="98.708038"
       r="549.13116"
       gradientTransform="matrix(-0.00810157,0.6226726,-1.1278018,-0.01467378,257.18723,414.00433)"
       gradientUnits="userSpaceOnUse" />
    <radialGradient
       inkscape:collect="always"
       xlink:href="#linearGradient5319"
       id="radialGradient5346"
       gradientUnits="userSpaceOnUse"
       gradientTransform="matrix(1,0,0,0.30415547,0,259.78581)"
       cx="406.11021"
       cy="373.33887"
       fx="406.11021"
       fy="373.33887"
       r="549.84448" />
    <radialGradient
       inkscape:collect="always"
       xlink:href="#linearGradient5319"
       id="radialGradient5350"
       gradientUnits="userSpaceOnUse"
       gradientTransform="matrix(1,0,0,0.30415547,0,259.78581)"
       cx="406.11021"
       cy="373.33887"
       fx="406.11021"
       fy="373.33887"
       r="549.84448" />
    <radialGradient
       inkscape:collect="always"
       xlink:href="#linearGradient5319"
       id="radialGradient3011"
       gradientUnits="userSpaceOnUse"
       gradientTransform="matrix(1,0,0,0.36649563,0,270.7892)"
       cx="406.11021"
       cy="373.33887"
       fx="406.11021"
       fy="373.33887"
       r="549.84448" />
  </defs>
  <sodipodi:namedview
     id="base"
     pagecolor="#ffffff"
     bordercolor="#666666"
     borderopacity="1.0"
     inkscape:pageopacity="0.0"
     inkscape:pageshadow="2"
     inkscape:zoom="0.71080829"
     inkscape:cx="421.81643"
     inkscape:cy="334.33746"
     inkscape:document-units="px"
     inkscape:current-layer="layer1"
     showgrid="false"
     inkscape:window-width="1311"
     inkscape:window-height="679"
     inkscape:window-x="11"
     inkscape:window-y="42"
     inkscape:window-maximized="0"
     showguides="true"
     inkscape:guide-bbox="true"
     fit-margin-top="0"
     fit-margin-left="0"
     fit-margin-right="0"
     fit-margin-bottom="0"
     inkscape:snap-global="false">
    <sodipodi:guide
       orientation="1,0"
       position="1099.0229,-1.6075554"
       id="guide3027" />
    <sodipodi:guide
       orientation="0,1"
       position="1101.7476,1.0353746"
       id="guide3033" />
    <sodipodi:guide
       orientation="0,1"
       position="-2.53521,574.25888"
       id="guide3005" />
    <sodipodi:guide
       orientation="1,0"
       position="0.76056301,577.08141"
       id="guide3007" />
  </sodipodi:namedview>
  <metadata
     id="metadata7">
    <rdf:RDF>
      <cc:Work
         rdf:about="">
        <dc:format>image/svg+xml</dc:format>
        <dc:type
           rdf:resource="http://purl.org/dc/dcmitype/StillImage" />
        <dc:title />
      </cc:Work>
    </rdf:RDF>
  </metadata>
  <g
     inkscape:label="Layer 1"
     inkscape:groupmode="layer"
     id="layer1"
     transform="translate(142.84595,-208.8125)"
     style="display:inline">
    <g
       id="g3037">
      <rect
         y="208.8125"
         x="-142.84595"
         height="575"
         width="1100"
         id="rect3023"
         style="fill:#000000;fill-opacity:1;fill-rule:evenodd;stroke:none" />
      <rect
         y="206.10066"
         x="-143.73427"
         height="403.03119"
         width="1099.689"
         id="rect3810"
         style="fill:url(#radialGradient3011);fill-opacity:1;fill-rule:evenodd;stroke:none" />
      <path
         transform="translate(-142.84595,208.8125)"
         inkscape:connector-curvature="0"
         id="path3014"
         d="m 187.62363,0.74112 c 0,14.019081 0,28.038163 0,42.057244 0,1.202716 -0.2917,2.441341 0,3.608147 0.32613,1.304528 1.37885,2.332474 1.80407,3.608147 0.19017,0.570498 0,1.202715 0,1.804073 0.60136,1.202716 1.37885,2.332474 1.80407,3.608147 0.63901,1.917029 -0.63901,5.299263 0,7.216293 0.42523,1.275673 1.37885,2.332474 1.80408,3.608147 0.19016,0.570498 -0.19017,1.233575 0,1.804073 0.42522,1.275673 1.37885,2.332474 1.80407,3.608147 0.63901,1.917029 -0.63901,5.299263 0,7.216293 0.42523,1.275673 1.37885,2.332474 1.80407,3.608147 0.58576,1.757253 -0.57285,7.30179 0,9.020366 0.42523,1.275673 1.37885,2.332475 1.80408,3.608147 0.38033,1.140996 0,2.405431 0,3.608147 0,1.876102 -0.35478,9.405322 0,10.824442 0.32613,1.30453 1.47794,2.30362 1.80407,3.60814 0.35478,1.41912 0,8.94834 0,10.82444 0,10.22309 0,20.44617 0,30.66925 0,4.20951 0,8.41901 0,12.62851 0,1.20272 -0.38033,2.46716 0,3.60815 0.26894,0.80681 1.53514,0.99727 1.80407,1.80407 0.35185,1.05553 0,9.27596 0,10.82444 0,1.69915 0.34209,7.9941 0,9.02037 -1.44826,4.34479 -3.80414,8.34031 -5.41222,12.62852 -0.33059,0.88157 0,7.58834 0,9.02036 0,7.81765 0,15.6353 0,23.45296 0,3.60814 0,7.21629 0,10.82444 0,1.80407 -0.57049,3.70072 0,5.41222 0.26894,0.8068 1.42375,1.0434 1.80408,1.80407 0.38524,0.77049 0,8.30719 0,9.02037 0,4.2095 0,8.419 0,12.62851 0,0.60136 -0.19017,1.23357 0,1.80407 0.42522,1.27567 1.37885,2.33248 1.80407,3.60815 0.32546,0.97637 0,6.60169 0,7.21629 0,4.81086 0,9.62173 0,14.43259 0,0.43753 -0.058,5.3542 0,5.41222 0.42523,0.42522 1.53514,-0.53787 1.80407,0 0.093,0.18605 0,10.647 0,10.82444 0,5.41222 0,10.82444 0,16.23666 0,5.80722 -0.42522,-3.07975 1.80408,3.60815 0.38033,1.14099 0,2.40543 0,3.60814 0,4.20951 0,8.41901 0,12.62852 0,0.81247 -0.27452,4.86317 0,5.41222 0.38033,0.76066 1.53514,0.99726 1.80407,1.80407 0.5705,1.71149 0,3.60815 0,5.41222 0,0.60136 0,2.40543 0,1.80407 0,-1.20271 0,-2.40543 0,-3.60814 0,-0.60136 -0.26893,1.2662 0,1.80407 1.77074,3.54147 3.42845,0.81219 5.41222,1.80407 0.76067,0.38033 1.04341,1.42374 1.80407,1.80408 0.54905,0.27452 4.59975,0 5.41222,0 3.60815,0 7.2163,0 10.82444,0 9.62173,0 19.24345,0 28.86518,0 3.00679,0 6.01358,0 9.02036,0 0.60136,0 1.20272,0 1.80408,0 0.60136,0 1.2662,-0.26894 1.80407,0 0.76067,0.38033 1.04341,1.42374 1.80407,1.80407 1.07575,0.53787 2.7577,-0.85045 3.60815,0 0.42523,0.42522 0,1.20271 0,1.80407 0,0.60136 0.60136,1.80408 0,1.80408 -0.60136,0 0,-1.20272 0,-1.80408 0,-1.80407 0,-3.60814 0,-5.41222 0,-4.81086 0,-9.62172 0,-14.43258 0,-1.24576 0.27425,-6.66779 0,-7.2163 -0.38033,-0.76066 -1.42374,-1.04341 -1.80407,-1.80407 -0.26894,-0.53787 0,-1.20272 0,-1.80407 0,-1.20272 0.38033,-2.46715 0,-3.60815 -0.26894,-0.80681 -1.42374,-1.04341 -1.80408,-1.80407 -0.27425,-0.54851 0,-5.97055 0,-7.2163 0,-1.32433 0.31448,-10.19549 0,-10.82444 -0.38033,-0.76066 -1.53513,-0.99727 -1.80407,-1.80407 -0.30783,-0.92348 0,-9.53469 0,-10.82444 0,-0.60136 0.26894,-1.2662 0,-1.80407 -2.2293,-4.4586 -1.80407,0.62272 -1.80407,-3.60815 0,-1.74791 0.35857,-9.74872 0,-10.82444 -0.42523,-1.27567 -1.37885,-2.33248 -1.80408,-3.60815 -0.19016,-0.5705 0,-1.20271 0,-1.80407 0,-1.477 0.38963,-7.85148 0,-9.02037 -5.11065,-10.22131 0.67234,2.68936 -1.80407,-7.21629 -0.32613,-1.30453 -1.54036,-2.28958 -1.80407,-3.60815 -0.88452,-2.9192 0.58968,-6.07197 0,-9.02036 -0.37295,-1.86474 -1.49144,-3.53644 -1.80408,-5.41222 -0.49431,-2.96588 0.58968,-6.07197 0,-9.02037 -0.37294,-1.86473 -1.49144,-3.53644 -1.80407,-5.41222 -0.29659,-1.77953 0.43755,-3.66201 0,-5.41222 -0.20626,-0.82506 -1.53514,-0.99727 -1.80407,-1.80407 -0.38033,-1.141 0,-2.40544 0,-3.60815 0,-4.20951 0,-8.41901 0,-12.62851 0,-1.80408 0.5705,-3.70073 0,-5.41222 -0.26894,-0.80681 -1.42374,-1.04341 -1.80408,-1.80408 -0.26893,-0.53787 0,-1.20271 0,-1.80407 0,-0.60136 0,-1.20272 0,-1.80407 0,-3.60815 0,-7.2163 0,-10.82445 0,-12.62851 0,-25.25702 0,-37.88554 0,-33.07467 0,-66.149351 0,-99.224029 0,-11.425798 0,-22.851596 0,-34.277393 0,-0.437536 0.058,-5.354202 0,-5.412221 -0.42522,-0.425224 -1.20271,0 -1.80407,0 -0.60136,0 -1.20271,0 -1.80407,0 -6.01358,0 -12.02716,0 -18.04074,0 -0.60135,0 -1.20271,0 -1.80407,0 -0.60136,0 -1.37885,0.425225 -1.80407,0 -0.42523,-0.425224 0.42522,-1.378849 0,-1.804073 -0.36882,-0.368818 -4.69692,0.35765 -5.41222,0 -0.76067,-0.380332 -1.04341,-1.423741 -1.80408,-1.804073 -1.44325,-0.72163 -3.96896,0.721629 -5.41222,0 -0.76066,-0.380332 -1.0434,-1.423741 -1.80407,-1.804074 -0.7153,-0.35765 -5.0434,0.368819 -5.41222,0 -0.42522,-0.425224 0.42523,-1.378849 0,-1.804073 -0.49363,-0.4936341 -6.23761,0.489344 -7.21629,0 -1.52133,-0.760664 -2.08682,-2.8474824 -3.60815,-3.6081465 -1.07574,-0.5378708 -2.55523,0.5812784 -3.60815,0 -3.15752,-1.743154 -6.01357,-3.9838517 -9.02036,-5.9757775 z"
         style="fill:#000000;stroke:#000000;stroke-width:1px;stroke-linecap:butt;stroke-linejoin:miter;stroke-opacity:1" />
      <path
         inkscape:connector-curvature="0"
         id="path3024"
         d="m 726.7174,197.10205 c 0,5.53403 0,11.06806 0,16.60209 0,0.69176 0,1.38351 0,2.07526 0,0.69176 -0.26893,1.45654 0,2.07527 0.38033,0.875 1.42374,1.20025 1.80407,2.07526 0.59781,1.37532 -0.50401,6.56171 0,8.30104 0.42523,1.46744 1.37885,2.6831 1.80408,4.15053 0.5906,2.03815 -0.61207,11.04342 0,12.45157 0.26893,0.61872 1.37885,-0.48915 1.80407,0 0.058,0.0667 0,5.72247 0,6.22578 0,11.75981 0,23.51963 0,35.27945 0,0.97847 -0.0818,10.28225 0,10.3763 0.42522,0.48915 1.37885,-0.48914 1.80407,0 0.22285,0.25635 0,6.99967 0,8.30105 0,19.36911 0,38.73821 0,58.10732 0,30.43716 0,60.87434 0,91.3115 0,9.68456 0,19.36911 0,29.05367 0,0.5033 0.058,6.15904 0,6.22578 -0.42522,0.48914 -1.37885,-0.48915 -1.80407,0 -0.85045,0.97828 0.38033,2.83801 0,4.15052 -0.42522,1.46743 -1.47794,2.6499 -1.80407,4.15052 -0.40266,1.85277 0,7.97414 0,10.37632 0,0.69174 0.42522,1.5861 0,2.07525 -0.42523,0.48914 -1.37885,-0.48915 -1.80408,0 -0.42522,0.48914 0.19017,1.419 0,2.07526 -0.42522,1.46743 -1.47794,2.6499 -1.80407,4.15053 -0.2917,1.34219 0,2.76701 0,4.15052 0,4.15052 0,8.30105 0,12.45157 0,0.69175 0,1.3835 0,2.07526 0,0.69176 0.42522,1.58612 0,2.07526 -0.42522,0.48915 -1.37885,-0.48914 -1.80407,0 -0.17511,0.20143 0,9.58549 0,10.37631 0,10.37631 0,20.75261 0,31.12892 0,3.45877 0,6.91754 0,10.37631 0,0.69175 0,1.3835 0,2.07526 0,0.69176 0.26893,1.45654 0,2.07526 -2.2293,5.12881 -1.80408,-0.71633 -1.80408,4.15052 0,4.15053 0,8.30105 0,12.45157 0,0.69176 0.42523,1.58612 0,2.07526 -0.0818,0.0941 -8.16975,0 -9.02036,0 -14.43259,0 -28.86518,0 -43.29776,0 -6.61494,0 -13.22987,0 -19.84481,0 -0.96376,0 -8.50404,-0.29697 -9.02037,0 -4.45859,2.56441 0.62273,2.07527 -3.60814,2.07527 -0.66252,0 -7.1437,0.0835 -7.2163,0 -0.42522,-0.48915 0,-1.38351 0,-2.07527 0,-5.53403 0,-11.06806 0,-16.60208 0,-26.28665 0,-52.5733 0,-78.85994 0,-8.30104 0,-16.6021 0,-24.90314 0,-1.9483 -0.34457,-9.1872 0,-10.37631 0.26894,-0.92808 1.53514,-1.14718 1.80408,-2.07526 0.38033,-1.31251 -0.38034,-2.83801 0,-4.15052 2.22929,-7.69322 1.80407,2.52964 1.80407,-4.15052 0,-0.69176 -0.53787,-1.7659 0,-2.07527 1.61361,-0.92808 3.60815,0 5.41222,0 0.60136,0 1.53514,0.61872 1.80407,0 0.53787,-1.23744 0,-2.76701 0,-4.15051 0,-1.38352 0,-2.76703 0,-4.15053 0,-4.84228 0,-9.68456 0,-14.52683 0,-11.06807 0,-22.13612 0,-33.20419 0,-3.45877 0,-6.91754 0,-10.3763 0,-1.38351 0.2917,-2.80833 0,-4.15052 -0.32613,-1.50063 -1.37885,-2.6831 -1.80407,-4.15053 -0.54122,-1.86773 0.54122,-4.35805 0,-6.22579 -0.26894,-0.92807 -1.53514,-1.14718 -1.80407,-2.07525 -0.38034,-1.31252 0,-2.76702 0,-4.15053 0,-2.41077 0.40887,-8.49499 0,-10.37631 -0.32614,-1.50062 -1.37885,-2.68309 -1.80408,-4.15052 -0.57622,-1.98853 0.55711,-8.45376 0,-10.37631 -0.26893,-0.92808 -1.53513,-1.14718 -1.80407,-2.07526 -0.90204,-3.11289 0.90204,-7.26341 0,-10.37631 -0.26894,-0.92807 -1.53514,-1.14718 -1.80407,-2.07525 -0.76067,-2.62502 0.5834,-5.61665 0,-8.30106 -0.32614,-1.50061 -1.47794,-2.64989 -1.80408,-4.15051 -0.2917,-1.34221 0.38034,-2.83801 0,-4.15053 -0.26893,-0.92808 -1.53513,-1.14718 -1.80407,-2.07526 -0.27505,-0.9492 0.40139,-7.3776 0,-8.30105 -0.38033,-0.875 -1.53514,-1.14717 -1.80407,-2.07526 -0.5705,-1.96876 0,-4.15052 0,-6.22578 0,-5.53403 0,-11.06806 0,-16.6021 0,-4.15051 0,-8.30104 0,-12.45157 0,-1.3835 0,-2.76701 0,-4.15051 0,-1.38351 -0.2917,-2.80832 0,-4.15053 0.32613,-1.50063 1.37885,-2.68309 1.80407,-4.15053 0.50401,-1.73933 -0.5978,-6.92571 0,-8.30104 0.38033,-0.875 1.42374,-1.20025 1.80407,-2.07526 0.26894,-0.61872 0,-1.38351 0,-2.07526 0.60136,-0.69175 1.42374,-1.20025 1.80408,-2.07526 0.48934,-1.1258 -0.49364,-7.73321 0,-8.30105 0.42522,-0.48914 1.37885,0.48915 1.80407,0 0.002,-0.002 -0.003,-6.21637 0,-6.22578 0.53787,-1.85617 2.84748,-2.40051 3.60815,-4.15052 0.53787,-1.23745 -0.85045,-3.17224 0,-4.15053 0.42522,-0.48914 1.2662,0.30937 1.80407,0 0.76066,-0.4375 1.20272,-1.3835 1.80407,-2.07526 0.60136,-0.69175 1.42374,-1.20025 1.80408,-2.07526 0.26893,-0.61872 -0.42523,-1.58612 0,-2.07526 0.42522,-0.48914 1.2662,0.30936 1.80407,0 0.72869,-0.41911 7.16222,-8.23884 7.21629,-8.30105 0.60136,-0.69175 1.04341,-1.63775 1.80408,-2.07526 1.07574,-0.61872 2.7577,0.97829 3.60814,0 0.42523,-0.48914 -0.42522,-1.58612 0,-2.07526 0.42523,-0.48914 1.20272,0 1.80408,0 0.60135,0 1.20271,0 1.80407,0 6.01358,0 12.02716,0 18.04073,0 13.83123,0 27.66246,0 41.49369,0"
         style="fill:#000000;stroke:#000000;stroke-width:1.07252967px;stroke-linecap:butt;stroke-linejoin:miter;stroke-opacity:1" />
      <path
         inkscape:connector-curvature="0"
         id="path3026"
         d="m 185.27696,223.87393 c 0,17.6384 0,35.2768 0,52.91519 0,1.39424 -0.22047,9.72996 0,10.8313 0.25553,1.27649 0.82859,2.33396 1.08412,3.61044 0.11428,0.57086 0,1.20348 0,1.80521 0,1.20348 0,2.40697 0,3.61044 0,4.81391 0,9.62783 0,14.44174 0,13.23825 0,26.4765 0,39.71476 0,42.12172 0,84.24344 0,126.36517 0,16.24695 0,32.49389 0,48.74084 0,4.81391 0,9.62782 0,14.44173 0,0.94399 -0.14253,6.7462 0,7.22087 0.22856,0.76115 0.85558,1.04406 1.08413,1.80522 0.2804,0.93382 -0.28041,2.67661 0,3.61043 0.22855,0.76115 0.92251,0.9979 1.08412,1.80522 0.34283,1.71257 0,3.61043 0,5.41565 0,3.00869 0,6.01739 0,9.02608 0,1.20347 0,2.40696 0,3.61043 0,0.60174 -0.25553,1.37972 0,1.80522 0.0436,0.0727 3.93836,0 4.33649,0 2.52962,0 5.05924,0 7.58886,0 0.72274,0 1.46708,-0.29189 2.16824,0 0.78393,0.32634 1.40166,1.37972 2.16825,1.80522 0.34283,0.19029 0.7609,-0.26911 1.08412,0 0.45711,0.38057 0.62702,1.42464 1.08413,1.80521 0.39205,0.32642 4.66656,0 5.42061,0 0.36137,0 0.72275,0 1.08412,0 0.36138,0 0.82859,0.4255 1.08412,0 0.25554,-0.42549 0,-1.20347 0,-1.80521 0,-3.0087 0,-6.0174 0,-9.02609 0,-12.03477 0,-24.06955 0,-36.10433 0,-45.13042 0,-90.26083 0,-135.39125 0,-7.22086 0,-14.44173 0,-21.6626 0,-2.14207 0.21044,-12.68973 0,-14.44173 -0.15847,-1.3194 -0.92565,-2.29103 -1.08412,-3.61043 -0.21261,-1.77016 0,-3.61044 0,-5.41565 0,-1.20347 0.22855,-2.46872 0,-3.61044 -0.16161,-0.80731 -0.85557,-1.04406 -1.08412,-1.80521 -0.16481,-0.54885 0,-5.97433 0,-7.22087 0,-3.61043 0,-7.22087 0,-10.8313 0,-1.20348 0,-2.40695 0,-3.61043 0,-1.20347 0.22855,-2.46872 0,-3.61043 -0.16161,-0.80732 -0.85557,-1.04407 -1.08413,-1.80522 -0.1616,-0.53821 0,-1.20347 0,-1.80521 0,-0.60175 0,-1.20349 0,-1.80523 0,-3.61042 0,-7.22086 0,-10.8313 0,-8.42433 0,-16.84868 0,-25.27302 0,-1.41112 0.19755,-11.64972 0,-12.63653 -0.25552,-1.27647 -0.88813,-2.30507 -1.08412,-3.61042 -0.22405,-1.49231 0.27548,-9.91389 0,-10.8313 -0.22855,-0.76115 -0.85557,-1.04407 -1.08412,-1.80523 -0.16161,-0.53821 0.25553,-1.37971 0,-1.80521 -0.25553,-0.42549 -0.82859,0.4255 -1.08412,0 -0.73647,-1.22633 1.10849,-3.59014 -1.08412,-5.41565 -0.28507,-0.23733 -3.76959,0 -4.3365,0 -2.89099,0 -5.78198,0 -8.67298,0 -2.52962,0 -5.05924,0 -7.58886,0 -0.36137,0 -1.04924,0.59893 -1.08412,0 -0.35969,-6.17639 0,-12.41072 0,-18.61608"
         style="fill:#000000;stroke:#000000;stroke-width:0.77544266px;stroke-linecap:butt;stroke-linejoin:miter;stroke-opacity:1" />
      <path
         sodipodi:nodetypes="csssssccsscssssssssssssssssssssssssssssssssssssc"
         transform="translate(-142.84595,208.8125)"
         inkscape:connector-curvature="0"
         id="path3028"
         d="m 535.80978,24.757631 c -6.10405,10.173417 -3.84407,5.884068 -7.21629,12.628513 -0.60136,1.202716 -1.47794,2.303619 -1.80407,3.608147 -0.29171,1.166805 0.2917,2.441341 0,3.608147 -0.32614,1.304528 -1.54036,2.289582 -1.80408,3.608146 -0.35381,1.76904 0.5705,3.700726 0,5.41222 -0.68565,2.05696 -2.84683,3.382047 -3.60814,5.41222 -18.0155,80.290736 5.34585,192.622316 -23.45296,299.476176 0,2.40543 0,4.81086 0,7.21629 0,8.41901 0,16.83802 0,25.25703 0,0.85062 -0.0818,8.9386 0,9.02037 0.22285,0.22284 6.08498,0 7.2163,0 12.02715,0 24.05431,0 36.08146,0 0.66252,0 7.1437,0.0726 7.2163,0 0.045,-0.045 0,-8.34262 0,-9.02037 0,-19.24345 0,-38.4869 0,-57.73035 0,-4.81086 0,-9.62172 0,-14.43258 0,-2.40544 -0.29836,-4.82944 0,-7.2163 0.30754,-2.46031 1.45342,-4.76175 1.80407,-7.21629 0.25513,-1.78594 -0.25514,-3.62628 0,-5.41222 0.35065,-2.45454 1.53026,-4.752 1.80407,-7.21629 0.33205,-2.9884 0,-6.01358 0,-9.02037 0,-2.40543 0,-4.81086 0,-7.21629 0,-6.01358 -0.4994,-12.04793 0,-18.04074 0.30378,-3.64528 1.4729,-7.18154 1.80408,-10.82444 0.27222,-2.99444 0,-6.01358 0,-9.02036 0,-4.20951 0,-8.41901 0,-12.62852 0,-2.40543 -0.34018,-4.83504 0,-7.21629 0.26893,-1.88255 1.49144,-3.53644 1.80407,-5.41222 0.29659,-1.77953 0,-3.60815 0,-5.41222 0,-4.20951 0,-8.41901 0,-12.62852 0,-1.80407 -0.25514,-3.62627 0,-5.41222 0.35065,-2.45454 1.53026,-4.75199 1.80407,-7.21629 0.59768,-5.37912 -0.6713,-10.86623 0,-16.23666 0.30754,-2.46031 1.39645,-4.77057 1.80408,-7.21629 0.19772,-1.18635 0,-2.40543 0,-3.60815 0,-1.80407 0,-3.60815 0,-5.41222 0,-3.60815 0,-7.21629 0,-10.82444 0,-14.43259 0,-28.86517 0,-43.297759 0,-14.432587 0,-28.865173 0,-43.29776 0,-4.810862 0,-9.621725 0,-14.432587 0,-0.812478 0.27452,-4.863179 0,-5.41222 -1.82436,-3.648704 -4.18667,-0.578519 -5.41222,-1.804073 -0.42523,-0.425224 0.42522,-1.378849 0,-1.804073 -0.42523,-0.425225 -1.37885,0.425224 -1.80408,0 -0.42522,-0.425225 0.42523,-1.37885 0,-1.804074 -0.36882,-0.368818 -4.69692,0.35765 -5.41222,0 -7.86039,-3.930194 12.94171,-1.804073 -10.82444,-1.804073 z"
         style="fill:#000000;stroke:#000000;stroke-width:1px;stroke-linecap:butt;stroke-linejoin:miter;stroke-opacity:1" />
      <path
         sodipodi:nodetypes="csscsssssssccssccsscscccssscssccsssccsssscsccsscssssc"
         style="fill:#000000;stroke:#000000;stroke-width:0.5175097px;stroke-linecap:butt;stroke-linejoin:miter;stroke-opacity:1"
         d="m 235.37476,213.61098 c 0,13.53293 0,27.06585 0,40.59877 0,1.06971 -0.12799,7.46523 0,8.31023 0.14833,0.97937 0.481,1.79071 0.62934,2.77008 0.0663,0.43799 0,0.92336 0,1.38504 0,0.92336 0,1.84673 0,2.77007 0,3.69344 0,7.38689 0,11.08032 0,10.15694 0,20.31389 0,30.47084 0,32.31755 0,64.63512 0,96.95269 0,12.46534 0,24.93068 0,37.39602 0,3.69344 0,7.38687 0,11.08031 0,0.72427 -0.0827,5.17597 0,5.54015 0.13268,0.58399 0.49666,0.80105 0.62933,1.38505 0.16278,0.71646 -0.16277,2.0536 0,2.77007 0.13267,0.58399 0.53552,0.76563 0.62934,1.38504 0.19901,1.31396 0,2.77007 0,4.15512 -3.45334,11.43505 -3.92788,7.8938 -5.41436,14.95607 -0.48232,1.15545 6.43669,-1.13755 7.93171,-3.87576 0.56572,-1.03618 -0.28867,3.43533 1.17979,3.43533 0.41955,0 4.07722,-3.65929 4.48424,-3.43533 0.45508,0.25038 0.81367,1.05857 1.25868,1.38503 0.19901,0.146 0.44171,-0.20647 0.62934,0 0.26535,0.29199 0.36398,1.09304 0.62934,1.38503 16.65218,3.73829 5.69166,-3.81762 4.40535,-8.31023 0,-9.23358 0,-18.46717 0,-27.70076 0,-34.62596 0,-69.25191 0,-103.87788 0,-5.54015 0,-11.0803 0,-16.62046 0,-1.64348 0.12217,-9.7361 0,-11.0803 -0.092,-1.0123 -0.53734,-1.75778 -0.62933,-2.77008 -0.12342,-1.35814 0,-2.77008 0,-4.15511 0,-0.92336 0.13268,-1.89411 0,-2.77009 -0.0938,-0.6194 -0.49666,-0.80104 -0.62933,-1.38503 -0.0957,-0.4211 0,-4.58375 0,-5.54015 0,-2.77008 0,-5.54016 0,-8.31024 0,-0.92336 0,-1.84671 0,-2.77007 0,-0.92335 0.13267,-1.8941 0,-2.77007 -0.0938,-0.61941 -0.49667,-0.80106 -0.62935,-1.38504 -0.0938,-0.41294 0,-0.92335 0,-1.38504 0,-0.46168 0,-0.92337 0,-1.38505 0,-2.77006 0,-5.54014 0,-8.31022 0,-6.4635 0,-12.92703 0,-19.39053 0,-1.08268 0.11468,-8.93816 0,-9.69529 -0.14833,-0.97935 -0.51556,-1.76854 -0.62933,-2.77006 -0.13006,-1.14496 0.15991,-7.60635 0,-8.31023 -0.13268,-0.58398 -0.49667,-0.80105 -0.62934,-1.38505 -0.0939,-0.41294 0.14834,-1.05857 0,-1.38503 -0.14833,-0.32645 -0.481,0.32646 -0.62934,0 -0.42751,-0.94089 0.64348,-2.75451 -0.62933,-4.15512 -0.16549,-0.18209 -2.18826,0 -2.51736,0 -1.67823,0 -3.35645,0 -5.0347,0 -1.46845,0 -2.93691,0 -4.40535,0 -0.20979,0 -0.6091,0.45953 -0.62934,0 -0.2088,-4.73878 0,-9.52203 0,-14.28304"
         id="path3030"
         inkscape:connector-curvature="0" />
      <path
         inkscape:connector-curvature="0"
         id="path3032"
         d="m 510.66841,208.33355 c 0,10.96683 0,21.93366 0,32.90048 0,0.86687 -0.0761,6.04968 0,6.73445 0.0882,0.79366 0.2861,1.45116 0.37434,2.24482 0.0394,0.35494 0,0.74828 0,1.12241 0,0.74827 0,1.49655 0,2.24481 0,2.9931 0,5.9862 0,8.97929 0,8.23099 0,16.46199 0,24.69299 0,26.18954 0,52.37909 0,78.56864 0,10.10168 0,20.20336 0,30.30502 0,2.9931 0,5.98619 0,8.97928 0,0.58694 -0.0492,4.19451 0,4.48964 0.0789,0.47325 0.29542,0.64915 0.37433,1.12241 0.0969,0.58061 -0.0969,1.6642 0,2.24482 0.0789,0.47325 0.31855,0.62045 0.37435,1.12241 0.11837,1.06481 0,2.24481 0,3.36723 -2.05411,9.26675 -2.33638,6.39699 -3.22057,12.12012 -0.28689,0.93635 3.82867,-0.92185 4.71794,-3.14085 0.3365,-0.8397 -0.17171,2.78393 0.70176,2.78393 0.24955,0 2.4252,-2.96542 2.66731,-2.78393 0.27069,0.20291 0.48398,0.85785 0.74868,1.1224 0.11838,0.11832 0.26274,-0.16732 0.37435,0 0.15783,0.23663 0.2165,0.88579 0.37434,1.12241 9.90503,3.02944 3.3855,-3.09373 2.62039,-6.73446 0,-7.48271 0,-14.96545 0,-22.44817 0,-28.06022 0,-56.12045 0,-84.18068 0,-4.48963 0,-8.97927 0,-13.4689 0,-1.33185 0.0727,-7.88996 0,-8.97927 -0.0548,-0.82035 -0.31963,-1.42448 -0.37434,-2.24483 -0.0734,-1.10061 0,-2.24482 0,-3.36722 0,-0.74827 0.0789,-1.53495 0,-2.24483 -0.0558,-0.50195 -0.29543,-0.64915 -0.37434,-1.1224 -0.057,-0.34125 0,-3.71458 0,-4.48963 0,-2.24482 0,-4.48965 0,-6.73446 0,-0.74828 0,-1.49654 0,-2.24481 0,-0.74828 0.0789,-1.53495 0,-2.24482 -0.0558,-0.50196 -0.29543,-0.64917 -0.37435,-1.12241 -0.0558,-0.33464 0,-0.74826 0,-1.12241 0,-0.37413 0,-0.74828 0,-1.12242 0,-2.2448 0,-4.48962 0,-6.73445 0,-5.2379 0,-10.47582 0,-15.71372 0,-0.87738 0.0682,-7.24331 0,-7.85687 -0.0882,-0.79365 -0.30667,-1.4332 -0.37434,-2.24481 -0.0774,-0.92785 0.0951,-6.16404 0,-6.73445 -0.0789,-0.47325 -0.29543,-0.64916 -0.37434,-1.12242 -0.0558,-0.33464 0.0882,-0.85785 0,-1.1224 -0.0882,-0.26456 -0.28611,0.26455 -0.37435,0 -0.25429,-0.76248 0.38276,-2.23221 -0.37433,-3.36724 -0.0985,-0.14756 -1.30162,0 -1.49737,0 -0.99825,0 -1.99649,0 -2.99474,0 -0.87346,0 -1.74693,0 -2.62038,0 -0.12479,0 -0.36231,0.3724 -0.37434,0 -0.12421,-3.84021 0,-7.71647 0,-11.5747"
         style="fill:#000000;stroke:#000000;stroke-width:0.35929859px;stroke-linecap:butt;stroke-linejoin:miter;stroke-opacity:1"
         sodipodi:nodetypes="csscsssssssccssccsscscccssscssccsssccsssscsccsscssssc" />
      <path
         sodipodi:nodetypes="csscsssssssccssccsscscccssscssccsssccsssscsccsscssssc"
         style="fill:#000000;stroke:#000000;stroke-width:0.35929859px;stroke-linecap:butt;stroke-linejoin:miter;stroke-opacity:1"
         d="m 836.86389,205.73438 c 0,10.96683 0,21.93366 0,32.90048 0,0.86687 -0.0761,6.04968 0,6.73445 0.0882,0.79366 0.2861,1.45116 0.37434,2.24482 0.0394,0.35494 0,0.74828 0,1.12241 0,0.74827 0,1.49655 0,2.24481 0,2.9931 0,5.9862 0,8.97929 0,8.23099 0,16.46199 0,24.69299 0,26.18954 0,52.37909 0,78.56864 0,10.10168 0,20.20336 0,30.30502 0,2.9931 0,5.98619 0,8.97928 0,0.58694 -0.0492,4.19451 0,4.48964 0.0789,0.47325 0.29542,0.64915 0.37433,1.12241 0.0969,0.58061 -0.0969,1.6642 0,2.24482 0.0789,0.47325 0.31855,0.62045 0.37435,1.12241 0.11837,1.06481 0,2.24481 0,3.36723 -2.05411,9.26675 -2.33638,6.39699 -3.22057,12.12012 -0.28689,0.93635 3.82867,-0.92185 4.71794,-3.14085 0.3365,-0.8397 -0.17171,2.78393 0.70176,2.78393 0.24955,0 2.4252,-2.96542 2.66731,-2.78393 0.27069,0.20291 0.48398,0.85785 0.74868,1.1224 0.11838,0.11832 0.26274,-0.16732 0.37435,0 0.15783,0.23663 0.2165,0.88579 0.37434,1.12241 9.90503,3.02944 3.3855,-3.09373 2.62039,-6.73446 0,-7.48271 0,-14.96545 0,-22.44817 0,-28.06022 0,-56.12045 0,-84.18068 0,-4.48963 0,-8.97927 0,-13.4689 0,-1.33185 0.0727,-7.88996 0,-8.97927 -0.0548,-0.82035 -0.31963,-1.42448 -0.37434,-2.24483 -0.0734,-1.10061 0,-2.24482 0,-3.36722 0,-0.74827 0.0789,-1.53495 0,-2.24483 -0.0558,-0.50195 -0.29543,-0.64915 -0.37434,-1.1224 -0.057,-0.34125 0,-3.71458 0,-4.48963 0,-2.24482 0,-4.48965 0,-6.73446 0,-0.74828 0,-1.49654 0,-2.24481 0,-0.74828 0.0789,-1.53495 0,-2.24482 -0.0558,-0.50196 -0.29543,-0.64917 -0.37435,-1.12241 -0.0558,-0.33464 0,-0.74826 0,-1.12241 0,-0.37413 0,-0.74828 0,-1.12242 0,-2.2448 0,-4.48962 0,-6.73445 0,-5.2379 0,-10.47582 0,-15.71372 0,-0.87738 0.0682,-7.24331 0,-7.85687 -0.0882,-0.79365 -0.30667,-1.4332 -0.37434,-2.24481 -0.0774,-0.92785 0.0951,-6.16404 0,-6.73445 -0.0789,-0.47325 -0.29543,-0.64916 -0.37434,-1.12242 -0.0558,-0.33464 0.0882,-0.85785 0,-1.1224 -0.0882,-0.26456 -0.28611,0.26455 -0.37435,0 -0.25429,-0.76248 0.38276,-2.23221 -0.37433,-3.36724 -0.0985,-0.14756 -1.30162,0 -1.49737,0 -0.99825,0 -1.99649,0 -2.99474,0 -0.87346,0 -1.74693,0 -2.62038,0 -0.12479,0 -0.36231,0.3724 -0.37434,0 -0.12421,-3.84021 0,-7.71647 0,-11.5747"
         id="path3034"
         inkscape:connector-curvature="0" />
      <path
         sodipodi:nodetypes="csscsssssssccssccsscscccssscssccsssccsssscsccsscssssc"
         style="fill:#000000;stroke:#000000;stroke-width:0.35929859px;stroke-linecap:butt;stroke-linejoin:miter;stroke-opacity:1"
         d="m -37.755856,208.33355 c 0,10.96683 0,21.93366 0,32.90048 0,0.86687 -0.0761,6.04968 0,6.73445 0.0882,0.79366 0.2861,1.45116 0.37434,2.24482 0.0394,0.35494 0,0.74828 0,1.12241 0,0.74827 0,1.49655 0,2.24481 0,2.9931 0,5.9862 0,8.97929 0,8.23099 0,16.46199 0,24.69299 0,26.18954 0,52.37909 0,78.56864 0,10.10168 0,20.20336 0,30.30502 0,2.9931 0,5.98619 0,8.97928 0,0.58694 -0.0492,4.19451 0,4.48964 0.0789,0.47325 0.29542,0.64915 0.37433,1.12241 0.0969,0.58061 -0.0969,1.6642 0,2.24482 0.0789,0.47325 0.31855,0.62045 0.37435,1.12241 0.11837,1.06481 0,2.24481 0,3.36723 -2.05411,9.26675 -2.33638,6.39699 -3.22057,12.12012 -0.28689,0.93635 3.82867,-0.92185 4.71794,-3.14085 0.3365,-0.8397 -0.17171,2.78393 0.70176,2.78393 0.24955,0 2.4252,-2.96542 2.66731,-2.78393 0.27069,0.20291 0.48398,0.85785 0.74868,1.1224 0.11838,0.11832 0.26274,-0.16732 0.37435,0 0.15783,0.23663 0.2165,0.88579 0.37434,1.12241 9.90503,3.02944 3.3855,-3.09373 2.62039,-6.73446 0,-7.48271 0,-14.96545 0,-22.44817 0,-28.06022 0,-56.12045 0,-84.18068 0,-4.48963 0,-8.97927 0,-13.4689 0,-1.33185 0.0727,-7.88996 0,-8.97927 -0.0548,-0.82035 -0.31963,-1.42448 -0.37434,-2.24483 -0.0734,-1.10061 0,-2.24482 0,-3.36722 0,-0.74827 0.0789,-1.53495 0,-2.24483 -0.0558,-0.50195 -0.29543,-0.64915 -0.37434,-1.1224 -0.057,-0.34125 0,-3.71458 0,-4.48963 0,-2.24482 0,-4.48965 0,-6.73446 0,-0.74828 0,-1.49654 0,-2.24481 0,-0.74828 0.0789,-1.53495 0,-2.24482 -0.0558,-0.50196 -0.29543,-0.64917 -0.37435,-1.12241 -0.0558,-0.33464 0,-0.74826 0,-1.12241 0,-0.37413 0,-0.74828 0,-1.12242 0,-2.2448 0,-4.48962 0,-6.73445 0,-5.2379 0,-10.47582 0,-15.71372 0,-0.87738 0.0682,-7.24331 0,-7.85687 -0.0882,-0.79365 -0.30667,-1.4332 -0.37434,-2.24481 -0.0774,-0.92785 0.0951,-6.16404 0,-6.73445 -0.0789,-0.47325 -0.29543,-0.64916 -0.37434,-1.12242 -0.0558,-0.33464 0.0882,-0.85785 0,-1.1224 -0.0882,-0.26456 -0.28611,0.26455 -0.37435,0 -0.25429,-0.76248 0.38276,-2.23221 -0.37433,-3.36724 -0.0985,-0.14756 -1.30162,0 -1.49737,0 -0.99825,0 -1.99649,0 -2.99474,0 -0.87346,0 -1.74693,0 -2.62038,0 -0.12479,0 -0.36231,0.3724 -0.37434,0 -0.12421,-3.84021 0,-7.71647 0,-11.5747"
         id="path3036"
         inkscape:connector-curvature="0" />
      <path
         inkscape:connector-curvature="0"
         id="path3038"
         d="m 339.36117,223.59811 c 0,5.76737 0,11.53475 0,17.30212 0,0.45588 0.12889,3.18148 0,3.5416 -0.14937,0.41738 -0.48439,0.76315 -0.63378,1.18053 -0.0668,0.18667 0,0.39352 0,0.59027 0,0.39352 0,0.78703 0,1.18053 0,1.57405 0,3.1481 0,4.72214 0,4.32862 0,8.65724 0,12.98586 0,13.77289 0,27.54578 0,41.31867 0,5.3124 0,10.6248 0,15.93719 0,1.57405 0,3.14809 0,4.72214 0,0.30866 0.0833,2.20586 0,2.36106 -0.13362,0.24888 -0.50017,0.34139 -0.63378,0.59027 -0.16393,0.30534 0.16392,0.8752 0,1.18053 -0.13361,0.24888 -0.5393,0.32629 -0.63378,0.59027 -0.20042,0.55997 0,1.18053 0,1.77081 3.47773,4.87331 3.95562,3.36412 5.4526,6.37387 0.48573,0.49242 -6.48215,-0.48479 -7.98774,-1.65174 -0.56971,-0.4416 0.29071,1.46404 -1.18812,1.46404 -0.42251,0 -4.10601,-1.55949 -4.51591,-1.46404 -0.4583,0.1067 -0.81942,0.45113 -1.26757,0.59026 -0.20041,0.0622 -0.44483,-0.088 -0.63378,0 -0.26723,0.12444 -0.36655,0.46583 -0.63379,0.59027 -16.7698,1.59315 -5.73187,-1.62697 -4.43647,-3.54161 0,-3.9351 0,-7.87021 0,-11.80533 0,-14.75666 0,-29.51333 0,-44.26999 0,-2.36107 0,-4.72213 0,-7.0832 0,-0.70041 -0.12303,-4.14927 0,-4.72214 0.0927,-0.43141 0.54114,-0.74911 0.63378,-1.18053 0.12429,-0.5788 0,-1.18053 0,-1.7708 0,-0.39351 -0.13362,-0.80721 0,-1.18054 0.0945,-0.26397 0.50016,-0.34138 0.63378,-0.59026 0.0964,-0.17946 0,-1.95347 0,-2.36106 0,-1.18054 0,-2.36107 0,-3.54161 0,-0.39351 0,-0.78701 0,-1.18053 0,-0.3935 -0.13362,-0.80721 0,-1.18053 0.0945,-0.26397 0.50017,-0.34139 0.63379,-0.59027 0.0945,-0.17598 0,-0.3935 0,-0.59026 0,-0.19676 0,-0.39352 0,-0.59027 0,-1.18053 0,-2.36106 0,-3.5416 0,-2.75457 0,-5.50916 0,-8.26373 0,-0.46141 -0.11549,-3.8092 0,-4.13188 0.14938,-0.41737 0.51921,-0.7537 0.63378,-1.18052 0.13097,-0.48795 -0.16104,-3.24163 0,-3.5416 0.13361,-0.24888 0.50017,-0.34139 0.63378,-0.59027 0.0946,-0.17599 -0.14938,-0.45114 0,-0.59027 0.14938,-0.13912 0.4844,0.13913 0.63379,0 0.43053,-0.40098 -0.64803,-1.1739 0.63377,-1.7708 0.16665,-0.0776 2.20372,0 2.53514,0 1.69009,0 3.38016,0 5.07026,0 1.47882,0 2.95765,0 4.43647,0 0.21126,0 0.6134,0.19584 0.63378,0 0.21028,-2.01954 0,-4.05803 0,-6.08705"
         style="fill:#000000;stroke:#000000;stroke-width:0.33903149px;stroke-linecap:butt;stroke-linejoin:miter;stroke-opacity:1"
         sodipodi:nodetypes="csscsssssssccssccsscscccssscssccsssccsssscsccsscssssc" />
      <path
         sodipodi:nodetypes="csscsssssssccssccsscscccssscssccsssccsssscsccsscssssc"
         style="fill:#000000;stroke:#000000;stroke-width:0.89266956px;stroke-linecap:butt;stroke-linejoin:miter;stroke-opacity:1"
         d="m 555.12161,208.60024 c 0,16.60308 0,33.20614 0,49.80919 0,1.3124 -0.31027,9.15883 0,10.19553 0.35961,1.20154 1.16649,2.19695 1.52627,3.39851 0.16064,0.53736 0,1.13284 0,1.69926 0,1.13282 0,2.26567 0,3.39849 0,4.53137 0,9.06272 0,13.59407 0,12.46118 0,24.92238 0,37.38359 0,39.64926 0,79.29854 0,118.94782 0,15.29329 0,30.58658 0,45.87984 0,4.53136 0,9.0627 0,13.59404 0,0.8886 -0.2006,6.35023 0,6.79703 0.32169,0.71647 1.20448,0.98278 1.52622,1.69925 0.39508,0.87901 -0.39508,2.5195 0,3.39852 0.32169,0.71647 1.29879,0.93932 1.5263,1.69925 0.48262,1.61205 0,3.3985 0,5.09777 -8.37504,14.02926 -9.52591,9.68462 -13.13094,18.34907 -1.16971,1.41758 15.6103,-1.39561 19.23603,-4.75504 1.37198,-1.27124 -0.70009,4.2147 2.86123,4.2147 1.01747,0 9.88804,-4.48946 10.87518,-4.2147 1.10366,0.30719 1.97329,1.29874 3.05253,1.69924 0.48266,0.17913 1.07124,-0.25331 1.5263,0 0.6435,0.35825 0.88271,1.34103 1.52626,1.69926 40.38489,4.58637 13.80339,-4.6837 10.68388,-10.19554 0,-11.32834 0,-22.65671 0,-33.98507 0,-42.48136 0,-84.96273 0,-127.4441 0,-6.79701 0,-13.59403 0,-20.39104 0,-2.01634 0.29642,-11.94488 0,-13.59403 -0.22342,-1.24196 -1.30319,-2.15657 -1.52626,-3.39853 -0.29927,-1.66625 0,-3.3985 0,-5.09774 0,-1.13284 0.32169,-2.32382 0,-3.39853 -0.22751,-0.75992 -1.20453,-0.98278 -1.52626,-1.69924 -0.23241,-0.51664 0,-5.62364 0,-6.79701 0,-3.39852 0,-6.79705 0,-10.19554 0,-1.13285 0,-2.26567 0,-3.39849 0,-1.13286 0.32169,-2.32382 0,-3.39852 -0.22751,-0.75993 -1.20453,-0.98281 -1.52631,-1.69925 -0.22751,-0.50664 0,-1.13282 0,-1.69927 0,-0.5664 0,-1.13284 0,-1.69926 0,-3.39848 0,-6.797 0,-10.19553 0,-7.92984 0,-15.85971 0,-23.78955 0,-1.32829 0.27807,-10.96591 0,-11.89479 -0.3596,-1.20153 -1.25035,-2.16977 -1.52626,-3.3985 -0.31557,-1.4047 0.38775,-9.33195 0,-10.19552 -0.32169,-0.71647 -1.20453,-0.98279 -1.52626,-1.69927 -0.22751,-0.50662 0.35961,-1.29873 0,-1.69924 -0.35961,-0.40053 -1.16654,0.40051 -1.5263,0 -1.0368,-1.15435 1.56059,-3.37942 -1.52623,-5.09778 -0.4016,-0.22341 -5.30697,0 -6.10509,0 -4.07008,0 -8.14011,0 -12.21019,0 -3.56128,0 -7.12259,0 -10.68383,0 -0.5088,0 -1.47722,0.56379 -1.52627,0 -0.50643,-5.81383 0,-11.68224 0,-17.52335"
         id="path3040"
         inkscape:connector-curvature="0" />
      <path
         sodipodi:nodetypes="ccccc"
         inkscape:connector-curvature="0"
         id="path3814"
         d="m 382.89853,578.12453 c 78.43204,3.50952 156.17801,2.85154 232.45381,-6.73686 l -7.30672,70.29855 -215.4808,-2.4803 z"
         style="fill:#000000;fill-opacity:1;stroke:none" />
      <path
         inkscape:connector-curvature="0"
         id="path3024-9"
         d="m -92.080622,392.68772 c 5.502645,0.58855 11.005288,1.17711 16.507933,1.76566 0.687839,0.0736 1.375664,0.14714 2.063491,0.22071 0.687837,0.0736 1.419677,0.42231 2.0635,0.22071 0.91049,-0.28511 1.344861,-1.28801 2.255359,-1.57313 1.431084,-0.44818 6.470902,1.199 8.25396,0.88283 1.504351,-0.26675 2.814531,-1.08566 4.318855,-1.35244 2.089403,-0.37048 10.915694,1.78309 12.380964,1.32426 0.643817,-0.20157 -0.339732,-1.42305 0.191866,-1.79384 0.07247,-0.0506 5.690002,0.60859 6.190459,0.66212 11.693122,1.25067 23.386245,2.50135 35.0793669,3.75203 0.9729267,0.10406 10.2152319,1.17487 10.3174509,1.10354 0.531599,-0.37079 -0.339726,-1.42306 0.191863,-1.79384 0.278612,-0.1943 6.9599782,0.74443 8.2539802,0.88283 19.259248,2.05993 38.518509,4.11987 57.777757,6.17981 30.264537,3.23705 60.529107,6.47409 90.793637,9.71113 9.62964,1.02998 19.25926,2.05994 28.8889,3.08992 0.50044,0.0535 6.13028,0.59734 6.19046,0.66211 0.44115,0.47483 -0.63301,1.31901 -0.19186,1.79384 0.88229,0.94968 2.86236,-0.0763 4.12699,0.44142 1.41388,0.57887 2.47768,1.75138 3.93511,2.23526 1.79943,0.59742 7.92892,0.84805 10.31746,1.10353 0.68783,0.0736 1.62234,-0.25412 2.06349,0.22071 0.44114,0.47484 -0.63302,1.31901 -0.19187,1.79385 0.44115,0.47483 1.43117,-0.0382 2.06349,0.2207 1.41388,0.57888 2.4777,1.75139 3.93513,2.23526 1.30355,0.43279 2.75131,0.29427 4.12697,0.44141 4.12699,0.44142 8.25397,0.88284 12.38096,1.32425 0.68783,0.0736 1.37565,0.14714 2.06349,0.2207 0.68784,0.0736 1.62234,-0.25411 2.06349,0.22071 0.44115,0.47483 -0.63301,1.31901 -0.19186,1.79384 0.18166,0.19554 9.53112,1.01943 10.31746,1.10354 10.31746,1.10354 20.63491,2.20707 30.95237,3.31062 3.43915,0.36784 6.87831,0.73569 10.31746,1.10353 0.68783,0.0736 1.37565,0.14714 2.06349,0.22071 0.68784,0.0736 1.47688,-0.1125 2.06349,0.2207 4.86263,2.76212 -0.90413,1.71767 3.93512,2.23527 4.12698,0.44142 8.25397,0.88283 12.38095,1.32424 0.68783,0.0736 1.62234,-0.25412 2.06348,0.22072 0.0849,0.0913 -0.86886,8.12341 -0.95932,8.9692 -1.53493,14.35073 -3.06987,28.70147 -4.60479,43.0522 -0.70352,6.57743 -1.40702,13.15483 -2.11054,19.73226 -0.10249,0.95829 -1.19969,8.42423 -0.95933,8.96921 2.07569,4.70603 2.12973,-0.39849 1.67978,3.80838 -0.0705,0.65876 -0.67672,7.11207 -0.76747,7.17538 -0.5316,0.37079 -1.37566,-0.14714 -2.0635,-0.22071 -5.50265,-0.58855 -11.0053,-1.17711 -16.50793,-1.76566 -26.13757,-2.79563 -52.27514,-5.59126 -78.41269,-8.38689 -8.25396,-0.88283 -16.50794,-1.76566 -24.7619,-2.6485 -1.93725,-0.20719 -9.17174,-0.63445 -10.31746,-1.10353 -0.89422,-0.36612 -0.97741,-1.64844 -1.87163,-2.01456 -1.26461,-0.51775 -2.86236,0.0764 -4.12698,-0.44142 -7.4125,-3.03482 2.70716,-1.5248 -3.93511,-2.23524 -0.68784,-0.0736 -1.81309,0.34701 -2.0635,-0.22072 -0.75121,-1.70315 0.38373,-3.58768 0.5756,-5.38152 0.0639,-0.59794 0.77847,-1.46063 0.19186,-1.79384 -1.17321,-0.66643 -2.75132,-0.29427 -4.12697,-0.44141 -1.37567,-0.14714 -2.75133,-0.29428 -4.12698,-0.44142 -4.81483,-0.51498 -9.62965,-1.02997 -14.44445,-1.54495 -11.0053,-1.17711 -22.01058,-2.35421 -33.01587,-3.53132 -3.43916,-0.36785 -6.87831,-0.73569 -10.31745,-1.10354 -1.37568,-0.14714 -2.76139,-0.58871 -4.126988,-0.44141 -1.5268,0.16468 -2.814527,1.08566 -4.318858,1.35242 -1.914693,0.33952 -4.275771,-1.00164 -6.190477,-0.66213 -0.951406,0.16872 -1.303944,1.40443 -2.255344,1.57314 -1.345533,0.23859 -2.751334,-0.29428 -4.126996,-0.44142 -2.397096,-0.25639 -8.403323,-1.31001 -10.31746,-1.10354 -1.526796,0.1647 -2.814519,1.08566 -4.318844,1.35244 -2.038541,0.36146 -8.346566,-1.45302 -10.31746,-1.10354 -0.951422,0.1687 -1.303938,1.40441 -2.255357,1.57313 -3.191173,0.56586 -7.126287,-1.6694 -10.31746,-1.10354 -0.951419,0.16871 -1.303944,1.40443 -2.255354,1.57314 -2.691027,0.47717 -5.522746,-1.17744 -8.253983,-0.88284 -1.526787,0.1647 -2.792044,1.18774 -4.318831,1.35244 -1.365618,0.14729 -2.781464,-0.68002 -4.126996,-0.44142 -0.951413,0.1687 -1.303935,1.40442 -2.255354,1.57313 -0.973066,0.17254 -7.293074,-1.18374 -8.25397,-0.88283 -0.910489,0.28511 -1.303932,1.40443 -2.255357,1.57313 -2.018264,0.35788 -4.1269842,-0.44142 -6.1904737,-0.66212 -5.5026361,-0.58855 -11.005276,-1.17711 -16.5079286,-1.76566 -4.1269717,-0.44142 -8.2539637,-0.88284 -12.3809517,-1.32425 -1.375656,-0.14714 -2.75132,-0.29428 -4.126972,-0.44141 -1.375664,-0.14714 -2.823417,-0.009 -4.126992,-0.44142 -1.457434,-0.48388 -2.521228,-1.65638 -3.935122,-2.23525 -1.675863,-0.68613 -6.950008,-0.14215 -8.253961,-0.88283 -0.82959,-0.47123 -1.042027,-1.54332 -1.871626,-2.01455 -0.586608,-0.33321 -1.375664,-0.14714 -2.063491,-0.22071 -0.623871,-0.67152 -1.042024,-1.54331 -1.871622,-2.01455 -1.067375,-0.6063 -7.741851,-0.3316 -8.253972,-0.88283 -0.441143,-0.47483 0.63302,-1.31901 0.191866,-1.79384 -0.0019,-0.002 -6.181435,-0.65814 -6.190472,-0.66213 -1.788437,-0.73222 -2.08406,-3.08662 -3.743247,-4.0291 -1.173229,-0.66642 -3.244696,0.50826 -4.126989,-0.44141 -0.441146,-0.47484 0.442277,-1.22612 0.191866,-1.79384 -0.354127,-0.80288 -1.247741,-1.34303 -1.871626,-2.01455 -0.62387,-0.67151 -1.042024,-1.54331 -1.871624,-2.01456 -0.586609,-0.3332 -1.622347,0.25414 -2.063489,-0.2207 -0.441142,-0.47483 0.442269,-1.22612 0.191867,-1.79384 -0.339238,-0.76913 -7.4304,-7.99781 -7.486508,-8.05819 -0.623871,-0.67152 -1.517493,-1.21167 -1.871621,-2.01455 -0.500803,-1.13544 1.266026,-2.63803 0.383728,-3.58769 -0.441141,-0.47484 -1.622345,0.25413 -2.063488,-0.2207 -0.441142,-0.47484 0.12791,-1.1959 0.191867,-1.79385 0.06396,-0.59794 0.127909,-1.19589 0.191866,-1.79384 0.639556,-5.97947 1.279108,-11.95895 1.918663,-17.93841 1.470974,-13.75279 2.941948,-27.50558 4.412926,-41.25836"
         style="fill:#000000;stroke:#000000;stroke-width:1.07252967px;stroke-linecap:butt;stroke-linejoin:miter;stroke-opacity:1;display:inline" />
    </g>
  </g>
</svg>
