<?xml version="1.0" encoding="UTF-8" standalone="no"?>
<!-- Created with Inkscape (http://www.inkscape.org/) -->

<svg
   xmlns:dc="http://purl.org/dc/elements/1.1/"
   xmlns:cc="http://creativecommons.org/ns#"
   xmlns:rdf="http://www.w3.org/1999/02/22-rdf-syntax-ns#"
   xmlns:svg="http://www.w3.org/2000/svg"
   xmlns="http://www.w3.org/2000/svg"
   xmlns:xlink="http://www.w3.org/1999/xlink"
   xmlns:sodipodi="http://sodipodi.sourceforge.net/DTD/sodipodi-0.dtd"
   xmlns:inkscape="http://www.inkscape.org/namespaces/inkscape"
   width="1100"
   height="575"
   id="svg2"
   version="1.1"
   inkscape:version="0.48.3.1 r9886"
   sodipodi:docname="019.svg">
  <defs
     id="defs4">
    <linearGradient
       inkscape:collect="always"
       id="linearGradient3923">
      <stop
         style="stop-color:#aa4400;stop-opacity:1;"
         offset="0"
         id="stop3925" />
      <stop
         style="stop-color:#aa4400;stop-opacity:0;"
         offset="1"
         id="stop3927" />
    </linearGradient>
    <inkscape:perspective
       sodipodi:type="inkscape:persp3d"
       inkscape:vp_x="516.52829 : 1151.3764 : 1"
       inkscape:vp_y="-989.39281 : -66.213198 : 0"
       inkscape:vp_z="240.17373 : -789.93242 : 1"
       inkscape:persp3d-origin="473.16782 : 187.06742 : 1"
       id="perspective3773" />
    <linearGradient
       inkscape:collect="always"
       id="linearGradient3757">
      <stop
         style="stop-color:#1a1a1a;stop-opacity:1;"
         offset="0"
         id="stop3759" />
      <stop
         style="stop-color:#1a1a1a;stop-opacity:0;"
         offset="1"
         id="stop3761" />
    </linearGradient>
    <radialGradient
       inkscape:collect="always"
       xlink:href="#linearGradient3757"
       id="radialGradient3763"
       cx="544.09071"
       cy="177.31402"
       fx="544.09071"
       fy="177.31402"
       r="511.71274"
       gradientTransform="matrix(1,0,0,0.29023385,0,125.85149)"
       gradientUnits="userSpaceOnUse" />
    <linearGradient
       inkscape:collect="always"
       xlink:href="#linearGradient3923"
       id="linearGradient3929"
       x1="521.31226"
       y1="402.521"
       x2="378.97092"
       y2="405.62497"
       gradientUnits="userSpaceOnUse" />
    <filter
       color-interpolation-filters="sRGB"
       inkscape:collect="always"
       id="filter3933">
      <feGaussianBlur
         inkscape:collect="always"
         stdDeviation="10.394577"
         id="feGaussianBlur3935" />
    </filter>
  </defs>
  <sodipodi:namedview
     id="base"
     pagecolor="#ffffff"
     bordercolor="#666666"
     borderopacity="1.0"
     inkscape:pageopacity="0.0"
     inkscape:pageshadow="2"
     inkscape:zoom="0.56951167"
     inkscape:cx="594.53076"
     inkscape:cy="354.2341"
     inkscape:document-units="px"
     inkscape:current-layer="layer1"
     showgrid="false"
     inkscape:window-width="1311"
     inkscape:window-height="679"
     inkscape:window-x="11"
     inkscape:window-y="42"
     inkscape:window-maximized="0"
     showguides="true"
     inkscape:guide-bbox="true"
     fit-margin-top="0"
     fit-margin-left="0"
     fit-margin-right="0"
     fit-margin-bottom="0"
     inkscape:snap-global="false">
    <sodipodi:guide
       orientation="1,0"
       position="1099.0229,-1.6075554"
       id="guide3027" />
    <sodipodi:guide
       orientation="0,1"
       position="1101.7476,1.0353746"
       id="guide3033" />
    <sodipodi:guide
       orientation="0,1"
       position="-2.53521,574.25888"
       id="guide3005" />
    <sodipodi:guide
       orientation="1,0"
       position="0.76056301,577.08141"
       id="guide3007" />
  </sodipodi:namedview>
  <metadata
     id="metadata7">
    <rdf:RDF>
      <cc:Work
         rdf:about="">
        <dc:format>image/svg+xml</dc:format>
        <dc:type
           rdf:resource="http://purl.org/dc/dcmitype/StillImage" />
        <dc:title />
      </cc:Work>
    </rdf:RDF>
  </metadata>
  <g
     inkscape:label="Layer 1"
     inkscape:groupmode="layer"
     id="layer1"
     transform="translate(142.84595,-208.8125)"
     style="display:inline">
    <g
       id="g4078">
      <rect
         y="208.8125"
         x="-142.84595"
         height="575"
         width="1100"
         id="rect3023"
         style="fill:#000000;fill-opacity:1;fill-rule:evenodd;stroke:none" />
      <g
         id="g3931">
        <rect
           style="fill:url(#radialGradient3763);fill-opacity:1;fill-rule:evenodd;stroke:none"
           id="rect3755"
           width="1023.4255"
           height="297.03271"
           x="32.377975"
           y="28.797663"
           transform="translate(-142.84595,208.8125)" />
        <path
           style="fill:url(#linearGradient3929);fill-opacity:1;fill-rule:evenodd;stroke:none"
           d="m 381.63206,287.02683 140.12306,-10 0,243.53866 -140.12306,-8 z"
           id="rect3765"
           inkscape:connector-curvature="0"
           sodipodi:nodetypes="ccccc" />
        <path
           transform="translate(-142.84595,208.8125)"
           style="fill:#803300;fill-opacity:1;fill-rule:evenodd;stroke:none"
           d="m 664.45233,69.622063 84.46428,0 71.79463,11.261904 63.0124,21.622853 49.60666,34.68667 31.66003,46.46888 -38.69873,54.88825 -59.83458,41.61777 -45.74578,17.50723 -64.75594,14.07738 -91.50297,0 z"
           id="rect3768"
           inkscape:connector-curvature="0"
           sodipodi:nodetypes="cccccccccccc" />
        <path
           style="fill:#000000;stroke:#000000;stroke-width:0.91020221px;stroke-linecap:butt;stroke-linejoin:miter;stroke-opacity:1"
           d="m 421.23881,310.76818 38.472,-1.40828 -4.66328,233.77431 -55.95926,-5.63312 0,-225.32463 z"
           id="path3771"
           inkscape:connector-curvature="0" />
        <path
           style="fill:#1a1a1a;stroke:none"
           d="m 398.89932,311.59581 34.35877,-9.35618 1.58477,217.1523 -37.41889,-7.27286 z"
           id="path3919"
           inkscape:connector-curvature="0"
           sodipodi:nodetypes="ccccc" />
        <rect
           style="fill:#333333;stroke:none"
           id="rect3921"
           width="6.2338839"
           height="216.62746"
           x="433.2688"
           y="302.245" />
      </g>
      <path
         style="fill:#000000;stroke:none;display:inline;filter:url(#filter3933)"
         d="m -127.27525,388.75852 38.090143,-0.955 c 22.046912,55.98488 52.911412,138.62583 475.227487,126.1092 271.56514,-3.57512 410.17443,-39.36727 427.79459,-124.58826 -14.41898,-52.67877 -48.22093,-107.5909 -426.70981,-119.51325 -433.677905,1.19895 -461.084843,69.2567 -476.371284,117.78038 l -38.031126,0.23876 1.16424,-147.46218 955.44067,8.41798 -1.403,270.77832 0,9.82098 -959.64965,4.20899 z"
         id="path3937"
         inkscape:connector-curvature="0"
         sodipodi:nodetypes="ccccccccccccc" />
      <path
         sodipodi:nodetypes="ccccccccccccc"
         inkscape:connector-curvature="0"
         id="path4044"
         d="m -127.27525,388.75852 38.090143,-0.955 c 22.046912,55.98488 52.911412,138.62583 475.227487,126.1092 271.56514,-3.57512 410.17443,-39.36727 427.79459,-124.58826 -14.41898,-52.67877 -48.22093,-107.5909 -426.70981,-119.51325 -433.677905,1.19895 -461.084843,69.2567 -476.371284,117.78038 l -38.031126,0.23876 1.16424,-147.46218 955.44067,8.41798 -1.403,270.77832 0,9.82098 -959.64965,4.20899 z"
         style="fill:#000000;stroke:none;display:inline;filter:url(#filter3933)" />
      <path
         style="fill:#000000;stroke:none;display:inline;filter:url(#filter3933)"
         d="m -127.27525,388.75852 38.090143,-0.955 c 22.046912,55.98488 52.911412,138.62583 475.227487,126.1092 271.56514,-3.57512 410.17443,-39.36727 427.79459,-124.58826 -14.41898,-52.67877 -48.22093,-107.5909 -426.70981,-119.51325 -433.677905,1.19895 -461.084843,69.2567 -476.371284,117.78038 l -38.031126,0.23876 1.16424,-147.46218 955.44067,8.41798 -1.403,270.77832 0,9.82098 -959.64965,4.20899 z"
         id="path4046"
         inkscape:connector-curvature="0"
         sodipodi:nodetypes="ccccccccccccc" />
      <path
         sodipodi:nodetypes="ccccccccccccc"
         inkscape:connector-curvature="0"
         id="path4048"
         d="m -127.27525,388.75852 38.090143,-0.955 c 22.046912,55.98488 52.911412,138.62583 475.227487,126.1092 271.56514,-3.57512 410.17443,-39.36727 427.79459,-124.58826 -14.41898,-52.67877 -48.22093,-107.5909 -426.70981,-119.51325 -433.677905,1.19895 -461.084843,69.2567 -476.371284,117.78038 l -38.031126,0.23876 1.16424,-147.46218 955.44067,8.41798 -1.403,270.77832 0,9.82098 -959.64965,4.20899 z"
         style="fill:#000000;stroke:none;display:inline;filter:url(#filter3933)" />
      <path
         style="fill:#000000;stroke:none;display:inline;filter:url(#filter3933)"
         d="m -127.27525,388.75852 38.090143,-0.955 c 22.046912,55.98488 52.911412,138.62583 475.227487,126.1092 271.56514,-3.57512 410.17443,-39.36727 427.79459,-124.58826 -14.41898,-52.67877 -48.22093,-107.5909 -426.70981,-119.51325 -433.677905,1.19895 -461.084843,69.2567 -476.371284,117.78038 l -38.031126,0.23876 1.16424,-147.46218 955.44067,8.41798 -1.403,270.77832 0,9.82098 -959.64965,4.20899 z"
         id="path4050"
         inkscape:connector-curvature="0"
         sodipodi:nodetypes="ccccccccccccc" />
      <rect
         style="fill:#000000;fill-opacity:1;fill-rule:evenodd;stroke:none"
         id="rect4052"
         width="1100"
         height="575"
         x="-142.84595"
         y="208.8125" />
      <g
         id="g4054">
        <rect
           transform="translate(-142.84595,208.8125)"
           y="28.797663"
           x="32.377975"
           height="297.03271"
           width="1023.4255"
           id="rect4056"
           style="fill:url(#radialGradient3763);fill-opacity:1;fill-rule:evenodd;stroke:none" />
        <path
           sodipodi:nodetypes="ccccc"
           inkscape:connector-curvature="0"
           id="path4058"
           d="m 381.63206,287.02683 140.12306,-10 0,243.53866 -140.12306,-8 z"
           style="fill:url(#linearGradient3929);fill-opacity:1;fill-rule:evenodd;stroke:none" />
        <path
           sodipodi:nodetypes="cccccccccccc"
           inkscape:connector-curvature="0"
           id="path4060"
           d="m 664.45233,69.622063 84.46428,0 71.79463,11.261904 63.0124,21.622853 49.60666,34.68667 31.66003,46.46888 -38.69873,54.88825 -59.83458,41.61777 -45.74578,17.50723 -64.75594,14.07738 -91.50297,0 z"
           style="fill:#803300;fill-opacity:1;fill-rule:evenodd;stroke:none"
           transform="translate(-142.84595,208.8125)" />
        <path
           inkscape:connector-curvature="0"
           id="path4062"
           d="m 421.23881,310.76818 38.472,-1.40828 -4.66328,233.77431 -55.95926,-5.63312 0,-225.32463 z"
           style="fill:#000000;stroke:#000000;stroke-width:0.91020221px;stroke-linecap:butt;stroke-linejoin:miter;stroke-opacity:1" />
        <path
           sodipodi:nodetypes="ccccc"
           inkscape:connector-curvature="0"
           id="path4064"
           d="m 398.89932,311.59581 34.35877,-9.35618 1.58477,217.1523 -37.41889,-7.27286 z"
           style="fill:#1a1a1a;stroke:none" />
        <rect
           y="302.245"
           x="433.2688"
           height="216.62746"
           width="6.2338839"
           id="rect4066"
           style="fill:#333333;stroke:none" />
      </g>
      <path
         sodipodi:nodetypes="ccccccccccccc"
         inkscape:connector-curvature="0"
         id="path4068"
         d="m -127.27525,388.75852 38.090143,-0.955 c 22.046912,55.98488 52.911412,138.62583 475.227487,126.1092 271.56514,-3.57512 410.17443,-39.36727 427.79459,-124.58826 -14.41898,-52.67877 -48.22093,-107.5909 -426.70981,-119.51325 -433.677905,1.19895 -461.084843,69.2567 -476.371284,117.78038 l -38.031126,0.23876 1.16424,-147.46218 955.44067,8.41798 -1.403,270.77832 0,9.82098 -959.64965,4.20899 z"
         style="fill:#000000;stroke:none;display:inline;filter:url(#filter3933)" />
      <path
         style="fill:#000000;stroke:none;display:inline;filter:url(#filter3933)"
         d="m -127.27525,388.75852 38.090143,-0.955 c 22.046912,55.98488 52.911412,138.62583 475.227487,126.1092 271.56514,-3.57512 410.17443,-39.36727 427.79459,-124.58826 -14.41898,-52.67877 -48.22093,-107.5909 -426.70981,-119.51325 -433.677905,1.19895 -461.084843,69.2567 -476.371284,117.78038 l -38.031126,0.23876 1.16424,-147.46218 955.44067,8.41798 -1.403,270.77832 0,9.82098 -959.64965,4.20899 z"
         id="path4070"
         inkscape:connector-curvature="0"
         sodipodi:nodetypes="ccccccccccccc" />
      <path
         sodipodi:nodetypes="ccccccccccccc"
         inkscape:connector-curvature="0"
         id="path4072"
         d="m -127.27525,388.75852 38.090143,-0.955 c 22.046912,55.98488 52.911412,138.62583 475.227487,126.1092 271.56514,-3.57512 410.17443,-39.36727 427.79459,-124.58826 -14.41898,-52.67877 -48.22093,-107.5909 -426.70981,-119.51325 -433.677905,1.19895 -461.084843,69.2567 -476.371284,117.78038 l -38.031126,0.23876 1.16424,-147.46218 955.44067,8.41798 -1.403,270.77832 0,9.82098 -959.64965,4.20899 z"
         style="fill:#000000;stroke:none;display:inline;filter:url(#filter3933)" />
      <path
         style="fill:#000000;stroke:none;display:inline;filter:url(#filter3933)"
         d="m -127.27525,388.75852 38.090143,-0.955 c 22.046912,55.98488 52.911412,138.62583 475.227487,126.1092 271.56514,-3.57512 410.17443,-39.36727 427.79459,-124.58826 -14.41898,-52.67877 -48.22093,-107.5909 -426.70981,-119.51325 -433.677905,1.19895 -461.084843,69.2567 -476.371284,117.78038 l -38.031126,0.23876 1.16424,-147.46218 955.44067,8.41798 -1.403,270.77832 0,9.82098 -959.64965,4.20899 z"
         id="path4074"
         inkscape:connector-curvature="0"
         sodipodi:nodetypes="ccccccccccccc" />
      <path
         sodipodi:nodetypes="ccccccccccccc"
         inkscape:connector-curvature="0"
         id="path4076"
         d="m -127.27525,388.75852 38.090143,-0.955 c 22.046912,55.98488 52.911412,138.62583 475.227487,126.1092 271.56514,-3.57512 410.17443,-39.36727 427.79459,-124.58826 -14.41898,-52.67877 -48.22093,-107.5909 -426.70981,-119.51325 -433.677905,1.19895 -461.084843,69.2567 -476.371284,117.78038 l -38.031126,0.23876 1.16424,-147.46218 955.44067,8.41798 -1.403,270.77832 0,9.82098 -959.64965,4.20899 z"
         style="fill:#000000;stroke:none;display:inline;filter:url(#filter3933)" />
    </g>
  </g>
</svg>
