<?xml version="1.0" encoding="UTF-8" standalone="no"?>
<!-- Created with Inkscape (http://www.inkscape.org/) -->

<svg
   xmlns:dc="http://purl.org/dc/elements/1.1/"
   xmlns:cc="http://creativecommons.org/ns#"
   xmlns:rdf="http://www.w3.org/1999/02/22-rdf-syntax-ns#"
   xmlns:svg="http://www.w3.org/2000/svg"
   xmlns="http://www.w3.org/2000/svg"
   xmlns:xlink="http://www.w3.org/1999/xlink"
   xmlns:sodipodi="http://sodipodi.sourceforge.net/DTD/sodipodi-0.dtd"
   xmlns:inkscape="http://www.inkscape.org/namespaces/inkscape"
   width="1100"
   height="575"
   id="svg2"
   version="1.1"
   inkscape:version="0.48.3.1 r9886"
   sodipodi:docname="023.svg">
  <defs
     id="defs4">
    <linearGradient
       inkscape:collect="always"
       id="linearGradient3757">
      <stop
         style="stop-color:#1a1a1a;stop-opacity:1;"
         offset="0"
         id="stop3759" />
      <stop
         style="stop-color:#1a1a1a;stop-opacity:0;"
         offset="1"
         id="stop3761" />
    </linearGradient>
    <radialGradient
       inkscape:collect="always"
       xlink:href="#linearGradient3757"
       id="radialGradient3763"
       cx="538.30265"
       cy="145.71287"
       fx="538.30265"
       fy="145.71287"
       r="518.59363"
       gradientTransform="matrix(1,0,0,0.24109264,0,110.58257)"
       gradientUnits="userSpaceOnUse" />
    <filter
       inkscape:collect="always"
       id="filter3771">
      <feGaussianBlur
         inkscape:collect="always"
         stdDeviation="0.68249962"
         id="feGaussianBlur3773" />
    </filter>
    <filter
       inkscape:collect="always"
       id="filter3818">
      <feGaussianBlur
         inkscape:collect="always"
         stdDeviation="3.1769231"
         id="feGaussianBlur3820" />
    </filter>
    <filter
       color-interpolation-filters="sRGB"
       inkscape:collect="always"
       id="filter3933">
      <feGaussianBlur
         inkscape:collect="always"
         stdDeviation="10.394577"
         id="feGaussianBlur3935" />
    </filter>
  </defs>
  <sodipodi:namedview
     id="base"
     pagecolor="#ffffff"
     bordercolor="#666666"
     borderopacity="1.0"
     inkscape:pageopacity="0.0"
     inkscape:pageshadow="2"
     inkscape:zoom="0.61734124"
     inkscape:cx="536.5355"
     inkscape:cy="415.45146"
     inkscape:document-units="px"
     inkscape:current-layer="layer1"
     showgrid="false"
     inkscape:window-width="1311"
     inkscape:window-height="679"
     inkscape:window-x="11"
     inkscape:window-y="42"
     inkscape:window-maximized="0"
     showguides="true"
     inkscape:guide-bbox="true"
     fit-margin-top="0"
     fit-margin-left="0"
     fit-margin-right="0"
     fit-margin-bottom="0"
     inkscape:snap-global="false">
    <sodipodi:guide
       orientation="1,0"
       position="1099.0229,-1.6075554"
       id="guide3027" />
    <sodipodi:guide
       orientation="0,1"
       position="1101.7476,1.0353746"
       id="guide3033" />
    <sodipodi:guide
       orientation="0,1"
       position="-2.53521,574.25888"
       id="guide3005" />
    <sodipodi:guide
       orientation="1,0"
       position="0.76056301,577.08141"
       id="guide3007" />
  </sodipodi:namedview>
  <metadata
     id="metadata7">
    <rdf:RDF>
      <cc:Work
         rdf:about="">
        <dc:format>image/svg+xml</dc:format>
        <dc:type
           rdf:resource="http://purl.org/dc/dcmitype/StillImage" />
        <dc:title />
      </cc:Work>
    </rdf:RDF>
  </metadata>
  <g
     inkscape:label="Layer 1"
     inkscape:groupmode="layer"
     id="layer1"
     transform="translate(142.84595,-208.8125)"
     style="display:inline">
    <g
       id="g3841">
      <rect
         y="208.8125"
         x="-142.84595"
         height="575"
         width="1100"
         id="rect3023"
         style="fill:#000000;fill-opacity:1;fill-rule:evenodd;stroke:none" />
      <rect
         transform="translate(-142.84595,208.8125)"
         y="20.68376"
         x="19.709023"
         height="250.05821"
         width="1037.1873"
         id="rect2987"
         style="fill:url(#radialGradient3763);fill-opacity:1;fill-rule:evenodd;stroke:none" />
      <g
         style="filter:url(#filter3818)"
         id="g3795">
        <path
           style="fill:#00001e;fill-opacity:1;stroke:none"
           d="m 315.75566,56.360618 c 0.42597,-0.212986 1.09199,0.336762 1.42876,0 0.33676,-0.336761 -0.33677,-1.091997 0,-1.428758 0.67352,-0.673524 2.00557,0.425973 2.85751,0 0.60242,-0.301209 0.82634,-1.12755 1.42876,-1.428759 0.42597,-0.212987 0.95251,0 1.42876,0 0.47625,0 0.95251,0 1.42876,0 2.38126,0 4.76253,0 7.14379,0 2.85752,0 5.71504,0 8.57255,0 0.47626,0 0.95251,0 1.42876,0 0.47625,0 1.00279,0.212987 1.42876,0 0.60242,-0.301209 0.82634,-1.12755 1.42876,-1.428759 0.98689,-0.493445 6.64227,0.501522 7.14379,0 0.33676,-0.336761 -0.33676,-1.091996 0,-1.428758 0.39094,-0.39094 4.93995,0.387542 5.71504,0 0.60241,-0.301209 0.82634,-1.12755 1.42876,-1.428759 1.143,-0.571503 3.14326,0.571504 4.28627,0 0.60242,-0.301209 0.82634,-1.12755 1.42876,-1.428758 1.14301,-0.571504 3.14327,0.571503 4.28628,0 0.60241,-0.301209 0.82634,-1.12755 1.42875,-1.428759 0.43482,-0.21741 3.64283,0 4.28628,0 2.85752,0 5.71503,0 8.57255,0 0.99376,0 6.62711,-0.258344 7.1438,0 0.60241,0.301209 0.82634,1.12755 1.42875,1.428759 0.42598,0.212986 1.092,-0.336762 1.42876,0 0.33676,0.336761 -0.33676,1.091997 0,1.428758 0.67353,0.673524 2.00557,-0.425973 2.85752,0 0.60242,0.301209 0.82634,1.12755 1.42876,1.428759 0.42597,0.212987 1.092,-0.336762 1.42876,0 0.33676,0.336762 -0.33676,1.091997 0,1.428758 0.67352,0.673524 2.00557,-0.425973 2.85751,0 0.60242,0.301209 0.86836,1.055156 1.42876,1.428759 0.71952,3.147789 2.93923,0.755235 4.28628,1.428759 1.20483,0.602417 1.5796,2.431543 2.85752,2.857517 0.90362,0.301209 2.00557,-0.425974 2.85751,0 0.42598,0.212987 -0.33676,1.091997 0,1.428759 0.67353,0.673523 2.00557,-0.425974 2.85752,0 0.60242,0.301208 0.82634,1.127549 1.42876,1.428758 0.42597,0.212987 1.092,-0.336761 1.42876,0 0.33676,0.336762 -0.33676,1.091997 0,1.428759 0.47859,0.478594 2.37892,-0.478594 2.85751,0 0.33677,0.336762 -0.33676,1.091997 0,1.428759 0.33677,0.336761 1.092,-0.336762 1.42876,0 0.33677,0.336761 -0.33676,1.091996 0,1.428758 0.67353,0.673523 2.184,-0.673523 2.85752,0 0.33676,0.336762 -0.33676,1.091997 0,1.428759 0.33676,0.336761 1.00279,-0.212987 1.42876,0 0.60242,0.301209 0.82634,1.12755 1.42876,1.428758 0.85195,0.425974 2.18399,-0.673523 2.85752,0 0.33676,0.336762 -0.33677,1.091997 0,1.428759 0.33676,0.336762 1.09199,-0.336762 1.42875,0 0.33677,0.336762 -0.33676,1.091997 0,1.428759 0.33677,0.336761 1.00279,-0.212987 1.42876,0 0.60242,0.301208 0.82634,1.12755 1.42876,1.428758 0.42597,0.212987 1.00279,-0.212986 1.42876,0 1.20483,0.602418 1.65268,2.2551 2.85752,2.857518 0.42597,0.212986 1.09199,-0.336762 1.42876,0 0.33676,0.336761 -0.33677,1.091997 0,1.428758 0.33676,0.336762 1.09199,-0.336761 1.42875,0 0.33677,0.336762 -0.33676,1.091997 0,1.428759 0.67353,0.673523 2.00557,-0.425974 2.85752,0 0.60242,0.301209 0.82634,1.12755 1.42876,1.428758 0.42597,0.212987 1.092,-0.336761 1.42876,0 0.33676,0.336762 -0.33676,1.091997 0,1.428759 0.47621,0.476213 2.3813,-0.476213 2.85752,0 0.33676,0.336762 -0.33677,1.091997 0,1.428759 0.33676,0.336761 1.09199,-0.336762 1.42875,0 0.33677,0.336761 -0.33676,1.091997 0,1.428758 0.67353,0.673524 2.184,-0.673523 2.85752,0 0.33676,0.336762 -0.33676,1.091997 0,1.428759 0.33676,0.336762 1.092,-0.336762 1.42876,0 0.33676,0.336762 -0.33676,1.091997 0,1.428759 0.47621,0.476212 2.38131,-0.476213 2.85752,0 0.33676,0.336761 -0.33676,1.091997 0,1.428758 0.33676,0.336762 1.00278,-0.212987 1.42876,0 0.60241,0.301209 0.82634,1.12755 1.42876,1.428759 0.42597,0.212987 1.00278,-0.212987 1.42875,0 0.60242,0.301209 0.82634,1.12755 1.42876,1.428758 0.42598,0.212987 1.00279,-0.212986 1.42876,0 0.60242,0.301209 0.82634,1.12755 1.42876,1.428759 0.42597,0.212987 0.97695,-0.150604 1.42876,0 1.01028,0.336762 1.84723,1.091997 2.85752,1.428759 0.90362,0.301208 2.00557,-0.425974 2.85751,0 0.60242,0.301208 0.82634,1.12755 1.42876,1.428758 0.42597,0.212987 1.092,-0.336761 1.42876,0 0.33676,0.336762 -0.33676,1.091997 0,1.428759 0.47621,0.476213 2.3813,-0.476213 2.85752,0 0.33676,0.336762 0,0.952506 0,1.428759 0,2.381261 0,4.762531 0,7.143791 0,0.47625 0.33676,1.092 0,1.42876 -0.33676,0.33676 -1.092,-0.33676 -1.42876,0 -0.33676,0.33676 0.21299,1.00279 0,1.42876 -0.30121,0.60242 -1.12755,0.82634 -1.42876,1.42876 -0.21299,0.42597 0.33676,1.09199 0,1.42876 -0.33676,0.33676 -1.092,-0.33677 -1.42876,0 -0.47621,0.47621 0.47621,2.3813 0,2.85751 -3.81002,0 0.47625,-0.47625 -1.42876,1.42876 -0.33676,0.33676 -1.09199,-0.33676 -1.42876,0 -0.67352,0.67353 0.67353,2.184 0,2.85752 -0.33676,0.33676 -1.09199,-0.33676 -1.42875,0 -2.95616,2.95615 4.51739,-0.11556 -1.42876,2.85752 -0.42598,0.21298 -1.092,-0.33677 -1.42876,0 -5.57607,5.57606 0.33072,0.76731 -1.42876,4.28627 -0.33081,0.66163 -4.87472,4.87472 -5.71503,5.71504 -0.47626,0.47625 -1.12755,0.82634 -1.42876,1.42876 -0.42598,0.85194 0.67352,2.18399 0,2.85751 -0.33677,0.33676 -1.092,-0.33676 -1.42876,0 -0.33676,0.33676 0.1506,0.97695 0,1.42876 -0.33676,1.01029 -0.83804,1.97144 -1.42876,2.85752 -4.7386,4.73859 0.67352,-1.34705 -1.42876,2.85752 -0.30121,0.60241 -1.12755,0.82634 -1.42876,1.42875 -0.21298,0.42598 0.21299,1.00279 0,1.42876 -0.30121,0.60242 -1.12755,0.82634 -1.42876,1.42876 -0.21298,0.42598 0.21299,1.00279 0,1.42876 -0.30121,0.60242 -1.12755,0.82634 -1.42876,1.42876 -0.42597,0.85195 0.42598,2.00557 0,2.85752 -0.3012,0.60241 -1.21577,0.78979 -1.42875,1.42876 -0.002,0.006 10e-4,4.28491 0,4.28627 -0.33677,0.33676 -1.092,-0.33676 -1.42876,0 -0.046,0.046 0,3.93976 0,4.28628 0,0.99376 0.25834,6.6271 0,7.14379 -0.30121,0.60242 -1.12755,0.82634 -1.42876,1.42876 -0.449,0.89801 0.449,4.81703 0,5.71503 -0.30121,0.60242 -1.12755,0.82634 -1.42876,1.42876 -0.31788,0.63577 0.21783,5.06154 0,5.71504 -0.21299,0.63896 -1.12755,0.82634 -1.42876,1.42875 -0.38097,0.76195 0.38097,2.09558 0,2.85752 -0.30121,0.60242 -1.12755,0.82634 -1.42876,1.42876 -0.4565,0.91301 0.38334,4.56503 0,5.71504 -0.33676,1.01028 -1.09199,1.84723 -1.42876,2.85751 -0.45181,1.35544 0.34653,2.90018 0,4.28628 -0.25828,1.03314 -1.09199,1.84723 -1.42875,2.85752 -0.32759,0.98274 0.42149,3.44328 0,4.28627 -0.30121,0.60242 -1.12755,0.82634 -1.42876,1.42876 -0.57151,1.14301 0.5715,3.14327 0,4.28628 -0.30121,0.60241 -1.12755,0.82634 -1.42876,1.42875 -0.5715,1.14301 0.5715,3.14327 0,4.28628 -0.30121,0.60242 -1.12755,0.82634 -1.42876,1.42876 -0.42597,0.85195 0.30121,1.95389 0,2.85752 -0.33676,1.01028 -1.092,1.84723 -1.42876,2.85751 -0.30121,0.90363 0.42597,2.00557 0,2.85752 -0.30121,0.60242 -1.12755,0.82634 -1.42876,1.42876 -0.45314,0.90628 0.46408,6.21564 0,7.14379 -0.30121,0.60242 -1.12755,0.82634 -1.42876,1.42876 -0.21741,0.43482 0,3.64282 0,4.28628 0,0.34651 0.046,4.24032 0,4.28627 -0.33676,0.33676 -0.9525,0 -1.42875,0 -0.47626,0 -0.95251,0 -1.42876,0 -2.85752,0 -5.71504,0 -8.57256,0 -1.42875,0 -2.88526,-0.2802 -4.28627,0 -1.04425,0.20885 -1.82438,1.17048 -2.85752,1.42876 -0.92406,0.23102 -1.93345,-0.23101 -2.85752,0 -1.03313,0.25829 -1.82438,1.17048 -2.85751,1.42876 -0.92407,0.23102 -1.90501,0 -2.85752,0 -0.95251,0 -1.90501,0 -2.85752,0 -2.85751,0 -5.71503,0 -8.57255,0 -10.47756,0 -20.95513,0 -31.43269,0 -5.23878,0 -10.47756,0 -15.71634,0 -0.99376,0 -6.62711,0.25834 -7.1438,0 -0.60241,-0.30121 -0.82634,-1.12755 -1.42876,-1.42876 -0.42597,-0.21299 -1.09199,0.33676 -1.42875,0 -0.33677,-0.33676 0.33676,-1.092 0,-1.42876 -0.67353,-0.67352 -2.00557,0.42598 -2.85752,0 -0.60242,-0.30121 -0.95251,-0.9525 -1.42876,-1.42876 -0.95251,0 -1.95389,0.30121 -2.85752,0 -0.63896,-0.21298 -0.9525,-0.9525 -1.42876,-1.42875 -0.9525,-0.47626 -1.84723,-1.092 -2.85751,-1.42876 -0.90363,-0.30121 -2.00557,0.42597 -2.85752,0 -1.20484,-0.60242 -1.65268,-2.2551 -2.85752,-2.85752 -0.42597,-0.21299 -1.00278,0.21299 -1.42876,0 -0.60241,-0.30121 -0.78979,-1.21577 -1.42875,-1.42876 -0.90363,-0.30121 -1.9539,0.30121 -2.85752,0 -0.63896,-0.21299 -0.82634,-1.12755 -1.42876,-1.42876 -0.42597,-0.21298 -0.95251,0 -1.42876,0 -0.95251,0 -1.90501,0 -2.85752,0 -3.81002,0 -7.62004,0 -11.43007,0 -1.42875,0 -2.87695,0.23489 -4.28627,0 -1.48555,-0.24759 -2.79537,-1.21577 -4.28628,-1.42876 -1.88586,-0.26941 -3.82917,0.26941 -5.71503,0 -1.49091,-0.21298 -2.80948,-1.1334 -4.28628,-1.42875 -0.93401,-0.18681 -1.92351,0.1868 -2.85751,0 -1.4768,-0.29536 -2.80948,-1.1334 -4.28628,-1.42876 -2.26191,-0.45238 -6.4337,0.53471 -8.57255,0 -1.03314,-0.25829 -1.84723,-1.092 -2.85752,-1.42876 -0.92572,-0.30857 -5.97407,0 -7.14379,0 -0.95251,0 -1.90501,0 -2.85752,0 -0.47625,0 -0.97695,0.1506 -1.42876,0 -1.01028,-0.33676 -1.82438,-1.17048 -2.85752,-1.42876 -2.48067,-0.62017 -6.09187,0.62017 -8.57255,0 -2.58597,0.86115 -2.65724,-2.31451 -4.28627,-2.85752 -0.90363,-0.30121 -1.95389,0.30121 -2.85752,0 -0.63896,-0.21298 -0.7898,-1.21577 -1.42876,-1.42876 -0.90363,-0.30121 -1.95389,0.30121 -2.85752,0 -0.63896,-0.21298 -0.82634,-1.12755 -1.42876,-1.42876 -0.42597,-0.21298 -1.00278,0.21299 -1.42875,0 -0.60242,-0.3012 -0.7898,-1.21577 -1.42876,-1.42875 -0.90363,-0.30121 -1.95389,0.30121 -2.85752,0 -0.63896,-0.21299 -0.82634,-1.12755 -1.42876,-1.42876 -0.42597,-0.21299 -1.00278,0.21298 -1.42876,0 -0.60241,-0.30121 -0.82634,-1.12755 -1.42876,-1.42876 -0.42597,-0.21299 -1.42875,0.47625 -1.42875,0 0,-0.47625 0.9525,0 1.42875,0 0.47626,0 1.42876,-0.47625 1.42876,0 0,0.47625 -0.9525,0 -1.42876,0 -0.9525,0 -1.90501,0 -2.85751,0 -2.27158,0 -6.69705,0.3751 -8.57255,0 -2.08851,-0.4177 -3.64876,-2.34095 -5.71504,-2.85752 -0.92407,-0.23101 -1.93345,0.23102 -2.85752,0 -2.06627,-0.51657 -3.69446,-2.18399 -5.71503,-2.85752 -0.45181,-0.1506 -0.97695,0.15061 -1.42876,0 -0.95251,-0.47625 -1.90501,-0.9525 -2.85752,-1.42875 -0.47625,0 -0.97694,0.1506 -1.42876,0 -1.01028,-0.33677 -1.97143,-0.83804 -2.85751,-1.42876 -0.56041,-0.37361 -0.7898,-1.21577 -1.42876,-1.42876 -6.18598,-2.06199 0.52513,2.73135 -5.71504,-1.42876 -1.12081,-0.74721 -1.57959,-2.43154 -2.85751,-2.85752 -0.90363,-0.30121 -1.95389,0.30121 -2.85752,0 -0.63896,-0.21298 -0.82634,-1.12755 -1.42876,-1.42876 -0.42597,-0.21298 -1.00278,0.21299 -1.42876,0 -0.60242,-0.3012 -0.82634,-1.12755 -1.42876,-1.42875 -0.42597,-0.21299 -1.00278,0.21298 -1.42876,0 -0.60241,-0.30121 -0.78979,-1.21578 -1.42875,-1.42876 -0.90363,-0.30121 -1.95389,0.30121 -2.85752,0 -0.63896,-0.21299 -0.7898,-1.21577 -1.42876,-1.42876 -6.18598,-2.06199 0.52513,2.73135 -5.71503,-1.42876 -0.56041,-0.3736 -0.7898,-1.21577 -1.42876,-1.42876 -0.90363,-0.30121 -1.93345,0.23102 -2.85752,0 -1.03314,-0.25828 -1.90501,-0.9525 -2.85752,-1.42876 -0.9525,-0.47625 -1.90501,-0.9525 -2.85751,-1.42876 -1.90502,-0.9525 -3.81003,-1.90501 -5.71504,-2.85751 -0.9525,-0.47626 -2.00557,-0.7898 -2.85752,-1.42876 -1.07763,-0.80823 -1.77988,-2.04929 -2.85751,-2.85752 -2.31345,-1.73509 -2.8296,-0.6725 -4.28628,-2.85752 -0.59072,-0.88608 -0.67574,-2.10449 -1.42876,-2.85751 -0.33676,-0.33677 -1.21577,0.42597 -1.42876,0 -3.04802,-6.09604 4.47678,0.381 1.42876,-5.71504 -1.14992,-2.29983 -5.4613,-4.36904 -7.14379,-5.71503 -6.72957,-5.38366 1.65139,-0.43793 -7.14379,-5.71504 -0.91318,-0.5479 -1.86876,-1.03325 -2.85752,-1.42876 -1.39833,-0.55933 -3.08144,-0.52513 -4.28628,-1.42875 -0.85194,-0.63896 -0.83804,-1.97144 -1.42876,-2.85752 -1.401583,-2.10238 -4.313444,-3.61266 -5.715031,-5.71504 -0.590719,-0.88607 -0.838039,-1.97144 -1.428758,-2.85751 -0.747207,-1.12081 -2.2551,-1.65269 -2.857517,-2.85752 -0.377745,-0.75549 0.174019,-5.01896 0,-5.71504 -0.258285,-1.03313 -1.091997,-1.84723 -1.428759,-2.85751 -0.150605,-0.45182 0.212987,-1.00279 0,-1.42876 -0.301209,-0.60242 -1.12755,-0.82634 -1.428759,-1.42876 -0.184703,-0.36941 0,-7.55984 0,-8.57255 0,-0.76326 -0.204457,-6.73488 0,-7.14379 0.301209,-0.60242 1.12755,-0.82635 1.428759,-1.42876 0.212987,-0.42598 -0.336762,-1.092 0,-1.42876 0.336762,-0.33676 1.091997,0.33676 1.428759,0 0.336761,-0.33676 -0.212987,-1.00279 0,-1.42876 0.301208,-0.60242 1.127549,-0.82634 1.428758,-1.42876 0.212987,-0.42597 -0.336762,-1.092 0,-1.42876 0.336762,-0.33676 1.091997,0.33676 1.428759,0 0.336761,-0.33676 -0.336762,-1.09199 0,-1.42876 0.336761,-0.33676 1.091997,0.33677 1.428758,0 0.970593,-0.97059 -1.460878,-2.84145 1.428759,-4.28627 0.851947,-0.42598 2.183994,0.67352 2.857517,0 0.336762,-0.33676 -0.336761,-1.092 0,-1.42876 0.336762,-0.33676 1.002785,0.21299 1.428755,0 1.20484,-0.60242 1.65269,-2.2551 2.85752,-2.85752 0.42597,-0.21299 1.00279,0.21299 1.42876,0 0.60242,-0.30121 0.95251,-0.9525 1.42876,-1.42876 0.47625,-0.47625 1.12755,-0.82634 1.42876,-1.42876 0.21298,-0.42597 -0.33676,-1.09199 0,-1.42875 0.75302,-0.753026 1.84723,-1.092001 2.85751,-1.428763 0.45182,-0.150604 1.092,0.336762 1.42876,0 2.95616,-2.956152 -4.51739,0.115559 1.42876,-2.857517 0.85195,-0.425974 2.184,0.673523 2.85752,0 0.33676,-0.336762 -0.33676,-1.091997 0,-1.428759 0.75302,-0.753022 1.97144,-0.838039 2.85752,-1.428758 0.5604,-0.373604 0.82634,-1.12755 1.42875,-1.428759 0.42598,-0.212987 1.0325,0.264178 1.42876,0 1.12081,-0.747207 1.65269,-2.2551 2.85752,-2.857517 0.85195,-0.425974 1.95389,0.301209 2.85752,0 0.63896,-0.212987 0.86835,-1.055155 1.42876,-1.428759 0.88607,-0.590719 1.97144,-0.838039 2.85751,-1.428758 1.12081,-0.747207 1.65269,-2.2551 2.85752,-2.857518 0.42597,-0.212986 0.97695,0.150605 1.42876,0 1.01028,-0.336761 1.84723,-1.091997 2.85752,-1.428758 0.90362,-0.301209 2.00557,0.425973 2.85751,0 0.60242,-0.301209 0.82635,-1.12755 1.42876,-1.428759 0.42598,-0.212987 1.00279,0.212987 1.42876,0 0.60242,-0.301209 0.82634,-1.12755 1.42876,-1.428759 0.42597,-0.212986 0.95251,0 1.42876,0 0.47625,0 0.9525,0 1.42876,0 2.85751,0 5.71503,0 8.57255,0 0.9525,0 1.93345,0.231017 2.85752,0 1.03313,-0.258284 1.82438,-1.170474 2.85751,-1.428758 0.92407,-0.231017 1.93345,0.231016 2.85752,0 1.03314,-0.258285 1.84723,-1.091997 2.85752,-1.428759 0.90362,-0.301209 1.95389,0.301209 2.85752,0 1.01028,-0.336761 1.84723,-1.091997 2.85751,-1.428758 1.15001,-0.383336 4.80203,0.456503 5.71504,0 0.60241,-0.301209 0.82634,-1.12755 1.42876,-1.428759 0.42597,-0.212987 0.9525,0 1.42875,0 0.95251,0 2.00557,0.425973 2.85752,0 0.42598,-0.212987 -0.33676,-1.091997 0,-1.428759 0.33676,-0.336761 1.00279,0.212987 1.42876,0 0.60242,-0.301208 0.82634,-1.12755 1.42876,-1.428758 0.85195,-0.425974 2.00557,0.425973 2.85752,0 0.60241,-0.301209 0.82634,-1.12755 1.42875,-1.428759 0.85195,-0.425974 2.00557,0.425974 2.85752,0 0.60242,-0.301209 0.82634,-1.12755 1.42876,-1.428759 0.85195,-0.425973 2.00557,0.425974 2.85752,0 0.60242,-0.301208 0.82634,-1.127549 1.42876,-1.428758 0.42597,-0.212987 0.97694,0.150604 1.42876,0 1.01028,-0.336762 1.84723,-1.091997 2.85751,-1.428759 0.90363,-0.301209 2.00557,0.425974 2.85752,0 0.60242,-0.301209 0.82634,-1.12755 1.42876,-1.428758 0.86757,-0.433788 7.70498,0.433787 8.57255,0 0.60242,-0.301209 0.82634,-1.12755 1.42876,-1.428759 0.77508,-0.387542 5.32409,0.39094 5.71503,0 0.33676,-0.336762 -0.33676,-1.091997 0,-1.428759 0.33676,-0.336761 0.95251,0 1.42876,0 0.47625,0 0.95251,0 1.42876,0 1.38194,0 8.1488,0.211875 8.57255,0 0.60242,-0.301209 0.82634,-1.12755 1.42876,-1.428758 0.42597,-0.212987 0.95251,0 1.42876,0 0.47625,0 0.95251,0 1.42876,0 1.51137,0 9.26525,0.245352 10.00131,0 0.63896,-0.212987 0.82634,-1.12755 1.42876,-1.428759 0.43482,-0.21741 3.64282,0 4.28627,0 13.33508,0 26.67016,0 40.00524,0 z"
           id="path3765"
           inkscape:connector-curvature="0"
           transform="translate(-142.84595,208.8125)"
           sodipodi:nodetypes="cscsssssssssssssssssssscssssssscsssssssscccsssssscccssssscsssssssscsssssssssssssssssssssssssscccscssccscscsscscscsscccssssssscssscscssssssssssssscssssscsssssscscsscscssssssssssssscsssssssscssssscssscsssssssssscccsssssscccssssssscsssscsssssssssssssssssssssssscssssssssssssssssssssssssssssssssssssssssssssssssssssssssssssssssssscc" />
        <path
           style="fill:#b3b3b3;stroke:#000000;stroke-width:1px;stroke-linecap:butt;stroke-linejoin:miter;stroke-opacity:1"
           d="m 448.2611,183.99343 c -1.39645,1.86194 -2.54362,3.94008 -4.18936,5.58581 -0.32914,0.32915 -0.98011,-0.20817 -1.39645,0 -1.17759,0.5888 -1.69744,2.06259 -2.7929,2.79291 -0.86605,0.57736 -1.92686,0.81909 -2.79291,1.39645 -0.54773,0.36515 -0.80765,1.10205 -1.39645,1.39645 -0.41634,0.20817 -0.98011,-0.20817 -1.39645,0 -4.63145,4.63145 1.31659,-0.65829 -2.7929,1.39645 -0.88951,0.44475 -5.88498,5.88498 -6.98226,6.98226 -0.73519,0.73518 -3.81645,3.44354 -4.18936,4.18936 -0.41634,0.83268 0.65829,2.13461 0,2.7929 -0.32915,0.32915 -1.06731,-0.32914 -1.39645,0 -0.6583,0.6583 0.29439,1.90971 0,2.79291 -0.32915,0.98744 -1.06731,1.80546 -1.39646,2.7929 -0.14719,0.4416 0.20818,0.98011 0,1.39645 -0.29439,0.5888 -1.10205,0.80766 -1.39645,1.39645 -0.31069,0.62139 0.21291,4.94709 0,5.58581 -0.20817,0.62451 -1.10205,0.80766 -1.39645,1.39645 -0.41634,0.83269 0.41634,1.96023 0,2.79291 -0.2944,0.58879 -1.18828,0.77194 -1.39645,1.39645 -0.41894,1.25681 0.41893,2.93255 0,4.18936 -0.32915,0.98744 -1.14401,1.78312 -1.39645,2.7929 -0.2258,0.90317 0.29439,1.90971 0,2.7929 -0.75316,2.25947 -2.79291,0.43539 -2.79291,4.18936 0,2.7929 0,5.58581 0,8.37871 0,0.62891 0.2125,3.76437 0,4.18936 -0.2944,0.58879 -1.10205,0.80765 -1.39645,1.39645 -0.41634,0.83268 0.93097,2.7929 0,2.7929 -0.46548,0 0,-0.93096 0,-1.39645 0,-0.6289 -0.21249,-3.76437 0,-4.18935 0.2944,-0.5888 0.93097,-0.93097 1.39645,-1.39646 0.46549,-0.46548 0.80766,-1.10205 1.39645,-1.39645 0.41635,-0.20817 1.06731,0.32915 1.39646,0 0.32914,-0.32914 -0.32915,-1.0673 0,-1.39645 0.32914,-0.32915 0.98011,0.20817 1.39645,0 0.58879,-0.2944 0.80766,-1.10205 1.39645,-1.39645 0.41634,-0.20817 0.98011,0.20817 1.39645,0 0.5888,-0.2944 0.77194,-1.18828 1.39645,-1.39645 1.25681,-0.41894 2.93255,0.41893 4.18936,0 0.98744,-0.32915 1.80546,-1.06731 2.79291,-1.39646 1.22057,-0.40685 7.5376,0.42056 8.37871,0 0.58879,-0.29439 0.80765,-1.10205 1.39645,-1.39645 0.39967,-0.19983 6.23626,0 6.98226,0 6.05129,0 12.10258,0 18.15388,0 7.91322,0 15.82645,0 23.73968,0 0.33868,0 4.14445,-0.0449 4.18936,0 0.32914,0.32915 -0.32915,1.06731 0,1.39645 0.0633,0.0633 6.32383,0 6.98226,0 13.03355,0 26.0671,0 39.10065,0 7.44775,0 14.89549,0 22.34324,0 0.33867,0 4.14444,0.0449 4.18935,0 0.0449,-0.0449 0,-3.85067 0,-4.18935 0,-7.44775 0,-14.89549 0,-22.34323 0,-0.33868 0.0449,-4.14445 0,-4.18936 -0.32915,-0.32915 -1.0673,0.32915 -1.39645,0 -0.32915,-0.32915 0.32915,-1.06731 0,-1.39645 -0.65829,-0.6583 -2.13461,0.65829 -2.7929,0 -0.6583,-0.6583 0.41634,-1.96022 0,-2.79291 -0.5888,-1.17759 -2.20411,-1.61531 -2.79291,-2.7929 -0.20817,-0.41634 0,-0.93097 0,-1.39645 -0.46548,-0.46549 -1.10205,-0.80766 -1.39645,-1.39645 -0.20817,-0.41635 0.32915,-1.06731 0,-1.39646 -0.32915,-0.32914 -1.06731,0.32915 -1.39645,0 -0.32915,-0.32914 0.32914,-1.0673 0,-1.39645 -0.32915,-0.32915 -1.06731,0.32915 -1.39645,0 -0.32915,-0.32915 0.32914,-1.0673 0,-1.39645 -0.32915,-0.32915 -1.18829,0.41634 -1.39646,0 -0.41634,-0.83268 0.2258,-1.88973 0,-2.7929 -0.25244,-1.00978 -0.93096,-1.86194 -1.39645,-2.79291 -0.46548,-0.93097 -0.93097,-1.86193 -1.39645,-2.7929 -0.93097,-1.86194 -1.63818,-3.85372 -2.7929,-5.58581 -0.73032,-1.09547 -2.20411,-1.61531 -2.79291,-2.7929 -0.41634,-0.83269 0.65829,-2.13461 0,-2.79291 -0.32915,-0.32915 -1.0673,0.32915 -1.39645,0 -0.32915,-0.32915 0.32915,-1.0673 0,-1.39645 -0.32915,-0.32915 -0.93097,0 -1.39645,0 -4.18936,0 -8.37872,0 -12.56807,0 -14.43001,0 -28.86001,0 -43.29001,0 -5.58581,0 -11.17162,0 -16.75743,0 -1.35297,0 -7.54605,-0.27756 -8.37871,0 -2.37807,0.79269 -4.65484,1.86194 -6.98226,2.7929 z"
           id="path3769"
           inkscape:connector-curvature="0"
           transform="translate(-142.84595,208.8125)" />
        <path
           style="fill:#b3b3b3;stroke:#000000;stroke-width:1px;stroke-linecap:butt;stroke-linejoin:miter;stroke-opacity:1;filter:url(#filter3771)"
           d="m 481.77595,66.691464 c 7.65537,4.980049 5.63661,4.189356 12.56807,4.189356 0.93096,0 1.96022,0.416341 2.7929,0 0.41634,-0.208171 -0.32915,-1.067306 0,-1.396452 0.32915,-0.329147 0.98011,0.20817 1.39645,0 0.5888,-0.294398 0.93097,-0.930968 1.39645,-1.396452 0.46549,-0.465484 1.0313,-0.848719 1.39646,-1.396452 0.57736,-0.866043 0.81909,-1.926862 1.39645,-2.792905 0.3946,-0.591904 3.61157,-3.900465 4.18935,-4.189356 0.41635,-0.20817 0.93097,0 1.39646,0 0.46548,0 0.93096,0 1.39645,0 2.32742,0 4.65484,0 6.98226,0 6.98226,0 13.96452,0 20.94678,0 0.97129,0 6.47726,0.252502 6.98226,0 1.17759,-0.588795 1.61531,-2.204108 2.7929,-2.792904 0.36719,-0.183592 4.85558,0 5.58581,0 3.25839,0 6.51678,0 9.77517,0 0.46548,0 1.0673,-0.329147 1.39645,0 0.0633,0.06329 0,6.323836 0,6.98226 0,3.723873 0,7.447745 0,11.171617 0,0.465484 0.32914,1.067305 0,1.396452 -0.32915,0.329147 -1.06731,-0.329147 -1.39645,0 -0.32915,0.329147 0.20817,0.98011 0,1.396452 -0.18539,0.370773 -3.81859,4.003969 -4.18936,4.189356 -0.41634,0.208171 -0.98011,-0.208171 -1.39645,0 -0.5888,0.294398 -0.93097,0.930968 -1.39645,1.396452 -0.46549,0.465484 -0.93097,0.930968 -1.39646,1.396452 -0.46548,0.465484 -0.93096,0.930968 -1.39645,1.396452 -0.46548,0.465484 -1.10205,0.807656 -1.39645,1.396452 -0.20817,0.416341 0.2582,1.009146 0,1.396452 -1.04092,1.561374 -4.06586,4.065862 -5.58581,5.585808 -0.46548,0.465484 -0.84872,1.031296 -1.39645,1.396452 -2.03502,1.356682 -2.90862,0.871804 -4.18936,2.792904 -0.57736,0.866043 -0.66045,2.05691 -1.39645,2.7929 -0.32915,0.32915 -1.0673,-0.32914 -1.39645,0 -0.736,0.736 -0.66046,2.05691 -1.39645,2.79291 -0.32915,0.32915 -1.06731,-0.32915 -1.39646,0 -0.65829,0.65829 0.41635,1.96022 0,2.7929 -1.06938,2.13878 -2.4885,1.09205 -4.18935,2.79291 -0.64153,0.64152 -3.59681,7.19361 -4.18936,8.37871 -0.46548,0.93097 -0.81909,1.92686 -1.39645,2.7929 -1.93812,5.46688 -2.90099,5.67917 -2.7929,6.98226 -0.96896,-8.55889 0.14733,-6.64831 4.18935,-8.37871 0.5888,-0.2944 0.80766,-1.10205 1.39645,-1.39645 0.41635,-0.20817 0.93097,0 1.39646,0 0.46548,0 0.93096,0 1.39645,0 2.32742,0 4.65484,0 6.98226,0 0.6289,0 3.76437,-0.2125 4.18936,0 3.08763,1.54381 0.43334,0.8667 1.39645,2.7929 2.90585,5.8117 -0.0964,-1.49285 2.7929,1.39645 0.32915,0.32915 -0.20817,0.98011 0,1.39646 4.63145,4.63144 -0.65829,-1.31659 1.39645,2.7929 0.2944,0.5888 1.10206,0.80766 1.39646,1.39645 0.20817,0.41634 -0.20818,0.98011 0,1.39645 0.29439,0.5888 1.18828,0.77194 1.39645,1.39646 0.2944,0.88319 0,1.86193 0,2.7929 0,0.46548 -0.20817,0.98011 0,1.39645 0.2944,0.5888 1.10205,0.80766 1.39645,1.39645 0.20817,0.41635 0,0.93097 0,1.39646 0,0.93096 -0.2944,1.90971 0,2.7929 0.20817,0.62451 1.10205,0.80766 1.39645,1.39645 0.20817,0.41634 0,0.93097 0,1.39645 0,0.93097 -0.22579,1.88974 0,2.79291 0.25245,1.00978 1.06731,1.80546 1.39645,2.7929 0.1472,0.4416 0,0.93097 0,1.39645 0,0.93097 0,1.86194 0,2.79291 0,0.93097 -0.22579,1.88973 0,2.7929 0.25245,1.00978 1.14401,1.78313 1.39646,2.79291 0.22579,0.90317 0,1.86193 0,2.7929 0,0.93097 0,1.86194 0,2.79291 0,3.72387 0,7.44774 0,11.17161 0,3.72387 0,7.44775 0,11.17162 0,1.39645 0.62451,2.94033 0,4.18935 -2.0647,4.1294 -7.84159,4.48474 -11.17162,6.98226 -1.05327,0.78996 -1.73963,2.00296 -2.7929,2.79291 -0.83269,0.62451 -1.86194,0.93097 -2.79291,1.39645 -0.93097,0.46548 -1.86194,0.93097 -2.7929,1.39645 -0.93097,0.46549 -1.86194,0.93097 -2.79291,1.39645 -0.93097,0.46549 -1.78312,1.14401 -2.7929,1.39646 -0.90317,0.22579 -1.88973,-0.2258 -2.79291,0 -1.00977,0.25244 -1.78312,1.144 -2.7929,1.39645 -0.90317,0.22579 -1.86194,0 -2.7929,0 -1.39646,0 -2.79291,0 -4.18936,0 -0.93097,0 -1.88973,-0.2258 -2.7929,0 -1.00978,0.25244 -1.77227,1.19232 -2.79291,1.39645 -2.28222,0.45644 -4.65484,0 -6.98226,0 -6.05129,0 -12.10258,0 -18.15387,0 -3.25839,0 -6.51678,0 -9.77517,0 -3.3899,0 -6.6605,0.47235 -9.77516,-1.39645 -1.12897,-0.67738 -1.73964,-2.00295 -2.79291,-2.79291 -0.83268,-0.62451 -1.96022,-0.77194 -2.7929,-1.39645 -1.05327,-0.78995 -1.73963,-2.00295 -2.7929,-2.7929 -0.83269,-0.62451 -1.92687,-0.81909 -2.79291,-1.39645 -0.54773,-0.36516 -0.93097,-0.93097 -1.39645,-1.39646 -1.39645,-1.39645 -2.7929,-2.7929 -4.18936,-4.18935 -0.46548,-0.46549 -0.93096,-0.93097 -1.39645,-1.39645 -0.46548,-0.46549 -1.10205,-0.80766 -1.39645,-1.39646 -0.20817,-0.41634 0.1472,-0.95485 0,-1.39645 -0.32915,-0.98744 -1.06731,-1.80546 -1.39645,-2.7929 -0.1472,-0.4416 0.20817,-0.98011 0,-1.39645 -4.63145,-4.63145 0.65829,1.31658 -1.39645,-2.79291 -0.2944,-0.58879 -1.18829,-0.77194 -1.39646,-1.39645 -0.44159,-1.32479 0,-2.7929 0,-4.18936 0,-3.72387 0,-7.44774 0,-11.17161 0,-4.18936 0,-8.37871 0,-12.56807 0,-1.39645 0,-2.79291 0,-4.18936 0,-0.93097 -0.34575,-1.92852 0,-2.7929 0.62332,-1.55829 2.13178,-2.64673 2.79291,-4.18936 0.75602,-1.76406 0.64042,-3.82175 1.39645,-5.58581 1.95166,-4.55387 3.88507,-4.50722 6.98226,-8.37871 1.30043,-1.62554 1.63818,-3.85372 2.7929,-5.58581 0.36516,-0.54773 0.93097,-0.93096 1.39646,-1.39645 0.46548,-0.46548 0.80765,-1.10205 1.39645,-1.39645 1.9262,-0.9631 1.24909,1.69118 2.7929,-1.39645 0.20817,-0.41634 -0.41634,-1.18828 0,-1.39645 0.83268,-0.41635 1.96022,0.41634 2.79291,0 0.41634,-0.20817 -0.32915,-1.06731 0,-1.39646 0.32914,-0.32914 0.93096,0 1.39645,0 0.46548,0 0.93097,0 1.39645,0 4.65484,0 9.30968,0 13.96452,0 37.69536,-7.86981 26.16938,1.16061 39.10066,12.56807 0.2525,0.50501 0,6.01097 0,6.98226 0,0.73024 0.18359,5.21863 0,5.58581 -1.37065,2.7413 -2.65381,0.62868 -4.18936,1.39645 -0.5888,0.2944 -0.80766,1.10206 -1.39645,1.39645 -0.41634,0.20818 -0.93097,0 -1.39645,0 -0.93097,0.46549 -1.92686,0.81909 -2.79291,1.39646 -0.54773,0.36515 -0.93097,0.93096 -1.39645,1.39645 -1.39645,0.46548 -2.92713,0.63912 -4.18936,1.39645 -1.12896,0.67738 -1.73963,2.00295 -2.7929,2.7929 -0.83268,0.62452 -1.86194,0.93097 -2.7929,1.39646 -0.93097,0.46548 -1.8265,1.00989 -2.79291,1.39645 -14.05706,5.62283 2.96494,-1.09035 -6.98226,1.39645 -1.00977,0.25245 -1.80546,1.06731 -2.7929,1.39645 -0.4416,0.1472 -0.95486,-0.1472 -1.39645,0 -0.98744,0.32915 -1.78313,1.14401 -2.79291,1.39646 -1.80634,0.45158 -3.81942,-0.5888 -5.58581,0 -0.62451,0.20817 -0.77194,1.18828 -1.39645,1.39645 -0.75074,0.25024 -4.4035,0 -5.58581,0 -0.46548,0 -1.0673,0.32914 -1.39645,0 -0.0449,-0.0449 0.19625,-3.91334 0,-4.18936 -4.82998,-6.79331 -6.94821,-12.90867 0,-16.75742 0.29627,-0.16411 -0.0449,-4.14445 0,-4.18936 0.3821,-0.3821 4.82825,0.37878 5.58581,0 0.5888,-0.2944 0.80766,-1.10205 1.39645,-1.39645 0.41634,-0.20817 1.06731,0.32915 1.39645,0 0.32915,-0.32915 -0.32914,-1.06731 0,-1.39645 0.6583,-0.6583 1.96022,0.41634 2.79291,0 0.58879,-0.2944 0.80765,-1.10206 1.39645,-1.39646 0.42499,-0.21249 3.56045,0 4.18936,0 3.25838,0 6.51677,0 9.77516,0 0.51283,0 5.52961,-0.0562 5.58581,0 0.32915,0.32915 0,0.93097 0,1.39646 0,0.46548 0,0.93096 0,1.39645 0,0.6289 0.21249,3.76437 0,4.18935 -1.54382,3.08764 -0.8667,0.43335 -2.79291,1.39646 -0.58879,0.29439 -0.80765,1.10205 -1.39645,1.39645 -0.41634,0.20817 -0.98011,-0.20817 -1.39645,0 -1.17759,0.58879 -1.61531,2.20411 -2.7929,2.7929 -0.41635,0.20817 -0.98011,-0.20817 -1.39646,0 -0.58879,0.2944 -0.77194,1.18828 -1.39645,1.39645 -0.88319,0.2944 -1.90971,-0.29439 -2.7929,0 -4.35878,1.45293 0.46548,0.93097 -1.39645,2.79291 -0.83457,0.83456 -2.79291,-1.5094 -2.79291,1.39645 0,0.46548 0.93097,0 1.39645,0 0.46549,0 1.06731,0.32915 1.39646,0 0.32914,-0.32915 -0.32915,-1.0673 0,-1.39645 0.32914,-0.32915 0.98011,0.20817 1.39645,0 0.58879,-0.2944 0.93097,-0.93097 1.39645,-1.39645 0.46548,-0.46549 1.10205,-0.80766 1.39645,-1.39646 0.20817,-0.41634 -0.32914,-1.0673 0,-1.39645 0.32915,-0.32914 1.06731,0.32915 1.39645,0 0.32915,-0.32914 -0.32914,-1.0673 0,-1.39645 0.32915,-0.32915 0.98011,0.20817 1.39646,0 0.58879,-0.2944 0.80765,-1.10205 1.39645,-1.39645 0.83268,-0.41634 1.96022,0.41634 2.7929,0 4.63145,-4.63145 -1.31659,0.65829 2.79291,-1.39645 0.74582,-0.37291 3.45417,-3.45418 4.18935,-4.18936 0.73518,-0.73518 3.81645,-3.44353 4.18936,-4.18936 0.20817,-0.41634 -0.32915,-1.0673 0,-1.39645 0.32915,-0.32914 1.0673,0.32915 1.39645,0 -2.86277,-17.06158 -30.65352,-0.34369 -26.53259,-23.73968 -0.46548,-0.46549 -1.10205,-0.80766 -1.39645,-1.39645 -0.42398,-0.84796 0.42398,-7.530759 0,-8.378716 -0.2944,-0.588796 -1.18828,-0.77194 -1.39645,-1.396452 -0.2944,-0.883194 0,-1.861936 0,-2.792904 0,-0.465484 0.20817,-0.980111 0,-1.396452 -0.2944,-0.588796 -1.10206,-0.807656 -1.39645,-1.396452 -0.2125,-0.424988 0,-3.560453 0,-4.189356 0,-2.792904 0,-5.585808 0,-8.378712 0,-2.25276 -0.0913,-8.676261 1.39645,-8.378712 2.32742,0.465484 -1.06079,4.632603 -1.39645,6.98226 -0.19749,1.382417 0,2.792904 0,4.189356 0,2.32742 0,4.65484 0,6.98226 0,8.378712 0,16.75742 0,25.13614 0,0.33867 0.0449,4.14444 0,4.18935 -0.32915,0.32915 -1.06731,-0.32914 -1.39646,0 -0.32914,0.32915 0.32915,1.06731 0,1.39645 -0.0449,0.0449 -3.85068,0 -4.18935,0 -0.46549,0 -0.93097,0 -1.39645,0 -0.46549,0 -1.39646,0.46549 -1.39646,0 0,-2.90585 1.95834,-0.56188 2.79291,-1.39645 0.32914,-0.32914 -0.32915,-1.0673 0,-1.39645 0.65829,-0.65829 2.13461,0.65829 2.7929,0 0.32915,-0.32915 -0.32914,-1.0673 0,-1.39645 0.32915,-0.32915 0.93097,0 1.39645,0 15.26271,-1.19376 12.56807,11.59785 12.56807,23.73968 0,0.46549 0,0.93097 0,1.39645 0,0.46549 0.32915,1.06731 0,1.39646 -0.32914,0.32914 -1.0673,-0.32915 -1.39645,0 -0.32915,0.32914 0.32915,1.0673 0,1.39645 -0.32915,0.32915 -1.0673,-0.32915 -1.39645,0 -0.32915,0.32915 0.32915,1.0673 0,1.39645 -0.32915,0.32915 -0.93097,0 -1.39645,0 -0.33868,0 -4.14445,0.0449 -4.18936,0 -0.32915,-0.32915 0.32915,-1.0673 0,-1.39645 -0.32915,-0.32915 -1.06731,0.32915 -1.39645,0 -0.32915,-0.32915 0.32914,-1.06731 0,-1.39645 -0.32915,-0.32915 -0.93097,0 -1.39645,0"
           id="path3767"
           inkscape:connector-curvature="0"
           transform="translate(-142.84595,208.8125)"
           sodipodi:nodetypes="csssssssssssssssscssccsssssssssssscsscssccccsssssscsscssscssssssssssssssssssssssssscssssssssssccssscsssssssssssssssssssccsssccscsscsssssssscsscsscscssssssssssscsssssccsssccccscssscccssssscssssssscccsssssscccsscsssscscsc" />
        <path
           style="fill:#000000;stroke:#000000;stroke-width:1px;stroke-linecap:butt;stroke-linejoin:miter;stroke-opacity:1"
           d="m 660.45739,77.989134 25.57327,83.391086 14.45445,82.2792 c -46.26172,20.33991 -120.4385,-12.52067 -162.33464,7.78317 -4.64198,-20.91079 -14.49187,-21.00928 -0.75321,-58.25842 6.51156,-17.98056 10.54169,-19.30088 29.85245,-23.01448 l 32.363,-4.40804 c 19.25371,-8.38012 19.83261,-21.69481 21.44801,-45.11923 l -0.78897,-45.988929 z"
           id="path3779"
           inkscape:connector-curvature="0"
           sodipodi:nodetypes="cccccccccc"
           transform="translate(-142.84595,208.8125)" />
        <path
           style="fill:#ececec;stroke:#000000;stroke-width:1px;stroke-linecap:butt;stroke-linejoin:miter;stroke-opacity:1"
           d="m 645.91506,51.1295 c -33.40719,5.232636 -27.49653,25.850517 -27.05705,44.327504 l 42.60046,-1.151364 z"
           id="path3781"
           inkscape:connector-curvature="0"
           transform="translate(-142.84595,208.8125)"
           sodipodi:nodetypes="cccc" />
        <path
           style="fill:#e6e6e6;stroke:#000000;stroke-width:1px;stroke-linecap:butt;stroke-linejoin:miter;stroke-opacity:1"
           d="m 643.77917,50.192106 c 14.82508,-10.377557 16.65402,-8.074831 28.51409,2.302727 30.00109,64.118477 38.31583,130.539677 44.61661,194.658157 l -25.31981,0.95396 C 686.61719,189.44473 675.26694,126.53092 643.77917,50.192106 z"
           id="path3777"
           inkscape:connector-curvature="0"
           transform="translate(-142.84595,208.8125)"
           sodipodi:nodetypes="ccccc" />
        <path
           style="fill:none;stroke:#dce3dd;stroke-width:4;stroke-linecap:butt;stroke-linejoin:miter;stroke-opacity:1;stroke-miterlimit:4;stroke-dasharray:none"
           d="m 620.58505,108.122 10.93796,13.81637 -12.08932,13.81636 10.93796,14.39205 -20.14887,7.48387 9.21091,13.81636 -23.60296,-4.60545 2.87841,15.54341 -23.02727,-13.24069"
           id="path3789"
           inkscape:connector-curvature="0"
           transform="translate(-142.84595,208.8125)" />
        <path
           style="fill:none;stroke:#dcdcdc;stroke-width:4;stroke-linecap:butt;stroke-linejoin:miter;stroke-opacity:1;stroke-miterlimit:4;stroke-dasharray:none"
           d="m 573.37914,168.5686 c -1.59686,-0.8959 -2.76522,-2.18954 -4.02977,-3.45409 -0.38379,-0.38379 -0.8503,-0.69976 -1.15137,-1.15136 -0.23801,-0.35703 -0.33766,-0.79435 -0.57568,-1.15137 -0.15053,-0.2258 -0.45432,-0.33295 -0.57568,-0.57568 -0.17163,-0.34327 0.27138,-0.87998 0,-1.15136 -0.13569,-0.13569 -0.43999,0.13569 -0.57568,0 -0.13569,-0.13569 0.0858,-0.40405 0,-0.57569 -0.12137,-0.24272 -0.38379,-0.38378 -0.57568,-0.57568 0,-0.38379 0.12136,-0.78727 0,-1.15136 -0.0858,-0.25745 -0.45432,-0.33295 -0.57569,-0.57568 -0.0858,-0.17164 0,-0.38379 0,-0.57568 0,-0.38379 0,-0.76758 0,-1.15137 0,-1.53515 0,-3.0703 0,-4.60545 0,-1.34326 0,-2.68652 0,-4.02978 0,-0.19189 -0.13568,-0.43999 0,-0.57568 0.13569,-0.13569 0.38379,0 0.57569,0 0.19189,0 0.38378,0 0.57568,0 1.53515,0 3.0703,0 4.60545,0 0.1919,0 0.38379,0 0.57569,0 0.19189,0 0.43999,-0.13569 0.57568,0 0.13569,0.13569 -0.13569,0.43999 0,0.57568 0.13569,0.13569 0.43999,-0.13569 0.57568,0 0.13569,0.13569 -0.0858,0.40405 0,0.57569 0.12136,0.24272 0.45432,0.33295 0.57568,0.57568 0.0858,0.17163 -0.13569,0.43999 0,0.57568 0.13569,0.13569 0.43999,-0.13569 0.57568,0 0.11769,0.11769 -0.11412,1.49879 0,1.72704 0.12137,0.24273 0.45432,0.33296 0.57568,0.57569 0.0858,0.17163 0,0.38378 0,0.57568 0,0.19189 0,0.38379 0,0.57568 0,1.15136 0,2.30273 0,3.45409 0,1.91894 0,3.83788 0,5.75682 0,0.53559 0.10966,2.49462 0,2.87841 -0.33341,1.16695 -0.76757,2.30273 -1.15136,3.45409 z"
           id="path3791"
           inkscape:connector-curvature="0"
           transform="translate(-142.84595,208.8125)" />
        <path
           style="fill:none;stroke:#e2e2e2;stroke-width:4;stroke-linecap:butt;stroke-linejoin:miter;stroke-opacity:1;stroke-miterlimit:4;stroke-dasharray:none"
           d="m 573.37914,168.5686 c 0.76758,0 2.30273,-0.76758 2.30273,0 0,0.76758 -2.30273,0.76758 -2.30273,0 0,-1.22872 1.65151,-1.83646 2.30273,-2.87841 0.0125,-0.02 1.11707,-3.36837 1.15136,-3.45409 0.15936,-0.3984 0.43999,-0.74429 0.57568,-1.15136 0.2502,-0.7506 0.38379,-1.53516 0.57569,-2.30273 1.40396,-5.61586 -0.31034,1.3965 1.15136,-5.18114 0.91971,-4.1387 0.15985,-0.47955 1.72705,-5.18113 0.25019,-0.7506 0.29787,-1.56191 0.57568,-2.30273 0.74948,-1.99863 2.0854,-3.77431 2.87841,-5.75682 1.53216,-3.83042 -0.60202,0.42768 1.72704,-3.45409 0.22077,-0.36794 0.31823,-0.8081 0.57568,-1.15137 0.32566,-0.4342 0.82571,-0.71715 1.15137,-1.15136 0.25745,-0.34327 0.27227,-0.84795 0.57568,-1.15136 0.30341,-0.30341 0.84795,-0.27227 1.15136,-0.57569 0.30341,-0.30341 0.33767,-0.79434 0.57569,-1.15136 0.19189,-0.19189 0.38378,-0.38379 0.57568,-0.57568 0.19189,0 0.43999,0.13569 0.57568,0 0.13569,-0.13569 -0.13569,-0.43999 0,-0.57568 0.13569,-0.13569 0.38379,0 0.57568,0 0.19189,0 0.38379,0 0.57568,0 1.34326,0 2.68652,0 4.02978,0 0.19189,0 0.38378,0 0.57568,0 0.19189,0 0.40404,-0.0858 0.57568,0 0.24273,0.12136 0.38379,0.38379 0.57568,0.57568 0.1919,0.19189 0.38379,0.38379 0.57568,0.57568 0.1919,0.1919 0.48987,0.31823 0.57569,0.57568 0.18204,0.54614 0,1.15137 0,1.72705 0,1.34326 0,2.68651 0,4.02977 0,2.11084 0,4.22167 0,6.3325 0,0.20845 0.10083,3.05075 0,3.45409 -0.10407,0.41628 -0.38379,0.76758 -0.57569,1.15137 -0.19189,0.38379 -0.33766,0.79434 -0.57568,1.15136 -0.15053,0.2258 -0.42515,0.34988 -0.57568,0.57568 -0.23802,0.35703 -0.38379,0.76758 -0.57568,1.15137 -0.57568,1.15136 -1.15137,2.30272 -1.72705,3.45409 -0.19189,0.38379 -0.31823,0.80809 -0.57568,1.15136 -0.48848,0.65131 -1.27544,1.04964 -1.72705,1.72705 -0.23801,0.35702 -0.31822,0.80809 -0.57568,1.15136 -0.48848,0.65131 -1.15136,1.15136 -1.72704,1.72705 -0.1919,0.19189 -0.38379,0.38378 -0.57568,0.57568 -0.1919,0.19189 -0.31823,0.48986 -0.57569,0.57568 -0.36409,0.12136 -0.80809,-0.17163 -1.15136,0 -0.17164,0.0858 0.13569,0.43999 0,0.57568 -0.27138,0.27138 -0.80809,-0.17163 -1.15136,0 -0.24273,0.12137 -0.33296,0.45432 -0.57569,0.57568 -0.34327,0.17164 -0.80809,-0.17163 -1.15136,0 -0.24273,0.12137 -0.31823,0.48987 -0.57568,0.57569 -0.36409,0.12136 -0.76758,0 -1.15137,0 -0.19189,0 -0.40404,-0.0858 -0.57568,0 -0.24273,0.12136 -0.31823,0.48986 -0.57568,0.57568 -0.26353,0.0878 -2.55709,0 -2.87841,0 -1.72704,0 -3.45409,0 -5.18114,0"
           id="path3793"
           inkscape:connector-curvature="0"
           transform="translate(-142.84595,208.8125)" />
      </g>
      <path
         style="fill:#000000;fill-opacity:1;stroke:none;display:inline;filter:url(#filter3933)"
         d="m -107.08106,380.69862 38.090144,-0.955 c 22.04691,55.98488 52.91141,138.62583 475.227476,126.1092 271.56514,-3.57512 410.17443,-39.36727 427.79463,-124.58826 -14.419,-52.67877 -48.221,-107.5909 -426.70985,-119.51325 -433.677896,1.19895 -461.084836,69.2567 -476.371276,117.78038 l -38.031124,0.23876 1.16424,-147.46218 955.44061,8.41798 -1.403,270.77832 0,9.82098 -959.6496,4.20899 z"
         id="path3809"
         inkscape:connector-curvature="0"
         sodipodi:nodetypes="ccccccccccccc"
         transform="matrix(1.0157557,0,0,0.85358927,12.033592,24.629695)" />
      <path
         transform="matrix(1.0157557,0,0,0.85358927,12.033592,24.629695)"
         sodipodi:nodetypes="ccccccccccccc"
         inkscape:connector-curvature="0"
         id="path3837"
         d="m -107.08106,380.69862 38.090144,-0.955 c 22.04691,55.98488 52.91141,138.62583 475.227476,126.1092 271.56514,-3.57512 410.17443,-39.36727 427.79463,-124.58826 -14.419,-52.67877 -48.221,-107.5909 -426.70985,-119.51325 -433.677896,1.19895 -461.084836,69.2567 -476.371276,117.78038 l -38.031124,0.23876 1.16424,-147.46218 955.44061,8.41798 -1.403,270.77832 0,9.82098 -959.6496,4.20899 z"
         style="fill:#000000;fill-opacity:1;stroke:none;display:inline;filter:url(#filter3933)" />
      <path
         style="fill:#000000;fill-opacity:1;stroke:none;display:inline;filter:url(#filter3933)"
         d="m -107.08106,380.69862 38.090144,-0.955 c 22.04691,55.98488 52.91141,138.62583 475.227476,126.1092 271.56514,-3.57512 410.17443,-39.36727 427.79463,-124.58826 -14.419,-52.67877 -48.221,-107.5909 -426.70985,-119.51325 -433.677896,1.19895 -461.084836,69.2567 -476.371276,117.78038 l -38.031124,0.23876 1.16424,-147.46218 955.44061,8.41798 -1.403,270.77832 0,9.82098 -959.6496,4.20899 z"
         id="path3839"
         inkscape:connector-curvature="0"
         sodipodi:nodetypes="ccccccccccccc"
         transform="matrix(1.0157557,0,0,0.85358927,12.033592,24.629695)" />
    </g>
  </g>
</svg>
